<svg clip-rule="evenodd" stroke-linecap="round" stroke-linejoin="round" stroke-miterlimit="10" viewBox="0 0 600 400" xmlns="http://www.w3.org/2000/svg"><path d="m0 0h600v400h-600z" fill="none"/><g><g><path d="m540.197 297.019c-4.496 1.843-9.275 3.244-14.144 4.175-.47.091-.94.182-1.419.252-1.793.329-3.59.584-5.393.765l-.022.009c-.509.057-1.05.101-1.568.135-18.307 1.568-35.841-3.396-40.764-15.407l-.009-.022-.389-1.134c-2.97-8.855 1.263-19.571 9.267-29.195l.022-.009c.44-.536.902-1.08 1.364-1.625l.021-.009c4.387-4.894 9.718-9.464 15.601-13.246l1.205-.773.022-.009c3.499-2.17 7.179-4.084 10.914-5.616 2.628-1.077 5.175-1.918 7.624-2.566.387-.109.783-.195 1.179-.28 1.866-.461 3.69-.777 5.484-.98.392-.034.775-.089 1.176-.102 7.121-.636 13.386.601 18.645 3.342.376.176.74.382 1.112.61 6.058 3.453 10.668 8.946 13.507 15.748l.433 1.116c2.844 7.435 3.14 15.153.49 22.303-.136.41-.281.8-.456 1.176-1.738 4.24-4.542 8.231-8.443 11.834-.273.263-.566.536-.891.796-2.051 1.805-4.43 3.491-7.093 5.039-.342.217-.694.411-1.045.606-1.988 1.094-4.128 2.123-6.43 3.067z" fill="#ffcb01"/><path d="m546.893 260.81 17.205 14.867c.175-.376.32-.765.456-1.176l-16.493-14.245c7.337-3.516 12.901-6.405 16.003-8.058l-.432-1.116c-2.973 1.599-8.362 4.418-15.482 7.843l1.975-23.591c-.373-.228-.737-.434-1.113-.61l-2.095 24.784c-4.714 2.237-10.133 4.737-16.091 7.282l-.458-35.407c-.401.013-.784.068-1.176.102l.47 35.808c-1.502.666-3.044 1.299-4.599 1.962l-1.355-36.79c-.396.087-.792.173-1.179.281l1.361 36.99c-6.746 2.791-14.018 5.596-21.645 8.215l1.724-37.012-1.205.773-1.719 36.654c-5.619 1.949-11.41 3.79-17.28 5.435-.4.139-.808.256-1.226.351-2 .566-4.031 1.12-6.049 1.643l.389 1.134c6.171-1.592 12.284-3.387 18.261-5.331l22.512 20.76c.518-.035 1.058-.079 1.568-.135l-22.806-21.045c1.704-.546 3.356-1.097 5.011-1.699l.022-.009 23.188 21.978c.479-.069.949-.16 1.419-.252l-23.356-22.138c7.597-2.633 14.87-5.437 21.615-8.227l.022-.009 22.291 23.133c.352-.195.704-.39 1.046-.606l-22.165-23.008-.022.009.022-.009c1.576-.671 3.118-1.303 4.621-1.97l24.636 19.939c.325-.26.619-.533.891-.797l-24.32-19.663c5.742-2.457 10.973-4.857 15.558-7.04z" fill="#fff"/></g><g><path d="m532.941 246.763-.509.963c-1.252 2.322-2.646 4.642-4.131 6.911-.186.305-.389.6-.592.895-3.221 4.834-6.907 9.47-10.832 13.576-.279.303-.566.577-.835.862-11.096 11.256-24.058 18.113-34.328 13.034-.139-.051-.287-.129-.416-.197-.186-.099-.389-.206-.564-.323-10.333-5.99-15.134-23.243-14.031-40.593.011-.468.05-.945.097-1.393.593-7.387 2.27-14.72 5.069-21.175.131-.381.288-.724.475-1.076.386-.909.818-1.77 1.268-2.621.392-.74.802-1.471 1.23-2.145.166-.314.352-.619.555-.914 4.666-7.386 10.64-11.782 17.124-13.918.359-.142.727-.255 1.113-.359 9.044-2.629 18.925-1.024 27.554 2.949.324.148.649.297.973.444.536.284 1.083.549 1.619.834 9.346 4.946 14.805 11.507 15.547 20.358.048.357.068.723.068 1.078.113 2.429-.115 5.009-.704 7.778-.063.345-.146.68-.239 1.034-1.014 4.248-2.835 8.898-5.511 13.998z" fill="#1b90fb"/><path d="m511.101 219.095 28.296 4.858c-.001-.356-.02-.722-.069-1.078l-27.624-4.74c4.332-7.113 8.1-12.89 10.458-16.452-.324-.147-.649-.296-.973-.444-2.378 3.599-6.136 9.357-10.438 16.414l-17.115-19.364c-.386.104-.754.217-1.113.359l17.664 19.938c-3.758 6.208-7.915 13.39-11.92 20.96l-22.868-26.981c-.204.295-.389.599-.555.915l22.904 27.046c-.783 1.481-1.558 2.99-2.333 4.499l-23.07-26.779c-.186.352-.343.695-.474 1.075l23.034 26.713c-2.613 5.251-5.106 10.589-7.307 15.868l-20.796-21.406c-.048.448-.087.925-.097 1.393l20.456 21.061c-2.779 6.774-5.039 13.42-6.426 19.532.176.117.379.225.564.323.129.068.278.147.416.197 1.341-6.114 3.592-12.787 6.381-19.58l27.947 6.546c.269-.285.557-.559.835-.862l-28.385-6.659c2.201-5.279 4.685-10.646 7.335-15.924l31.881 9.007c.203-.295.406-.59.591-.895l-31.992-9.065c.775-1.509 1.549-3.018 2.343-4.518l33.78 6.671.509-.962-33.77-6.69c2.635-4.979 5.349-9.797 7.963-14.289l31.319 6.98c.093-.354.176-.69.239-1.035l-31.001-6.907c1.171-1.984 2.319-3.887 3.411-5.725z" fill="#fff"/></g><g><path d="m523.179 340.082c-5.794 2.349-11.995 3.431-18.096 3.382-.498.016-1.015-.013-1.522-.02-3.072-.109-6.1-.5-9.018-1.149l-.023.009c-.617-.148-1.212-.306-1.83-.453-11.129-2.95-20.472-9.679-24.254-19.008-.185-.456-.338-.898-.491-1.341-.134-.397-.269-.794-.348-1.187-2.789-9.758.978-20.051 8.569-28.576l.022-.009c.4-.455.787-.877 1.196-1.308l.022-.009c4.643-4.858 10.492-9.037 17.072-12.13.401-.189.802-.379 1.213-.546.621-.304 1.236-.554 1.874-.814 3.604-1.462 7.164-2.507 10.634-3.117.393-.08.785-.16 1.187-.216 4.417-.703 8.657-.723 12.591-.061.416.044.842.11 1.277.2 2.772.549 5.418 1.442 7.85 2.66.426.199.838.43 1.251.661 5.605 3.146 10.039 8.12 12.712 14.712.083.205.167.41.227.624.158.388.314.775.44 1.15 1.928 5.673 2.345 11.745 1.318 17.66-.08.457-.16.914-.263 1.382-.652 3.106-1.743 6.178-3.219 9.088-.185.394-.379.765-.597 1.146-2.447 4.445-5.855 8.484-10.199 11.787-.319.262-.638.524-.975.741-2.565 1.86-5.45 3.456-8.62 4.742z" fill="#61dda0"/><path d="m531.961 299.785 14.828 12.791c.103-.467.183-.925.263-1.382l-13.878-11.955c4.598-2.024 8.834-3.955 12.56-5.705-.126-.374-.283-.761-.441-1.149-3.748 1.759-8.008 3.7-12.627 5.732l-.312-21.069c-.412-.232-.824-.463-1.25-.662l.372 22.267c-1.911.854-3.922 1.724-5.957 2.602l-2.266-27.529c-.435-.089-.86-.155-1.277-.199l2.334 28.218c-4.547 1.951-9.314 3.883-14.154 5.768l-.77-33.925c-.403.057-.795.136-1.188.216l.74 34.177c-4.11 1.587-8.294 3.125-12.423 4.534l-.825-34.78c-.411.167-.812.356-1.214.546l.825 34.647c-6.069 2.063-12.075 3.888-17.74 5.31-.406.111-.822.2-1.238.289-3.017.745-5.935 1.345-8.73 1.788l.349 1.186c2.817-.452 5.781-1.069 8.83-1.802l.023-.009c.429-.121.844-.21 1.283-.308 2.164-.559 4.364-1.159 6.622-1.81l18.858 25.872c.507.007 1.023.036 1.522.02l-19.147-26.258c7.639-2.249 15.61-5.057 23.42-8.066l22.443 26.197c.338-.216.656-.478.975-.741l-22.197-25.924c4.863-1.893 9.652-3.835 14.222-5.796l18.176 19.933c.218-.38.412-.752.598-1.146l-17.565-19.277c2.034-.878 4.022-1.738 5.956-2.601z" fill="#dbfeed"/></g></g><g><path d="m123.89 112.271 15.189 15.191v10.786l-15.189-15.191-15.189 15.191v-10.786z" fill="#f3f9ff"/><path d="m123.89 93.2827 15.189 15.1913v10.785l-15.189-15.19-15.189 15.19v-10.785z" fill="#e7f4fe"/><path d="m123.89 74.2952 15.189 15.1902v10.7866l-15.189-15.1916-15.189 15.1916v-10.7866z" fill="#dceefd"/><path d="m123.89 55.3067 15.189 15.1902v10.7862l-15.189-15.1912-15.189 15.1912v-10.7862z" fill="#d0e7fe"/></g><g><g><path d="m492.433 60.8947v289.8863c0 2.486-2.016 4.502-4.501 4.502h-323.557c-2.485 0-4.501-2.016-4.501-4.502v-289.8863z" fill="#f3f9ff"/><path d="m492.433 42.4175v18.4781h-332.559v-18.4781c0-4.2835 3.472-7.7558 7.755-7.7558h317.048c4.284-.0009 7.756 3.4723 7.756 7.7558z" fill="#224380"/><path d="m178.798 48.2468c0-2.7098 2.196-4.9065 4.905-4.9065 2.71 0 4.906 2.1967 4.906 4.9065 0 2.7097-2.196 4.9064-4.906 4.9064-2.709 0-4.905-2.1967-4.905-4.9064z" fill="#ffcb01"/><path d="m196.264 48.2468c0-2.7098 2.196-4.9065 4.905-4.9065 2.71 0 4.906 2.1967 4.906 4.9065 0 2.7097-2.196 4.9064-4.906 4.9064-2.709 0-4.905-2.1967-4.905-4.9064z" fill="#44d690"/><path d="m159.874 60.8947h331.917v7.3993h-331.917z" fill="#dceefd"/></g><g><g><path d="m463.003 233.746v92.422c0 4.979-4.032 9.003-9.001 9.003h-107.471c-4.969 0-9.002-4.024-9.002-9.003v-92.422c0-4.978 4.033-9.002 9.002-9.002h107.471c4.969 0 9.001 4.024 9.001 9.002z" fill="#dae7ff"/><path d="m463.003 229.245v92.422c0 4.978-4.032 9.002-9.001 9.002h-107.471c-4.969 0-9.002-4.024-9.002-9.002v-92.422c0-4.978 4.033-9.003 9.002-9.003h107.471c4.969 0 9.001 4.025 9.001 9.003z" fill="#fff"/></g><path d="m304.311 332.02h-9.002v-2.701h9.002zm-18.004 0h-9.001v-2.701h9.001zm-18.003 0h-9.002v-2.701h9.002zm-18.003 0h-9.002v-2.701h9.002zm-18.004 0h-9.001v-2.701h9.001zm-18.003 0h-9.002v-2.701h9.002zm-18.284-.255c-3.453-.78-6.236-3.236-7.443-6.568l2.539-.919c.879 2.425 2.985 4.286 5.499 4.854zm117.453-3.165-2.005-1.81c1.268-1.406 1.967-3.226 1.967-5.123v-2.395h2.701v2.395c0 2.568-.947 5.03-2.663 6.933zm-122.812-12.802h-2.701v-9.003h2.701zm125.475-5.529h-2.701v-9.002h2.701zm-125.475-12.477h-2.701v-9.002h2.701zm125.475-5.528h-2.701v-9.003h2.701zm-125.475-12.477h-2.701v-9.003h2.701zm125.475-5.528h-2.701v-9.003h2.701zm-125.475-12.477h-2.701v-9.003h2.701zm125.475-5.529h-2.701v-9.003h2.701zm-125.475-12.477h-2.701v-9.002h2.701zm125.475-5.528h-2.701v-9.003c0-1.791-.631-3.533-1.777-4.904l2.073-1.732c1.551 1.857 2.405 4.213 2.405 6.636zm-124.915-11.884-2.502-1.016c1.334-3.283 4.208-5.632 7.686-6.282l.496 2.655c-2.532.473-4.709 2.252-5.68 4.643zm113.443-4.771h-9.002v-2.701h9.002zm-18.004 0h-9.001v-2.701h9.001zm-18.003 0h-9.002v-2.701h9.002zm-18.003 0h-9.002v-2.701h9.002zm-18.004 0h-9.001v-2.701h9.001zm-18.003 0h-9.002v-2.701h9.002z" fill="#dae7ff"/><g><path d="m314.775 97.5086v92.4214c0 4.979-4.032 9.003-9.001 9.003h-107.472c-4.969 0-9.001-4.024-9.001-9.003v-92.4214c0-4.9785 4.032-9.0027 9.001-9.0027h107.472c4.969 0 9.001 4.0242 9.001 9.0027z" fill="#dae7ff"/><path d="m313.973 193.636c-1.413 3.124-4.546 5.302-8.2 5.302h-107.472c-4.968 0-9.001-4.033-9.001-9.002v-92.431c0-3.6551 2.178-6.788 5.302-8.2014-.504 1.1343-.801 2.3767-.801 3.7001v95.1313c0 3.475 2.826 6.302 6.301 6.302h42.965c.45 1.341.819 2.863 1.179 4.492h34.477c-1.774-1.287-4.627-2.565-7.499-4.492h39.05c1.323 0 2.574-.297 3.699-.801z" fill="#c3d3f3"/></g><g><path d="m463.003 102.01v92.422c0 4.978-4.032 9.002-9.001 9.002h-107.471c-4.969 0-9.002-4.024-9.002-9.002v-92.422c0-4.9785 4.033-9.0027 9.002-9.0027h107.471c4.969 0 9.001 4.0242 9.001 9.0027z" fill="#dae7ff"/><path d="m463.003 163.797h-125.472v-66.2884c0-4.9722 4.03-9.0027 9.001-9.0027h107.47c4.971 0 9.001 4.0305 9.001 9.0027z" fill="#fff"/><path d="m355.829 148.739c-.72 0-1.307-.563-1.307-1.255 0-.691.587-1.255 1.307-1.255 3.753 0 6.121-3.862 8.858-8.332 3.89-6.353 8.725-14.254 19.896-14.254 7.281 0 11.457 2.554 15.5 5.024 4.218 2.578 8.205 5.014 15.869 5.014 20.769 0 22.933-11.269 24.67-20.322.965-5.039 1.878-9.794 6.698-9.794.72 0 1.307.563 1.307 1.255 0 .691-.587 1.255-1.307 1.255-2.405 0-3.073 2.24-4.126 7.739-1.71 8.912-4.299 22.376-27.242 22.376-8.424 0-12.922-2.75-17.272-5.407-3.9-2.382-7.581-4.631-14.097-4.631-9.675 0-13.907 6.916-17.644 13.014-3.013 4.922-5.862 9.573-11.11 9.573z" fill="#dceefd"/><path d="m355.829 148.739c-.72 0-1.307-.563-1.307-1.255 0-.691.587-1.255 1.307-1.255 3.681 0 6.056-4.74 8.808-10.235 3.879-7.739 8.704-17.371 19.946-17.371 7.424 0 11.631 3.857 15.699 7.588 4.192 3.843 8.149 7.47 15.669 7.47 10.67 0 15.566-9.514 19.881-17.91 3.369-6.549 6.275-12.205 11.487-12.205.72 0 1.307.563 1.307 1.255 0 .691-.587 1.255-1.307 1.255-3.585 0-6.163 5.01-9.144 10.808-4.422 8.603-9.925 19.308-22.224 19.308-8.567 0-13.3-4.338-17.476-8.166-3.865-3.544-7.52-6.892-13.892-6.892-9.599 0-13.847 8.476-17.594 15.95-3.001 5.994-5.835 11.655-11.16 11.655z" fill="#7266d5"/><path d="m353.215 147.484c0-1.386 1.171-2.51 2.614-2.51 1.444 0 2.614 1.124 2.614 2.51 0 1.387-1.17 2.51-2.614 2.51-1.443 0-2.614-1.123-2.614-2.51z" fill="#2ccd7f"/><path d="m413.338 134.936c0-1.387 1.17-2.51 2.614-2.51 1.443 0 2.614 1.123 2.614 2.51 0 1.386-1.171 2.509-2.614 2.509-1.444 0-2.614-1.123-2.614-2.509z" fill="#2ccd7f"/><path d="m442.092 104.82c0-2.772 2.34-5.0193 5.228-5.0193 2.887 0 5.228 2.2473 5.228 5.0193s-2.341 5.019-5.228 5.019c-2.888 0-5.228-2.247-5.228-5.019z" fill="#d0f4e3"/><path d="m443.399 104.82c0-2.08 1.755-3.765 3.921-3.765 2.165 0 3.921 1.685 3.921 3.765 0 2.079-1.756 3.765-3.921 3.765-2.166 0-3.921-1.686-3.921-3.765z" fill="#99e9c2"/><path d="m444.706 104.82c0-1.387 1.17-2.51 2.614-2.51s2.614 1.123 2.614 2.51c0 1.386-1.17 2.51-2.614 2.51s-2.614-1.124-2.614-2.51z" fill="#2ccd7f"/><path d="m454.002 198.933h-107.47c-4.971 0-9.001-4.031-9.001-9.003v-26.133h125.472v26.133c0 4.972-4.03 9.003-9.001 9.003z" fill="#7266d5"/><g fill="#fff"><path d="m363.221 178.855h-14.783c-.248 0-.45-.202-.45-.45v-4.119c0-.247.202-.45.45-.45h14.783c.248 0 .451.203.451.45v4.119c0 .248-.203.45-.451.45z"/><path d="m378.905 188.894h-30.468c-.247 0-.45-.202-.45-.45v-4.119c0-.247.203-.45.45-.45h30.468c.248 0 .45.203.45.45v4.119c0 .248-.202.45-.45.45z"/></g></g></g></g><g><path d="m110.251 209.896s1.063-.921 1.409-1.853c.347-.933 1.134-5.224 3.41-7.754 2.277-2.529 10.005-.329 9.85.41-.347 1.652-5.179-.536-7.007 3.086-.487.966.233 2.158.725 2.03 1.308-.342 2.368-3.195 3.342-2.875.738.242.219 5.123-2.164 6.657-1.682 1.082-5.599 3.247-7.015 5.459-1.415 2.214-3.724-3.783-2.55-5.16z" fill="#f1b282"/><path d="m108.976 208.557c.355-.268.86-.2 1.13.154l4.94 6.464c.302.395.232.959-.157 1.269-3.934 3.137-23.2882 18.373-27.4883 17.892l-3.1146-11.713c-.0009-.001 18.4169-9.321 24.6899-14.066z" fill="#f0b701"/><path d="m225.016 144.42c5.675.469 9.24 6.39 11.173 8.19 1.932 1.799 2.99 7.237 7.765 11.571 4.715 4.28-8.727 2.573-8.727 2.573l-4.698-5.909s-.865-1.738-4.76.612c-2.66 1.606-5.077-1.291-6.854-4.674-.371.152-.776.226-1.183.138-1-.218-.904-2.942-.758-4.549-.691-1.844-1.08-3.216-1.08-3.216-.112-3.428 3.446-5.205 9.122-4.736z" fill="#f1b282"/><path d="m241.805 184.623s-5.869 4.344-11.928 9.045c-7.257 5.63-13.408 8.571-17.12 12.63-.876.958.578 5.533-1.174 7.07-1.751 1.537-8.603 2.535-8.761-1.677-.108-2.885-.662-6.421 2.822-8.399 1.285-.729 8.369-6.899 12.161-9.936 3.791-3.038 14.05-13.873 14.05-13.873s7.716-.404 9.95 5.14z" fill="#e0a277"/><path d="m237.487 156.477c-1.727-.28-1.168-4.466-4.392-4.403-2.512.049-1.619 1.746-4.398 1.16-2.78-.586-1.875-6.147-11.321-4.529-4.183.717-4.667-3.908-3.142-7.171 3.283-7.019 16.785-10.748 21.523-3.456 5.075 7.811 3.456 18.679 1.73 18.399z" fill="#102b5e"/><path d="m271.224 194.437h-28.157c-.819-2.458-1.89-4.303-3.565-5.068-.855-.388-1.728-.712-2.583-1.027-1.089-.387-2.161-.747-3.151-1.197-.288-.126-.567-.261-.837-.405-.477-.261-.927-.549-1.341-.874-1.08-.846-1.945-2.34-2.503-4.204-.099-.315-.189-.648-.261-.981-.027-.117-.054-.225-.063-.342-.567-2.674-.558-5.87.243-8.94.693-2.71 1.99-5.311 4.051-7.382 1.422-1.441 3.214-2.62 5.419-3.385.684-.243 1.386-.396 2.106-.459 1.063-.117 2.161-.045 3.268.189 3.115.639 6.364 2.566 9.317 5.555 3.943 3.979 7.372 9.83 9.326 17.015 1.548 5.689 5.149 9.101 8.731 11.505z" fill="#2ccd7f"/><path d="m234.854 134.415s-.168-6.263 8.776-6.263c18.171 0 10.938 16.938 11.202 25.759.265 8.822 4.498 8.205 4.675 11.292.176 3.088-17.201.617-18.435-11.38-1.235-11.997-2.116-17.524-4.674-16.496-2.559 1.027-1.544-2.912-1.544-2.912z" fill="#102b5e"/><path d="m231.024 132.132c-2.544 1.211 3.342 11.798 6.91 10.415s-3.592-11.994-6.91-10.415z" fill="#2ccd7f"/><path d="m212.18 231.199-106.263 16.059c-4.916.742-9.503-2.641-10.2456-7.557l-13.8086-91.39c-.7426-4.917 2.6402-9.504 7.556-10.247l106.2632-16.059c4.916-.743 9.503 2.64 10.246 7.557l13.808 91.39c.743 4.916-2.64 9.504-7.556 10.247z" fill="#1b90fb"/><path d="m136.447 159.948 8.693-1.313 1.763 11.67-8.692 1.314z" fill="#9fd1fd"/><path d="m138.21 171.619 8.693-1.314 6.171 40.847-8.693 1.313z" fill="#1277d7"/><path d="m123.409 161.919 8.692-1.314 3.526 23.341-8.692 1.313z" fill="#9fd1fd"/><path d="m126.935 185.26 8.692-1.314 4.408 29.176-8.692 1.313z" fill="#1277d7"/><path d="m110.371 163.889 8.692-1.314 5.29 35.011-8.693 1.314z" fill="#9fd1fd"/><path d="m115.66 198.9 8.693-1.314 2.644 17.506-8.692 1.313z" fill="#1277d7"/><path d="m174.604 154.182 8.693-1.313 7.934 52.516-8.693 1.314z" fill="#fff"/><path d="m174.604 154.182 8.693-1.313 7.934 52.516-8.693 1.314z" fill="#9fd1fd"/><path d="m161.566 156.152 8.693-1.313.712 4.716-8.693 1.314z" fill="#9fd1fd"/><path d="m162.279 160.87 8.692-1.314 7.222 47.8-8.693 1.314z" fill="#1277d7"/><path d="m148.528 158.123 8.693-1.314 1.43 9.466-8.693 1.314z" fill="#9fd1fd"/><path d="m149.958 167.589 8.693-1.313 6.504 43.051-8.693 1.313z" fill="#1277d7"/><path d="m97.1072 354.117 1.0892 5.076s1.5204 2.492-2.9067 2.87c-4.427.378-4.8231-1.631-4.8231-1.631s-1.2953-6.101-1.2413-6.533 7.8819.218 7.8819.218z" fill="#f1b282"/><path d="m98.1262 357.779c.4474-.49 1.1765-.595 1.7454-.252 1.9904 1.2 6.2224 3.745 6.4784 3.841 2.252.841 8.266 2.163 8.264 4.428-.004 2.374-17.4348 1.727-23.8143 1.411-1.2936-.064-2.3161-1.123-2.3323-2.418l-.0658-5.249c-.0036-.267.136-.516.3655-.653.2296-.136.5149-.14.748-.009 1.0676.597 2.7267 1.373 4.247 1.443 1.6906.074 3.4198-1.507 4.3641-2.542z" fill="#102b5e"/><path d="m50.5936 332.229-3.7888 3.548s-1.7481 2.292-4.3523-1.308c-2.6042-3.601-.6319-4.674-.6319-4.674s4.5611-4.254 4.9599-4.429c.3979-.177 3.8131 6.863 3.8131 6.863z" fill="#f1b282"/><path d="m47.5853 335.419c.6508.132 1.1162.702 1.1153 1.366-.0027 2.324-.0036 7.263.0459 7.532.4393 2.364 2.4043 8.2.4618 9.364-2.0362 1.22-10.4609-14.056-13.4756-19.687-.6112-1.141-.2304-2.564.8714-3.244l4.4648-2.761c.2269-.14.5122-.149.7481-.022.2358.126.3862.369.3943.635.0369 1.223.2268 3.045.9514 4.385.803 1.488 3.0498 2.155 4.4226 2.432z" fill="#102b5e"/><path d="m88.885 272.96s8.7461 17.656 10.3655 26.565c1.5815 8.702-29.4959 28.413-47.6847 34.619-.7408.253-1.5582-.056-1.9435-.738l-3.9418-7.237c-.4591-.812-.2106-1.841.5689-2.354l33.0803-27.368-7.9359-23.488h17.4912z" fill="#0b224e"/><path d="m62.4858 268.426c-.3241 10.852 10.3276 34.501 11.3988 45.029.9245 9.086 12.7455 36.93 14.4162 42.564.235.792 1.0334 1.276 1.8436 1.115l7.1554-1.562c.5158-.103.965-.416 1.2386-.864.2737-.449.3466-.992.2017-1.498-1.6275-5.691-6.8179-29.646-7.7496-34.572-1.1333-5.993.4861-31.758-2.9156-44.058-3.4009-12.3-25.5891-6.154-25.5891-6.154z" fill="#224380"/><path d="m107.69 246.708s4.525-4.142 7.065-5.329c2.54-1.188 5.372-2.311 5.654-1.661s-4.648 4.491-4.648 4.491 2.208 1.093 4.576-.273c2.367-1.366 4.02-2.041 4.422-1.624.403.416-4.878 6.967-7.952 7.484-3.074.516-8.833 2.395-8.833 2.395z" fill="#f1b282"/><path d="m93.4534 200.725c.9749 2.504-.0576 3.605.0882 4.616s1.1081 3.164.9515 4.081c-.1557.917-1.5771.808-2.1595 1.945-.5833 1.136-.1621 2.815-1.5015 3.882-1.3395 1.068-5.3209.101-5.3686 1.341-.0468 1.241 1.4448 6.124 1.4448 6.124l-11.4619-1.733s2.2081-6.373 1.9993-9.196c-.2089-2.822.2565-12.983 3.9985-13.597 3.742-.612 10.974-.12 12.0092 2.537z" fill="#f1b282"/><path d="m83.9377 192.817c5.5639.569 8.2293.383 8.4328-1.612 1.7562.182 4.5413 3.427 4.1741 7.02-.812 7.941-11.0001 3.465-11.4511 7.873-.0063.014.3961 5.725 1.686 6.679 1.2909.956 4.3244-1.563 5.5001-1.494.9523.056 3.9553 9.551-3.0507 8.834-7.006-.716-4.4576-14.23-8.7443-14.669-2.1775-.223-.9397 8.952-3.9319 8.646-2.7473-.281-5.5063-4.256-4.7709-11.449.8021-7.829 7.2203-10.333 12.1559-9.828z" fill="#0b224e"/><path d="m71.2318 274.905c-6.8026-.972-10.2484.472-11.8678-6.818-1.6194-7.289 3.9319-16.021 5.0652-23.472 2.1055-18.789 9.7174-27.374 12.3089-27.86 1.6879-.317 5.78 2.148 8.4283 3.905 1.6581 1.1 2.9499 2.698 3.6385 4.565 4.6863 12.703-.081 23.148-.081 30.087 0 2.256 2.3557 15.679 2.903 17.649.9371 3.39-13.6807 2.903-20.3951 1.944z" fill="#ffcb01"/><path d="m90.1624 265.324c-5.7521-1.44-16.7162-4.735-19.1286-9.426-3.3127-6.427 5.1759-21.435 5.1759-21.435-2.5654 11.902-1.3592 25.001 8.1286 25.613 1.4402.09 3.0696.054 4.8159-.09.09.333.18.666.279.999z" fill="#f0b701"/><path d="m111.901 254.896c-.46.383-24.0017 8.557-32.0375 3.966s-4.1083-24.401-4.1083-24.401l11.145 1.978-.3016 10.856s13.6564-.522 18.7644-1.858c.785-.206 1.615.127 2.039.821 1.574 2.575 4.964 8.251 4.499 8.638z" fill="#ffcb01"/><path d="m278.723 198.929h-34.477c-.36-1.629-.729-3.151-1.179-4.492h28.157c2.872 1.927 5.725 3.205 7.499 4.492z" fill="#1eaf69"/><path d="m228.823 180.681c.535 2.32 1.507 4.199 2.767 5.188 2.133 1.674 5.107 2.224 7.91 3.505 3.812-3.655 3.028-14.168 3.028-14.168-5.051-2.401-10.136 1.475-13.705 5.475z" fill="#1eaf69"/><path d="m237.135 183.806s-6.38 3.551-12.995 7.431c-7.922 4.648-14.401 6.771-18.604 10.318-.992.838-1.876 6.809-3.811 8.107-1.936 1.299-9.597-.227-7.107-3.629 4.996-6.824-.897-1.953-1.132-2.55-.803-2.045 2.733-4.745 5.383-5.826 1.367-.557 9.188-5.762 13.338-8.286 4.152-2.524 15.722-11.946 15.722-11.946s7.705.595 9.206 6.381z" fill="#f1b282"/><path d="m235.379 165.135c-5.119.209-8.096 11.49-10.494 13.402s6.912 9.682 8.15 9.04c2.903-1.503 8.782-7.056 9.954-11.685 1.171-4.628-3.889-10.909-7.61-10.757z" fill="#2ccd7f"/></g><g><path d="m206.076 336.992h-54.267s-.485 30.539 27.133 30.539c27.619 0 27.134-30.539 27.134-30.539z" fill="#c3d3f3"/><path d="m151.809 336.992c0-4.817 12.148-8.723 27.133-8.723 14.986 0 27.134 3.906 27.134 8.723s-12.148 8.723-27.134 8.723c-14.985 0-27.133-3.906-27.133-8.723z" fill="#dae7ff"/><path d="m178.942 340.137s-20.625-33.839-12.963-62.551c0 0 14.397 26.34 12.963 62.551z" fill="#2ccd7f"/><path d="m178.942 340.137s1.821-39.589 24.228-59.107c-.001-.001-2.793 29.888-24.228 59.107z" fill="#2ccd7f"/><path d="m178.942 343.863s-9.161-38.557 6.998-63.496c0 .001 5.554 29.501-6.998 63.496z" fill="#1eaf69"/></g></svg>