<?xml version="1.0" encoding="UTF-8" standalone="no"?>
<!DOCTYPE svg PUBLIC "-//W3C//DTD SVG 1.1//EN" "http://www.w3.org/Graphics/SVG/1.1/DTD/svg11.dtd">
<!-- Created with Vectornator (http://vectornator.io/) -->
<svg height="100%" stroke-miterlimit="10" style="fill-rule:nonzero;clip-rule:evenodd;stroke-linecap:round;stroke-linejoin:round;" version="1.1" viewBox="0 0 600 400" width="100%" xml:space="preserve" xmlns="http://www.w3.org/2000/svg" xmlns:vectornator="http://vectornator.io" xmlns:xlink="http://www.w3.org/1999/xlink">
<defs/>
<g id="联合工作" vectornator:layerName="联合工作">
<path d="M0 0L600 0L600 0L600 400L600 400L0 400L0 400L0 0L0 0Z" fill="#ffffff" fill-opacity="0" fill-rule="evenodd" opacity="1" stroke="none"/>
<g opacity="1">
<g opacity="1">
<path d="M540.197 297.019C535.701 298.862 530.922 300.263 526.053 301.194C525.583 301.285 525.113 301.376 524.634 301.446C522.841 301.775 521.044 302.03 519.241 302.211L519.219 302.22C518.71 302.277 518.169 302.321 517.651 302.355C499.344 303.923 481.81 298.959 476.887 286.948L476.878 286.926L476.489 285.792C473.519 276.937 477.752 266.221 485.756 256.597L485.778 256.588C486.218 256.052 486.68 255.508 487.142 254.963L487.163 254.954C491.55 250.06 496.881 245.49 502.764 241.708L503.969 240.935L503.991 240.926C507.49 238.756 511.17 236.842 514.905 235.31C517.533 234.233 520.08 233.392 522.529 232.744C522.916 232.635 523.312 232.549 523.708 232.464C525.574 232.003 527.398 231.687 529.192 231.484C529.584 231.45 529.967 231.395 530.368 231.382C537.489 230.746 543.754 231.983 549.013 234.724C549.389 234.9 549.753 235.106 550.125 235.334C556.183 238.787 560.793 244.28 563.632 251.082L564.065 252.198C566.909 259.633 567.205 267.351 564.555 274.501C564.419 274.911 564.274 275.301 564.099 275.677C562.361 279.917 559.557 283.908 555.656 287.511C555.383 287.774 555.09 288.047 554.765 288.307C552.714 290.112 550.335 291.798 547.672 293.346C547.33 293.563 546.978 293.757 546.627 293.952C544.639 295.046 542.499 296.075 540.197 297.019Z" fill="#ffcb01" fill-rule="nonzero" opacity="1" stroke="none"/>
<path d="M546.893 260.81L564.098 275.677C564.273 275.301 564.418 274.912 564.554 274.501L548.061 260.256C555.398 256.74 560.962 253.851 564.064 252.198L563.632 251.082C560.659 252.681 555.27 255.5 548.15 258.925L548.15 258.925L550.125 235.334C549.752 235.106 549.388 234.9 549.012 234.724L546.917 259.508L546.917 259.508C542.203 261.745 536.784 264.245 530.826 266.79L530.368 231.383C529.967 231.396 529.584 231.451 529.192 231.485L529.662 267.293C528.16 267.959 526.618 268.592 525.063 269.255L523.708 232.465C523.312 232.552 522.916 232.638 522.529 232.746L523.89 269.736C517.144 272.527 509.872 275.332 502.245 277.951L503.969 240.939L502.764 241.712L501.045 278.366L501.045 278.366C495.426 280.315 489.635 282.156 483.765 283.801C483.365 283.94 482.957 284.057 482.539 284.152C480.539 284.718 478.508 285.272 476.49 285.795L476.879 286.929C483.05 285.337 489.163 283.542 495.14 281.598L517.652 302.358C518.17 302.323 518.71 302.279 519.22 302.223L496.414 281.178L496.414 281.178L496.414 281.178C498.118 280.632 499.77 280.081 501.425 279.479L501.447 279.47L501.447 279.47L524.635 301.448C525.114 301.379 525.584 301.288 526.054 301.196L502.698 279.058L502.698 279.058C510.295 276.425 517.568 273.621 524.313 270.831L524.335 270.822L546.626 293.955C546.978 293.76 547.33 293.565 547.672 293.349L525.507 270.341L525.485 270.35L525.485 270.35L525.507 270.341C527.083 269.67 528.625 269.038 530.128 268.371L554.764 288.31C555.089 288.05 555.383 287.777 555.655 287.513L531.335 267.85C537.077 265.393 542.308 262.993 546.893 260.81L546.893 260.81Z" fill="#ffffff" fill-rule="nonzero" opacity="1" stroke="none"/>
</g>
<g opacity="1">
<path d="M532.941 246.763L532.432 247.726C531.18 250.048 529.786 252.368 528.301 254.637C528.115 254.942 527.912 255.237 527.709 255.532C524.488 260.366 520.802 265.002 516.877 269.108C516.598 269.411 516.311 269.685 516.042 269.97C504.946 281.226 491.984 288.083 481.714 283.004C481.575 282.953 481.427 282.875 481.298 282.807C481.112 282.708 480.909 282.601 480.734 282.484C470.401 276.494 465.6 259.241 466.703 241.891C466.714 241.423 466.753 240.946 466.8 240.498C467.393 233.111 469.07 225.778 471.869 219.323C472 218.942 472.157 218.599 472.344 218.247C472.73 217.338 473.162 216.477 473.612 215.626C474.004 214.886 474.414 214.155 474.842 213.481C475.008 213.167 475.194 212.862 475.397 212.567C480.063 205.181 486.037 200.785 492.521 198.649C492.88 198.507 493.248 198.394 493.634 198.29C502.678 195.661 512.559 197.266 521.188 201.239C521.512 201.387 521.837 201.536 522.161 201.683C522.697 201.967 523.244 202.232 523.78 202.517C533.126 207.463 538.585 214.024 539.327 222.875C539.375 223.232 539.395 223.598 539.395 223.953C539.508 226.382 539.28 228.962 538.691 231.731C538.628 232.076 538.545 232.411 538.452 232.765C537.438 237.013 535.617 241.663 532.941 246.763Z" fill="#1b90fb" fill-rule="nonzero" opacity="1" stroke="none"/>
<path d="M511.101 219.095L539.397 223.953C539.396 223.597 539.377 223.231 539.328 222.875L511.704 218.135C516.036 211.022 519.804 205.245 522.162 201.683C521.838 201.536 521.513 201.387 521.189 201.239C518.811 204.838 515.053 210.596 510.751 217.653L493.636 198.289C493.25 198.393 492.882 198.506 492.523 198.648L510.187 218.586C506.429 224.794 502.272 231.976 498.267 239.546L475.399 212.565C475.195 212.86 475.01 213.164 474.844 213.48L497.748 240.526C496.965 242.007 496.19 243.516 495.415 245.025L472.345 218.246C472.159 218.598 472.002 218.941 471.871 219.321L494.905 246.034C492.292 251.285 489.799 256.623 487.598 261.902L466.802 240.496C466.754 240.944 466.715 241.421 466.705 241.889L487.161 262.95C484.382 269.724 482.122 276.37 480.735 282.482C480.911 282.599 481.114 282.707 481.299 282.805C481.428 282.873 481.577 282.952 481.715 283.002C483.056 276.888 485.307 270.215 488.096 263.422L516.043 269.968C516.312 269.683 516.6 269.409 516.878 269.106L488.493 262.447C490.694 257.168 493.178 251.801 495.828 246.523L527.709 255.53C527.912 255.235 528.115 254.94 528.3 254.635L496.308 245.57C497.083 244.061 497.857 242.552 498.651 241.052L532.431 247.723L532.94 246.761L499.17 240.071C501.805 235.092 504.519 230.274 507.133 225.782L538.452 232.762C538.545 232.408 538.628 232.072 538.691 231.727L507.69 224.82C508.861 222.836 510.009 220.933 511.101 219.095Z" fill="#ffffff" fill-rule="nonzero" opacity="1" stroke="none"/>
</g>
<g opacity="1">
<path d="M523.179 340.082C517.385 342.431 511.184 343.513 505.083 343.464C504.585 343.48 504.068 343.451 503.561 343.444C500.489 343.335 497.461 342.944 494.543 342.295L494.52 342.304C493.903 342.156 493.308 341.998 492.69 341.851C481.561 338.901 472.218 332.172 468.436 322.843C468.251 322.387 468.098 321.945 467.945 321.502C467.811 321.105 467.676 320.708 467.597 320.315C464.808 310.557 468.575 300.264 476.166 291.739L476.188 291.73C476.588 291.275 476.975 290.853 477.384 290.422L477.406 290.413C482.049 285.555 487.898 281.376 494.478 278.283C494.879 278.094 495.28 277.904 495.691 277.737C496.312 277.433 496.927 277.183 497.565 276.923C501.169 275.461 504.729 274.416 508.199 273.806C508.592 273.726 508.984 273.646 509.386 273.59C513.803 272.887 518.043 272.867 521.977 273.529C522.393 273.573 522.819 273.639 523.254 273.729C526.026 274.278 528.672 275.171 531.104 276.389C531.53 276.588 531.942 276.819 532.355 277.05C537.96 280.196 542.394 285.17 545.067 291.762C545.15 291.967 545.234 292.172 545.294 292.386C545.452 292.774 545.608 293.161 545.734 293.536C547.662 299.209 548.079 305.281 547.052 311.196C546.972 311.653 546.892 312.11 546.789 312.578C546.137 315.684 545.046 318.756 543.57 321.666C543.385 322.06 543.191 322.431 542.973 322.812C540.526 327.257 537.118 331.296 532.774 334.599C532.455 334.861 532.136 335.123 531.799 335.34C529.234 337.2 526.349 338.796 523.179 340.082Z" fill="#61dda0" fill-rule="nonzero" opacity="1" stroke="none"/>
<path d="M531.961 299.785L531.961 299.785L546.789 312.576C546.892 312.109 546.972 311.651 547.052 311.194L533.174 299.239C537.772 297.215 542.008 295.284 545.734 293.534C545.608 293.16 545.451 292.773 545.293 292.385C541.545 294.144 537.285 296.085 532.666 298.117L532.354 277.048C531.942 276.816 531.53 276.585 531.104 276.386L531.476 298.653C529.565 299.507 527.554 300.377 525.519 301.255L525.519 301.255L523.253 273.726C522.818 273.637 522.393 273.571 521.976 273.527L524.31 301.745L524.31 301.745L524.31 301.745C519.763 303.696 514.996 305.628 510.156 307.513L509.386 273.588C508.983 273.645 508.591 273.724 508.198 273.804L508.938 307.981L508.938 307.981L508.938 307.981C504.828 309.568 500.644 311.106 496.515 312.515L496.515 312.515L495.69 277.735C495.279 277.902 494.878 278.091 494.476 278.281L495.301 312.928C489.232 314.991 483.226 316.816 477.561 318.238C477.155 318.349 476.739 318.438 476.323 318.527C473.306 319.272 470.388 319.872 467.593 320.315L467.942 321.501C470.759 321.049 473.723 320.432 476.772 319.699L476.795 319.69C477.224 319.569 477.639 319.48 478.078 319.382C480.242 318.823 482.442 318.223 484.7 317.572L503.558 343.444C504.065 343.451 504.581 343.48 505.08 343.464L485.933 317.206L485.933 317.206C493.572 314.957 501.543 312.149 509.353 309.14L509.353 309.14L531.796 335.337C532.134 335.121 532.452 334.859 532.771 334.596L510.574 308.672C515.437 306.779 520.226 304.837 524.796 302.876L524.796 302.876L542.972 322.809C543.19 322.429 543.384 322.057 543.57 321.663L526.005 302.386L526.005 302.386C528.039 301.508 530.027 300.648 531.961 299.785Z" fill="#dbfeed" fill-rule="nonzero" opacity="1" stroke="none"/>
</g>
</g>
<g opacity="1">
<path d="M123.89 112.271L139.079 127.462L139.079 138.248L123.89 123.057L108.701 138.248L108.701 127.462L123.89 112.271Z" fill="#f3f9ff" fill-rule="nonzero" opacity="1" stroke="none"/>
<path d="M123.89 93.2827L139.079 108.474L139.079 119.259L123.89 104.069L108.701 119.259L108.701 108.474L123.89 93.2827Z" fill="#e7f4fe" fill-rule="nonzero" opacity="1" stroke="none"/>
<path d="M123.89 74.2952L139.079 89.4854L139.079 100.272L123.89 85.0804L108.701 100.272L108.701 89.4854L123.89 74.2952Z" fill="#dceefd" fill-rule="nonzero" opacity="1" stroke="none"/>
<path d="M123.89 55.3067L139.079 70.4969L139.079 81.2831L123.89 66.0919L108.701 81.2831L108.701 70.4969L123.89 55.3067Z" fill="#d0e7fe" fill-rule="nonzero" opacity="1" stroke="none"/>
</g>
<g opacity="1">
<g opacity="1">
<path d="M492.433 60.8947L492.433 350.781C492.433 353.267 490.417 355.283 487.932 355.283L164.375 355.283C161.89 355.283 159.874 353.267 159.874 350.781L159.874 60.8947L492.433 60.8947Z" fill="#f3f9ff" fill-rule="nonzero" opacity="1" stroke="none"/>
<path d="M492.433 42.4175L492.433 60.8956L159.874 60.8956L159.874 42.4175C159.874 38.134 163.346 34.6617 167.629 34.6617L484.677 34.6617C488.961 34.6608 492.433 38.134 492.433 42.4175Z" fill="#224380" fill-rule="nonzero" opacity="1" stroke="none"/>
<path d="M178.798 48.2468C178.798 45.537 180.994 43.3403 183.703 43.3403C186.413 43.3403 188.609 45.537 188.609 48.2468C188.609 50.9565 186.413 53.1532 183.703 53.1532C180.994 53.1532 178.798 50.9565 178.798 48.2468Z" fill="#ffcb01" fill-rule="nonzero" opacity="1" stroke="none"/>
<path d="M196.264 48.2468C196.264 45.537 198.46 43.3403 201.169 43.3403C203.879 43.3403 206.075 45.537 206.075 48.2468C206.075 50.9565 203.879 53.1532 201.169 53.1532C198.46 53.1532 196.264 50.9565 196.264 48.2468Z" fill="#44d690" fill-rule="nonzero" opacity="1" stroke="none"/>
<path d="M159.874 60.8947L491.791 60.8947L491.791 60.8947L491.791 68.294L491.791 68.294L159.874 68.294L159.874 68.294L159.874 60.8947L159.874 60.8947Z" fill="#dceefd" fill-rule="nonzero" opacity="1" stroke="none"/>
</g>
<g opacity="1">
<g opacity="1">
<path d="M463.003 233.746L463.003 326.168C463.003 331.147 458.971 335.171 454.002 335.171L346.531 335.171C341.562 335.171 337.529 331.147 337.529 326.168L337.529 233.746C337.529 228.768 341.562 224.744 346.531 224.744L454.002 224.744C458.971 224.744 463.003 228.768 463.003 233.746Z" fill="#dae7ff" fill-rule="nonzero" opacity="1" stroke="none"/>
<path d="M463.003 229.245L463.003 321.667C463.003 326.645 458.971 330.669 454.002 330.669L346.531 330.669C341.562 330.669 337.529 326.645 337.529 321.667L337.529 229.245C337.529 224.267 341.562 220.242 346.531 220.242L454.002 220.242C458.971 220.242 463.003 224.267 463.003 229.245Z" fill="#ffffff" fill-rule="nonzero" opacity="1" stroke="none"/>
</g>
<path d="M304.311 332.02L295.309 332.02L295.309 329.319L304.311 329.319L304.311 332.02ZM286.307 332.02L277.306 332.02L277.306 329.319L286.307 329.319L286.307 332.02ZM268.304 332.02L259.302 332.02L259.302 329.319L268.304 329.319L268.304 332.02ZM250.301 332.02L241.299 332.02L241.299 329.319L250.301 329.319L250.301 332.02ZM232.297 332.02L223.296 332.02L223.296 329.319L232.297 329.319L232.297 332.02ZM214.294 332.02L205.292 332.02L205.292 329.319L214.294 329.319L214.294 332.02ZM196.01 331.765C192.557 330.985 189.774 328.529 188.567 325.197L191.106 324.278C191.985 326.703 194.091 328.564 196.605 329.132L196.01 331.765ZM313.463 328.6L311.458 326.79C312.726 325.384 313.425 323.564 313.425 321.667L313.425 319.272L316.126 319.272L316.126 321.667C316.126 324.235 315.179 326.697 313.463 328.6ZM190.651 315.798L187.95 315.798L187.95 306.795L190.651 306.795L190.651 315.798ZM316.126 310.269L313.425 310.269L313.425 301.267L316.126 301.267L316.126 310.269ZM190.651 297.792L187.95 297.792L187.95 288.79L190.651 288.79L190.651 297.792ZM316.126 292.264L313.425 292.264L313.425 283.261L316.126 283.261L316.126 292.264ZM190.651 279.787L187.95 279.787L187.95 270.784L190.651 270.784L190.651 279.787ZM316.126 274.259L313.425 274.259L313.425 265.256L316.126 265.256L316.126 274.259ZM190.651 261.782L187.95 261.782L187.95 252.779L190.651 252.779L190.651 261.782ZM316.126 256.253L313.425 256.253L313.425 247.25L316.126 247.25L316.126 256.253ZM190.651 243.776L187.95 243.776L187.95 234.774L190.651 234.774L190.651 243.776ZM316.126 238.248L313.425 238.248L313.425 229.245C313.425 227.454 312.794 225.712 311.648 224.341L313.721 222.609C315.272 224.466 316.126 226.822 316.126 229.245L316.126 238.248ZM191.211 226.364L188.709 225.348C190.043 222.065 192.917 219.716 196.395 219.066L196.891 221.721C194.359 222.194 192.182 223.973 191.211 226.364ZM304.654 221.593L295.652 221.593L295.652 218.892L304.654 218.892L304.654 221.593ZM286.65 221.593L277.649 221.593L277.649 218.892L286.65 218.892L286.65 221.593ZM268.647 221.593L259.645 221.593L259.645 218.892L268.647 218.892L268.647 221.593ZM250.644 221.593L241.642 221.593L241.642 218.892L250.644 218.892L250.644 221.593ZM232.64 221.593L223.639 221.593L223.639 218.892L232.64 218.892L232.64 221.593ZM214.637 221.593L205.635 221.593L205.635 218.892L214.637 218.892L214.637 221.593Z" fill="#dae7ff" fill-rule="nonzero" opacity="1" stroke="none"/>
<g opacity="1">
<path d="M314.775 97.5086L314.775 189.93C314.775 194.909 310.743 198.933 305.774 198.933L198.302 198.933C193.333 198.933 189.301 194.909 189.301 189.93L189.301 97.5086C189.301 92.5301 193.333 88.5059 198.302 88.5059L305.774 88.5059C310.743 88.5059 314.775 92.5301 314.775 97.5086Z" fill="#dae7ff" fill-rule="nonzero" opacity="1" stroke="none"/>
<path d="M313.973 193.636C312.56 196.76 309.427 198.938 305.773 198.938L198.301 198.938C193.333 198.938 189.3 194.905 189.3 189.936L189.3 97.505C189.3 93.8499 191.478 90.717 194.602 89.3036C194.098 90.4379 193.801 91.6803 193.801 93.0037L193.801 188.135C193.801 191.61 196.627 194.437 200.102 194.437L243.067 194.437C243.517 195.778 243.886 197.3 244.246 198.929L278.723 198.929C276.949 197.642 274.096 196.364 271.224 194.437L310.274 194.437C311.597 194.437 312.848 194.14 313.973 193.636Z" fill="#c3d3f3" fill-rule="nonzero" opacity="1" stroke="none"/>
</g>
<g opacity="1">
<path d="M463.003 102.01L463.003 194.432C463.003 199.41 458.971 203.434 454.002 203.434L346.531 203.434C341.562 203.434 337.529 199.41 337.529 194.432L337.529 102.01C337.529 97.0315 341.562 93.0073 346.531 93.0073L454.002 93.0073C458.971 93.0073 463.003 97.0315 463.003 102.01Z" fill="#dae7ff" fill-rule="nonzero" opacity="1" stroke="none"/>
<path d="M463.003 163.797L337.531 163.797L337.531 97.5086C337.531 92.5364 341.561 88.5059 346.532 88.5059L454.002 88.5059C458.973 88.5059 463.003 92.5364 463.003 97.5086L463.003 163.797Z" fill="#ffffff" fill-rule="nonzero" opacity="1" stroke="none"/>
<path d="M355.829 148.739C355.109 148.739 354.522 148.176 354.522 147.484C354.522 146.793 355.109 146.229 355.829 146.229C359.582 146.229 361.95 142.367 364.687 137.897C368.577 131.544 373.412 123.643 384.583 123.643C391.864 123.643 396.04 126.197 400.083 128.667C404.301 131.245 408.288 133.681 415.952 133.681C436.721 133.681 438.885 122.412 440.622 113.359C441.587 108.32 442.5 103.565 447.32 103.565C448.04 103.565 448.627 104.128 448.627 104.82C448.627 105.511 448.04 106.075 447.32 106.075C444.915 106.075 444.247 108.315 443.194 113.814C441.484 122.726 438.895 136.19 415.952 136.19C407.528 136.19 403.03 133.44 398.68 130.783C394.78 128.401 391.099 126.152 384.583 126.152C374.908 126.152 370.676 133.068 366.939 139.166C363.926 144.088 361.077 148.739 355.829 148.739Z" fill="#dceefd" fill-rule="nonzero" opacity="1" stroke="none"/>
<path d="M355.829 148.739C355.109 148.739 354.522 148.176 354.522 147.484C354.522 146.793 355.109 146.229 355.829 146.229C359.51 146.229 361.885 141.489 364.637 135.994C368.516 128.255 373.341 118.623 384.583 118.623C392.007 118.623 396.214 122.48 400.282 126.211C404.474 130.054 408.431 133.681 415.951 133.681C426.621 133.681 431.517 124.167 435.832 115.771C439.201 109.222 442.107 103.566 447.319 103.566C448.039 103.566 448.626 104.129 448.626 104.821C448.626 105.512 448.039 106.076 447.319 106.076C443.734 106.076 441.156 111.086 438.175 116.884C433.753 125.487 428.25 136.192 415.951 136.192C407.384 136.192 402.651 131.854 398.475 128.026C394.61 124.482 390.955 121.134 384.583 121.134C374.984 121.134 370.736 129.61 366.989 137.084C363.988 143.078 361.154 148.739 355.829 148.739Z" fill="#7266d5" fill-rule="nonzero" opacity="1" stroke="none"/>
<path d="M353.215 147.484C353.215 146.098 354.386 144.974 355.829 144.974C357.273 144.974 358.443 146.098 358.443 147.484C358.443 148.871 357.273 149.994 355.829 149.994C354.386 149.994 353.215 148.871 353.215 147.484Z" fill="#2ccd7f" fill-rule="nonzero" opacity="1" stroke="none"/>
<path d="M413.338 134.936C413.338 133.549 414.508 132.426 415.952 132.426C417.395 132.426 418.566 133.549 418.566 134.936C418.566 136.322 417.395 137.445 415.952 137.445C414.508 137.445 413.338 136.322 413.338 134.936Z" fill="#2ccd7f" fill-rule="nonzero" opacity="1" stroke="none"/>
<path d="M442.092 104.82C442.092 102.048 444.432 99.8007 447.32 99.8007C450.207 99.8007 452.548 102.048 452.548 104.82C452.548 107.592 450.207 109.839 447.32 109.839C444.432 109.839 442.092 107.592 442.092 104.82Z" fill="#d0f4e3" fill-rule="nonzero" opacity="1" stroke="none"/>
<path d="M443.399 104.82C443.399 102.74 445.154 101.055 447.32 101.055C449.485 101.055 451.241 102.74 451.241 104.82C451.241 106.899 449.485 108.585 447.32 108.585C445.154 108.585 443.399 106.899 443.399 104.82Z" fill="#99e9c2" fill-rule="nonzero" opacity="1" stroke="none"/>
<path d="M444.706 104.82C444.706 103.433 445.876 102.31 447.32 102.31C448.764 102.31 449.934 103.433 449.934 104.82C449.934 106.206 448.764 107.33 447.32 107.33C445.876 107.33 444.706 106.206 444.706 104.82Z" fill="#2ccd7f" fill-rule="nonzero" opacity="1" stroke="none"/>
<path d="M454.002 198.933L346.532 198.933C341.561 198.933 337.531 194.902 337.531 189.93L337.531 163.797L463.003 163.797L463.003 189.93C463.003 194.902 458.973 198.933 454.002 198.933Z" fill="#7266d5" fill-rule="nonzero" opacity="1" stroke="none"/>
<path d="M363.221 178.855L348.438 178.855C348.19 178.855 347.988 178.653 347.988 178.405L347.988 174.286C347.988 174.039 348.19 173.836 348.438 173.836L363.221 173.836C363.469 173.836 363.672 174.039 363.672 174.286L363.672 178.405C363.672 178.653 363.469 178.855 363.221 178.855Z" fill="#ffffff" fill-rule="nonzero" opacity="1" stroke="none"/>
<path d="M378.905 188.894L348.437 188.894C348.19 188.894 347.987 188.692 347.987 188.444L347.987 184.325C347.987 184.078 348.19 183.875 348.437 183.875L378.905 183.875C379.153 183.875 379.355 184.078 379.355 184.325L379.355 188.444C379.355 188.692 379.153 188.894 378.905 188.894Z" fill="#ffffff" fill-rule="nonzero" opacity="1" stroke="none"/>
</g>
</g>
</g>
<g opacity="1">
<path d="M110.251 209.896C110.251 209.896 111.314 208.975 111.66 208.043C112.007 207.11 112.794 202.819 115.07 200.289C117.347 197.76 125.075 199.96 124.92 200.699C124.573 202.351 119.741 200.163 117.913 203.785C117.426 204.751 118.146 205.943 118.638 205.815C119.946 205.473 121.006 202.62 121.98 202.94C122.718 203.182 122.199 208.063 119.816 209.597C118.134 210.679 114.217 212.844 112.801 215.056C111.386 217.27 109.077 211.273 110.251 209.896Z" fill="#f1b282" fill-rule="nonzero" opacity="1" stroke="none"/>
<path d="M108.976 208.557C109.331 208.289 109.836 208.357 110.106 208.711L115.046 215.175C115.348 215.57 115.278 216.134 114.889 216.444C110.955 219.581 91.6008 234.817 87.4007 234.336L84.2861 222.623C84.2852 222.622 102.703 213.302 108.976 208.557Z" fill="#f0b701" fill-rule="nonzero" opacity="1" stroke="none"/>
<path d="M225.016 144.42C230.691 144.889 234.256 150.81 236.189 152.61C238.121 154.409 239.179 159.847 243.954 164.181C248.669 168.461 235.227 166.754 235.227 166.754L230.529 160.845C230.529 160.845 229.664 159.107 225.769 161.457C223.109 163.063 220.692 160.166 218.915 156.783C218.544 156.935 218.139 157.009 217.732 156.921C216.732 156.703 216.828 153.979 216.974 152.372C216.283 150.528 215.894 149.156 215.894 149.156C215.782 145.728 219.34 143.951 225.016 144.42Z" fill="#f1b282" fill-rule="nonzero" opacity="1" stroke="none"/>
<path d="M241.805 184.623C241.805 184.623 235.936 188.967 229.877 193.668C222.62 199.298 216.469 202.239 212.757 206.298C211.881 207.256 213.335 211.831 211.583 213.368C209.832 214.905 202.98 215.903 202.822 211.691C202.714 208.806 202.16 205.27 205.644 203.292C206.929 202.563 214.013 196.393 217.805 193.356C221.596 190.318 231.855 179.483 231.855 179.483C231.855 179.483 239.571 179.079 241.805 184.623Z" fill="#e0a277" fill-rule="nonzero" opacity="1" stroke="none"/>
<path d="M237.487 156.477C235.76 156.197 236.319 152.011 233.095 152.074C230.583 152.123 231.476 153.82 228.697 153.234C225.917 152.648 226.822 147.087 217.376 148.705C213.193 149.422 212.709 144.797 214.234 141.534C217.517 134.515 231.019 130.786 235.757 138.078C240.832 145.889 239.213 156.757 237.487 156.477Z" fill="#102b5e" fill-rule="nonzero" opacity="1" stroke="none"/>
<path d="M271.224 194.437L243.067 194.437C242.248 191.979 241.177 190.134 239.502 189.369C238.647 188.981 237.774 188.657 236.919 188.342C235.83 187.955 234.758 187.595 233.768 187.145C233.48 187.019 233.201 186.884 232.931 186.74C232.454 186.479 232.004 186.191 231.59 185.866C230.51 185.02 229.645 183.526 229.087 181.662C228.988 181.347 228.898 181.014 228.826 180.681C228.799 180.564 228.772 180.456 228.763 180.339C228.196 177.665 228.205 174.469 229.006 171.399C229.699 168.689 230.996 166.088 233.057 164.017C234.479 162.576 236.271 161.397 238.476 160.632C239.16 160.389 239.862 160.236 240.582 160.173C241.645 160.056 242.743 160.128 243.85 160.362C246.965 161.001 250.214 162.928 253.167 165.917C257.11 169.896 260.539 175.747 262.493 182.932C264.041 188.621 267.642 192.033 271.224 194.437Z" fill="#2ccd7f" fill-rule="nonzero" opacity="1" stroke="none"/>
<path d="M234.854 134.415C234.854 134.415 234.686 128.152 243.63 128.152C261.801 128.152 254.568 145.09 254.832 153.911C255.097 162.733 259.33 162.116 259.507 165.203C259.683 168.291 242.306 165.82 241.072 153.823C239.837 141.826 238.956 136.299 236.398 137.327C233.839 138.354 234.854 134.415 234.854 134.415Z" fill="#102b5e" fill-rule="nonzero" opacity="1" stroke="none"/>
<path d="M231.024 132.132C228.48 133.343 234.366 143.93 237.934 142.547C241.502 141.164 234.342 130.553 231.024 132.132Z" fill="#2ccd7f" fill-rule="nonzero" opacity="1" stroke="none"/>
<path d="M212.18 231.199L105.917 247.258C101.001 248 96.414 244.617 95.6714 239.701L81.8628 148.311C81.1202 143.394 84.503 138.807 89.4188 138.064L195.682 122.005C200.598 121.262 205.185 124.645 205.928 129.562L219.736 220.952C220.479 225.868 217.096 230.456 212.18 231.199Z" fill="#1b90fb" fill-rule="nonzero" opacity="1" stroke="none"/>
<path d="M136.447 159.948L145.14 158.635L146.903 170.305L138.211 171.619L136.447 159.948Z" fill="#9fd1fd" fill-rule="nonzero" opacity="1" stroke="none"/>
<path d="M138.21 171.619L146.903 170.305L153.074 211.152L144.381 212.465L138.21 171.619Z" fill="#1277d7" fill-rule="nonzero" opacity="1" stroke="none"/>
<path d="M123.409 161.919L132.101 160.605L135.627 183.946L126.935 185.259L123.409 161.919Z" fill="#9fd1fd" fill-rule="nonzero" opacity="1" stroke="none"/>
<path d="M126.935 185.26L135.627 183.946L140.035 213.122L131.343 214.435L126.935 185.26Z" fill="#1277d7" fill-rule="nonzero" opacity="1" stroke="none"/>
<path d="M110.371 163.889L119.063 162.575L124.353 197.586L115.66 198.9L110.371 163.889Z" fill="#9fd1fd" fill-rule="nonzero" opacity="1" stroke="none"/>
<path d="M115.66 198.9L124.353 197.586L126.997 215.092L118.305 216.405L115.66 198.9Z" fill="#1277d7" fill-rule="nonzero" opacity="1" stroke="none"/>
<path d="M174.604 154.182L183.297 152.869L191.231 205.385L182.538 206.699L174.604 154.182Z" fill="#ffffff" fill-rule="nonzero" opacity="1" stroke="none"/>
<path d="M174.604 154.182L183.297 152.869L191.231 205.385L182.538 206.699L174.604 154.182Z" fill="#9fd1fd" fill-rule="nonzero" opacity="1" stroke="none"/>
<path d="M161.566 156.152L170.259 154.839L170.971 159.555L162.278 160.869L161.566 156.152Z" fill="#9fd1fd" fill-rule="nonzero" opacity="1" stroke="none"/>
<path d="M162.279 160.87L170.971 159.556L178.193 207.356L169.5 208.67L162.279 160.87Z" fill="#1277d7" fill-rule="nonzero" opacity="1" stroke="none"/>
<path d="M148.528 158.123L157.221 156.809L158.651 166.275L149.958 167.589L148.528 158.123Z" fill="#9fd1fd" fill-rule="nonzero" opacity="1" stroke="none"/>
<path d="M149.958 167.589L158.651 166.276L165.155 209.327L156.462 210.64L149.958 167.589Z" fill="#1277d7" fill-rule="nonzero" opacity="1" stroke="none"/>
<path d="M97.1072 354.117L98.1964 359.193C98.1964 359.193 99.7168 361.685 95.2897 362.063C90.8627 362.441 90.4666 360.432 90.4666 360.432C90.4666 360.432 89.1713 354.331 89.2253 353.899C89.2793 353.467 97.1072 354.117 97.1072 354.117Z" fill="#f1b282" fill-rule="nonzero" opacity="1" stroke="none"/>
<path d="M98.1262 357.779C98.5736 357.289 99.3027 357.184 99.8716 357.527C101.862 358.727 106.094 361.272 106.35 361.368C108.602 362.209 114.616 363.531 114.614 365.796C114.61 368.17 97.1792 367.523 90.7997 367.207C89.5061 367.143 88.4836 366.084 88.4674 364.789L88.4016 359.54C88.398 359.273 88.5376 359.024 88.7671 358.887C88.9967 358.751 89.282 358.747 89.5151 358.878C90.5827 359.475 92.2418 360.251 93.7621 360.321C95.4527 360.395 97.1819 358.814 98.1262 357.779Z" fill="#102b5e" fill-rule="nonzero" opacity="1" stroke="none"/>
<path d="M50.5936 332.229L46.8048 335.777C46.8048 335.777 45.0567 338.069 42.4525 334.469C39.8483 330.868 41.8206 329.795 41.8206 329.795C41.8206 329.795 46.3817 325.541 46.7805 325.366C47.1784 325.189 50.5936 332.229 50.5936 332.229Z" fill="#f1b282" fill-rule="nonzero" opacity="1" stroke="none"/>
<path d="M47.5853 335.419C48.2361 335.551 48.7015 336.121 48.7006 336.785C48.6979 339.109 48.697 344.048 48.7465 344.317C49.1858 346.681 51.1508 352.517 49.2083 353.681C47.1721 354.901 38.7474 339.625 35.7327 333.994C35.1215 332.853 35.5023 331.43 36.6041 330.75L41.0689 327.989C41.2958 327.849 41.5811 327.84 41.817 327.967C42.0528 328.093 42.2032 328.336 42.2113 328.602C42.2482 329.825 42.4381 331.647 43.1627 332.987C43.9657 334.475 46.2125 335.142 47.5853 335.419Z" fill="#102b5e" fill-rule="nonzero" opacity="1" stroke="none"/>
<path d="M88.885 272.96C88.885 272.96 97.6311 290.616 99.2505 299.525C100.832 308.227 69.7546 327.938 51.5658 334.144C50.825 334.397 50.0076 334.088 49.6223 333.406L45.6805 326.169C45.2214 325.357 45.4699 324.328 46.2494 323.815L79.3297 296.447L71.3938 272.959L88.885 272.959L88.885 272.96Z" fill="#0b224e" fill-rule="nonzero" opacity="1" stroke="none"/>
<path d="M62.4858 268.426C62.1617 279.278 72.8134 302.927 73.8846 313.455C74.8091 322.541 86.6301 350.385 88.3008 356.019C88.5358 356.811 89.3342 357.295 90.1444 357.134L97.2998 355.572C97.8156 355.469 98.2648 355.156 98.5384 354.708C98.8121 354.259 98.885 353.716 98.7401 353.21C97.1126 347.519 91.9222 323.564 90.9905 318.638C89.8572 312.645 91.4766 286.88 88.0749 274.58C84.674 262.28 62.4858 268.426 62.4858 268.426Z" fill="#224380" fill-rule="nonzero" opacity="1" stroke="none"/>
<path d="M107.69 246.708C107.69 246.708 112.215 242.566 114.755 241.379C117.295 240.191 120.127 239.068 120.409 239.718C120.691 240.368 115.761 244.209 115.761 244.209C115.761 244.209 117.969 245.302 120.337 243.936C122.704 242.57 124.357 241.895 124.759 242.312C125.162 242.728 119.881 249.279 116.807 249.796C113.733 250.312 107.974 252.191 107.974 252.191L107.69 246.708Z" fill="#f1b282" fill-rule="nonzero" opacity="1" stroke="none"/>
<path d="M93.4534 200.725C94.4283 203.229 93.3958 204.33 93.5416 205.341C93.6874 206.352 94.6497 208.505 94.4931 209.422C94.3374 210.339 92.916 210.23 92.3336 211.367C91.7503 212.503 92.1715 214.182 90.8321 215.249C89.4926 216.317 85.5112 215.35 85.4635 216.59C85.4167 217.831 86.9083 222.714 86.9083 222.714L75.4464 220.981C75.4464 220.981 77.6545 214.608 77.4457 211.785C77.2368 208.963 77.7022 198.802 81.4442 198.188C85.1862 197.576 92.4182 198.068 93.4534 200.725Z" fill="#f1b282" fill-rule="nonzero" opacity="1" stroke="none"/>
<path d="M83.9377 192.817C89.5016 193.386 92.167 193.2 92.3705 191.205C94.1267 191.387 96.9118 194.632 96.5446 198.225C95.7326 206.166 85.5445 201.69 85.0935 206.098C85.0872 206.112 85.4896 211.823 86.7795 212.777C88.0704 213.733 91.1039 211.214 92.2796 211.283C93.2319 211.339 96.2349 220.834 89.2289 220.117C82.2229 219.401 84.7713 205.887 80.4846 205.448C78.3071 205.225 79.5449 214.4 76.5527 214.094C73.8054 213.813 71.0464 209.838 71.7818 202.645C72.5839 194.816 79.0021 192.312 83.9377 192.817Z" fill="#0b224e" fill-rule="nonzero" opacity="1" stroke="none"/>
<path d="M71.2318 274.905C64.4292 273.933 60.9834 275.377 59.364 268.087C57.7446 260.798 63.2959 252.066 64.4292 244.615C66.5347 225.826 74.1466 217.241 76.7381 216.755C78.426 216.438 82.5181 218.903 85.1664 220.66C86.8245 221.76 88.1163 223.358 88.8049 225.225C93.4912 237.928 88.7239 248.373 88.7239 255.312C88.7239 257.568 91.0796 270.991 91.6269 272.961C92.564 276.351 77.9462 275.864 71.2318 274.905Z" fill="#ffcb01" fill-rule="nonzero" opacity="1" stroke="none"/>
<path d="M90.1624 265.324C84.4103 263.884 73.4462 260.589 71.0338 255.898C67.7211 249.471 76.2097 234.463 76.2097 234.463C73.6443 246.365 74.8505 259.464 84.3383 260.076C85.7785 260.166 87.4079 260.13 89.1542 259.986C89.2442 260.319 89.3342 260.652 89.4332 260.985L90.1624 265.324Z" fill="#f0b701" fill-rule="nonzero" opacity="1" stroke="none"/>
<path d="M111.901 254.896C111.441 255.279 87.8993 263.453 79.8635 258.862C71.8277 254.271 75.7552 234.461 75.7552 234.461L86.9002 236.439L86.5986 247.295C86.5986 247.295 100.255 246.773 105.363 245.437C106.148 245.231 106.978 245.564 107.402 246.258C108.976 248.833 112.366 254.509 111.901 254.896Z" fill="#ffcb01" fill-rule="nonzero" opacity="1" stroke="none"/>
<path d="M278.723 198.929L244.246 198.929C243.886 197.3 243.517 195.778 243.067 194.437L271.224 194.437C274.096 196.364 276.949 197.642 278.723 198.929Z" fill="#1eaf69" fill-rule="nonzero" opacity="1" stroke="none"/>
<path d="M228.823 180.681C229.358 183.001 230.33 184.88 231.59 185.869C233.723 187.543 236.697 188.093 239.5 189.374C243.312 185.719 242.528 175.206 242.528 175.206C237.477 172.805 232.392 176.681 228.823 180.681Z" fill="#1eaf69" fill-rule="nonzero" opacity="1" stroke="none"/>
<path d="M237.135 183.806C237.135 183.806 230.755 187.357 224.14 191.237C216.218 195.885 209.739 198.008 205.536 201.555C204.544 202.393 203.66 208.364 201.725 209.662C199.789 210.961 192.128 209.435 194.618 206.033C199.614 199.209 193.721 204.08 193.486 203.483C192.683 201.438 196.219 198.738 198.869 197.657C200.236 197.1 208.057 191.895 212.207 189.371C216.359 186.847 227.929 177.425 227.929 177.425C227.929 177.425 235.634 178.02 237.135 183.806Z" fill="#f1b282" fill-rule="nonzero" opacity="1" stroke="none"/>
<path d="M235.379 165.135C230.26 165.344 227.283 176.625 224.885 178.537C222.487 180.449 231.797 188.219 233.035 187.577C235.938 186.074 241.817 180.521 242.989 175.892C244.16 171.264 239.1 164.983 235.379 165.135Z" fill="#2ccd7f" fill-rule="nonzero" opacity="1" stroke="none"/>
</g>
<g opacity="1">
<path d="M206.076 336.992L151.809 336.992C151.809 336.992 151.324 367.531 178.942 367.531C206.561 367.531 206.076 336.992 206.076 336.992Z" fill="#c3d3f3" fill-rule="nonzero" opacity="1" stroke="none"/>
<path d="M151.809 336.992C151.809 332.175 163.957 328.269 178.942 328.269C193.928 328.269 206.076 332.175 206.076 336.992C206.076 341.809 193.928 345.715 178.942 345.715C163.957 345.715 151.809 341.809 151.809 336.992Z" fill="#dae7ff" fill-rule="nonzero" opacity="1" stroke="none"/>
<path d="M178.942 340.137C178.942 340.137 158.317 306.298 165.979 277.586C165.979 277.586 180.376 303.926 178.942 340.137Z" fill="#2ccd7f" fill-rule="nonzero" opacity="1" stroke="none"/>
<path d="M178.942 340.137C178.942 340.137 180.763 300.548 203.17 281.03C203.169 281.029 200.377 310.918 178.942 340.137Z" fill="#2ccd7f" fill-rule="nonzero" opacity="1" stroke="none"/>
<path d="M178.942 343.863C178.942 343.863 169.781 305.306 185.94 280.367C185.94 280.368 191.494 309.868 178.942 343.863Z" fill="#1eaf69" fill-rule="nonzero" opacity="1" stroke="none"/>
</g>
</g>
</svg>
