<svg clip-rule="evenodd" stroke-linecap="round" stroke-linejoin="round" stroke-miterlimit="10" viewBox="0 0 600 400" xmlns="http://www.w3.org/2000/svg"><path d="m0 0h600v400h-600z" fill="none"/><path d="m127.894 333.399c-65.864 0-92.7437-43.499-92.7437-91.914 0-48.416 26.428-78.225 60.501-78.225 34.0727 0 24.3937 28.953 64.2597 28.953s61.456-68.403 118.546-68.403 28.216 61.68 78.733 61.68c50.516 0 111.966-43.712 121.715 6.109 12.709 64.952 188.676 143.894-3.339 143.894-75.984 0-347.672-2.094-347.672-2.094z" fill="#f3f9ff"/><g><path d="m100.992 317.794c3.327-7.788 8.292-18.824-1.8539-25.34-10.1465-6.516-.8836-10.375-.5543-19.82.3293-9.444-10.0277-11.872-9.7173-16.35.3096-4.479.8243-12.397-.1322-15.777-1.5999-5.654-13.5722-8.222-14.7932 7.7-.7676 10.004-1.7997 16.045-7.133 23.181-5.3333 7.137 6.4149 14.682 6.1971 20.427-.2177 5.744-6.0054 4.894-5.3729 17.07.6326 12.175 8.6321 21.382 16.2375 20.839 5.1659-.37 14.0841-4.82 17.1222-11.93z" fill="#8ae6b9"/><g fill="#44d690"><path d="m81.3943 333.842c-.2339 0-.4445-.163-.4949-.401-.1817-.864.3519-2.52 1.4776-5.886 1.8977-5.673 4.7646-14.248 4.1356-22.125-.395-4.936-1.6143-10.198-2.7949-15.285-1.6872-7.278-3.2817-14.153-2.3503-19.435 1.0447-5.93.3428-13.61-.0774-18.199-.2457-2.685-.3573-4.001-.2142-4.562.0684-.271.3446-.438.6155-.365.2708.069.4346.344.3653.615-.1062.418.0549 2.18.2412 4.219.4238 4.639 1.1347 12.405.0657 18.469-.8945 5.078.6766 11.854 2.3404 19.029 1.1878 5.124 2.417 10.423 2.8174 15.433.6461 8.083-2.2613 16.776-4.1842 22.527-.8486 2.535-1.5801 4.725-1.4469 5.355.0575.274-.1179.543-.3906.6-.0351.008-.0702.011-.1053.011z"/><path d="m80.2696 280.997c-2.5529 0-4.4353-2.266-5.1705-3.723-.1259-.249-.0261-.553.2232-.68.2483-.128.5543-.027.6794.223.0899.174 2.2297 4.294 5.686 2.871.26-.109.5543.016.6605.274.1061.26-.0171.555-.2754.661-.6299.261-1.2336.374-1.8032.374z"/><path d="m81.6544 272.619c-.2358 0-.4472-.167-.4949-.405-.0558-.274.1215-.541.395-.598.0531-.011 5.3702-1.143 6.8549-5.725.0864-.265.3699-.411.638-.325.2664.086.4112.371.3248.638-1.6691 5.153-7.375 6.357-7.617 6.406-.0342.006-.0675.009-.1008.009z"/><path d="m87.0138 305.896c-.3015 0-7.1393-.074-8.8076-5.761-.0782-.268.0747-.55.3438-.628.2717-.079.5498.076.6281.343 1.4793 5.046 7.5918 5.043 7.8339 5.032.278.003.5084.22.5111.501.0036.279-.2196.508-.4994.512-.0009.001-.0045.001-.0099.001z"/><path d="m86.5954 314.235c-.198 0-.3861-.117-.467-.312-.108-.257.0134-.553.2717-.661.1035-.044 10.3022-4.385 10.5235-10.725.0099-.279.2511-.485.5237-.489.279.01.4976.244.4877.524-.2438 6.99-10.6999 11.437-11.1444 11.623-.0639.027-.1295.04-.1952.04z"/></g></g><g><g><path d="m485.7 308.673c-5.033-11.778-12.54-28.467 2.804-38.321s1.336-15.689.837-29.973c-.498-14.283 15.164-17.953 14.696-24.726s-1.246-18.749.2-23.858c2.42-8.552 20.524-12.434 22.372 11.643 1.161 15.129 2.721 24.265 10.787 35.057 8.065 10.792-9.701 22.203-9.372 30.89.329 8.688 9.082 7.401 8.125 25.814-.958 18.413-13.054 32.337-24.556 31.515-7.812-.558-21.299-7.289-25.893-18.041z" fill="#dceefd"/><g fill="#d0e7fe"><path d="m515.337 332.942c.354 0 .672-.247.747-.607.275-1.305-.531-3.811-2.234-8.901-2.87-8.581-7.206-21.548-6.254-33.458.598-7.464 2.442-15.422 4.226-23.115 2.552-11.007 4.962-21.403 3.554-29.39-1.579-8.97-.518-20.584.117-27.523.372-4.06.54-6.05.324-6.898-.103-.412-.521-.663-.93-.554-.41.104-.657.52-.553.93.161.633-.083 3.297-.364 6.382-.642 7.015-1.715 18.758-.099 27.929 1.352 7.68-1.023 17.927-3.539 28.777-1.797 7.749-3.655 15.762-4.261 23.339-.977 12.223 3.419 25.369 6.328 34.068 1.282 3.833 2.389 7.144 2.188 8.098-.087.414.178.821.591.908.053.01.106.015.159.015z"/><path d="m517.038 253.025c3.861 0 6.707-3.426 7.819-5.629.191-.377.039-.837-.338-1.027-.376-.195-.837-.041-1.027.336-.136.265-3.372 6.494-8.599 4.342-.394-.165-.839.025-1 .416-.161.392.025.839.417.999.954.393 1.866.563 2.728.563z"/><path d="m514.943 240.357c.357 0 .676-.251.749-.613.084-.414-.184-.819-.597-.903-.081-.016-8.122-1.729-10.367-8.66-.13-.4-.558-.62-.963-.492-.402.13-.622.562-.492.965 2.524 7.793 11.153 9.615 11.519 9.688.051.01.101.015.151.015z"/><path d="m506.839 290.68c.457 0 10.797-.113 13.321-8.712.118-.405-.114-.832-.52-.95-.41-.118-.831.116-.95.519-2.238 7.63-11.48 7.627-11.846 7.611-.42.004-.769.332-.774.757-.005.421.333.768.755.775z"/><path d="m507.471 303.29c.299 0 .584-.176.707-.47.162-.389-.021-.838-.412-1.001-.156-.065-15.579-6.629-15.914-16.218-.015-.422-.38-.735-.792-.74-.422.016-.752.37-.738.793.368 10.57 16.181 17.295 16.854 17.577.096.04.197.059.295.059z"/></g></g><g><path d="m302.828 325.663c-11.006 0-17.248-15.913-15.112-19.2 2.135-3.287 8.87 5.752 10.348 3.122 1.479-2.63-13.36-15.12-10.622-18.406 2.738-3.287 7.83 4.272 8.98 2.793s-11.901-14.462-9.318-17.585c2.583-3.122 5.409 5.095 7.692 3.287 2.283-1.807-9.544-18.242-4.124-22.022 5.421-3.78 13.47 25.638 16.591 26.46 3.121.821 11.006-16.928 14.62-13.312 3.614 3.615-12.484 24.815-9.856 26.951 2.629 2.137 12.32-9.367 15.441-4.766s-10.841 14.627-9.856 15.941c.986 1.314 11.499-3.615 12.648-.165 1.149 3.451-10.185 16.902-27.432 16.902z" fill="#8ae6b9"/><path d="m308.152 332.066c-.045 0-.09-.004-.135-.015-.323-.075-.524-.396-.45-.72 4.821-20.987-5.983-42.293-6.093-42.506-.152-.294-.037-.656.258-.808.293-.151.657-.037.808.258.112.216 11.119 21.901 6.197 43.325-.064.278-.312.466-.585.466z" fill="#45d48f"/><path d="m322.274 306.503c0-7.696 10.318-9.948 10.318-15.203 0-5.256-13.695-8.071-13.695-17.643s13.695-8.258 13.695-15.578-6.848-7.32-6.848-16.329c0-9.008 17.729-33.033 25.608-33.033 7.878 0 15.758 22.523 15.758 30.03s-13.319 10.886-13.319 17.268 13.319 6.777 13.319 13.054c0 6.278-16.134 11.941-16.134 16.6s11.631 7.695 11.631 16.517c0 8.821-11.228 26.464-16.884 26.464-5.655 0-23.449-14.452-23.449-22.147z" fill="#9e95e3"/><path d="m346.473 335.82c-.286 0-.54-.205-.591-.497-5.922-33.806-5.605-57.531-4.296-71.481 1.421-15.163 4.214-22.211 4.331-22.504.125-.308.476-.456.781-.331.307.124.456.473.333.781-.029.07-2.858 7.233-4.258 22.253-1.294 13.865-1.599 37.452 4.293 71.075.056.327-.161.638-.488.695-.036.006-.071.009-.105.009z" fill="#877cd8"/></g></g><path d="m280.858 369.29c-4.9 0-10.243-.819-16.179-2.624-20.303-6.17-32.338-26.423-34.805-58.567-1.814-23.631 2.066-45.135 2.231-46.039l6.195 1.139c-.153.841-14.924 84.329 28.21 97.437 25.923 7.879 38.908-5.687 56.877-24.464 4.411-4.607 8.972-9.373 14.095-14.225 35.614-33.724 80.706-27.014 82.61-26.715l-.988 6.225c-.431-.071-43.99-6.47-77.292 25.067-5.01 4.745-9.516 9.454-13.875 14.007-15.025 15.699-27.526 28.759-47.079 28.759z" fill="#c3d3f3"/><path d="m547.459 122.312c6.098 0 11.044-4.945 11.044-11.045 0-.001 0-.002 0-.003 0-12.2059-9.89-22.0996-22.089-22.0996-.189 0-.363.0504-.55.0549-2.538-12.635-13.684-22.1543-27.06-22.1543-5.209 0-10.026 1.5287-14.183 4.0368-4.579-8.9197-13.761-15.0855-24.472-15.0855-13.377 0-24.523 9.5192-27.06 22.1542-.188-.0036-.362-.0549-.55-.0549-15.25 0-27.611 12.3676-27.611 27.6234v.005c.002 9.153 7.417 16.569 16.567 16.569h115.964z" fill="#f3f9ff"/><g><path d="m131.804 114.526c0-52.2052 42.301-94.526 94.482-94.526s94.482 42.3208 94.482 94.526c0 52.206-42.301 94.526-94.482 94.526s-94.482-42.32-94.482-94.526z" fill="#fff9de"/><path d="m145.301 115.083c0-44.747 36.258-81.022 80.985-81.022s80.985 36.275 80.985 81.022c0 44.748-36.258 81.023-80.985 81.023s-80.985-36.275-80.985-81.023z" fill="#fef0b9"/><g><path d="m214.348 54.5858c-24.484 4.7614-44.123 24.6371-48.674 49.1732-3.154 16.997.619 33.047 8.959 45.835 10.673 16.377 16.245 35.55 16.604 55.081.017.686.025 1.373.025 2.059v2.393h71.166c0-1.481.026-2.971.084-4.452.67-19.34 5.579-38.554 16.269-54.671 6.525-9.833 10.33-21.633 10.33-34.327 0-38.4959-34.889-68.8325-74.763-61.0912z" fill="#ffcb01"/><path d="m200.474 144.428v-36.672c0-4.05 3.287-7.339 7.336-7.339h36.653v13.783c0 .829.46 1.582 1.196 1.958.728.377 1.615.31 2.284-.167 1.916-1.372 4.191-2.737 5.688-2.737 4.048 0 7.327 4.109 7.327 9.172s-3.279 9.172-7.327 9.172c-1.497 0-3.772-1.364-5.688-2.737-.669-.485-1.548-.544-2.284-.168-.736.377-1.196 1.13-1.196 1.958v13.775h-13.776c-.82 0-1.573-.46-1.949-1.188-.376-.737-.318-1.615.167-2.293 1.364-1.908 2.727-4.184 2.727-5.682 0-4.051-4.099-7.339-9.16-7.339-5.06 0-9.167 3.288-9.167 7.339 0 1.498 1.363 3.773 2.735 5.682.477.678.544 1.556.168 2.293-.376.736-1.138 1.188-1.957 1.188h-13.777z" fill="#fff"/><path d="m253.506 249.175-8.896 17.799h-35.584l-3.29-6.497-5.605-11.302z" fill="#355aa2"/><path d="m254.225 249.175h-54.766c-9.442 0-17.097-7.659-17.097-17.105v-21.994c0-2.983 2.417-5.402 5.399-5.402h78.162c2.982 0 5.399 2.419 5.399 5.402v21.994c0 9.446-7.655 17.105-17.097 17.105z" fill="#224380"/><path d="m200.131 249.175 47.769 11.302 5.606-11.302z" fill="#183168"/><g fill="#f0b701"><path d="m256.445 113.957c.856 1.502 1.365 3.334 1.365 5.319 0 5.063-3.279 9.172-7.328 9.172-1.497 0-3.772-1.364-5.687-2.737-.67-.485-1.548-.544-2.284-.168-.736.377-1.196 1.13-1.196 1.958v13.775h-12.582c-.301.62-.314 1.339.006 1.963.376.728 1.129 1.188 1.949 1.188h13.776v-13.775c0-.828.46-1.581 1.196-1.958.736-.376 1.614-.317 2.284.168 1.916 1.372 4.19 2.737 5.688 2.737 4.048 0 7.327-4.109 7.327-9.172 0-3.816-1.863-7.088-4.514-8.47z"/><path d="m242.152 112.757c-.002.002-.009.008-.009.008l2.782 2.808c-.191-.276-.461-.95-.461-2.56v-12.596h-3.149v10.632c0 .68.32 1.296.837 1.708z"/><path d="m245.109 115.759-.184-.186c.103.151.184.186.184.186z"/><path d="m229.817 130.888c-.228-.298-.623-.635-1.084-.974.84.864 1.481 1.493 1.084.974z"/><path d="m228.733 129.914c-.763-.786-1.682-1.756-2.147-2.249-.08-.083-.153-.172-.238-.253-.04-.041-.065-.068-.065-.068l-.009.006c-1.679-1.572-4.164-2.576-6.95-2.576-5.061 0-9.168 3.288-9.168 7.339 0 1.498 1.364 3.774 2.736 5.682.477.678.543 1.556.167 2.293-.376.736-1.137 1.188-1.957 1.188h-10.627v3.151h13.777c.819 0 1.581-.452 1.957-1.188.376-.737.309-1.615-.168-2.293-1.372-1.908-2.735-4.185-2.735-5.683 0-4.05 4.107-7.338 9.167-7.338 1.98 0 3.808.508 5.305 1.363-.006-.011-.015-.022-.022-.034.336.213.671.436.977.66z"/></g></g></g><g><path d="m309.039 380.382 3.555-.565-11.802-74.326v-.176h-.028l-24.73-155.737-3.555.565 1.881 11.85h-43.064l-1.971-12.415-3.556.565 6.277 39.523v.028h.004l30.28 190.688 3.555-.565-2.049-12.902h43.063zm-54.412-71.465h43.063l4.033 25.398h-43.063zm-.571-3.601-4.497-28.314h43.063l4.497 28.314zm33.568-59.799h-43.063l-3.925-24.712h43.064zm.571 3.601 3.856 24.283h-43.063l-3.856-24.283zm-13.262-83.523 3.254 20.499h-43.063l-3.255-20.499zm3.827 24.099 4.367 27.51h-43.063l-4.368-27.51zm-15.495 173.62-4.033-25.399h43.063l4.034 25.399z" fill="#183168"/><g><path d="m280.818 326.252 1.959 4.861s3.542 3.07 4.99-1.313c0 0-.73-2.955-.996-4.034-.267-1.079-5.953.486-5.953.486z" fill="#f1b282"/><path d="m288.08 326.55-8.387.008s-9.878-31.322-12.599-39.62c-2.143-6.535-5.54-28.138-5.397-38.202.136-9.595 16.531-4.414 17.805 2.324 3.733 19.749.111 34.404.569 37.858 4.646 10.239 8.009 37.632 8.009 37.632z" fill="#102b5e"/><path d="m256.047 187.065c-.871 2.215-.295 3.421-.484 4.354-.189.934-1.019 2.819-1.002 3.712s.959 1.014 1.237 2.182c.277 1.168-.154 2.69.626 3.913.779 1.224 3.48.939 3.397 2.12-.084 1.181-1.514 5.567-1.514 5.567l11.193.172s-.859-6.381-.461-9.02c.397-2.638 1.031-12.33-1.366-13.502-2.397-1.173-10.702-1.851-11.626.502z" fill="#f1b282"/><path d="m261.861 182.034c9.321.286 12.739 2.665 13.111 10.053.221 4.403-1.775 10.501-4.915 10.484-2.265-.013-6.742-.264-7.606-1.52-2.049-2.982-.726-7.102-2.062-8.523-1.897-2.019-5.848-.975-5.746-7.935.102-6.962 4.115-2.653 7.218-2.559z" fill="#0b224e"/><g fill="#f1b282"><path d="m282.848 179.908s1.295-4.491.857-6.891c-.706-3.866-9.762-3.875-9.936-.526-.184 3.556 1.508 4.485 2.633 5.412 1.126.927 2.447 2.55 2.792 3.169.346.618 3.313.615 3.654-1.164z"/><path d="m220.927 205.836s-4.554-1.487-6.351-3.189c-2.897-2.742 2.19-10.013 5.14-8.269 3.133 1.853 2.972 3.733 3.129 5.157s.795 3.398 1.128 4.023c.334.625-1.338 3.004-3.046 2.278z"/><path d="m258.237 318.86 2.701 4.52s3.954 2.469 4.656-2.142c0 0-1.191-2.824-1.627-3.856-.435-1.032-5.73 1.478-5.73 1.478z"/></g><path d="m253.971 249.16s-14.648 23.258-14.74 27.923c-.166 8.42 17.804 41.839 17.804 41.839l8.06-1.79s-7.106-25.197-11.988-33.786c7.58-11.442 20.348-17.84 19.382-32.774-.262-4.05-18.518-1.412-18.518-1.412z" fill="#0b224e"/><path d="m268.277 207.191c-2.404-.162-6.846.091-9.443.044-6.654-.121-15.244 5.893-22.303 8.046-5.037-5.169-12.464-13.371-12.464-13.371l-5.564 3.646s11.526 18.137 17.957 19.172c3.892.625 10.068.379 14.741-1.651.394 6.078-5.726 29.902-.019 31.11 5.708 1.208 14.443-.88 19.957-.019 5.514.862 11.753 5.017 9.716-5.383-2.037-10.401-7.935-9.276 3.573-29.133 3.015-5.201 6.425-12.775 5.423-19.123-1.959-12.408-5.529-21.733-5.529-21.733l-6.28 1.046s1.393 13.063 3.251 20.69c-1.127 3.673-3.022 6.201-5.203 8.815-1.197 1.429-4.074-2.297-7.813-2.156z" fill="#1b90fb"/><path d="m287.835 328.641c.656-.088 1.402.633 1.548 3.314s.359 4.101-1.669 4.391c-1.274.182-6.204-1.116-10.917-1.026-1.703.033-4.89-.777-6.085-2.265-.244-.304-.322-.742-.199-1.114.124-.372.426-.607.767-.597 3.809.104 3.9.48 6.833-1.744 1.066-.807 1.949-1.562 2.535-1.604 1.141-.081 1.772 1.47 3.627 1.266s2.426-.467 3.56-.621z" fill="#0b224e"/><path d="m265.568 319.934c.683-.138 1.645.796 2.152 3.273.508 2.477 1.338 4.457-.773 4.901-1.326.279-8.365-.438-13.349.055-1.799.177-3.979-.713-5.442-1.991-.298-.261-.439-.661-.357-1.017.082-.357.371-.601.734-.621 4.05-.233 4.196.109 7.012-2.21 1.022-.842 1.859-1.62 2.475-1.709 1.199-.174 1.995.883 3.933.533 1.939-.35 2.434-.973 3.615-1.214z" fill="#0b224e"/></g></g><path d="m112.117 234.305c3.944-3.172 9.199-3.191 11.737-.035.938 1.168 1.302 3.797 1.433 6.15.042.825.546 1.547 1.3 1.885.755.337 1.63.224 2.275-.294l10.73-8.633 8.634 10.741c.513.639.627 1.514.296 2.264-.338.755-1.059 1.259-1.891 1.306-2.34.133-4.968.496-6.135 1.435-3.155 2.539-3.148 7.795.023 11.74 3.171 3.946 8.308 5.087 11.463 2.548 1.167-.939 2.085-3.428 2.712-5.693.229-.797.872-1.399 1.681-1.567.809-.169 1.638.142 2.152.781l8.634 10.741-28.564 22.981c-3.154 2.538-7.776 2.036-10.313-1.12l-22.97-28.577 10.736-8.638c.645-.519.943-1.349.775-2.16-.163-.803-.77-1.453-1.561-1.675-2.269-.634-4.757-1.552-5.696-2.72-2.54-3.156-1.394-8.287 2.549-11.46z" fill="#ffcb01"/><g><path d="m117.353 294.49s9.301 20.126 11.153 33.707c1.322 9.699 1.467 42.398 4.166 44.378 3.299 2.42 7.259 5.04 7.259 5.04l-1.789 1.254s-10.602-1.221-11.064-2.283c-.463-1.062-1.193-5.236-1.719-7.784-2.486-12.071-6.493-19.725-6.135-33.924-2.652-4.848-6.19-10.632-6.19-10.632s-.865-30.126 4.319-29.756z" fill="#f1b282"/><path d="m126.865 374.976c-1.046.118-.175 3.762 1.07 4.849-.038.003 4.605-.051 4.605-.051l-.081-1.194s4.192 1.434 6.413 1.284c2.284-.155 4.149-.429 4.124-.8-.035-.523-3.112-2.117-3.772-2.072-.914.062-1.761 1.232-2.541 1.246s-8.965-3.36-9.818-3.262z" fill="#0b224e"/><path d="m89.9805 360.491c4.303-9.056 6.2386-22.279 13.6145-31.104-1.271-9.256-7.0682-14.393-7.0682-25.132 0-5.39 2.1911-9.149 2.1911-9.149l18.6351-.617s1.96 19.979-3.172 37.923c-2.003 6.997-21.6647 29.466-20.4302 35.133.8711 3.999 3.1053 7.922 3.1053 7.922l-2.3512.088s-8.2101-6.937-8.0265-8.081c.1845-1.143 2.3854-4.633 3.5021-6.983z" fill="#f1b282"/><path d="m103.713 238.829c1.693.566 1.566 3.471 2.093 4.317.527.845 1.392 2.014 1.341 2.674-.052.661-1.748.637-1.615 2.254s.151 3.628-2.32 4.134-2.081 2.716-2.173 4.807c-.094 2.091-.406 2.694-1.2539 2.655-.4751-.022-2.8894-.489-5.4791-2.404-2.0327-1.503-4.4065-5.899-3.9808-8.418.8206-4.851 2.6266-8.783 6.5732-9.886 3.9486-1.103 5.3836-.611 6.8146-.133z" fill="#f1b282"/><path d="m87.1164 366.188c-.9449-.464-2.1776 3.073-1.7169 4.661-.0342-.019 3.9026 2.445 3.9026 2.445l.5758-1.049s2.7535 3.472 4.7044 4.545c2.0057 1.104 3.7235 1.882 3.9025 1.555.252-.458-1.4766-3.462-2.057-3.781-.8026-.441-2.147.086-2.8111-.324-.6622-.41-5.7301-7.673-6.5003-8.052z" fill="#0b224e"/><path d="m97.8378 293.052c0 3.83-2.8425 5.491-2.3566 13.24.4859 7.748 4.9448 19.072 6.7778 20.283 1.833 1.21 25.365.812 26.194-.782 2.198-4.229-9.622-30.99-11.91-32.742-2.29-1.75-18.7052.001-18.7052.001z" fill="#0b224e"/><path d="m97.8378 293.052c0-8.321-8.1254-13.037-8.1974-27.692 0-6.851 4.1752-9.28 10.6396-9.283 4.307-.002 13.367 9.222 13.373 12.137.007 2.915-1.691 6.705-1.691 9.718 0 5.44 4.749 10.989 4.749 15.12z" fill="#1b90fb"/><path d="m95.8186 267.482s1.0645 16.433 17.6654 23.05c1.508.6 2.007 1.118 3.145 1.563-.337-2.264-1.792-4.892-2.984-7.654l-13.368-8.665c0 .001-2.9764-5.026-4.4584-8.294z" fill="#1277d7"/><path d="m100.28 275.775s5.898 7.716 11.088 10.566c10.509 5.773 19.174 6.979 19.174 6.979s9.609 2.118 11.072-2.069c.522-1.496-1.739.46-6.49-.342-1.542-.308.185-1.481.741-2.407.555-.926-.926-1.296-3.086.247-2.159 1.543-9.94-1.914-17.345-7.903-7.264-5.875-8.897-11.117-8.897-11.117s-3.912 4.379-6.257 6.046z" fill="#f1b282"/><path d="m104.132 239.653s2.955-.197 2.955-3.13c0-5.263-11.9873-9.057-16.7645-2.662-4.7781 6.394-4.6639 14.909-10.4885 19.317-5.8246 4.409.647 15.568 6.7956 15.729 6.1485.161 12.459-5.962 10.5172-11.304-1.9419-5.342-4.0988-12.519-.593-11.224 3.5062 1.295 2.0516-6.977 7.5782-6.726z" fill="#0b224e"/><path d="m99.2911 251.757s.5768 1.273 1.9309 2.315c.176-.753.565-1.367 1.419-1.696-.624.106-1.761.118-3.3499-.619z" fill="#cd916a"/></g><g><path d="m411.143 273.763s1.827 5.195 3.895 9.145c2.068 3.951 11.561 9.399 15.03 10.575 2.721.922 5.9-.644 9.675-.499 1.235.048 1.504 1.294.068 2.047-1.058.553-2.866 1.261-2.494 1.987.371.725.519.983 3.692 3.293 3.173 2.309-1.006 5.677-3.418 5.778-2.311.098-5.13-3.675-7.176-5.632-2.672-2.553-13.448-4.18-20.169-10.277-6.55-5.942-9.425-12.797-9.425-12.797s4.428-4.207 10.322-3.62z" fill="#f1b282"/><path d="m406.843 263.8s4.266 10.521 6.603 13.41c1.446 1.787-5.828 10.749-6.795 10.668-.968-.081-4.643-9.59-4.643-9.59s1.531-12.15 4.835-14.488z" fill="#1eaf69"/><g fill="#4d78cc"><path d="m474.833 292.557h-13.576c-2.25 0-4.073-1.825-4.073-4.075 0-2.25 1.824-4.074 4.073-4.074h13.576c2.25 0 4.073 1.825 4.073 4.074 0 2.25-1.824 4.075-4.073 4.075z"/><path d="m474.833 313.135h-13.576c-2.25 0-4.073-1.825-4.073-4.075 0-2.25 1.824-4.074 4.073-4.074h13.576c2.25 0 4.073 1.824 4.073 4.074 0 2.251-1.824 4.075-4.073 4.075z"/></g><path d="m458.84 324.237h-24.943c-14.058 0-25.454-11.402-25.454-25.467 0-14.064 11.396-25.466 25.454-25.466h24.943c3.284 0 5.946 2.664 5.946 5.949v39.034c0 3.287-2.662 5.95-5.946 5.95z" fill="#224380"/><g><path d="m419.596 243.774c.051 2.511-1.209 3.146-1.406 4.08s-.044 3.133-.476 3.888c-.432.756-1.643.203-2.52 1.013-.876.81-1.046 2.419-2.564 2.926-1.518.508-4.702-1.622-5.141-.548s-.699 5.839-.699 5.839l-9.501-5.205s3.984-4.884 4.707-7.429 4.395-11.314 7.876-10.65c3.481.665 9.67 3.42 9.724 6.086z" fill="#f1b282"/><path d="m407.487 255.134c-.089.213-.168.567-.238.997-.813-1.616.1-3.412.1-3.412 1.697 2.464 4.479 3.03 4.479 3.03s0 0-.009.004c-1.629-.145-3.955-1.524-4.332-.619z" fill="#cd916a"/></g><path d="m420.728 232.668s4.141 5.478 2.616 8.614c-1.228 2.526-3.099 4.4-8.332 1.852-2.521-1.227-4.09 5.469-4.727 5.158-1.115-.542-.871-4.422-2.159-5.049-1.842-.897-5.396 10.025-7.302 9.097-2.577-1.255-5.555-7.062-2.2-13.962 4.506-9.264 13.089-6.824 15.825-5.672 2.735 1.153 6.279-.038 6.279-.038z" fill="#0b224e"/><path d="m348.505 363.651-4.92 5.043 4.428 3.08 5.413-5.223z" fill="#f1b282"/><path d="m403.518 368.11-.16 3.593-6.208-.421.386-4.489z" fill="#f1b282"/><path d="m386.249 311.453s-2.313 23.508-6.972 31.162c-4.499 7.39-26.373 26.928-26.373 26.928l-6.596-5.532s14.757-21.473 20.777-29.236c-3.23-15.276-1.128-28.597.644-31.661 1.774-3.063 18.935-1.802 18.52 8.339z" fill="#0b224e"/><path d="m391.797 300.697s2.525 6.61 8.326 11.125 13.537 13.382 13.537 20.638c0 7.255-9.508 35.955-9.508 35.955l-8.108-.806s1.245-25.418 3.595-32.833c-9.722-5.783-30.459-13.28-32.071-31.177z" fill="#102b5e"/><path d="m400.293 286.402c-8.667 10.372-4.789 21.438-9.026 20.188-6.554-1.935-15.325-4.033-20.519-2.888-5.408 1.192-8.39.273-6.134-4.134s12.249-17.844 14.827-27.088c1.879-6.738 9.822-16.217 18.37-17.372 1.05.07 6.502 1.023 9.201 2.943 2.584 6.021 1.949 17.979-6.719 28.351z" fill="#2ccd7f"/><path d="m396.545 292.358c-.826 1.826-1.382 3.598-1.771 5.23-2.715-6.391-6.555-17.345-4.041-25.319 0 0 .361 11.038 5.812 20.089z" fill="#1eaf69"/><path d="m403.615 278.715s.661 5.948 1.881 10.64c1.22 4.691 9.937 12.792 13.321 14.888 2.656 1.645 6.406.766 10.368 1.847 1.297.354 1.276 1.74-.43 2.183-1.256.327-3.344.631-3.13 1.492s.309 1.169 3.103 4.393c2.793 3.225-2.458 5.765-5.036 5.281-2.472-.463-4.531-5.152-6.218-7.726-2.203-3.359-13.215-7.728-18.837-15.834-5.479-7.901-6.842-15.865-6.842-15.865s5.723-3.368 11.82-1.299z" fill="#f1b282"/><path d="m344.627 366.785c-.508-.4-1.699.055-3.161 2.083s-2.645 2.852-1.081 4.101c.983.784 6.444 4.22 10.37 6.667 1.418.884 3.938.333 5.689-.23.357-.116.641-.419.723-.773s-.055-.689-.348-.854c-3.261-1.838-3.525-1.589-4.885-4.811-.494-1.169-.861-2.207-1.335-2.534-.92-.638-2.025-.007-3.486-1.102-1.46-1.095-1.607-1.856-2.486-2.547z" fill="#0b224e"/><path d="m396.668 369.84c-.669-.102-1.423.891-1.49 3.41-.068 2.518-.599 3.834 1.471 4.163 1.78.282 13.657.796 16.947.935.254.011.499-.101.673-.305.173-.205.26-.483.235-.763-.109-1.234-.88-3.139-4.44-3.739-2.6-.651-4.985-3.33-6.147-3.438-1.163-.108-1.739.999-3.63.755s-2.462-.843-3.619-1.018z" fill="#0b224e"/><g fill="#355aa2"><path d="m345.654 363.286c-.389 1.704 1.608 2.741 2.643 3.757 1.034 1.017 4.809 4.301 5.606 3.384.798-.918.694-2.051 1.266-2.779.574-.727 2.147-1.084 1.567-2.31s-2.513-1.747-3.684-2.494c-.856-.547-3.196-3.841-3.882-3.612-.685.229-.76 1.501-1.272 2.012-.759.76-1.943.718-2.244 2.042z"/><path d="m395.213 366.772c.556 1.658 2.8 1.502 4.213 1.83s6.345 1.163 6.548-.036c.202-1.199-.476-2.112-.366-3.031.109-.92 1.268-2.045.134-2.789-1.134-.745-3.055-.181-4.444-.209-1.015-.02-4.727-1.612-5.193-1.059-.467.553.133 1.677-.039 2.381-.254 1.045-1.285 1.628-.853 2.913z"/></g></g><g><path d="m548.028 334.631h-50.94c-5.729 0-10.373-4.646-10.373-10.378v-50.964c0-5.732 4.644-10.378 10.373-10.378h50.94c5.73 0 10.374 4.646 10.374 10.378v50.964c0 5.732-4.645 10.378-10.374 10.378z" fill="#c3d3f3"/><g fill="#86a0d1"><path d="m509.173 311.199c-2.319 0-4.2-1.88-4.2-4.201v-16.455c0-2.32 1.88-4.202 4.2-4.202 2.319 0 4.199 1.881 4.199 4.202v16.455c0 2.321-1.879 4.201-4.199 4.201z"/><path d="m535.943 311.199c-2.319 0-4.2-1.88-4.2-4.201v-16.455c0-2.32 1.88-4.202 4.2-4.202 2.319 0 4.199 1.881 4.199 4.202v16.455c0 2.321-1.88 4.201-4.199 4.201z"/></g></g></svg>