<?xml version="1.0" encoding="UTF-8" standalone="no"?>
<!DOCTYPE svg PUBLIC "-//W3C//DTD SVG 1.1//EN" "http://www.w3.org/Graphics/SVG/1.1/DTD/svg11.dtd">
<!-- Created with Vectornator (http://vectornator.io/) -->
<svg height="100%" stroke-miterlimit="10" style="fill-rule:nonzero;clip-rule:evenodd;stroke-linecap:round;stroke-linejoin:round;" version="1.1" viewBox="0 0 600 400" width="100%" xml:space="preserve" xmlns="http://www.w3.org/2000/svg" xmlns:vectornator="http://vectornator.io" xmlns:xlink="http://www.w3.org/1999/xlink">
<defs/>
<g id="团队合作理念" vectornator:layerName="团队合作理念">
<path d="M0 0L600 0L600 0L600 400L600 400L0 400L0 400L0 0L0 0Z" fill="#f3f9ff" fill-opacity="0" fill-rule="evenodd" opacity="1" stroke="none"/>
<path d="M127.894 333.399C62.03 333.399 35.1503 289.9 35.1503 241.485C35.1503 193.069 61.5783 163.26 95.6513 163.26C129.724 163.26 120.045 192.213 159.911 192.213C199.777 192.213 221.367 123.81 278.457 123.81C335.547 123.81 306.673 185.49 357.19 185.49C407.706 185.49 469.156 141.778 478.905 191.599C491.614 256.551 667.581 335.493 475.566 335.493C399.582 335.493 127.894 333.399 127.894 333.399Z" fill="#f3f9ff" fill-rule="nonzero" opacity="1" stroke="none"/>
<g opacity="1">
<path d="M100.992 317.794C104.319 310.006 109.284 298.97 99.1381 292.454C88.9916 285.938 98.2545 282.079 98.5838 272.634C98.9131 263.19 88.5561 260.762 88.8665 256.284C89.1761 251.805 89.6908 243.887 88.7343 240.507C87.1344 234.853 75.1621 232.285 73.9411 248.207C73.1735 258.211 72.1414 264.252 66.8081 271.388C61.4748 278.525 73.223 286.07 73.0052 291.815C72.7875 297.559 66.9998 296.709 67.6323 308.885C68.2649 321.06 76.2644 330.267 83.8698 329.724C89.0357 329.354 97.9539 324.904 100.992 317.794Z" fill="#8ae6b9" fill-rule="nonzero" opacity="1" stroke="none"/>
<path d="M81.3943 333.842C81.1604 333.842 80.9498 333.679 80.8994 333.441C80.7177 332.577 81.2513 330.921 82.377 327.555C84.2747 321.882 87.1416 313.307 86.5126 305.43C86.1176 300.494 84.8983 295.232 83.7177 290.145C82.0305 282.867 80.436 275.992 81.3674 270.71C82.4121 264.78 81.7102 257.1 81.29 252.511C81.0443 249.826 80.9327 248.51 81.0758 247.949C81.1442 247.678 81.4204 247.511 81.6913 247.584C81.9621 247.653 82.1259 247.928 82.0566 248.199C81.9504 248.617 82.1115 250.379 82.2978 252.418C82.7216 257.057 83.4325 264.823 82.3635 270.887C81.469 275.965 83.0401 282.741 84.7039 289.916C85.8917 295.04 87.1209 300.339 87.5213 305.349C88.1674 313.432 85.26 322.125 83.3371 327.876C82.4885 330.411 81.757 332.601 81.8902 333.231C81.9477 333.505 81.7723 333.774 81.4996 333.831C81.4645 333.839 81.4294 333.842 81.3943 333.842Z" fill="#44d690" fill-rule="nonzero" opacity="1" stroke="none"/>
<path d="M80.2696 280.997C77.7167 280.997 75.8343 278.731 75.0991 277.274C74.9732 277.025 75.073 276.721 75.3223 276.594C75.5706 276.466 75.8766 276.567 76.0017 276.817C76.0916 276.991 78.2314 281.111 81.6877 279.688C81.9477 279.579 82.242 279.704 82.3482 279.962C82.4543 280.222 82.3311 280.517 82.0728 280.623C81.4429 280.884 80.8392 280.997 80.2696 280.997Z" fill="#44d690" fill-rule="nonzero" opacity="1" stroke="none"/>
<path d="M81.6544 272.619C81.4186 272.619 81.2072 272.452 81.1595 272.214C81.1037 271.94 81.281 271.673 81.5545 271.616C81.6076 271.605 86.9247 270.473 88.4094 265.891C88.4958 265.626 88.7793 265.48 89.0474 265.566C89.3138 265.652 89.4586 265.937 89.3722 266.204C87.7031 271.357 81.9972 272.561 81.7552 272.61C81.721 272.616 81.6877 272.619 81.6544 272.619Z" fill="#44d690" fill-rule="nonzero" opacity="1" stroke="none"/>
<path d="M87.0138 305.896C86.7123 305.896 79.8745 305.822 78.2062 300.135C78.128 299.867 78.2809 299.585 78.55 299.507C78.8217 299.428 79.0998 299.583 79.1781 299.85C80.6574 304.896 86.7699 304.893 87.012 304.882C87.29 304.885 87.5204 305.102 87.5231 305.383C87.5267 305.662 87.3035 305.891 87.0237 305.895C87.0228 305.896 87.0192 305.896 87.0138 305.896Z" fill="#44d690" fill-rule="nonzero" opacity="1" stroke="none"/>
<path d="M86.5954 314.235C86.3974 314.235 86.2093 314.118 86.1284 313.923C86.0204 313.666 86.1418 313.37 86.4001 313.262C86.5036 313.218 96.7023 308.877 96.9236 302.537C96.9335 302.258 97.1747 302.052 97.4473 302.048C97.7263 302.058 97.9449 302.292 97.935 302.572C97.6912 309.562 87.2351 314.009 86.7906 314.195C86.7267 314.222 86.6611 314.235 86.5954 314.235Z" fill="#44d690" fill-rule="nonzero" opacity="1" stroke="none"/>
</g>
<g opacity="1">
<g opacity="1">
<path d="M485.7 308.673C480.667 296.895 473.16 280.206 488.504 270.352C503.848 260.498 489.84 254.663 489.341 240.379C488.843 226.096 504.505 222.426 504.037 215.653C503.569 208.88 502.791 196.904 504.237 191.795C506.657 183.243 524.761 179.361 526.609 203.438C527.77 218.567 529.33 227.703 537.396 238.495C545.461 249.287 527.695 260.698 528.024 269.385C528.353 278.073 537.106 276.786 536.149 295.199C535.191 313.612 523.095 327.536 511.593 326.714C503.781 326.156 490.294 319.425 485.7 308.673Z" fill="#dceefd" fill-rule="nonzero" opacity="1" stroke="none"/>
<path d="M515.337 332.942C515.691 332.942 516.009 332.695 516.084 332.335C516.359 331.03 515.553 328.524 513.85 323.434C510.98 314.853 506.644 301.886 507.596 289.976C508.194 282.512 510.038 274.554 511.822 266.861C514.374 255.854 516.784 245.458 515.376 237.471C513.797 228.501 514.858 216.887 515.493 209.948C515.865 205.888 516.033 203.898 515.817 203.05C515.714 202.638 515.296 202.387 514.887 202.496C514.477 202.6 514.23 203.016 514.334 203.426C514.495 204.059 514.251 206.723 513.97 209.808C513.328 216.823 512.255 228.566 513.871 237.737C515.223 245.417 512.848 255.664 510.332 266.514C508.535 274.263 506.677 282.276 506.071 289.853C505.094 302.076 509.49 315.222 512.399 323.921C513.681 327.754 514.788 331.065 514.587 332.019C514.5 332.433 514.765 332.84 515.178 332.927C515.231 332.937 515.284 332.942 515.337 332.942Z" fill="#d0e7fe" fill-rule="nonzero" opacity="1" stroke="none"/>
<path d="M517.038 253.025C520.899 253.025 523.745 249.599 524.857 247.396C525.048 247.019 524.896 246.559 524.519 246.369C524.143 246.174 523.682 246.328 523.492 246.705C523.356 246.97 520.12 253.199 514.893 251.047C514.499 250.882 514.054 251.072 513.893 251.463C513.732 251.855 513.918 252.302 514.31 252.462C515.264 252.855 516.176 253.025 517.038 253.025Z" fill="#d0e7fe" fill-rule="nonzero" opacity="1" stroke="none"/>
<path d="M514.943 240.357C515.3 240.357 515.619 240.106 515.692 239.744C515.776 239.33 515.508 238.925 515.095 238.841C515.014 238.825 506.973 237.112 504.728 230.181C504.598 229.781 504.17 229.561 503.765 229.689C503.363 229.819 503.143 230.251 503.273 230.654C505.797 238.447 514.426 240.269 514.792 240.342C514.843 240.352 514.893 240.357 514.943 240.357Z" fill="#d0e7fe" fill-rule="nonzero" opacity="1" stroke="none"/>
<path d="M506.839 290.68C507.296 290.68 517.636 290.567 520.16 281.968C520.278 281.563 520.046 281.136 519.64 281.018C519.23 280.9 518.809 281.134 518.69 281.537C516.452 289.167 507.21 289.164 506.844 289.148C506.424 289.152 506.075 289.48 506.07 289.905C506.065 290.326 506.403 290.673 506.825 290.68C506.826 290.68 506.831 290.68 506.839 290.68Z" fill="#d0e7fe" fill-rule="nonzero" opacity="1" stroke="none"/>
<path d="M507.471 303.29C507.77 303.29 508.055 303.114 508.178 302.82C508.34 302.431 508.157 301.982 507.766 301.819C507.61 301.754 492.187 295.19 491.852 285.601C491.837 285.179 491.472 284.866 491.06 284.861C490.638 284.877 490.308 285.231 490.322 285.654C490.69 296.224 506.503 302.949 507.176 303.231C507.272 303.271 507.373 303.29 507.471 303.29Z" fill="#d0e7fe" fill-rule="nonzero" opacity="1" stroke="none"/>
</g>
<g opacity="1">
<path d="M302.828 325.663C291.822 325.663 285.58 309.75 287.716 306.463C289.851 303.176 296.586 312.215 298.064 309.585C299.543 306.955 284.704 294.465 287.442 291.179C290.18 287.892 295.272 295.451 296.422 293.972C297.572 292.493 284.521 279.51 287.104 276.387C289.687 273.265 292.513 281.482 294.796 279.674C297.079 277.867 285.252 261.432 290.672 257.652C296.093 253.872 304.142 283.29 307.263 284.112C310.384 284.933 318.269 267.184 321.883 270.8C325.497 274.415 309.399 295.615 312.027 297.751C314.656 299.888 324.347 288.384 327.468 292.985C330.589 297.586 316.627 307.612 317.612 308.926C318.598 310.24 329.111 305.311 330.26 308.761C331.409 312.212 320.075 325.663 302.828 325.663Z" fill="#8ae6b9" fill-rule="nonzero" opacity="1" stroke="none"/>
<path d="M308.152 332.066C308.107 332.066 308.062 332.062 308.017 332.051C307.694 331.976 307.493 331.655 307.567 331.331C312.388 310.344 301.584 289.038 301.474 288.825C301.322 288.531 301.437 288.169 301.732 288.017C302.025 287.866 302.389 287.98 302.54 288.275C302.652 288.491 313.659 310.176 308.737 331.6C308.673 331.878 308.425 332.066 308.152 332.066Z" fill="#45d48f" fill-rule="nonzero" opacity="1" stroke="none"/>
<path d="M322.274 306.503C322.274 298.807 332.592 296.555 332.592 291.3C332.592 286.044 318.897 283.229 318.897 273.657C318.897 264.085 332.592 265.399 332.592 258.079C332.592 250.759 325.744 250.759 325.744 241.75C325.744 232.742 343.473 208.717 351.352 208.717C359.23 208.717 367.11 231.24 367.11 238.747C367.11 246.254 353.791 249.633 353.791 256.015C353.791 262.397 367.11 262.792 367.11 269.069C367.11 275.347 350.976 281.01 350.976 285.669C350.976 290.328 362.607 293.364 362.607 302.186C362.607 311.007 351.379 328.65 345.723 328.65C340.068 328.65 322.274 314.198 322.274 306.503Z" fill="#9e95e3" fill-rule="nonzero" opacity="1" stroke="none"/>
<path d="M346.473 335.82C346.187 335.82 345.933 335.615 345.882 335.323C339.96 301.517 340.277 277.792 341.586 263.842C343.007 248.679 345.8 241.631 345.917 241.338C346.042 241.03 346.393 240.882 346.698 241.007C347.005 241.131 347.154 241.48 347.031 241.788C347.002 241.858 344.173 249.021 342.773 264.041C341.479 277.906 341.174 301.493 347.066 335.116C347.122 335.443 346.905 335.754 346.578 335.811C346.542 335.817 346.507 335.82 346.473 335.82Z" fill="#877cd8" fill-rule="nonzero" opacity="1" stroke="none"/>
</g>
</g>
<path d="M280.858 369.29C275.958 369.29 270.615 368.471 264.679 366.666C244.376 360.496 232.341 340.243 229.874 308.099C228.06 284.468 231.94 262.964 232.105 262.06L238.3 263.199C238.147 264.04 223.376 347.528 266.51 360.636C292.433 368.515 305.418 354.949 323.387 336.172C327.798 331.565 332.359 326.799 337.482 321.947C373.096 288.223 418.188 294.933 420.092 295.232L419.104 301.457C418.673 301.386 375.114 294.987 341.812 326.524C336.802 331.269 332.296 335.978 327.937 340.531C312.912 356.23 300.411 369.29 280.858 369.29Z" fill="#c3d3f3" fill-rule="nonzero" opacity="1" stroke="none"/>
<path d="M547.459 122.312C553.557 122.312 558.503 117.367 558.503 111.267C558.503 111.266 558.503 111.265 558.503 111.264C558.503 99.0581 548.613 89.1644 536.414 89.1644C536.225 89.1644 536.051 89.2148 535.864 89.2193C533.326 76.5843 522.18 67.065 508.804 67.065C503.595 67.065 498.778 68.5937 494.621 71.1018C490.042 62.1821 480.86 56.0163 470.149 56.0163C456.772 56.0163 445.626 65.5355 443.089 78.1705C442.901 78.1669 442.727 78.1156 442.539 78.1156C427.289 78.1156 414.928 90.4832 414.928 105.739C414.928 105.741 414.928 105.742 414.928 105.744C414.93 114.897 422.345 122.313 431.495 122.313L547.459 122.313L547.459 122.312Z" fill="#f3f9ff" fill-rule="nonzero" opacity="1" stroke="none"/>
<g opacity="1">
<path d="M131.804 114.526C131.804 62.3208 174.105 20 226.286 20C278.467 20 320.768 62.3208 320.768 114.526C320.768 166.732 278.467 209.052 226.286 209.052C174.105 209.052 131.804 166.732 131.804 114.526Z" fill="#fff9de" fill-rule="nonzero" opacity="1" stroke="none"/>
<path d="M145.301 115.083C145.301 70.336 181.559 34.061 226.286 34.061C271.013 34.061 307.271 70.336 307.271 115.083C307.271 159.831 271.013 196.106 226.286 196.106C181.559 196.106 145.301 159.831 145.301 115.083Z" fill="#fef0b9" fill-rule="nonzero" opacity="1" stroke="none"/>
<g opacity="1">
<path d="M214.348 54.5858C189.864 59.3472 170.225 79.2229 165.674 103.759C162.52 120.756 166.293 136.806 174.633 149.594C185.306 165.971 190.878 185.144 191.237 204.675C191.254 205.361 191.262 206.048 191.262 206.734L191.262 209.127L262.428 209.127C262.428 207.646 262.454 206.156 262.512 204.675C263.182 185.335 268.091 166.121 278.781 150.004C285.306 140.171 289.111 128.371 289.111 115.677C289.111 77.1811 254.222 46.8445 214.348 54.5858Z" fill="#ffcb01" fill-rule="nonzero" opacity="1" stroke="none"/>
<path d="M200.474 144.428L200.474 107.756C200.474 103.706 203.761 100.417 207.81 100.417L244.463 100.417L244.463 114.2C244.463 115.029 244.923 115.782 245.659 116.158C246.387 116.535 247.274 116.468 247.943 115.991C249.859 114.619 252.134 113.254 253.631 113.254C257.679 113.254 260.958 117.363 260.958 122.426C260.958 127.489 257.679 131.598 253.631 131.598C252.134 131.598 249.859 130.234 247.943 128.861C247.274 128.376 246.395 128.317 245.659 128.693C244.923 129.07 244.463 129.823 244.463 130.651L244.463 144.426L230.687 144.426C229.867 144.426 229.114 143.966 228.738 143.238C228.362 142.501 228.42 141.623 228.905 140.945C230.269 139.037 231.632 136.761 231.632 135.263C231.632 131.212 227.533 127.924 222.472 127.924C217.412 127.924 213.305 131.212 213.305 135.263C213.305 136.761 214.668 139.036 216.04 140.945C216.517 141.623 216.584 142.501 216.208 143.238C215.832 143.974 215.07 144.426 214.251 144.426L200.474 144.426L200.474 144.428Z" fill="#ffffff" fill-rule="nonzero" opacity="1" stroke="none"/>
<path d="M253.506 249.175L244.61 266.974L209.026 266.974L205.736 260.477L200.131 249.175L253.506 249.175Z" fill="#355aa2" fill-rule="nonzero" opacity="1" stroke="none"/>
<path d="M254.225 249.175L199.459 249.175C190.017 249.175 182.362 241.516 182.362 232.07L182.362 210.076C182.362 207.093 184.779 204.674 187.761 204.674L265.923 204.674C268.905 204.674 271.322 207.093 271.322 210.076L271.322 232.07C271.322 241.516 263.667 249.175 254.225 249.175Z" fill="#224380" fill-rule="nonzero" opacity="1" stroke="none"/>
<path d="M200.131 249.175L247.9 260.477L253.506 249.175L200.131 249.175Z" fill="#183168" fill-rule="nonzero" opacity="1" stroke="none"/>
<g opacity="1">
<path d="M256.445 113.957C257.301 115.459 257.81 117.291 257.81 119.276C257.81 124.339 254.531 128.448 250.482 128.448C248.985 128.448 246.71 127.084 244.795 125.711C244.125 125.226 243.247 125.167 242.511 125.543C241.775 125.92 241.315 126.673 241.315 127.501L241.315 141.276L228.733 141.276C228.432 141.896 228.419 142.615 228.739 143.239C229.115 143.967 229.868 144.427 230.688 144.427L244.464 144.427L244.464 130.652C244.464 129.824 244.924 129.071 245.66 128.694C246.396 128.318 247.274 128.377 247.944 128.862C249.86 130.234 252.134 131.599 253.632 131.599C257.68 131.599 260.959 127.49 260.959 122.427C260.959 118.611 259.096 115.339 256.445 113.957Z" fill="#f0b701" fill-rule="nonzero" opacity="1" stroke="none"/>
<path d="M242.152 112.757C242.15 112.759 242.143 112.765 242.143 112.765L244.925 115.573C244.734 115.297 244.464 114.623 244.464 113.013L244.464 100.417L241.315 100.417L241.315 111.049C241.315 111.729 241.635 112.345 242.152 112.757Z" fill="#f0b701" fill-rule="nonzero" opacity="1" stroke="none"/>
<path d="M245.109 115.759L244.925 115.573C245.028 115.724 245.109 115.759 245.109 115.759Z" fill="#f0b701" fill-rule="nonzero" opacity="1" stroke="none"/>
<path d="M229.817 130.888C229.589 130.59 229.194 130.253 228.733 129.914C229.573 130.778 230.214 131.407 229.817 130.888Z" fill="#f0b701" fill-rule="nonzero" opacity="1" stroke="none"/>
<path d="M228.733 129.914C227.97 129.128 227.051 128.158 226.586 127.665C226.506 127.582 226.433 127.493 226.348 127.412C226.308 127.371 226.283 127.344 226.283 127.344L226.274 127.35C224.595 125.778 222.11 124.774 219.324 124.774C214.263 124.774 210.156 128.062 210.156 132.113C210.156 133.611 211.52 135.887 212.892 137.795C213.369 138.473 213.435 139.351 213.059 140.088C212.683 140.824 211.922 141.276 211.102 141.276L200.475 141.276L200.475 144.427L214.252 144.427C215.071 144.427 215.833 143.975 216.209 143.239C216.585 142.502 216.518 141.624 216.041 140.946C214.669 139.038 213.306 136.761 213.306 135.263C213.306 131.213 217.413 127.925 222.473 127.925C224.453 127.925 226.281 128.433 227.778 129.288C227.772 129.277 227.763 129.266 227.756 129.254C228.092 129.467 228.427 129.69 228.733 129.914Z" fill="#f0b701" fill-rule="nonzero" opacity="1" stroke="none"/>
</g>
</g>
</g>
<g opacity="1">
<path d="M309.039 380.382L312.594 379.817L300.792 305.491L300.792 305.315L300.764 305.315L276.034 149.578L272.479 150.143L274.36 161.993L231.296 161.993L229.325 149.578L225.769 150.143L232.046 189.666L232.046 189.694L232.05 189.694L262.33 380.382L265.885 379.817L263.836 366.915L306.899 366.915L309.039 380.382ZM254.627 308.917L297.69 308.917L301.723 334.315L258.66 334.315L254.627 308.917ZM254.056 305.316L249.559 277.002L292.622 277.002L297.119 305.316L254.056 305.316ZM287.624 245.517L244.561 245.517L240.636 220.805L283.7 220.805L287.624 245.517ZM288.195 249.118L292.051 273.401L248.988 273.401L245.132 249.118L288.195 249.118ZM274.933 165.595L278.187 186.094L235.124 186.094L231.869 165.595L274.933 165.595L274.933 165.595ZM278.76 189.694L283.127 217.204L240.064 217.204L235.696 189.694L278.76 189.694ZM263.265 363.314L259.232 337.915L302.295 337.915L306.329 363.314L263.265 363.314Z" fill="#183168" fill-rule="nonzero" opacity="1" stroke="none"/>
<g opacity="1">
<path d="M280.818 326.252L282.777 331.113C282.777 331.113 286.319 334.183 287.767 329.8C287.767 329.8 287.037 326.845 286.771 325.766C286.504 324.687 280.818 326.252 280.818 326.252Z" fill="#f1b282" fill-rule="nonzero" opacity="1" stroke="none"/>
<path d="M288.08 326.55L279.693 326.558C279.693 326.558 269.815 295.236 267.094 286.938C264.951 280.403 261.554 258.8 261.697 248.736C261.833 239.141 278.228 244.322 279.502 251.06C283.235 270.809 279.613 285.464 280.071 288.918C284.717 299.157 288.08 326.55 288.08 326.55Z" fill="#102b5e" fill-rule="nonzero" opacity="1" stroke="none"/>
<path d="M256.047 187.065C255.176 189.28 255.752 190.486 255.563 191.419C255.374 192.353 254.544 194.238 254.561 195.131C254.578 196.024 255.52 196.145 255.798 197.313C256.075 198.481 255.644 200.003 256.424 201.226C257.203 202.45 259.904 202.165 259.821 203.346C259.737 204.527 258.307 208.913 258.307 208.913L269.5 209.085C269.5 209.085 268.641 202.704 269.039 200.065C269.436 197.427 270.07 187.735 267.673 186.563C265.276 185.39 256.971 184.712 256.047 187.065Z" fill="#f1b282" fill-rule="nonzero" opacity="1" stroke="none"/>
<path d="M261.861 182.034C271.182 182.32 274.6 184.699 274.972 192.087C275.193 196.49 273.197 202.588 270.057 202.571C267.792 202.558 263.315 202.307 262.451 201.051C260.402 198.069 261.725 193.949 260.389 192.528C258.492 190.509 254.541 191.553 254.643 184.593C254.745 177.631 258.758 181.94 261.861 182.034Z" fill="#0b224e" fill-rule="nonzero" opacity="1" stroke="none"/>
<path d="M282.848 179.908C282.848 179.908 284.143 175.417 283.705 173.017C282.999 169.151 273.943 169.142 273.769 172.491C273.585 176.047 275.277 176.976 276.402 177.903C277.528 178.83 278.849 180.453 279.194 181.072C279.54 181.69 282.507 181.687 282.848 179.908Z" fill="#f1b282" fill-rule="nonzero" opacity="1" stroke="none"/>
<path d="M220.927 205.836C220.927 205.836 216.373 204.349 214.576 202.647C211.679 199.905 216.766 192.634 219.716 194.378C222.849 196.231 222.688 198.111 222.845 199.535C223.002 200.959 223.64 202.933 223.973 203.558C224.307 204.183 222.635 206.562 220.927 205.836Z" fill="#f1b282" fill-rule="nonzero" opacity="1" stroke="none"/>
<path d="M258.237 318.86L260.938 323.38C260.938 323.38 264.892 325.849 265.594 321.238C265.594 321.238 264.403 318.414 263.967 317.382C263.532 316.35 258.237 318.86 258.237 318.86Z" fill="#f1b282" fill-rule="nonzero" opacity="1" stroke="none"/>
<path d="M253.971 249.16C253.971 249.16 239.323 272.418 239.231 277.083C239.065 285.503 257.035 318.922 257.035 318.922L265.095 317.132C265.095 317.132 257.989 291.935 253.107 283.346C260.687 271.904 273.455 265.506 272.489 250.572C272.227 246.522 253.971 249.16 253.971 249.16Z" fill="#0b224e" fill-rule="nonzero" opacity="1" stroke="none"/>
<path d="M268.277 207.191C265.873 207.029 261.431 207.282 258.834 207.235C252.18 207.114 243.59 213.128 236.531 215.281C231.494 210.112 224.067 201.91 224.067 201.91L218.503 205.556C218.503 205.556 230.029 223.693 236.46 224.728C240.352 225.353 246.528 225.107 251.201 223.077C251.595 229.155 245.475 252.979 251.182 254.187C256.89 255.395 265.625 253.307 271.139 254.168C276.653 255.03 282.892 259.185 280.855 248.785C278.818 238.384 272.92 239.509 284.428 219.652C287.443 214.451 290.853 206.877 289.851 200.529C287.892 188.121 284.322 178.796 284.322 178.796L278.042 179.842C278.042 179.842 279.435 192.905 281.293 200.532C280.166 204.205 278.271 206.733 276.09 209.347C274.893 210.776 272.016 207.05 268.277 207.191Z" fill="#1b90fb" fill-rule="nonzero" opacity="1" stroke="none"/>
<path d="M287.835 328.641C288.491 328.553 289.237 329.274 289.383 331.955C289.529 334.636 289.742 336.056 287.714 336.346C286.44 336.528 281.51 335.23 276.797 335.32C275.094 335.353 271.907 334.543 270.712 333.055C270.468 332.751 270.39 332.313 270.513 331.941C270.637 331.569 270.939 331.334 271.28 331.344C275.089 331.448 275.18 331.824 278.113 329.6C279.179 328.793 280.062 328.038 280.648 327.996C281.789 327.915 282.42 329.466 284.275 329.262C286.13 329.058 286.701 328.795 287.835 328.641Z" fill="#0b224e" fill-rule="nonzero" opacity="1" stroke="none"/>
<path d="M265.568 319.934C266.251 319.796 267.213 320.73 267.72 323.207C268.228 325.684 269.058 327.664 266.947 328.108C265.621 328.387 258.582 327.67 253.598 328.163C251.799 328.34 249.619 327.45 248.156 326.172C247.858 325.911 247.717 325.511 247.799 325.155C247.881 324.798 248.17 324.554 248.533 324.534C252.583 324.301 252.729 324.643 255.545 322.324C256.567 321.482 257.404 320.704 258.02 320.615C259.219 320.441 260.015 321.498 261.953 321.148C263.892 320.798 264.387 320.175 265.568 319.934Z" fill="#0b224e" fill-rule="nonzero" opacity="1" stroke="none"/>
</g>
</g>
<path d="M112.117 234.305C116.061 231.133 121.316 231.114 123.854 234.27C124.792 235.438 125.156 238.067 125.287 240.42C125.329 241.245 125.833 241.967 126.587 242.305C127.342 242.642 128.217 242.529 128.862 242.011L139.592 233.378L148.226 244.119C148.739 244.758 148.853 245.633 148.522 246.383C148.184 247.138 147.463 247.642 146.631 247.689C144.291 247.822 141.663 248.185 140.496 249.124C137.341 251.663 137.348 256.919 140.519 260.864C143.69 264.81 148.827 265.951 151.982 263.412C153.149 262.473 154.067 259.984 154.694 257.719C154.923 256.922 155.566 256.32 156.375 256.152C157.184 255.983 158.013 256.294 158.527 256.933L167.161 267.674L138.597 290.655C135.443 293.193 130.821 292.691 128.284 289.535L105.314 260.958L116.05 252.32C116.695 251.801 116.993 250.971 116.825 250.16C116.662 249.357 116.055 248.707 115.264 248.485C112.995 247.851 110.507 246.933 109.568 245.765C107.028 242.609 108.174 237.478 112.117 234.305Z" fill="#ffcb01" fill-rule="nonzero" opacity="1" stroke="none"/>
<g opacity="1">
<path d="M117.353 294.49C117.353 294.49 126.654 314.616 128.506 328.197C129.828 337.896 129.973 370.595 132.672 372.575C135.971 374.995 139.931 377.615 139.931 377.615L138.142 378.869C138.142 378.869 127.54 377.648 127.078 376.586C126.615 375.524 125.885 371.35 125.359 368.802C122.873 356.731 118.866 349.077 119.224 334.878C116.572 330.03 113.034 324.246 113.034 324.246C113.034 324.246 112.169 294.12 117.353 294.49Z" fill="#f1b282" fill-rule="nonzero" opacity="1" stroke="none"/>
<path d="M126.865 374.976C125.819 375.094 126.69 378.738 127.935 379.825C127.897 379.828 132.54 379.774 132.54 379.774L132.459 378.58C132.459 378.58 136.651 380.014 138.872 379.864C141.156 379.709 143.021 379.435 142.996 379.064C142.961 378.541 139.884 376.947 139.224 376.992C138.31 377.054 137.463 378.224 136.683 378.238C135.903 378.252 127.718 374.878 126.865 374.976Z" fill="#0b224e" fill-rule="nonzero" opacity="1" stroke="none"/>
<path d="M89.9805 360.491C94.2835 351.435 96.2191 338.212 103.595 329.387C102.324 320.131 96.5268 314.994 96.5268 304.255C96.5268 298.865 98.7179 295.106 98.7179 295.106L117.353 294.489C117.353 294.489 119.313 314.468 114.181 332.412C112.178 339.409 92.5163 361.878 93.7508 367.545C94.6219 371.544 96.8561 375.467 96.8561 375.467L94.5049 375.555C94.5049 375.555 86.2948 368.618 86.4784 367.474C86.6629 366.331 88.8638 362.841 89.9805 360.491Z" fill="#f1b282" fill-rule="nonzero" opacity="1" stroke="none"/>
<path d="M103.713 238.829C105.406 239.395 105.279 242.3 105.806 243.146C106.333 243.991 107.198 245.16 107.147 245.82C107.095 246.481 105.399 246.457 105.532 248.074C105.665 249.691 105.683 251.702 103.212 252.208C100.741 252.714 101.131 254.924 101.039 257.015C100.945 259.106 100.633 259.709 99.7851 259.67C99.31 259.648 96.8957 259.181 94.306 257.266C92.2733 255.763 89.8995 251.367 90.3252 248.848C91.1458 243.997 92.9518 240.065 96.8984 238.962C100.847 237.859 102.282 238.351 103.713 238.829Z" fill="#f1b282" fill-rule="nonzero" opacity="1" stroke="none"/>
<path d="M87.1164 366.188C86.1715 365.724 84.9388 369.261 85.3995 370.849C85.3653 370.83 89.3021 373.294 89.3021 373.294L89.8779 372.245C89.8779 372.245 92.6314 375.717 94.5823 376.79C96.588 377.894 98.3058 378.672 98.4848 378.345C98.7368 377.887 97.0082 374.883 96.4278 374.564C95.6252 374.123 94.2808 374.65 93.6167 374.24C92.9545 373.83 87.8866 366.567 87.1164 366.188Z" fill="#0b224e" fill-rule="nonzero" opacity="1" stroke="none"/>
<path d="M97.8378 293.052C97.8378 296.882 94.9953 298.543 95.4812 306.292C95.9671 314.04 100.426 325.364 102.259 326.575C104.092 327.785 127.624 327.387 128.453 325.793C130.651 321.564 118.831 294.803 116.543 293.051C114.253 291.301 97.8378 293.052 97.8378 293.052Z" fill="#0b224e" fill-rule="nonzero" opacity="1" stroke="none"/>
<path d="M97.8378 293.052C97.8378 284.731 89.7124 280.015 89.6404 265.36C89.6404 258.509 93.8156 256.08 100.28 256.077C104.587 256.075 113.647 265.299 113.653 268.214C113.66 271.129 111.962 274.919 111.962 277.932C111.962 283.372 116.711 288.921 116.711 293.052L97.8378 293.052Z" fill="#1b90fb" fill-rule="nonzero" opacity="1" stroke="none"/>
<path d="M95.8186 267.482C95.8186 267.482 96.8831 283.915 113.484 290.532C114.992 291.132 115.491 291.65 116.629 292.095C116.292 289.831 114.837 287.203 113.645 284.441L100.277 275.776C100.277 275.777 97.3006 270.75 95.8186 267.482Z" fill="#1277d7" fill-rule="nonzero" opacity="1" stroke="none"/>
<path d="M100.28 275.775C100.28 275.775 106.178 283.491 111.368 286.341C121.877 292.114 130.542 293.32 130.542 293.32C130.542 293.32 140.151 295.438 141.614 291.251C142.136 289.755 139.875 291.711 135.124 290.909C133.582 290.601 135.309 289.428 135.865 288.502C136.42 287.576 134.939 287.206 132.779 288.749C130.62 290.292 122.839 286.835 115.434 280.846C108.17 274.971 106.537 269.729 106.537 269.729C106.537 269.729 102.625 274.108 100.28 275.775Z" fill="#f1b282" fill-rule="nonzero" opacity="1" stroke="none"/>
<path d="M104.132 239.653C104.132 239.653 107.087 239.456 107.087 236.523C107.087 231.26 95.0997 227.466 90.3225 233.861C85.5444 240.255 85.6586 248.77 79.834 253.178C74.0094 257.587 80.481 268.746 86.6296 268.907C92.7781 269.068 99.0886 262.945 97.1468 257.603C95.2049 252.261 93.048 245.084 96.5538 246.379C100.06 247.674 98.6054 239.402 104.132 239.653Z" fill="#0b224e" fill-rule="nonzero" opacity="1" stroke="none"/>
<path d="M99.2911 251.757C99.2911 251.757 99.8679 253.03 101.222 254.072C101.398 253.319 101.787 252.705 102.641 252.376C102.017 252.482 100.88 252.494 99.2911 251.757Z" fill="#cd916a" fill-rule="nonzero" opacity="1" stroke="none"/>
</g>
<g opacity="1">
<path d="M411.143 273.763C411.143 273.763 412.97 278.958 415.038 282.908C417.106 286.859 426.599 292.307 430.068 293.483C432.789 294.405 435.968 292.839 439.743 292.984C440.978 293.032 441.247 294.278 439.811 295.031C438.753 295.584 436.945 296.292 437.317 297.018C437.688 297.743 437.836 298.001 441.009 300.311C444.182 302.62 440.003 305.988 437.591 306.089C435.28 306.187 432.461 302.414 430.415 300.457C427.743 297.904 416.967 296.277 410.246 290.18C403.696 284.238 400.821 277.383 400.821 277.383C400.821 277.383 405.249 273.176 411.143 273.763Z" fill="#f1b282" fill-rule="nonzero" opacity="1" stroke="none"/>
<path d="M406.843 263.8C406.843 263.8 411.109 274.321 413.446 277.21C414.892 278.997 407.618 287.959 406.651 287.878C405.683 287.797 402.008 278.288 402.008 278.288C402.008 278.288 403.539 266.138 406.843 263.8Z" fill="#1eaf69" fill-rule="nonzero" opacity="1" stroke="none"/>
<g opacity="1">
<path d="M474.833 292.557L461.257 292.557C459.007 292.557 457.184 290.732 457.184 288.482L457.184 288.482C457.184 286.232 459.008 284.408 461.257 284.408L474.833 284.408C477.083 284.408 478.906 286.233 478.906 288.482L478.906 288.482C478.906 290.732 477.082 292.557 474.833 292.557Z" fill="#4d78cc" fill-rule="nonzero" opacity="1" stroke="none"/>
<path d="M474.833 313.135L461.257 313.135C459.007 313.135 457.184 311.31 457.184 309.06L457.184 309.06C457.184 306.81 459.008 304.986 461.257 304.986L474.833 304.986C477.083 304.986 478.906 306.81 478.906 309.06L478.906 309.06C478.906 311.311 477.082 313.135 474.833 313.135Z" fill="#4d78cc" fill-rule="nonzero" opacity="1" stroke="none"/>
</g>
<path d="M458.84 324.237L433.897 324.237C419.839 324.237 408.443 312.835 408.443 298.77L408.443 298.77C408.443 284.706 419.839 273.304 433.897 273.304L458.84 273.304C462.124 273.304 464.786 275.968 464.786 279.253L464.786 318.287C464.786 321.574 462.124 324.237 458.84 324.237Z" fill="#224380" fill-rule="nonzero" opacity="1" stroke="none"/>
<g opacity="1">
<path d="M419.596 243.774C419.647 246.285 418.387 246.92 418.19 247.854C417.993 248.788 418.146 250.987 417.714 251.742C417.282 252.498 416.071 251.945 415.194 252.755C414.318 253.565 414.148 255.174 412.63 255.681C411.112 256.189 407.928 254.059 407.489 255.133C407.05 256.207 406.79 260.972 406.79 260.972L397.289 255.767C397.289 255.767 401.273 250.883 401.996 248.338C402.719 245.793 406.391 237.024 409.872 237.688C413.353 238.353 419.542 241.108 419.596 243.774Z" fill="#f1b282" fill-rule="nonzero" opacity="1" stroke="none"/>
<path d="M407.487 255.134C407.398 255.347 407.319 255.701 407.249 256.131C406.436 254.515 407.349 252.719 407.349 252.719C409.046 255.183 411.828 255.749 411.828 255.749C411.828 255.749 411.828 255.749 411.819 255.753C410.19 255.608 407.864 254.229 407.487 255.134Z" fill="#cd916a" fill-rule="nonzero" opacity="1" stroke="none"/>
</g>
<path d="M420.728 232.668C420.728 232.668 424.869 238.146 423.344 241.282C422.116 243.808 420.245 245.682 415.012 243.134C412.491 241.907 410.922 248.603 410.285 248.292C409.17 247.75 409.414 243.87 408.126 243.243C406.284 242.346 402.73 253.268 400.824 252.34C398.247 251.085 395.269 245.278 398.624 238.378C403.13 229.114 411.713 231.554 414.449 232.706C417.184 233.859 420.728 232.668 420.728 232.668Z" fill="#0b224e" fill-rule="nonzero" opacity="1" stroke="none"/>
<path d="M348.505 363.651L343.585 368.694L348.013 371.774L353.426 366.551L348.505 363.651Z" fill="#f1b282" fill-rule="nonzero" opacity="1" stroke="none"/>
<path d="M403.518 368.11L403.358 371.703L397.15 371.282L397.536 366.793L403.518 368.11Z" fill="#f1b282" fill-rule="nonzero" opacity="1" stroke="none"/>
<path d="M386.249 311.453C386.249 311.453 383.936 334.961 379.277 342.615C374.778 350.005 352.904 369.543 352.904 369.543L346.308 364.011C346.308 364.011 361.065 342.538 367.085 334.775C363.855 319.499 365.957 306.178 367.729 303.114C369.503 300.051 386.664 301.312 386.249 311.453Z" fill="#0b224e" fill-rule="nonzero" opacity="1" stroke="none"/>
<path d="M391.797 300.697C391.797 300.697 394.322 307.307 400.123 311.822C405.924 316.337 413.66 325.204 413.66 332.46C413.66 339.715 404.152 368.415 404.152 368.415L396.044 367.609C396.044 367.609 397.289 342.191 399.639 334.776C389.917 328.993 369.18 321.496 367.568 303.599L391.797 300.697Z" fill="#102b5e" fill-rule="nonzero" opacity="1" stroke="none"/>
<path d="M400.293 286.402C391.626 296.774 395.504 307.84 391.267 306.59C384.713 304.655 375.942 302.557 370.748 303.702C365.34 304.894 362.358 303.975 364.614 299.568C366.87 295.161 376.863 281.724 379.441 272.48C381.32 265.742 389.263 256.263 397.811 255.108C398.861 255.178 404.313 256.131 407.012 258.051C409.596 264.072 408.961 276.03 400.293 286.402Z" fill="#2ccd7f" fill-rule="nonzero" opacity="1" stroke="none"/>
<path d="M396.545 292.358C395.719 294.184 395.163 295.956 394.774 297.588C392.059 291.197 388.219 280.243 390.733 272.269C390.733 272.269 391.094 283.307 396.545 292.358Z" fill="#1eaf69" fill-rule="nonzero" opacity="1" stroke="none"/>
<path d="M403.615 278.715C403.615 278.715 404.276 284.663 405.496 289.355C406.716 294.046 415.433 302.147 418.817 304.243C421.473 305.888 425.223 305.009 429.185 306.09C430.482 306.444 430.461 307.83 428.755 308.273C427.499 308.6 425.411 308.904 425.625 309.765C425.839 310.626 425.934 310.934 428.728 314.158C431.521 317.383 426.27 319.923 423.692 319.439C421.22 318.976 419.161 314.287 417.474 311.713C415.271 308.354 404.259 303.985 398.637 295.879C393.158 287.978 391.795 280.014 391.795 280.014C391.795 280.014 397.518 276.646 403.615 278.715Z" fill="#f1b282" fill-rule="nonzero" opacity="1" stroke="none"/>
<path d="M344.627 366.785C344.119 366.385 342.928 366.84 341.466 368.868C340.004 370.896 338.821 371.72 340.385 372.969C341.368 373.753 346.829 377.189 350.755 379.636C352.173 380.52 354.693 379.969 356.444 379.406C356.801 379.29 357.085 378.987 357.167 378.633C357.249 378.279 357.112 377.944 356.819 377.779C353.558 375.941 353.294 376.19 351.934 372.968C351.44 371.799 351.073 370.761 350.599 370.434C349.679 369.796 348.574 370.427 347.113 369.332C345.653 368.237 345.506 367.476 344.627 366.785Z" fill="#0b224e" fill-rule="nonzero" opacity="1" stroke="none"/>
<path d="M396.668 369.84C395.999 369.738 395.245 370.731 395.178 373.25C395.11 375.768 394.579 377.084 396.649 377.413C398.429 377.695 410.306 378.209 413.596 378.348C413.85 378.359 414.095 378.247 414.269 378.043C414.442 377.838 414.529 377.56 414.504 377.28C414.395 376.046 413.624 374.141 410.064 373.541C407.464 372.89 405.079 370.211 403.917 370.103C402.754 369.995 402.178 371.102 400.287 370.858C398.396 370.614 397.825 370.015 396.668 369.84Z" fill="#0b224e" fill-rule="nonzero" opacity="1" stroke="none"/>
<path d="M345.654 363.286C345.265 364.99 347.262 366.027 348.297 367.043C349.331 368.06 353.106 371.344 353.903 370.427C354.701 369.509 354.597 368.376 355.169 367.648C355.743 366.921 357.316 366.564 356.736 365.338C356.156 364.112 354.223 363.591 353.052 362.844C352.196 362.297 349.856 359.003 349.17 359.232C348.485 359.461 348.41 360.733 347.898 361.244C347.139 362.004 345.955 361.962 345.654 363.286Z" fill="#355aa2" fill-rule="nonzero" opacity="1" stroke="none"/>
<path d="M395.213 366.772C395.769 368.43 398.013 368.274 399.426 368.602C400.839 368.93 405.771 369.765 405.974 368.566C406.176 367.367 405.498 366.454 405.608 365.535C405.717 364.615 406.876 363.49 405.742 362.746C404.608 362.001 402.687 362.565 401.298 362.537C400.283 362.517 396.571 360.925 396.105 361.478C395.638 362.031 396.238 363.155 396.066 363.859C395.812 364.904 394.781 365.487 395.213 366.772Z" fill="#355aa2" fill-rule="nonzero" opacity="1" stroke="none"/>
</g>
<g opacity="1">
<path d="M548.028 334.631L497.088 334.631C491.359 334.631 486.715 329.985 486.715 324.253L486.715 273.289C486.715 267.557 491.359 262.911 497.088 262.911L548.028 262.911C553.758 262.911 558.402 267.557 558.402 273.289L558.402 324.253C558.402 329.985 553.757 334.631 548.028 334.631Z" fill="#c3d3f3" fill-rule="nonzero" opacity="1" stroke="none"/>
<g opacity="1">
<path d="M509.173 311.199L509.173 311.199C506.854 311.199 504.973 309.319 504.973 306.998L504.973 290.543C504.973 288.223 506.853 286.341 509.173 286.341L509.173 286.341C511.492 286.341 513.372 288.222 513.372 290.543L513.372 306.998C513.372 309.319 511.493 311.199 509.173 311.199Z" fill="#86a0d1" fill-rule="nonzero" opacity="1" stroke="none"/>
<path d="M535.943 311.199L535.943 311.199C533.624 311.199 531.743 309.319 531.743 306.998L531.743 290.543C531.743 288.223 533.623 286.341 535.943 286.341L535.943 286.341C538.262 286.341 540.142 288.222 540.142 290.543L540.142 306.998C540.142 309.319 538.262 311.199 535.943 311.199Z" fill="#86a0d1" fill-rule="nonzero" opacity="1" stroke="none"/>
</g>
</g>
</g>
</svg>
