<svg clip-rule="evenodd" stroke-linecap="round" stroke-linejoin="round" stroke-miterlimit="10" viewBox="0 0 600 400" xmlns="http://www.w3.org/2000/svg"><path d="m0 0h600v400h-600z" fill="none"/><g><g fill="#f3f9ff"><path d="m489.624 43.3755c-10.504 0-19.934 6.002-24.698 14.9101-1.596-.4288-3.261-.6504-4.961-.6504-5.402 0-10.381 2.3016-13.89 6.0462-3.005-1.5737-6.379-2.4304-9.855-2.4304-10.318 0-18.949 7.383-20.893 17.1495-7.447 1.0062-13.207 7.411-13.207 15.1381 0 8.4224 6.845 15.2744 15.258 15.2744h94.555c9.949 0 18.043-8.102 18.043-18.0606 0-8.0001-5.223-14.8021-12.434-17.1685.056-.7215.084-1.4476.084-2.1772 0-15.456-12.562-28.0312-28.002-28.0312z"/><path d="m131.554 55.2327c-.662-1.6016-2.362-2.5123-4.06-2.1754l-5.366 1.063c-1.265.2504-2.574-.1901-3.428-1.1567-.906-1.0233-1.864-1.9872-2.874-2.8871-.962-.8566-1.398-2.161-1.148-3.4257l1.06-5.3625c.336-1.7007-.574-3.4023-2.173-4.0653l-7.922-3.2853c-1.6-.663-3.445-.1045-4.408 1.3359l-3.0381 4.5419c-.7154 1.0701-1.9482 1.6845-3.2313 1.6097-1.3489-.0783-2.7076-.0756-4.0699.0072-1.2886.0784-2.5232-.535-3.2412-1.6088l-3.0433-4.5491c-.9637-1.4404-2.8083-1.9998-4.4082-1.3359l-7.9221 3.2853c-1.5999.663-2.5097 2.3646-2.1731 4.0653l1.0618 5.3715c.2501 1.2665-.1899 2.5763-1.1554 3.4321-1.0222.9062-1.985 1.8655-2.8831 2.8762-.8566.963-2.1587 1.3999-3.422 1.1495l-5.3567-1.0612c-1.6989-.336-3.3987.5747-4.0609 2.1754l-3.2817 7.9307c-.6623 1.6017-.1044 3.4483 1.3344 4.4131l4.537 3.0411c1.0681.7161 1.6827 1.9502 1.608 3.2348-.0783 1.3503-.0756 2.7105.0072 4.0752.0783 1.2909-.5345 2.5259-1.6071 3.2447l-4.5442 3.0465c-1.4388.9648-1.9976 2.8114-1.3344 4.4131l3.2817 7.9307c.6622 1.6016 2.3629 2.5123 4.0609 2.1754l5.3657-1.063c1.2651-.2504 2.5735.1901 3.4283 1.1567.9053 1.0233 1.8636 1.9873 2.8732 2.8873.9619.856 1.3983 2.161 1.1482 3.426l-1.06 5.361c-.3366 1.701.5732 3.402 2.1731 4.065l7.9221 3.285c1.5999.664 3.4454.104 4.4082-1.336l3.0379-4.542c.7153-1.069 1.9481-1.684 3.2313-1.61 1.3488.079 2.7075.076 4.0708-.007 1.2885-.078 2.5231.535 3.2412 1.609l3.0437 4.55c.963 1.44 2.808 2 4.408 1.336l7.922-3.285c1.6-.663 2.509-2.366 2.173-4.066l-1.062-5.371c-.25-1.267.19-2.577 1.156-3.432 1.022-.907 1.985-1.8668 2.883-2.8766.856-.963 2.158-1.3999 3.422-1.1495l5.356 1.0612c1.699.3369 3.399-.5738 4.061-2.1754l3.282-7.9307c.662-1.6017.103-3.4492-1.334-4.4131l-4.537-3.0411c-1.069-.717-1.683-1.9502-1.608-3.2357.078-1.3503.075-2.7105-.008-4.0743-.078-1.29.535-2.5259 1.607-3.2447l4.545-3.0465c1.438-.9648 1.997-2.8114 1.334-4.4131zm-31.6816 37.4645c-9.2683 3.8428-19.8926-.563-23.7322-9.8404-3.8395-9.2774.5624-19.9141 9.8298-23.7578 9.2673-3.8437 19.893.563 23.732 9.8404 3.84 9.2774-.562 19.915-9.8296 23.7578z"/><path d="m127.894 341.188c-65.864 0-92.7437-43.526-92.7437-91.972 0-48.445 26.428-78.272 60.501-78.272 34.0727 0 24.3937 28.971 64.2597 28.971s61.456-68.445 118.546-68.445 28.216 61.717 78.733 61.717c50.516 0 111.966-43.739 121.715 6.113 12.709 64.992 188.676 143.983-3.339 143.983-75.984 0-347.672-2.095-347.672-2.095z"/></g><path d="m226.427 341.126h303.78c1.675 0 3.032 1.358 3.032 3.034v.32c0 1.676-1.357 3.035-3.032 3.035h-474.4461c-1.6746 0-3.0315-1.359-3.0315-3.035 0-1.674 1.3533-3.031 3.0261-3.035z" fill="#dae7ff"/></g><g><path d="m536.547 308.546c4.518-10.581 11.258-25.573-2.516-34.425-13.776-8.853-1.2-14.095-.753-26.926s-13.614-16.129-13.193-22.213c.42-6.084 1.118-16.842-.179-21.433-2.172-7.682-18.427-11.17-20.085 10.46-1.042 13.592-2.443 21.798-9.684 31.493-7.241 9.696 8.709 19.946 8.414 27.751-.295 7.804-8.154 6.648-7.295 23.189.86 16.541 11.72 29.049 22.046 28.311 7.012-.5 19.121-6.548 23.245-16.207z" fill="#9e95e3"/><path d="m532.16 287.859c.009-.248-.186-.457-.434-.466-.238.02-.456.186-.465.434-.259 7.412-10.291 12.811-13.475 14.341.354-3.805.483-7.404.235-10.509-.543-6.791-2.209-13.98-3.82-20.932-2.048-8.838-3.984-17.226-3.432-23.89 1.614-.412 7.806-2.365 9.775-8.451.076-.237-.053-.491-.289-.567-.237-.078-.49.054-.567.289-1.695 5.237-6.968 7.217-8.824 7.763.046-.369.094-.735.157-1.092 1.445-8.208.483-18.738-.092-25.028-.265-2.908-.475-5.202-.321-5.81.061-.241-.085-.486-.325-.547-.237-.064-.486.084-.546.325-.185.724-.024 2.595.297 6.114.57 6.246 1.526 16.7.102 24.79-.093.526-.162 1.069-.218 1.618-.062.096-.089.214-.065.335.005.028.02.051.03.076-.273 3.135-.012 6.619.559 10.344-.004.002-.009.001-.012.002-4.899 2.012-7.897-3.766-8.022-4.012-.113-.222-.384-.311-.605-.199-.222.113-.31.384-.199.606.03.057 2.547 4.932 6.796 4.932.684 0 1.415-.134 2.186-.427.678 4.126 1.693 8.521 2.739 13.034 1.563 6.746 3.17 13.714 3.748 20.289-1.867-.118-8.595-.92-10.372-6.984-.069-.238-.32-.375-.559-.305-.239.069-.375.319-.305.558 1.981 6.757 9.455 7.55 11.307 7.642.214 3.104.071 6.682-.301 10.469-.004.002-.015.006-.017.007-.229.096-.338.359-.242.588.038.09.101.159.178.207-.948 8.962-3.087 18.935-4.678 26.343-1.426 6.638-2.159 10.153-1.925 11.268.045.212.231.357.44.357.031 0 .062-.002.094-.009.242-.052.398-.291.347-.534-.206-.979.781-5.574 1.924-10.893 1.612-7.505 3.786-17.634 4.725-26.723 2.638-1.194 14.176-6.897 14.471-15.353z" fill="#7266d5"/></g><g><g><path d="m56.6382 317.436c-3.2205-7.541-8.0238-18.227 1.7943-24.536 9.818-6.309.8548-10.046.5363-19.191-.3186-9.145 9.7028-11.495 9.4032-15.831-.2996-4.337-.7972-12.004.1278-15.276 1.5477-5.475 13.133-7.961 14.3154 7.455.7432 9.687 1.7412 15.536 6.9026 22.446s-6.2071 14.216-5.9974 19.779 5.812 4.739 5.1992 16.528-8.3531 20.704-15.7128 20.179c-4.9986-.359-13.6288-4.669-16.5686-11.553z" fill="#8ae6b9"/><path d="m81.46 277.578c-.2213-.111-.4922-.021-.6047.199-.0863.172-2.1307 4.117-5.4655 2.828.395-2.612.5732-5.059.3842-7.267.0045-.015.0144-.028.0171-.044.0207-.103-.0018-.202-.0459-.288-.0405-.391-.09-.777-.1557-1.152-1.0123-5.749-.332-13.19.0738-17.634.2376-2.594.3447-3.864.2079-4.402-.0612-.242-.3105-.389-.5462-.325-.2412.06-.3869.306-.3248.547.1043.411-.0522 2.119-.2322 4.097-.4103 4.49-1.0969 12.006-.0639 17.873.0333.188.0558.381.0819.573-1.4397-.452-4.8708-1.871-6.0091-5.39-.0756-.236-.3284-.366-.5669-.289-.2366.076-.3653.33-.2888.567 1.3884 4.293 5.6752 5.74 6.9692 6.086.3662 4.714-1.0033 10.648-2.4512 16.897-1.149 4.96-2.3377 10.088-2.7255 14.938-.1701 2.124-.0918 4.618.1376 7.279-2.4529-1.205-9.1395-4.946-9.3159-10.004-.0081-.248-.2277-.42-.4652-.435-.2484.009-.4427.217-.4337.467.2096 6.019 8.2721 10.086 10.3066 11.018.6641 6.685 2.2172 14.276 3.3663 19.896.8179 3.996 1.5243 7.447 1.3821 8.122-.0513.244.1044.483.3473.535.0315.007.0621.009.0936.009.2079 0 .3951-.145.44-.357.1728-.821-.3545-3.475-1.3803-8.489-1.1347-5.546-2.6626-13.021-3.3321-19.605.0486-.043.099-.087.126-.152.0882-.21-.0018-.442-.1926-.555-.2465-2.649-.341-5.129-.2033-7.258 1.5252-.098 6.6668-.779 8.0607-5.533.0702-.239-.0666-.489-.3051-.559-.2384-.068-.4877.067-.5588.306-1.2201 4.163-5.6392 4.797-7.1257 4.887.4211-4.637 1.5531-9.548 2.6554-14.305.7324-3.163 1.4451-6.245 1.9292-9.145.5021.173.9853.256 1.446.256 2.4521 0 4.2616-2.182 4.968-3.584.1107-.225.0216-.496-.1998-.608z" fill="#44d690"/></g><g><path d="m143.314 309.844c4.518-10.581 11.258-25.573-2.516-34.425-13.776-8.853-1.2-14.095-.753-26.926s-13.614-16.129-13.193-22.213c.42-6.084 1.118-16.842-.179-21.433-2.172-7.682-18.427-11.17-20.085 10.46-1.042 13.592-2.443 21.798-9.6842 31.493-7.2409 9.696 8.7092 19.946 8.4142 27.751-.295 7.804-8.1541 6.649-7.2948 23.189.8593 16.541 11.7198 29.049 22.0458 28.311 7.012-.5 19.121-6.547 23.245-16.207z" fill="#45d48f"/><path d="m138.928 289.157c.009-.248-.186-.457-.434-.466-.238.02-.456.186-.465.434-.259 7.412-10.292 12.811-13.475 14.341.354-3.805.483-7.404.235-10.509-.543-6.79-2.209-13.98-3.82-20.932-2.048-8.838-3.984-17.226-3.432-23.89 1.614-.412 7.806-2.365 9.775-8.451.076-.237-.053-.491-.289-.567-.237-.078-.49.054-.567.289-1.695 5.237-6.968 7.217-8.824 7.763.046-.369.094-.735.157-1.092 1.445-8.208.483-18.737-.092-25.028-.265-2.908-.475-5.202-.321-5.81.061-.241-.085-.486-.325-.547-.238-.064-.486.084-.546.325-.185.724-.024 2.595.297 6.114.57 6.246 1.526 16.7.101 24.79-.092.526-.161 1.069-.217 1.618-.062.096-.089.215-.065.335.005.028.02.051.03.076-.273 3.135-.012 6.619.559 10.344-.004.002-.009.001-.012.003-4.899 2.011-7.897-3.767-8.022-4.013-.113-.222-.385-.311-.605-.199-.222.113-.31.384-.199.606.03.057 2.547 4.932 6.796 4.932.684 0 1.415-.134 2.186-.427.678 4.126 1.693 8.521 2.738 13.034 1.563 6.746 3.171 13.714 3.749 20.289-1.867-.118-8.595-.92-10.372-6.984-.069-.238-.32-.375-.559-.305-.239.069-.375.319-.305.558 1.981 6.757 9.455 7.55 11.307 7.642.214 3.104.071 6.682-.301 10.469-.004.002-.016.006-.017.007-.229.096-.338.359-.242.588.037.09.101.159.178.207-.948 8.962-3.088 18.935-4.678 26.343-1.426 6.638-2.159 10.153-1.925 11.268.045.212.231.357.44.357.03 0 .062-.002.093-.009.243-.052.399-.29.348-.534-.206-.979.781-5.574 1.924-10.893 1.612-7.505 3.786-17.634 4.725-26.723 2.637-1.194 14.176-6.897 14.471-15.353z" fill="#1eaf69"/></g></g><g><path d="m182.898 348.066c-.257 1.7-.93 11.617-.93 11.617l-7.901-1.047v-10.918z" fill="#f1b282"/><path d="m171.61 358.163s-2.469 6.973-1.212 8.985 23.949.563 25.655.418c7.785-.661 9.645-7.181 1.482-6.416-8.163.766-10.061-5.543-14.701-5.3-2.937.779-5.912 3.648-7.798 3.175-1.886-.474-3.426-.862-3.426-.862z" fill="#03193f"/><path d="m123.183 363.521-8.822-1.099 5.116-6.577h6.135z" fill="#f1b282"/><path d="m142.46 313.735s25.827-10.381 32.303-7.678c9.392 3.921 10.613 43.225 8.754 44.558-1.859 1.334-6.722 1.381-9.451-.521s-4.767-15.775-4.767-25.008c-5.11 4.541-20.438 14.24-20.438 14.24s-16.393-10.702-6.401-25.591z" fill="#0b224e"/><path d="m108.911 336.683c0 6.943 5.892 10.255 9.59 12.709 3.597 2.387 6.744 3.99 5.445 5.444-2.633 2.945-2.013 9.306-2.013 9.306s33.618 4.807 47.562 3.722c13.944-1.086 12.549-12.254 5.733-16.286-6.816-4.033-30.521-22.334-30.521-22.334-11.001-3.102-35.796-6.756-35.796 7.439z" fill="#102b5e"/><g><g><path d="m134.289 235.413c-13.056 2.373-4.461 14.664-4.46 20.223.001 5.558-2.306 14.159-2.306 14.159l13.449 1.003s.237-4.537-.032-6.866 1.369-3.576 4.256-3.635c2.886-.058 2.621-5.67 2.973-6.731.576-1.735 3.482-.792 2.831-2.78s-2.883-2.554-3.657-7.875-6.858-8.624-13.054-7.498z" fill="#f1b282"/><path d="m144.458 260.341c-1.371.134-2.395.591-2.984 1.35l-1.661-2.737c1.583.825 3.77 1.406 4.645 1.387z" fill="#cd916a"/></g><path d="m128.589 234.857s-.84-7.211-8.779-7.362c-10.549-.2-10.228 14.856-10.376 22.697-.284 14.999-7.555 15.267-5 18.299 1.809 2.147 15.917-7.507 17.214-18.145 1.298-10.638.425-15.613 5.945-13.004 2.213 1.046.996-2.485.996-2.485z" fill="#0b224e"/><path d="m125.942 254.093c5.46 10.244 11.863-3.223 7.497-5.552-3.371-1.799-2.155-6.8 6.636-3.445 2.977 1.136 9.818-.733 9.96-8.249.052-2.778-4.444-4.354-13.154-4.446-14.284-.151-15.293 13.521-10.939 21.692z" fill="#0b224e"/><path d="m130.944 230.581c2.238 1.118-3.164 10.425-6.307 9.136-3.144-1.288 3.389-10.596 6.307-9.136z" fill="#1b90fb"/></g><path d="m142.673 305.711c.09-.982 2.55-1.817 4.569-3.936 1.676-1.768 3.042-4.42 2.46-8.806-.09-.679 0 0 .434-1.227.122-.353.245-.72.368-1.105 2.534-7.783 5.093-22.595-13.856-26.678-9.606-2.078-19.786 1.054-19.584 23.879.368 41.687-15.281 36.892-10.826 44.421 2.248 3.797 13.44 6.138 19.971 2.881 6.523-3.258 25.415-1.629 24.859-4.42-.498-2.496-9.638-9.991-8.395-25.009z" fill="#ffcb01"/><path d="m240.313 274.975-82.582 5.781c-1.984.139-3.703-1.357-3.842-3.343l-1.757-25.161c-.139-1.985 1.356-3.707 3.339-3.845l82.583-5.782c1.983-.138 3.703 1.358 3.841 3.343l1.758 25.161c.138 1.985-1.356 3.707-3.34 3.846z" fill="#1b90fb"/><path d="m161.44 284.576s4.335 2.451 10.107 5.314c7.15-2.498 19.794-11.208 21.963-14.775 1.471-2.418 4.286-6.316 5.752-5.507 1.231.679-1.293 3.029-.868 4.733.379 1.522 10.138-5.245 10.138-.467 0 4.295-1.29 7.823-8.264 7.823-2.128 0-4.312.214-8.252 4.444-2.184 2.345-12.072 14.686-23.692 13.911-11.619-.776-19.463-6.171-19.463-6.171s7.156-9.46 12.579-9.305z" fill="#f1b282"/><path d="m123.946 354.837h29.098s-24.848-2.257-34.543-5.444c3.597 2.387 6.744 3.99 5.445 5.444z" fill="#0b224e"/><path d="m123.094 354.371s.455-5.29-1.441-6.547-21.126 9.025-22.5572 9.829c-6.5319 3.67-5.569 10.1 1.2512 6.188 6.82-3.912 10.977.84 14.931-1.216 2.254-1.848 3.713-5.534 5.548-5.869 1.835-.336 2.268-2.385 2.268-2.385z" fill="#03193f"/><path d="m150.137 291.742c-.434 1.227-.523.548-.434 1.227.581 4.386-.784 7.038-2.461 8.806-3.981-3.65-12.58-13.421-13.145-24.142 0 0 13.653 6.924 15.778 11.458.237.507.45 1.023.629 1.546-.122.385-.245.753-.367 1.105z" fill="#f0b701"/><path d="m162.037 282.211c-3.435-1.838-9.033-7.939-12.2-11.576-1.727-1.984-3.952-3.484-6.456-4.284-18.773-6-11.097 9.757-7.406 15.979 3.936 6.634 15.369 18.493 16.479 13.49 1.112-5.002 14.583-10.933 9.583-13.609z" fill="#ffcb01"/></g><g><path d="m190.159 328.8v2.604c0 4.089 2.627 5.534 4.877 5.534.338 0 .663-.039.975-.091.494-.091.949-.222 1.3-.339.442-.169.728-.313.768-.325.481-.234.663-.821.429-1.302-.221-.442-.741-.651-1.197-.482-.026.013-.064.026-.104.039-.013 0-.534.26-1.197.417-.312.078-.65.131-.975.131-1.093 0-2.926-.469-2.926-3.581v-2.604c0-3.112 1.833-3.581 2.926-3.581.325 0 .663.052.975.131.663.155 1.183.417 1.197.417.039.012.078.026.104.038.456.17.976-.038 1.197-.481.234-.482.052-1.068-.429-1.302-.039-.013-.325-.156-.768-.325-.351-.117-.806-.248-1.3-.339-.312-.052-.637-.091-.975-.091-2.25-.002-4.877 1.444-4.877 5.532z" fill="#ffcb01"/><path d="m196.011 323.365v1.992c.663.156 1.183.417 1.197.417.039.013.078.026.104.039v-2.11c-.352-.116-.807-.247-1.301-.338z" fill="#f0b701"/><path d="m196.011 334.862v1.992c.494-.091.949-.222 1.3-.339v-2.109c-.026.012-.064.026-.104.038-.013.001-.533.261-1.196.418z" fill="#f0b701"/><path d="m197.312 320.337v17.577c0 1.432 1.171 2.604 2.602 2.604h13.006c1.431 0 2.601-1.172 2.601-2.604v-17.577c0-.365-.286-.652-.65-.652h-16.908c-.365.001-.651.287-.651.652z" fill="#ffcb01"/><path d="m204.812 299.348s-1.95 1.851-1.882 3.365c.067 1.515 1.916 2.222 1.882 4.611-.033 2.389-2.487 2.355-2.487 4.374s4.168 3.399 4.168 5.182c0 0 1.143-.808 1.176-1.716.034-.908-1.546-1.547-1.546-2.894 0-1.346 5.144-1.75 5.144-4.845 0-3.096-6.354-3.972-6.455-8.077z" fill="#dae7ff"/><path d="m209.122 340.518h3.797c1.431 0 2.601-1.172 2.601-2.604v-5.963s-.221 6.51-6.398 8.567z" fill="#f0b701"/></g><g><path d="m115.75 75.1153 19.009 9.5152 57.029-25.3739z" fill="#ffe18d"/><path d="m137.927 100.488-3.168-15.8575 57.029-25.3739z" fill="#ffcb01"/><path d="m137.927 100.488 6.337-12.6858 15.841-3.1717z" fill="#f0b701"/><path d="m144.264 87.8022 15.841 6.3435 31.683-34.8891z" fill="#ffe18d"/></g><g><g><path d="m384.653 33.6603h-127.936c-14.131 0-25.586 11.4672-25.586 25.6144v256.1473c0 14.146 11.455 25.614 25.586 25.614h127.935c14.131 0 25.587-11.468 25.587-25.614v-256.1464c0-14.1481-11.455-25.6153-25.586-25.6153z" fill="#183168"/><path d="m373.405 33.6603h-127.936c-14.131 0-25.586 11.4672-25.586 25.6144v256.1473c0 14.146 11.455 25.614 25.586 25.614h127.936c14.13 0 25.586-11.468 25.586-25.614v-256.1464c0-14.1481-11.455-25.6153-25.586-25.6153z" fill="#224380"/><path d="m386.198 65.6785v243.3405c0 10.63-8.571 19.211-19.19 19.211h-114.118c-10.619 0-19.19-8.581-19.19-19.211v-243.3405c0-10.6304 8.571-19.2115 19.19-19.2115h8.572c5.245 0 9.595 4.3545 9.595 9.6053s4.35 9.6053 9.595 9.6053h57.571c5.245 0 9.595-4.3545 9.595-9.6053s4.35-9.6053 9.595-9.6053h9.595c10.619 0 19.19 8.5811 19.19 19.2115z" fill="#f3f9ff"/></g><g><path d="m344.281 110.288c0-8.457 6.848-15.3136 15.297-15.3136 8.448 0 15.297 6.8566 15.297 15.3136 0 8.458-6.849 15.314-15.297 15.314-8.449 0-15.297-6.856-15.297-15.314z" fill="#2ccd7f"/><path d="m357.984 116.414c-.021 0-.043 0-.064 0-.424-.018-.821-.213-1.097-.536l-4.589-5.359c-.551-.641-.477-1.609.166-2.16.644-.544 1.607-.472 2.156.168l3.523 4.112 8.139-8.037c.599-.592 1.571-.583 2.163.016.593.604.586 1.572-.016 2.168l-9.306 9.188c-.287.281-.673.44-1.075.44z" fill="#fff"/></g><path d="m332.544 125.627h-82.784c-1.988 0-3.6-1.613-3.6-3.603v-25.2227c0-1.9899 1.612-3.6033 3.6-3.6033h82.784c1.988 0 3.599 1.6134 3.599 3.6033v25.2227c0 1.991-1.611 3.603-3.599 3.603z" fill="#1b90fb"/><g><path d="m344.281 166.268c0-8.458 6.848-15.314 15.297-15.314 8.448 0 15.297 6.856 15.297 15.314 0 8.457-6.849 15.313-15.297 15.313-8.449 0-15.297-6.856-15.297-15.313z" fill="#aec1e8"/><path d="m357.984 172.393c-.021 0-.043 0-.064 0-.424-.018-.821-.212-1.097-.535l-4.589-5.36c-.551-.64-.477-1.609.166-2.159.644-.544 1.607-.473 2.156.168l3.523 4.112 8.139-8.037c.599-.592 1.571-.583 2.163.015.593.605.586 1.573-.016 2.168l-9.306 9.189c-.287.281-.673.439-1.075.439z" fill="#fff"/></g><path d="m332.544 181.607h-82.784c-1.988 0-3.6-1.614-3.6-3.604v-25.222c0-1.99 1.612-3.603 3.6-3.603h82.784c1.988 0 3.599 1.613 3.599 3.603v25.222c0 1.99-1.611 3.604-3.599 3.604z" fill="#dae7ff"/><g fill="#baddfe"><path d="m326.695 105.453h-71.086c-.921 0-1.669-.748-1.669-1.67 0-.923.747-1.671 1.669-1.671h71.086c.921 0 1.669.748 1.669 1.671 0 .922-.748 1.67-1.669 1.67z"/><path d="m326.695 116.713h-71.086c-.921 0-1.669-.748-1.669-1.67 0-.923.747-1.671 1.669-1.671h71.086c.921 0 1.669.748 1.669 1.671 0 .922-.748 1.67-1.669 1.67z"/></g></g><g><path d="m443.205 146.019c-.841 3.4.676 4.65.656 5.981s-.903 4.274-.549 5.434c.355 1.161 2.172.782 3.114 2.153.942 1.372.679 3.612 2.587 4.769 1.907 1.158 6.888-.758 7.156.837s-.758 12.79-.758 12.79l16.835-4.741s-6.324-11.914-6.524-15.598c-.201-3.683-2.497-16.74-7.431-16.908-4.935-.168-14.192 1.674-15.086 5.283z" fill="#f1b282"/><path d="m454.175 134.207c-7.091 1.665-10.563 1.87-11.159-.675-2.238.528-5.293 5.189-4.219 9.772 2.374 10.129 14.783 2.642 16.101 8.265.01.016.443 7.466-1.064 8.916-1.507 1.449-5.845-1.299-7.352-1.013-1.22.231-3.514 13.007 5.413 10.91 8.928-2.097 3.383-19.14 8.845-20.422 2.775-.652 2.707 11.414 6.52 10.518 3.501-.822 6.401-6.42 4.251-15.595-2.341-9.988-11.046-12.153-17.336-10.676z" fill="#0b224e"/><path d="m381.678 197.416c0-10.37 8.398-18.777 18.757-18.777 10.358 0 18.756 8.407 18.756 18.777s-8.398 18.776-18.756 18.776c-10.359 0-18.757-8.406-18.757-18.776z" fill="#2ccd7f"/><path d="m398.48 204.926c-.026 0-.053 0-.079 0-.52-.022-1.008-.261-1.344-.657l-5.627-6.571c-.676-.785-.584-1.973.203-2.648.789-.667 1.971-.579 2.643.206l4.319 5.042 9.979-9.854c.735-.726 1.927-.715 2.652.018.727.741.72 1.929-.018 2.66l-11.411 11.265c-.352.345-.825.539-1.317.539z" fill="#fff"/><path d="m409.932 214.671s-2.973-.552-4.404-.772c-1.43-.221-8.587-.845-13.983-1.287-5.395-.44-8.295 1.653-3.89 3.086 4.404 1.434 7.634 5.438 14.46 5.805 3.972.214 13.433 0 13.433 0z" fill="#f1b282"/><path d="m476.334 285.915c-1.368-9.603-6.325-41.17-13.548-50.822l-20.421 15.766s14.537 41.233 19.556 46.95c3.879 4.42 24.801 33.326 24.801 33.326l10.189-6.181c.001-.001-12.346-26.641-20.577-39.039z" fill="#0b224e"/><path d="m445.348 339.289-1.512 10.624-8.879-.856v-9.768z" fill="#f1b282"/><path d="m470.772 229.407c-.02-.473-.054-.973-.323-1.363-.376-.546-1.092-.716-1.743-.845-4.446-.88-9.058-1.758-13.465-.704-2.943.703-5.92 2.259-8.832 1.44-1.138-.32-2.424-.973-3.398-.305-.05.034-.095.071-.14.109-.462.4-.668 1.04-.839 1.639-4.225 14.807-6.057 36.849-6.786 56.822-.918 25.152-.802 51.53-.802 51.53l11.537.069s6.766-31.863 7.312-49.2c3.717-9.861 11.389-30.238 14.863-39.603 2.301-6.207 2.89-12.973 2.616-19.589z" fill="#102b5e"/><path d="m496.419 326.533 4.911 6.851-6.948 7.189-5.401-8.465z" fill="#f1b282"/><path d="m499.58 327.81c.228 2.551-2.672 3.369-4.26 4.474s-7.306 4.535-8.229 2.967c-.923-1.567-.582-3.143-1.235-4.366-.652-1.222-2.732-2.246-1.726-3.799s3.73-1.659 5.454-2.336c1.261-.496 5.028-4.41 5.92-3.859.893.55.771 2.384 1.378 3.28.903 1.327 2.521 1.658 2.698 3.639z" fill="#355aa2"/><path d="m446.825 341.613c-1.083 2.32-4.001 1.568-5.929 1.725-1.927.157-8.592.244-8.604-1.576-.012-1.819 1.075-3.01 1.125-4.395.05-1.384-1.234-3.316.416-4.153 1.649-.837 4.056.443 5.887.725 1.339.206 6.56-1.283 7.056-.358s-.532 2.449-.456 3.529c.114 1.602 1.346 2.702.505 4.503z" fill="#355aa2"/><path d="m500.022 331.833c.763-.71 2.611-.256 4.943 2.536 2.332 2.793 4.731 4.695 2.384 6.907-1.474 1.39-10.805 5.944-16.727 10.453-2.139 1.629-5.486 2.179-8.197 1.671-.553-.104-1.003-.509-1.144-1.031-.141-.521.055-1.06.496-1.37 4.928-3.448 5.344-3.123 7.293-8.297.707-1.878 1.226-3.529 1.939-4.124 1.386-1.156 3.109-.415 5.304-2.374 2.196-1.958 2.39-3.142 3.709-4.371z" fill="#0b224e"/><path d="m445.052 345.851c1.008-.082 2.03 1.479 1.868 5.246-.162 3.766.493 5.785-2.63 6.059-2.685.236-20.456-.237-25.38-.374-.379-.01-.734-.202-.972-.526-.238-.323-.338-.747-.272-1.162.294-1.83 1.641-4.594 7.015-5.118 3.946-.7 7.783-4.449 9.529-4.489 1.745-.039 2.49 1.672 5.337 1.505 2.847-.166 3.761-.999 5.505-1.141z" fill="#0b224e"/><path d="m478.197 195.601c-2.643 25.352-7.928 36.815-3.964 46.294s-9.248 2.865-16.736 3.307c-7.486.44-17.176 8.156-23.341 3.306-3.081-2.422-1.978-8.42.127-15.275 2.112-6.866 5.23-14.591 6.16-20.437.236-1.484.418-3.247.599-5.2 1.236-13.434 2.404-35.833 20.86-37.567 4.608-.431 18.937.221 16.295 25.572z" fill="#1b90fb"/><path d="m468.792 181.971s-1.348 31.156-6.412 40.855c-4.798 9.19-18.971 9.806-28.097 10.407 2.112-6.866 5.23-14.591 6.16-20.437.236-1.484.418-3.247.599-5.2.991-.783 1.814-1.673 2.4-2.698 2.202-3.858 6.626-17.169 11.942-22.192 5.315-5.024 11.668-.735 13.408-.735z" fill="#1277d7"/><path d="m469.796 188.658s-4.871 31.9-18.543 36.594c-13.673 4.694-38.756-1.983-41.398-2.204-2.643-.221-3.083-10.361 0-9.92s21.14 2.183 29.728-1.113 12.53-25.474 14.313-28.427c3.06-5.071 15.9-16.534 15.9 5.07z" fill="#1b90fb"/></g></svg>