<?xml version="1.0" encoding="UTF-8" standalone="no"?>
<!DOCTYPE svg PUBLIC "-//W3C//DTD SVG 1.1//EN" "http://www.w3.org/Graphics/SVG/1.1/DTD/svg11.dtd">
<!-- Created with Vectornator (http://vectornator.io/) -->
<svg height="100%" stroke-miterlimit="10" style="fill-rule:nonzero;clip-rule:evenodd;stroke-linecap:round;stroke-linejoin:round;" version="1.1" viewBox="0 0 600 400" width="100%" xml:space="preserve" xmlns="http://www.w3.org/2000/svg" xmlns:vectornator="http://vectornator.io" xmlns:xlink="http://www.w3.org/1999/xlink">
<defs/>
<g id="开发手机应用程序" vectornator:layerName="开发手机应用程序">
<path d="M0 0L600 0L600 0L600 400L600 400L0 400L0 400L0 0L0 0Z" fill="#ffffff" fill-opacity="0" fill-rule="evenodd" opacity="1" stroke="none"/>
<g opacity="1">
<g opacity="1">
<path d="M489.624 43.3755C479.12 43.3755 469.69 49.3775 464.926 58.2856C463.33 57.8568 461.665 57.6352 459.965 57.6352C454.563 57.6352 449.584 59.9368 446.075 63.6814C443.07 62.1077 439.696 61.251 436.22 61.251C425.902 61.251 417.271 68.634 415.327 78.4005C407.88 79.4067 402.12 85.8115 402.12 93.5386C402.12 101.961 408.965 108.813 417.378 108.813L511.933 108.813C521.882 108.813 529.976 100.711 529.976 90.7524C529.976 82.7523 524.753 75.9503 517.542 73.5839C517.598 72.8624 517.626 72.1363 517.626 71.4067C517.626 55.9507 505.064 43.3755 489.624 43.3755Z" fill="#f3f9ff" fill-rule="nonzero" opacity="1" stroke="none"/>
<path d="M131.554 55.2327C130.892 53.6311 129.192 52.7204 127.494 53.0573L122.128 54.1203C120.863 54.3707 119.554 53.9302 118.7 52.9636C117.794 51.9403 116.836 50.9764 115.826 50.0765C114.864 49.2199 114.428 47.9155 114.678 46.6508L115.738 41.2883C116.074 39.5876 115.164 37.886 113.565 37.223L105.643 33.9377C104.043 33.2747 102.198 33.8332 101.235 35.2736L98.1969 39.8155C97.4815 40.8856 96.2487 41.5 94.9656 41.4252C93.6167 41.3469 92.258 41.3496 90.8957 41.4324C89.6071 41.5108 88.3725 40.8974 87.6545 39.8236L84.6112 35.2745C83.6475 33.8341 81.8029 33.2747 80.203 33.9386L72.2809 37.2239C70.681 37.8869 69.7712 39.5885 70.1078 41.2892L71.1696 46.6607C71.4197 47.9272 70.9797 49.237 70.0142 50.0928C68.992 50.999 68.0292 51.9583 67.1311 52.969C66.2745 53.932 64.9724 54.3689 63.7091 54.1185L58.3524 53.0573C56.6535 52.7213 54.9537 53.632 54.2915 55.2327L51.0098 63.1634C50.3475 64.7651 50.9054 66.6117 52.3442 67.5765L56.8812 70.6176C57.9493 71.3337 58.5639 72.5678 58.4892 73.8524C58.4109 75.2027 58.4136 76.5629 58.4964 77.9276C58.5747 79.2185 57.9619 80.4535 56.8893 81.1723L52.3451 84.2188C50.9063 85.1836 50.3475 87.0302 51.0107 88.6319L54.2924 96.5626C54.9546 98.1642 56.6553 99.0749 58.3533 98.738L63.719 97.675C64.9841 97.4246 66.2925 97.8651 67.1473 98.8317C68.0526 99.855 69.0109 100.819 70.0205 101.719C70.9824 102.575 71.4188 103.88 71.1687 105.145L70.1087 110.506C69.7721 112.207 70.6819 113.908 72.2818 114.571L80.2039 117.856C81.8038 118.52 83.6493 117.96 84.6121 116.52L87.65 111.978C88.3653 110.909 89.5981 110.294 90.8813 110.368C92.2301 110.447 93.5888 110.444 94.9521 110.361C96.2406 110.283 97.4752 110.896 98.1933 111.97L101.237 116.52C102.2 117.96 104.045 118.52 105.645 117.856L113.567 114.571C115.167 113.908 116.076 112.205 115.74 110.505L114.678 105.134C114.428 103.867 114.868 102.557 115.834 101.702C116.856 100.795 117.819 99.8352 118.717 98.8254C119.573 97.8624 120.875 97.4255 122.139 97.6759L127.495 98.7371C129.194 99.074 130.894 98.1633 131.556 96.5617L134.838 88.631C135.5 87.0293 134.941 85.1818 133.504 84.2179L128.967 81.1768C127.898 80.4598 127.284 79.2266 127.359 77.9411C127.437 76.5908 127.434 75.2306 127.351 73.8668C127.273 72.5768 127.886 71.3409 128.958 70.6221L133.503 67.5756C134.941 66.6108 135.5 64.7642 134.837 63.1625L131.554 55.2327ZM99.8724 92.6972C90.6041 96.54 79.9798 92.1342 76.1402 82.8568C72.3007 73.5794 76.7026 62.9427 85.97 59.099C95.2373 55.2553 105.863 59.662 109.702 68.9394C113.542 78.2168 109.14 88.8544 99.8724 92.6972Z" fill="#f3f9ff" fill-rule="nonzero" opacity="1" stroke="none"/>
<path d="M127.894 341.188C62.03 341.188 35.1503 297.662 35.1503 249.216C35.1503 200.771 61.5783 170.944 95.6513 170.944C129.724 170.944 120.045 199.915 159.911 199.915C199.777 199.915 221.367 131.47 278.457 131.47C335.547 131.47 306.673 193.187 357.19 193.187C407.706 193.187 469.156 149.448 478.905 199.3C491.614 264.292 667.581 343.283 475.566 343.283C399.582 343.283 127.894 341.188 127.894 341.188Z" fill="#f3f9ff" fill-rule="nonzero" opacity="1" stroke="none"/>
</g>
<path d="M226.427 341.126L530.207 341.126C531.882 341.126 533.239 342.484 533.239 344.16L533.239 344.48C533.239 346.156 531.882 347.515 530.207 347.515L55.7609 347.515C54.0863 347.515 52.7294 346.156 52.7294 344.48L52.7294 344.48C52.7294 342.806 54.0827 341.449 55.7555 341.445L226.427 341.126Z" fill="#dae7ff" fill-rule="nonzero" opacity="1" stroke="none"/>
</g>
<g opacity="1">
<path d="M536.547 308.546C541.065 297.965 547.805 282.973 534.031 274.121C520.255 265.268 532.831 260.026 533.278 247.195C533.725 234.364 519.664 231.066 520.085 224.982C520.505 218.898 521.203 208.14 519.906 203.549C517.734 195.867 501.479 192.379 499.821 214.009C498.779 227.601 497.378 235.807 490.137 245.502C482.896 255.198 498.846 265.448 498.551 273.253C498.256 281.057 490.397 279.901 491.256 296.442C492.116 312.983 502.976 325.491 513.302 324.753C520.314 324.253 532.423 318.205 536.547 308.546Z" fill="#9e95e3" fill-rule="nonzero" opacity="1" stroke="none"/>
<path d="M532.16 287.859C532.169 287.611 531.974 287.402 531.726 287.393C531.488 287.413 531.27 287.579 531.261 287.827C531.002 295.239 520.97 300.638 517.786 302.168C518.14 298.363 518.269 294.764 518.021 291.659C517.478 284.868 515.812 277.679 514.201 270.727C512.153 261.889 510.217 253.501 510.769 246.837C512.383 246.425 518.575 244.472 520.544 238.386C520.62 238.149 520.491 237.895 520.255 237.819C520.018 237.741 519.765 237.873 519.688 238.108C517.993 243.345 512.72 245.325 510.864 245.871C510.91 245.502 510.958 245.136 511.021 244.779C512.466 236.571 511.504 226.041 510.929 219.751C510.664 216.843 510.454 214.549 510.608 213.941C510.669 213.7 510.523 213.455 510.283 213.394C510.046 213.33 509.797 213.478 509.737 213.719C509.552 214.443 509.713 216.314 510.034 219.833C510.604 226.079 511.56 236.533 510.136 244.623C510.043 245.149 509.974 245.692 509.918 246.241C509.856 246.337 509.829 246.455 509.853 246.576C509.858 246.604 509.873 246.627 509.883 246.652C509.61 249.787 509.871 253.271 510.442 256.996C510.438 256.998 510.433 256.997 510.43 256.998C505.531 259.01 502.533 253.232 502.408 252.986C502.295 252.764 502.024 252.675 501.803 252.787C501.581 252.9 501.493 253.171 501.604 253.393C501.634 253.45 504.151 258.325 508.4 258.325C509.084 258.325 509.815 258.191 510.586 257.898C511.264 262.024 512.279 266.419 513.325 270.932C514.888 277.678 516.495 284.646 517.073 291.221C515.206 291.103 508.478 290.301 506.701 284.237C506.632 283.999 506.381 283.862 506.142 283.932C505.903 284.001 505.767 284.251 505.837 284.49C507.818 291.247 515.292 292.04 517.144 292.132C517.358 295.236 517.215 298.814 516.843 302.601C516.839 302.603 516.828 302.607 516.826 302.608C516.597 302.704 516.488 302.967 516.584 303.196C516.622 303.286 516.685 303.355 516.762 303.403C515.814 312.365 513.675 322.338 512.084 329.746C510.658 336.384 509.925 339.899 510.159 341.014C510.204 341.226 510.39 341.371 510.599 341.371C510.63 341.371 510.661 341.369 510.693 341.362C510.935 341.31 511.091 341.071 511.04 340.828C510.834 339.849 511.821 335.254 512.964 329.935C514.576 322.43 516.75 312.301 517.689 303.212C520.327 302.018 531.865 296.315 532.16 287.859Z" fill="#7266d5" fill-rule="nonzero" opacity="1" stroke="none"/>
</g>
<g opacity="1">
<g opacity="1">
<path d="M56.6382 317.436C53.4177 309.895 48.6144 299.209 58.4325 292.9C68.2505 286.591 59.2873 282.854 58.9688 273.709C58.6502 264.564 68.6716 262.214 68.372 257.878C68.0724 253.541 67.5748 245.874 68.4998 242.602C70.0475 237.127 81.6328 234.641 82.8152 250.057C83.5584 259.744 84.5564 265.593 89.7178 272.503C94.8792 279.413 83.5107 286.719 83.7204 292.282C83.9301 297.845 89.5324 297.021 88.9196 308.81C88.3068 320.599 80.5665 329.514 73.2068 328.989C68.2082 328.63 59.578 324.32 56.6382 317.436Z" fill="#8ae6b9" fill-rule="nonzero" opacity="1" stroke="none"/>
<path d="M81.46 277.578C81.2387 277.467 80.9678 277.557 80.8553 277.777C80.769 277.949 78.7246 281.894 75.3898 280.605C75.7848 277.993 75.963 275.546 75.774 273.338C75.7785 273.323 75.7884 273.31 75.7911 273.294C75.8118 273.191 75.7893 273.092 75.7452 273.006C75.7047 272.615 75.6552 272.229 75.5895 271.854C74.5772 266.105 75.2575 258.664 75.6633 254.22C75.9009 251.626 76.008 250.356 75.8712 249.818C75.81 249.576 75.5607 249.429 75.325 249.493C75.0838 249.553 74.9381 249.799 75.0002 250.04C75.1045 250.451 74.948 252.159 74.768 254.137C74.3577 258.627 73.6711 266.143 74.7041 272.01C74.7374 272.198 74.7599 272.391 74.786 272.583C73.3463 272.131 69.9152 270.712 68.7769 267.193C68.7013 266.957 68.4485 266.827 68.21 266.904C67.9734 266.98 67.8447 267.234 67.9212 267.471C69.3096 271.764 73.5964 273.211 74.8904 273.557C75.2566 278.271 73.8871 284.205 72.4392 290.454C71.2902 295.414 70.1015 300.542 69.7137 305.392C69.5436 307.516 69.6219 310.01 69.8513 312.671C67.3984 311.466 60.7118 307.725 60.5354 302.667C60.5273 302.419 60.3077 302.247 60.0702 302.232C59.8218 302.241 59.6275 302.449 59.6365 302.699C59.8461 308.718 67.9086 312.785 69.9431 313.717C70.6072 320.402 72.1603 327.993 73.3094 333.613C74.1273 337.609 74.8337 341.06 74.6915 341.735C74.6402 341.979 74.7959 342.218 75.0388 342.27C75.0703 342.277 75.1009 342.279 75.1324 342.279C75.3403 342.279 75.5275 342.134 75.5724 341.922C75.7452 341.101 75.2179 338.447 74.1921 333.433C73.0574 327.887 71.5295 320.412 70.86 313.828C70.9086 313.785 70.959 313.741 70.986 313.676C71.0742 313.466 70.9842 313.234 70.7934 313.121C70.5469 310.472 70.4524 307.992 70.5901 305.863C72.1153 305.765 77.2569 305.084 78.6508 300.33C78.721 300.091 78.5842 299.841 78.3457 299.771C78.1073 299.703 77.858 299.838 77.7869 300.077C76.5668 304.24 72.1477 304.874 70.6612 304.964C71.0823 300.327 72.2143 295.416 73.3166 290.659C74.049 287.496 74.7617 284.414 75.2458 281.514C75.7479 281.687 76.2311 281.77 76.6918 281.77C79.1439 281.77 80.9534 279.588 81.6598 278.186C81.7705 277.961 81.6814 277.69 81.46 277.578Z" fill="#44d690" fill-rule="nonzero" opacity="1" stroke="none"/>
</g>
<g opacity="1">
<path d="M143.314 309.844C147.832 299.263 154.572 284.271 140.798 275.419C127.022 266.566 139.598 261.324 140.045 248.493C140.492 235.662 126.431 232.364 126.852 226.28C127.272 220.196 127.97 209.438 126.673 204.847C124.501 197.165 108.246 193.677 106.588 215.307C105.546 228.899 104.145 237.105 96.9038 246.8C89.6629 256.496 105.613 266.746 105.318 274.551C105.023 282.355 97.1639 281.2 98.0232 297.74C98.8825 314.281 109.743 326.789 120.069 326.051C127.081 325.551 139.19 319.504 143.314 309.844Z" fill="#45d48f" fill-rule="nonzero" opacity="1" stroke="none"/>
<path d="M138.928 289.157C138.937 288.909 138.742 288.7 138.494 288.691C138.256 288.711 138.038 288.877 138.029 289.125C137.77 296.537 127.737 301.936 124.554 303.466C124.908 299.661 125.037 296.062 124.789 292.957C124.246 286.167 122.58 278.977 120.969 272.025C118.921 263.187 116.985 254.799 117.537 248.135C119.151 247.723 125.343 245.77 127.312 239.684C127.388 239.447 127.259 239.193 127.023 239.117C126.786 239.039 126.533 239.171 126.456 239.406C124.761 244.643 119.488 246.623 117.632 247.169C117.678 246.8 117.726 246.434 117.789 246.077C119.234 237.869 118.272 227.34 117.697 221.049C117.432 218.141 117.222 215.847 117.376 215.239C117.437 214.998 117.291 214.753 117.051 214.692C116.813 214.628 116.565 214.776 116.505 215.017C116.32 215.741 116.481 217.612 116.802 221.131C117.372 227.377 118.328 237.831 116.903 245.921C116.811 246.447 116.742 246.99 116.686 247.539C116.624 247.635 116.597 247.754 116.621 247.874C116.626 247.902 116.641 247.925 116.651 247.95C116.378 251.085 116.639 254.569 117.21 258.294C117.206 258.296 117.201 258.295 117.198 258.297C112.299 260.308 109.301 254.53 109.176 254.284C109.063 254.062 108.791 253.973 108.571 254.085C108.349 254.198 108.261 254.469 108.372 254.691C108.402 254.748 110.919 259.623 115.168 259.623C115.852 259.623 116.583 259.489 117.354 259.196C118.032 263.322 119.047 267.717 120.092 272.23C121.655 278.976 123.263 285.944 123.841 292.519C121.974 292.401 115.246 291.599 113.469 285.535C113.4 285.297 113.149 285.16 112.91 285.23C112.671 285.299 112.535 285.549 112.605 285.788C114.586 292.545 122.06 293.338 123.912 293.43C124.126 296.534 123.983 300.112 123.611 303.899C123.607 303.901 123.595 303.905 123.594 303.906C123.365 304.002 123.256 304.265 123.352 304.494C123.389 304.584 123.453 304.653 123.53 304.701C122.582 313.663 120.442 323.636 118.852 331.044C117.426 337.682 116.693 341.197 116.927 342.312C116.972 342.524 117.158 342.669 117.367 342.669C117.397 342.669 117.429 342.667 117.46 342.66C117.703 342.608 117.859 342.37 117.808 342.126C117.602 341.147 118.589 336.552 119.732 331.233C121.344 323.728 123.518 313.599 124.457 304.51C127.094 303.316 138.633 297.613 138.928 289.157Z" fill="#1eaf69" fill-rule="nonzero" opacity="1" stroke="none"/>
</g>
</g>
<g opacity="1">
<path d="M182.898 348.066C182.641 349.766 181.968 359.683 181.968 359.683L174.067 358.636L174.067 347.718L182.898 348.066Z" fill="#f1b282" fill-rule="nonzero" opacity="1" stroke="none"/>
<path d="M171.61 358.163C171.61 358.163 169.141 365.136 170.398 367.148C171.655 369.16 194.347 367.711 196.053 367.566C203.838 366.905 205.698 360.385 197.535 361.15C189.372 361.916 187.474 355.607 182.834 355.85C179.897 356.629 176.922 359.498 175.036 359.025C173.15 358.551 171.61 358.163 171.61 358.163Z" fill="#03193f" fill-rule="nonzero" opacity="1" stroke="none"/>
<path d="M123.183 363.521L114.361 362.422L119.477 355.845L125.612 355.845L123.183 363.521Z" fill="#f1b282" fill-rule="nonzero" opacity="1" stroke="none"/>
<path d="M142.46 313.735C142.46 313.735 168.287 303.354 174.763 306.057C184.155 309.978 185.376 349.282 183.517 350.615C181.658 351.949 176.795 351.996 174.066 350.094C171.337 348.192 169.299 334.319 169.299 325.086C164.189 329.627 148.861 339.326 148.861 339.326C148.861 339.326 132.468 328.624 142.46 313.735Z" fill="#0b224e" fill-rule="nonzero" opacity="1" stroke="none"/>
<path d="M108.911 336.683C108.911 343.626 114.803 346.938 118.501 349.392C122.098 351.779 125.245 353.382 123.946 354.836C121.313 357.781 121.933 364.142 121.933 364.142C121.933 364.142 155.551 368.949 169.495 367.864C183.439 366.778 182.044 355.61 175.228 351.578C168.412 347.545 144.707 329.244 144.707 329.244C133.706 326.142 108.911 322.488 108.911 336.683Z" fill="#102b5e" fill-rule="nonzero" opacity="1" stroke="none"/>
<g opacity="1">
<g opacity="1">
<path d="M134.289 235.413C121.233 237.786 129.828 250.077 129.829 255.636C129.83 261.194 127.523 269.795 127.523 269.795L140.972 270.798C140.972 270.798 141.209 266.261 140.94 263.932C140.671 261.603 142.309 260.356 145.196 260.297C148.082 260.239 147.817 254.627 148.169 253.566C148.745 251.831 151.651 252.774 151 250.786C150.349 248.798 148.117 248.232 147.343 242.911C146.569 237.59 140.485 234.287 134.289 235.413Z" fill="#f1b282" fill-rule="nonzero" opacity="1" stroke="none"/>
<path d="M144.458 260.341C143.087 260.475 142.063 260.932 141.474 261.691L139.813 258.954C141.396 259.779 143.583 260.36 144.458 260.341Z" fill="#cd916a" fill-rule="nonzero" opacity="1" stroke="none"/>
</g>
<path d="M128.589 234.857C128.589 234.857 127.749 227.646 119.81 227.495C109.261 227.295 109.582 242.351 109.434 250.192C109.15 265.191 101.879 265.459 104.434 268.491C106.243 270.638 120.351 260.984 121.648 250.346C122.946 239.708 122.073 234.733 127.593 237.342C129.806 238.388 128.589 234.857 128.589 234.857Z" fill="#0b224e" fill-rule="nonzero" opacity="1" stroke="none"/>
<path d="M125.942 254.093C131.402 264.337 137.805 250.87 133.439 248.541C130.068 246.742 131.284 241.741 140.075 245.096C143.052 246.232 149.893 244.363 150.035 236.847C150.087 234.069 145.591 232.493 136.881 232.401C122.597 232.25 121.588 245.922 125.942 254.093Z" fill="#0b224e" fill-rule="nonzero" opacity="1" stroke="none"/>
<path d="M130.944 230.581C133.182 231.699 127.78 241.006 124.637 239.717C121.493 238.429 128.026 229.121 130.944 230.581Z" fill="#1b90fb" fill-rule="nonzero" opacity="1" stroke="none"/>
</g>
<path d="M142.673 305.711C142.763 304.729 145.223 303.894 147.242 301.775C148.918 300.007 150.284 297.355 149.702 292.969C149.612 292.29 149.702 292.969 150.136 291.742C150.258 291.389 150.381 291.022 150.504 290.637C153.038 282.854 155.597 268.042 136.648 263.959C127.042 261.881 116.862 265.013 117.064 287.838C117.432 329.525 101.783 324.73 106.238 332.259C108.486 336.056 119.678 338.397 126.209 335.14C132.732 331.882 151.624 333.511 151.068 330.72C150.57 328.224 141.43 320.729 142.673 305.711Z" fill="#ffcb01" fill-rule="nonzero" opacity="1" stroke="none"/>
<path d="M240.313 274.975L157.731 280.756C155.747 280.895 154.028 279.399 153.889 277.413L152.132 252.252C151.993 250.267 153.488 248.545 155.471 248.407L238.054 242.625C240.037 242.487 241.757 243.983 241.895 245.968L243.653 271.129C243.791 273.114 242.297 274.836 240.313 274.975Z" fill="#1b90fb" fill-rule="nonzero" opacity="1" stroke="none"/>
<path d="M161.44 284.576C161.44 284.576 165.775 287.027 171.547 289.89C178.697 287.392 191.341 278.682 193.51 275.115C194.981 272.697 197.796 268.799 199.262 269.608C200.493 270.287 197.969 272.637 198.394 274.341C198.773 275.863 208.532 269.096 208.532 273.874C208.532 278.169 207.242 281.697 200.268 281.697C198.14 281.697 195.956 281.911 192.016 286.141C189.832 288.486 179.944 300.827 168.324 300.052C156.705 299.276 148.861 293.881 148.861 293.881C148.861 293.881 156.017 284.421 161.44 284.576Z" fill="#f1b282" fill-rule="nonzero" opacity="1" stroke="none"/>
<path d="M123.946 354.837C123.946 354.837 145.268 354.837 153.044 354.837C153.044 354.837 128.196 352.58 118.501 349.393C122.098 351.78 125.245 353.383 123.946 354.837Z" fill="#0b224e" fill-rule="nonzero" opacity="1" stroke="none"/>
<path d="M123.094 354.371C123.094 354.371 123.549 349.081 121.653 347.824C119.757 346.567 100.527 356.849 99.0958 357.653C92.5639 361.323 93.5268 367.753 100.347 363.841C107.167 359.929 111.324 364.681 115.278 362.625C117.532 360.777 118.991 357.091 120.826 356.756C122.661 356.42 123.094 354.371 123.094 354.371Z" fill="#03193f" fill-rule="nonzero" opacity="1" stroke="none"/>
<path d="M150.137 291.742C149.703 292.969 149.614 292.29 149.703 292.969C150.284 297.355 148.919 300.007 147.242 301.775C143.261 298.125 134.662 288.354 134.097 277.633C134.097 277.633 147.75 284.557 149.875 289.091C150.112 289.598 150.325 290.114 150.504 290.637C150.382 291.022 150.259 291.39 150.137 291.742Z" fill="#f0b701" fill-rule="nonzero" opacity="1" stroke="none"/>
<path d="M162.037 282.211C158.602 280.373 153.004 274.272 149.837 270.635C148.11 268.651 145.885 267.151 143.381 266.351C124.608 260.351 132.284 276.108 135.975 282.33C139.911 288.964 151.344 300.823 152.454 295.82C153.566 290.818 167.037 284.887 162.037 282.211Z" fill="#ffcb01" fill-rule="nonzero" opacity="1" stroke="none"/>
</g>
<g opacity="1">
<path d="M190.159 328.8L190.159 331.404C190.159 335.493 192.786 336.938 195.036 336.938C195.374 336.938 195.699 336.899 196.011 336.847C196.505 336.756 196.96 336.625 197.311 336.508C197.753 336.339 198.039 336.195 198.079 336.183C198.56 335.949 198.742 335.362 198.508 334.881C198.287 334.439 197.767 334.23 197.311 334.399C197.285 334.412 197.247 334.425 197.207 334.438C197.194 334.438 196.673 334.698 196.01 334.855C195.698 334.933 195.36 334.986 195.035 334.986C193.942 334.986 192.109 334.517 192.109 331.405L192.109 328.801C192.109 325.689 193.942 325.22 195.035 325.22C195.36 325.22 195.698 325.272 196.01 325.351C196.673 325.506 197.193 325.768 197.207 325.768C197.246 325.78 197.285 325.794 197.311 325.806C197.767 325.976 198.287 325.768 198.508 325.325C198.742 324.843 198.56 324.257 198.079 324.023C198.04 324.01 197.754 323.867 197.311 323.698C196.96 323.581 196.505 323.45 196.011 323.359C195.699 323.307 195.374 323.268 195.036 323.268C192.786 323.266 190.159 324.712 190.159 328.8Z" fill="#ffcb01" fill-rule="nonzero" opacity="1" stroke="none"/>
<path d="M196.011 323.365L196.011 325.357C196.674 325.513 197.194 325.774 197.208 325.774C197.247 325.787 197.286 325.8 197.312 325.813L197.312 323.703C196.96 323.587 196.505 323.456 196.011 323.365Z" fill="#f0b701" fill-rule="nonzero" opacity="1" stroke="none"/>
<path d="M196.011 334.862L196.011 336.854C196.505 336.763 196.96 336.632 197.311 336.515L197.311 334.406C197.285 334.418 197.247 334.432 197.207 334.444C197.194 334.445 196.674 334.705 196.011 334.862Z" fill="#f0b701" fill-rule="nonzero" opacity="1" stroke="none"/>
<path d="M197.312 320.337L197.312 337.914C197.312 339.346 198.483 340.518 199.914 340.518L212.92 340.518C214.351 340.518 215.521 339.346 215.521 337.914L215.521 320.337C215.521 319.972 215.235 319.685 214.871 319.685L197.963 319.685C197.598 319.686 197.312 319.972 197.312 320.337Z" fill="#ffcb01" fill-rule="nonzero" opacity="1" stroke="none"/>
<path d="M204.812 299.348C204.812 299.348 202.862 301.199 202.93 302.713C202.997 304.228 204.846 304.935 204.812 307.324C204.779 309.713 202.325 309.679 202.325 311.698C202.325 313.717 206.493 315.097 206.493 316.88C206.493 316.88 207.636 316.072 207.669 315.164C207.703 314.256 206.123 313.617 206.123 312.27C206.123 310.924 211.267 310.52 211.267 307.425C211.267 304.329 204.913 303.453 204.812 299.348Z" fill="#dae7ff" fill-rule="nonzero" opacity="1" stroke="none"/>
<path d="M209.122 340.518L212.919 340.518C214.35 340.518 215.52 339.346 215.52 337.914L215.52 331.951C215.52 331.951 215.299 338.461 209.122 340.518Z" fill="#f0b701" fill-rule="nonzero" opacity="1" stroke="none"/>
</g>
<g opacity="1">
<path d="M115.75 75.1153L134.759 84.6305L191.788 59.2566L115.75 75.1153Z" fill="#ffe18d" fill-rule="nonzero" opacity="1" stroke="none"/>
<path d="M137.927 100.488L134.759 84.6305L191.788 59.2566L137.927 100.488Z" fill="#ffcb01" fill-rule="nonzero" opacity="1" stroke="none"/>
<path d="M137.927 100.488L144.264 87.8022L160.105 84.6305L137.927 100.488Z" fill="#f0b701" fill-rule="nonzero" opacity="1" stroke="none"/>
<path d="M144.264 87.8022L160.105 94.1457L191.788 59.2566L144.264 87.8022Z" fill="#ffe18d" fill-rule="nonzero" opacity="1" stroke="none"/>
</g>
<g opacity="1">
<g opacity="1">
<path d="M384.653 33.6603L256.717 33.6603C242.586 33.6603 231.131 45.1275 231.131 59.2747L231.131 315.422C231.131 329.568 242.586 341.036 256.717 341.036L384.652 341.036C398.783 341.036 410.239 329.568 410.239 315.422L410.239 59.2756C410.239 45.1275 398.784 33.6603 384.653 33.6603Z" fill="#183168" fill-rule="nonzero" opacity="1" stroke="none"/>
<path d="M373.405 33.6603L245.469 33.6603C231.338 33.6603 219.883 45.1275 219.883 59.2747L219.883 315.422C219.883 329.568 231.338 341.036 245.469 341.036L373.405 341.036C387.535 341.036 398.991 329.568 398.991 315.422L398.991 59.2756C398.991 45.1275 387.536 33.6603 373.405 33.6603Z" fill="#224380" fill-rule="nonzero" opacity="1" stroke="none"/>
<path d="M386.198 65.6785L386.198 309.019C386.198 319.649 377.627 328.23 367.008 328.23L252.89 328.23C242.271 328.23 233.7 319.649 233.7 309.019L233.7 65.6785C233.7 55.0481 242.271 46.467 252.89 46.467L261.462 46.467C266.707 46.467 271.057 50.8215 271.057 56.0723C271.057 61.3231 275.407 65.6776 280.652 65.6776L338.223 65.6776C343.468 65.6776 347.818 61.3231 347.818 56.0723C347.818 50.8215 352.168 46.467 357.413 46.467L367.008 46.467C377.627 46.467 386.198 55.0481 386.198 65.6785Z" fill="#f3f9ff" fill-rule="nonzero" opacity="1" stroke="none"/>
</g>
<g opacity="1">
<path d="M344.281 110.288C344.281 101.831 351.129 94.9744 359.578 94.9744C368.026 94.9744 374.875 101.831 374.875 110.288C374.875 118.746 368.026 125.602 359.578 125.602C351.129 125.602 344.281 118.746 344.281 110.288Z" fill="#2ccd7f" fill-rule="nonzero" opacity="1" stroke="none"/>
<path d="M357.984 116.414C357.963 116.414 357.941 116.414 357.92 116.414C357.496 116.396 357.099 116.201 356.823 115.878L352.234 110.519C351.683 109.878 351.757 108.91 352.4 108.359C353.044 107.815 354.007 107.887 354.556 108.527L358.079 112.639L366.218 104.602C366.817 104.01 367.789 104.019 368.381 104.618C368.974 105.222 368.967 106.19 368.365 106.786L359.059 115.974C358.772 116.255 358.386 116.414 357.984 116.414Z" fill="#ffffff" fill-rule="nonzero" opacity="1" stroke="none"/>
</g>
<path d="M332.544 125.627L249.76 125.627C247.772 125.627 246.16 124.014 246.16 122.024L246.16 96.8013C246.16 94.8114 247.772 93.198 249.76 93.198L332.544 93.198C334.532 93.198 336.143 94.8114 336.143 96.8013L336.143 122.024C336.143 124.015 334.532 125.627 332.544 125.627Z" fill="#1b90fb" fill-rule="nonzero" opacity="1" stroke="none"/>
<g opacity="1">
<path d="M344.281 166.268C344.281 157.81 351.129 150.954 359.578 150.954C368.026 150.954 374.875 157.81 374.875 166.268C374.875 174.725 368.026 181.581 359.578 181.581C351.129 181.581 344.281 174.725 344.281 166.268Z" fill="#aec1e8" fill-rule="nonzero" opacity="1" stroke="none"/>
<path d="M357.984 172.393C357.963 172.393 357.941 172.393 357.92 172.393C357.496 172.375 357.099 172.181 356.823 171.858L352.234 166.498C351.683 165.858 351.757 164.889 352.4 164.339C353.044 163.795 354.007 163.866 354.556 164.507L358.079 168.619L366.218 160.582C366.817 159.99 367.789 159.999 368.381 160.597C368.974 161.202 368.967 162.17 368.365 162.765L359.059 171.954C358.772 172.235 358.386 172.393 357.984 172.393Z" fill="#ffffff" fill-rule="nonzero" opacity="1" stroke="none"/>
</g>
<path d="M332.544 181.607L249.76 181.607C247.772 181.607 246.16 179.993 246.16 178.003L246.16 152.781C246.16 150.791 247.772 149.178 249.76 149.178L332.544 149.178C334.532 149.178 336.143 150.791 336.143 152.781L336.143 178.003C336.143 179.993 334.532 181.607 332.544 181.607Z" fill="#dae7ff" fill-rule="nonzero" opacity="1" stroke="none"/>
<path d="M326.695 105.453L255.609 105.453C254.688 105.453 253.94 104.705 253.94 103.783C253.94 102.86 254.687 102.112 255.609 102.112L326.695 102.112C327.616 102.112 328.364 102.86 328.364 103.783C328.364 104.705 327.616 105.453 326.695 105.453Z" fill="#baddfe" fill-rule="nonzero" opacity="1" stroke="none"/>
<path d="M326.695 116.713L255.609 116.713C254.688 116.713 253.94 115.965 253.94 115.043C253.94 114.12 254.687 113.372 255.609 113.372L326.695 113.372C327.616 113.372 328.364 114.12 328.364 115.043C328.364 115.965 327.616 116.713 326.695 116.713Z" fill="#baddfe" fill-rule="nonzero" opacity="1" stroke="none"/>
</g>
<g opacity="1">
<path d="M443.205 146.019C442.364 149.419 443.881 150.669 443.861 152C443.841 153.331 442.958 156.274 443.312 157.434C443.667 158.595 445.484 158.216 446.426 159.587C447.368 160.959 447.105 163.199 449.013 164.356C450.92 165.514 455.901 163.598 456.169 165.193C456.437 166.788 455.411 177.983 455.411 177.983L472.246 173.242C472.246 173.242 465.922 161.328 465.722 157.644C465.521 153.961 463.225 140.904 458.291 140.736C453.356 140.568 444.099 142.41 443.205 146.019Z" fill="#f1b282" fill-rule="nonzero" opacity="1" stroke="none"/>
<path d="M454.175 134.207C447.084 135.872 443.612 136.077 443.016 133.532C440.778 134.06 437.723 138.721 438.797 143.304C441.171 153.433 453.58 145.946 454.898 151.569C454.908 151.585 455.341 159.035 453.834 160.485C452.327 161.934 447.989 159.186 446.482 159.472C445.262 159.703 442.968 172.479 451.895 170.382C460.823 168.285 455.278 151.242 460.74 149.96C463.515 149.308 463.447 161.374 467.26 160.478C470.761 159.656 473.661 154.058 471.511 144.883C469.17 134.895 460.465 132.73 454.175 134.207Z" fill="#0b224e" fill-rule="nonzero" opacity="1" stroke="none"/>
<path d="M381.678 197.416C381.678 187.046 390.076 178.639 400.435 178.639C410.793 178.639 419.191 187.046 419.191 197.416C419.191 207.786 410.793 216.192 400.435 216.192C390.076 216.192 381.678 207.786 381.678 197.416Z" fill="#2ccd7f" fill-rule="nonzero" opacity="1" stroke="none"/>
<path d="M398.48 204.926C398.454 204.926 398.427 204.926 398.401 204.926C397.881 204.904 397.393 204.665 397.057 204.269L391.43 197.698C390.754 196.913 390.846 195.725 391.633 195.05C392.422 194.383 393.604 194.471 394.276 195.256L398.595 200.298L408.574 190.444C409.309 189.718 410.501 189.729 411.226 190.462C411.953 191.203 411.946 192.391 411.208 193.122L399.797 204.387C399.445 204.732 398.972 204.926 398.48 204.926Z" fill="#ffffff" fill-rule="nonzero" opacity="1" stroke="none"/>
<path d="M409.932 214.671C409.932 214.671 406.959 214.119 405.528 213.899C404.098 213.678 396.941 213.054 391.545 212.612C386.15 212.172 383.25 214.265 387.655 215.698C392.059 217.132 395.289 221.136 402.115 221.503C406.087 221.717 415.548 221.503 415.548 221.503L409.932 214.671Z" fill="#f1b282" fill-rule="nonzero" opacity="1" stroke="none"/>
<path d="M476.334 285.915C474.966 276.312 470.009 244.745 462.786 235.093L442.365 250.859C442.365 250.859 456.902 292.092 461.921 297.809C465.8 302.229 486.722 331.135 486.722 331.135L496.911 324.954C496.912 324.953 484.565 298.313 476.334 285.915Z" fill="#0b224e" fill-rule="nonzero" opacity="1" stroke="none"/>
<path d="M445.348 339.289L443.836 349.913L434.957 349.057L434.957 339.289L445.348 339.289Z" fill="#f1b282" fill-rule="nonzero" opacity="1" stroke="none"/>
<path d="M470.772 229.407C470.752 228.934 470.718 228.434 470.449 228.044C470.073 227.498 469.357 227.328 468.706 227.199C464.26 226.319 459.648 225.441 455.241 226.495C452.298 227.198 449.321 228.754 446.409 227.935C445.271 227.615 443.985 226.962 443.011 227.63C442.961 227.664 442.916 227.701 442.871 227.739C442.409 228.139 442.203 228.779 442.032 229.378C437.807 244.185 435.975 266.227 435.246 286.2C434.328 311.352 434.444 337.73 434.444 337.73L445.981 337.799C445.981 337.799 452.747 305.936 453.293 288.599C457.01 278.738 464.682 258.361 468.156 248.996C470.457 242.789 471.046 236.023 470.772 229.407Z" fill="#102b5e" fill-rule="nonzero" opacity="1" stroke="none"/>
<path d="M496.419 326.533L501.33 333.384L494.382 340.573L488.981 332.108L496.419 326.533Z" fill="#f1b282" fill-rule="nonzero" opacity="1" stroke="none"/>
<path d="M499.58 327.81C499.808 330.361 496.908 331.179 495.32 332.284C493.732 333.389 488.014 336.819 487.091 335.251C486.168 333.684 486.509 332.108 485.856 330.885C485.204 329.663 483.124 328.639 484.13 327.086C485.136 325.533 487.86 325.427 489.584 324.75C490.845 324.254 494.612 320.34 495.504 320.891C496.397 321.441 496.275 323.275 496.882 324.171C497.785 325.498 499.403 325.829 499.58 327.81Z" fill="#355aa2" fill-rule="nonzero" opacity="1" stroke="none"/>
<path d="M446.825 341.613C445.742 343.933 442.824 343.181 440.896 343.338C438.969 343.495 432.304 343.582 432.292 341.762C432.28 339.943 433.367 338.752 433.417 337.367C433.467 335.983 432.183 334.051 433.833 333.214C435.482 332.377 437.889 333.657 439.72 333.939C441.059 334.145 446.28 332.656 446.776 333.581C447.272 334.506 446.244 336.03 446.32 337.11C446.434 338.712 447.666 339.812 446.825 341.613Z" fill="#355aa2" fill-rule="nonzero" opacity="1" stroke="none"/>
<path d="M500.022 331.833C500.785 331.123 502.633 331.577 504.965 334.369C507.297 337.162 509.696 339.064 507.349 341.276C505.875 342.666 496.544 347.22 490.622 351.729C488.483 353.358 485.136 353.908 482.425 353.4C481.872 353.296 481.422 352.891 481.281 352.369C481.14 351.848 481.336 351.309 481.777 350.999C486.705 347.551 487.121 347.876 489.07 342.702C489.777 340.824 490.296 339.173 491.009 338.578C492.395 337.422 494.118 338.163 496.313 336.204C498.509 334.246 498.703 333.062 500.022 331.833Z" fill="#0b224e" fill-rule="nonzero" opacity="1" stroke="none"/>
<path d="M445.052 345.851C446.06 345.769 447.082 347.33 446.92 351.097C446.758 354.863 447.413 356.882 444.29 357.156C441.605 357.392 423.834 356.919 418.91 356.782C418.531 356.772 418.176 356.58 417.938 356.256C417.7 355.933 417.6 355.509 417.666 355.094C417.96 353.264 419.307 350.5 424.681 349.976C428.627 349.276 432.464 345.527 434.21 345.487C435.955 345.448 436.7 347.159 439.547 346.992C442.394 346.826 443.308 345.993 445.052 345.851Z" fill="#0b224e" fill-rule="nonzero" opacity="1" stroke="none"/>
<path d="M478.197 195.601C475.554 220.953 470.269 232.416 474.233 241.895C478.197 251.374 464.985 244.76 457.497 245.202C450.011 245.642 440.321 253.358 434.156 248.508C431.075 246.086 432.178 240.088 434.283 233.233C436.395 226.367 439.513 218.642 440.443 212.796C440.679 211.312 440.861 209.549 441.042 207.596C442.278 194.162 443.446 171.763 461.902 170.029C466.51 169.598 480.839 170.25 478.197 195.601Z" fill="#1b90fb" fill-rule="nonzero" opacity="1" stroke="none"/>
<path d="M468.792 181.971C468.792 181.971 467.444 213.127 462.38 222.826C457.582 232.016 443.409 232.632 434.283 233.233C436.395 226.367 439.513 218.642 440.443 212.796C440.679 211.312 440.861 209.549 441.042 207.596C442.033 206.813 442.856 205.923 443.442 204.898C445.644 201.04 450.068 187.729 455.384 182.706C460.699 177.682 467.052 181.971 468.792 181.971Z" fill="#1277d7" fill-rule="nonzero" opacity="1" stroke="none"/>
<path d="M469.796 188.658C469.796 188.658 464.925 220.558 451.253 225.252C437.58 229.946 412.497 223.269 409.855 223.048C407.212 222.827 406.772 212.687 409.855 213.128C412.938 213.569 430.995 215.311 439.583 212.015C448.171 208.719 452.113 186.541 453.896 183.588C456.956 178.517 469.796 167.054 469.796 188.658Z" fill="#1b90fb" fill-rule="nonzero" opacity="1" stroke="none"/>
</g>
</g>
</svg>
