<?xml version="1.0" standalone="no"?><!DOCTYPE svg PUBLIC "-//W3C//DTD SVG 1.1//EN" "http://www.w3.org/Graphics/SVG/1.1/DTD/svg11.dtd"><svg t="1669010582375" class="icon" viewBox="0 0 1024 1024" version="1.1" xmlns="http://www.w3.org/2000/svg" p-id="3208" xmlns:xlink="http://www.w3.org/1999/xlink" width="200" height="200"><path d="M513.706667 989.866667c-225.28 0-409.6-184.32-409.6-409.6s184.32-409.6 409.6-409.6 409.6 184.32 409.6 409.6-182.613333 409.6-409.6 409.6z m0-769.706667c-197.973333 0-358.4 160.426667-358.4 358.4s160.426667 358.4 358.4 358.4 358.4-160.426667 358.4-358.4-160.426667-358.4-358.4-358.4zM650.24 85.333333H378.88c-13.653333 0-25.6-11.946667-25.6-25.6S363.52 34.133333 378.88 34.133333h271.36c13.653333 0 25.6 11.946667 25.6 25.6S663.893333 85.333333 650.24 85.333333z" fill="#333333" p-id="3209"></path><path d="M513.706667 605.866667c-13.653333 0-25.6-11.946667-25.6-25.6V399.36c0-13.653333 11.946667-25.6 25.6-25.6s25.6 11.946667 25.6 25.6V580.266667c0 13.653333-11.946667 25.6-25.6 25.6z" fill="#333333" p-id="3210"></path><path d="M694.613333 605.866667H513.706667c-13.653333 0-25.6-11.946667-25.6-25.6s11.946667-25.6 25.6-25.6h180.906666c13.653333 0 25.6 11.946667 25.6 25.6s-11.946667 25.6-25.6 25.6zM513.706667 175.786667c-13.653333 0-25.6-11.946667-25.6-25.6V59.733333c0-13.653333 11.946667-25.6 25.6-25.6s25.6 11.946667 25.6 25.6v90.453334c0 13.653333-11.946667 25.6-25.6 25.6z" fill="#333333" p-id="3211"></path><path d="M232.106667 563.2c0 155.306667 126.293333 283.306667 281.6 283.306667s283.306667-126.293333 283.306666-281.6-126.293333-283.306667-281.6-283.306667c-49.493333 0-98.986667 13.653333-141.653333 37.546667-88.746667 49.493333-141.653333 143.36-141.653333 244.053333" fill="#333333" opacity=".3" p-id="3212"></path></svg>