<?xml version="1.0" encoding="UTF-8" standalone="yes"?>
<!DOCTYPE svg PUBLIC "-//W3C//DTD SVG 1.1//EN" "http://www.w3.org/Graphics/SVG/1.1/DTD/svg11.dtd">
<!-- Created with Vectornator (http://vectornator.io/) --><svg xmlns="http://www.w3.org/2000/svg" xmlns:vectornator="http://vectornator.io" xmlns:xlink="http://www.w3.org/1999/xlink" height="100%" stroke-miterlimit="10" style="fill-rule:nonzero;clip-rule:evenodd;stroke-linecap:round;stroke-linejoin:round;zoom: 1;" version="1.1" viewBox="0 0 1600 1200" width="100%" xml:space="preserve"><defs></defs><g id="Untitled" vectornator:layerName="Untitled"><g opacity="1"><path d="M321 851.31L1406.3 839.87" fill="none" opacity="1" stroke="#000000" stroke-linecap="butt" stroke-linejoin="miter" stroke-width="1"></path><g opacity="1"><path d="M1052.94 683.74L1112.12 726.05C1112.12 726.05 1171.14 687.13 1187.96 643.06L1125.36 620.7L1052.94 683.74Z" fill="#000000" fill-rule="nonzero" opacity="0.07" stroke="none"></path><path d="M1052.94 683.74L1113.44 720.49C1113.44 720.49 1159.18 688.34 1187.96 643.06C1187.96 643.06 1131.15 619.44 1123.77 611.56C1123.77 611.56 1087.61 657.49 1052.94 683.74Z" fill="#1cd3c1" fill-rule="nonzero" opacity="1" stroke="none"></path></g><g opacity="1"><path d="M965.055 396.728L974.74 375.678L974.74 375.678L995.454 385.209L995.454 385.209L985.769 406.259L985.769 406.259L965.055 396.728L965.055 396.728Z" fill="#edd15d" fill-rule="nonzero" opacity="1" stroke="none"></path><path d="M953.62 422.724L962.588 402.69L962.588 402.69L983.845 412.207L983.845 412.207L974.876 432.24L974.876 432.24L953.62 422.724L953.62 422.724Z" fill="#3a84ff" fill-rule="nonzero" opacity="1" stroke="none"></path><path d="M990.858 407.276L1000.54 386.226L1000.54 386.226L1021.26 395.757L1021.26 395.757L1011.57 416.807L1011.57 416.807L990.858 407.276L990.858 407.276Z" fill="#abbd43" fill-rule="nonzero" opacity="1" stroke="none"></path><path d="M979.396 434.72L988.365 414.687L988.365 414.687L1009.62 424.203L1009.62 424.203L1000.65 444.237L1000.65 444.237L979.396 434.72L979.396 434.72Z" fill="#fa6142" fill-rule="nonzero" opacity="1" stroke="none"></path></g><g opacity="1"><path d="M366.95 348.62C366.95 317.985 392.165 293.15 423.27 293.15C454.375 293.15 479.59 317.985 479.59 348.62C479.59 379.255 454.375 404.09 423.27 404.09C392.165 404.09 366.95 379.255 366.95 348.62Z" fill="#9e9e9e" fill-rule="nonzero" opacity="1" stroke="#000000" stroke-linecap="butt" stroke-linejoin="miter" stroke-width="1"></path><path d="M372.12 348.62C372.12 320.498 395.021 297.7 423.27 297.7C451.519 297.7 474.42 320.498 474.42 348.62C474.42 376.742 451.519 399.54 423.27 399.54C395.021 399.54 372.12 376.742 372.12 348.62Z" fill="#ffffff" fill-rule="nonzero" opacity="1" stroke="#000000" stroke-linecap="butt" stroke-linejoin="miter" stroke-width="1"></path><path d="M404.98 348.62L425.09 357.37L446.95 326.77" fill="none" opacity="1" stroke="#000000" stroke-linecap="butt" stroke-linejoin="miter" stroke-width="1"></path></g><g opacity="1"><g opacity="1"><path d="M443.62 801.33C443.62 798.85 414.29 716.87 402.07 710.25" fill="none" opacity="1" stroke="#000000" stroke-linecap="butt" stroke-linejoin="miter" stroke-width="1"></path><path d="M450.95 803.81C450.95 803.81 444.43 662.22 426.51 649.8" fill="none" opacity="1" stroke="#000000" stroke-linecap="butt" stroke-linejoin="miter" stroke-width="1"></path><path d="M447.29 813.33C447.29 813.33 454.1 754.15 481.1 683.75" fill="none" opacity="1" stroke="#000000" stroke-linecap="butt" stroke-linejoin="miter" stroke-width="1"></path><path d="M427.58 651.1C413.03 641.36 397.42 631.37 380 630.99C368.58 630.74 357.51 634.71 346.91 639.03C336.31 643.35 325.71 648.14 314.39 649.68C303.07 651.22 290.63 649.02 282.41 640.96C292.52 644 303.21 638.08 310.82 630.67C318.44 623.26 324.52 614.1 333.3 608.16C349.29 597.33 371.32 599.7 388.06 609.29C404.8 618.88 416.81 635.4 428.18 651.15" fill="#39b54a" fill-rule="nonzero" opacity="1" stroke="none"></path><path d="M481.06 683.7C480.68 672.77 480.58 661.61 483.78 651.16C486.98 640.71 494.03 630.94 504.14 627.18C515.97 622.79 528.97 627.28 541.03 630.95C553.09 634.62 567.17 637.18 577.46 629.8C565.34 641.14 549.95 648.83 533.7 651.65C538.31 651.95 542.91 652.26 547.52 652.56C532.07 657.44 516.62 662.33 501.17 667.21C496.58 668.66 491.91 670.15 487.98 672.95C484.05 675.75 480.9 680.13 480.75 685.01" fill="#39b54a" fill-rule="nonzero" opacity="1" stroke="none"></path><path d="M426.51 649.8C426.51 649.8 400.92 609.83 361.26 616.26" fill="none" opacity="1" stroke="#000000" stroke-linecap="butt" stroke-linejoin="miter" stroke-width="1"></path><path d="M481.24 680.62C481.24 680.62 490.91 649.12 521.9 641.67" fill="none" opacity="1" stroke="#000000" stroke-linecap="butt" stroke-linejoin="miter" stroke-width="1"></path><path d="M403.08 710.39C403.08 710.39 381.03 703.93 362.07 722.37C343.11 740.82 343.61 747.57 332.64 750.43C332.64 750.43 355.09 760.2 372.05 745.27C389.01 730.34 396.19 709.89 403.08 710.39Z" fill="#39b54a" fill-rule="nonzero" opacity="1" stroke="none"></path><path d="M396.44 711.17C396.44 711.17 383.67 714.19 377.29 722.76C370.91 731.33 366.7 736.2 363.01 737.88" fill="none" opacity="1" stroke="#070707" stroke-linecap="butt" stroke-linejoin="miter" stroke-width="1"></path></g><path d="M469.69 849.35L429.77 850.18L407.77 776.49L486.8 776.49L469.69 849.35Z" fill="#f7931e" fill-rule="nonzero" opacity="1" stroke="none"></path></g><g opacity="1"><path d="M1012.41 720C1011.54 721.15 1009.96 722.83 1007.49 724.09C1007.23 724.22 1006.97 724.35 1006.69 724.47" fill="#ffffff" fill-rule="nonzero" opacity="1" stroke="#000000" stroke-linecap="butt" stroke-linejoin="miter" stroke-width="1"></path><g opacity="1"><path d="M920.28 715.14C920.28 715.14 905.65 730.99 896.5 732.82L886.13 701.72C886.14 701.72 920.89 697.46 920.28 715.14Z" fill="#000000" fill-rule="nonzero" opacity="1" stroke="none"></path><path d="M1006.86 724.27C1007.14 722.07 1008.32 718.33 1013.28 720.11L1028.07 734.14C1029.49 735.48 1030.19 737.41 1029.98 739.36L1029.97 739.44C1029.97 739.44 1051.78 729.49 1056.21 731.33C1061.72 733.61 1053.86 740.14 1053.16 740.67C1052.46 741.2 1070.73 738.03 1067.57 741.9C1064.41 745.77 1020.83 765.09 1016.97 766.5C1016.97 766.5 1000.97 772.76 996.93 772.76C992.89 772.76 983.2 772.76 978.36 772.76C973.52 772.76 892.78 801.82 892.78 801.82L856.45 716.24C856.45 716.24 887.51 677.47 909.52 704.53L904.2 756.84L957.39 743.54C957.39 743.54 968.92 713.4 976.89 713.4C983.79 713.4 1005.94 717.38 1011.8 718.45C1012.52 718.58 1012.84 719.42 1012.39 720.01" fill="#ffffff" fill-rule="nonzero" opacity="1" stroke="#000000" stroke-linecap="butt" stroke-linejoin="miter" stroke-width="1"></path><path d="M1006.69 724.47C1004.88 725.26 1002.66 725.8 999.95 725.8C994.01 725.8 989.71 726.46 987.26 726.97C985.83 727.27 984.84 728.55 984.89 730.01C985.08 735.42 986.48 747.96 995.52 747.96C1004.77 747.96 1015.15 742.83 1018.9 740.79C1019.64 740.39 1019.8 739.4 1019.22 738.79L1007.23 726.18C1006.93 725.86 1006.78 725.44 1006.8 725C1006.81 724.79 1006.83 724.53 1006.87 724.25" fill="#ffffff" fill-rule="nonzero" opacity="1" stroke="#000000" stroke-linecap="butt" stroke-linejoin="miter" stroke-width="1"></path><path d="M1021.15 756.61L1053.17 740.67" fill="none" opacity="1" stroke="#000000" stroke-linecap="butt" stroke-linejoin="miter" stroke-width="1"></path><path d="M889.42 784.65L921.78 794.41L795.64 872.47L679.28 799.4C679.28 799.41 864.17 765.71 889.42 784.65Z" fill="#075cdb" fill-rule="nonzero" opacity="1" stroke="none"></path><path d="M697.39 801.82C701.51 804.95 708.6 809.75 718.31 813.32C730.21 817.69 744.22 817.95 771.75 818.28C790.97 818.51 800.57 818.63 800.81 818.62C842.88 817.64 892.1 799.61 911.7 791.94C900.49 787.86 888.58 782.3 875.21 781.51C857.45 780.46 702.66 803.32 697.39 801.82Z" fill="#222a2d" fill-rule="nonzero" opacity="0.5" stroke="none"></path><path d="M619.85 709.76C619.85 709.76 643.46 737.09 690.41 740.14L692.24 723.07C692.24 723.07 653.56 683.65 619.85 709.76Z" fill="#000000" fill-rule="nonzero" opacity="1" stroke="none"></path><path d="M635.82 702.53L641.72 745.83C641.9 747.14 640.79 748.25 639.48 748.08L603.41 743.35C601.07 743.04 599.05 741.58 598.02 739.46C594.15 731.49 584.62 712.26 582.97 712.26C581.3 712.26 567.21 713.59 561.61 714.13C560.13 714.27 558.74 714.91 557.67 715.94L542.56 730.47C541.94 731.06 542.18 732.09 542.99 732.36C546.08 733.37 552.38 735.02 554.45 732.43C557.23 728.95 566.97 719.91 570.44 724.78C573.92 729.65 573.22 742.17 573.22 742.17C573.22 742.17 571.13 749.12 566.96 749.12C566.96 749.12 500.2 731.73 499.51 735.21C498.82 738.69 517.18 751.3 530.11 755.38C543.52 759.61 570.44 772.07 573.92 771.37C577.4 770.67 594.78 767.2 601.04 767.2C607.3 767.2 653.89 785.28 653.89 785.28L668.67 786.42C670.54 786.56 672.21 785.26 672.52 783.41L682.41 724.09C682.41 724.08 666.42 697.66 635.82 702.53Z" fill="#ffffff" fill-rule="nonzero" opacity="1" stroke="#000000" stroke-linecap="butt" stroke-linejoin="miter" stroke-width="1"></path><path d="M582.27 754.91L570.53 756.17C570.53 756.17 552.92 738.98 545.79 737.72C538.66 736.46 549.14 748.2 549.14 748.2C549.14 748.2 539.08 734.78 532.79 733.11C526.5 731.44 523.15 731.01 523.99 732.27C524.83 733.53 543.28 749.04 543.28 749.04C543.28 749.04 524.83 730.59 519.8 730.59C514.77 730.59 511.83 730.59 513.09 732.69C514.35 734.79 535.31 751.14 535.31 751.14" fill="#ffffff" fill-rule="nonzero" opacity="1" stroke="#000000" stroke-linecap="butt" stroke-linejoin="miter" stroke-width="1"></path><path d="M922.35 795.99L907.75 790.43C861.15 782.08 752.67 805.72 726.25 810.59C699.82 815.46 674.09 794.6 674.09 794.6L684.67 733.62L685.34 729.74L685.91 726.45C662.27 690.29 619.85 709.76 619.85 709.76C619.85 709.76 646.97 574.85 649.06 568.59C651.14 562.33 726.25 543.56 726.25 543.56L824.99 540.78L889.67 565.11C909.14 602.67 920.26 712.54 920.26 712.54C918.19 706.74 907.77 705.14 899.65 704.78C894.12 704.55 889.67 704.89 889.67 704.89L894.08 717.19L922.35 795.99Z" fill="#ffffff" fill-rule="nonzero" opacity="1" stroke="#000000" stroke-linecap="butt" stroke-linejoin="miter" stroke-width="1"></path><path d="M747.81 492.1L747.17 533.09C747.14 535.2 745.78 537.05 743.78 537.72L727.32 543.21C726.85 543.37 726.74 543.98 727.12 544.29C732.71 548.86 764.28 573.33 789.54 565.13C814.05 557.16 822.9 544.34 824.66 541.4C824.85 541.08 824.71 540.66 824.37 540.51L805.2 532.12C803.71 531.47 802.72 530.01 802.67 528.39L801.38 488.44C801.37 488.15 801.17 487.9 800.88 487.85C795.55 486.83 748.46 478.32 747.81 492.1Z" fill="#ffffff" fill-rule="nonzero" opacity="1" stroke="#000000" stroke-linecap="butt" stroke-linejoin="miter" stroke-width="1"></path><path d="M735.46 465.88C735.46 465.88 744.42 507.86 776.97 505.5C809.52 503.14 816.12 459.27 816.12 459.27C816.12 459.27 831.65 448.83 825.59 438.69C819.21 433.04 812.34 441.82 812.34 441.82C812.34 441.82 807.46 391.94 776.49 379.56C774.13 378.62 744.41 376.26 737.34 397.96C730.26 419.66 731.68 447.49 731.68 447.49C731.68 447.49 723.66 439 720.36 445.6C717.07 452.2 724.14 463.05 735.46 465.88Z" fill="#ffffff" fill-rule="nonzero" opacity="1" stroke="#000000" stroke-linecap="butt" stroke-linejoin="miter" stroke-width="1"></path><path d="M749.87 399.16C741.94 414.41 734.52 430.54 731.69 447.49C724.97 433.75 720.15 420.39 713.43 406.65C709.74 399.1 705.95 391.22 707.41 382.51C708.17 377.93 710.72 373.75 714.77 371.49C725.66 365.42 738.29 377.43 749.91 374.69C750.31 374.6 750.54 374.18 750.43 373.79L746.71 360.34C746.68 360.22 746.84 360.14 746.91 360.25C749.44 364.31 755.32 365.51 760.02 364.15C765.04 362.69 769.1 359.12 773.26 355.96C779.01 351.6 785.54 347.77 792.74 347.19C799.94 346.61 807.85 350.05 810.6 356.73C812.67 361.77 811.89 368.32 816.08 371.8C819.87 374.95 825.65 373.7 830.21 375.6C834.37 377.34 837.05 381.63 837.87 386.06C838.69 390.49 837.91 395.06 836.79 399.42C832.76 415.01 824.19 430.88 812.36 441.82C810.01 433 806.9 421.73 798.84 417.45C794.02 414.9 788.34 414.86 782.94 414.12C769.84 412.32 757.41 405.9 748.37 396.25" fill="#2e353d" fill-rule="nonzero" opacity="1" stroke="none"></path><path d="M724.66 450.35C725.85 453.23 728.55 455.28 731.64 455.65C732.12 455.71 732.11 454.96 731.64 454.9C728.92 454.57 726.43 452.68 725.38 450.15C725.2 449.71 724.48 449.9 724.66 450.35L724.66 450.35Z" fill="#000000" fill-rule="nonzero" opacity="1" stroke="none"></path><path d="M814.68 449.66C817.49 449.56 819.91 446.99 819.81 444.18C819.79 443.7 819.04 443.7 819.06 444.18C819.14 446.58 817.09 448.83 814.68 448.91C814.2 448.93 814.2 449.68 814.68 449.66L814.68 449.66Z" fill="#000000" fill-rule="nonzero" opacity="1" stroke="none"></path><path d="M739.72 937.42C739.72 937.42 729.53 944.64 716.62 953.77L696.92 923.75C706.24 914.99 718.97 900.44 718.97 900.44L739.72 937.42Z" fill="#ffffff" fill-rule="nonzero" opacity="1" stroke="#000000" stroke-linecap="butt" stroke-linejoin="miter" stroke-width="1"></path><path d="M715.67 954.44C694.53 969.38 666.7 988.99 663.94 990.65C659.43 993.35 652.22 1009.59 624.25 998.76C596.29 987.94 617.94 955.47 621.55 950.05C625.15 944.64 682.89 931.11 688.3 930.21C689.75 929.97 692.63 927.72 696.06 924.56C699.58 932.25 706.5 945.54 715.67 954.44Z" fill="#000000" fill-rule="nonzero" opacity="1" stroke="#000000" stroke-linecap="butt" stroke-linejoin="miter" stroke-width="1"></path><path d="M716.62 953.77C716.31 953.99 715.99 954.21 715.67 954.44C706.5 945.54 699.58 932.25 696.06 924.56C696.34 924.3 696.63 924.03 696.92 923.75L716.62 953.77Z" fill="#000000" fill-rule="nonzero" opacity="1" stroke="#000000" stroke-linecap="butt" stroke-linejoin="miter" stroke-width="1"></path><path d="M886.88 914.81L853.01 941.57C842.04 936.86 829.92 932.52 827.03 932.23L862.13 907.64L886.88 914.81Z" fill="#ffffff" fill-rule="nonzero" opacity="1" stroke="#000000" stroke-linecap="butt" stroke-linejoin="miter" stroke-width="1"></path><path d="M928.51 931.34L914.88 1032.6C914.88 1032.6 913.63 1036.1 895.77 1033.4C877.9 1030.7 874.42 956.92 872.18 952.16C871.17 950.05 863.2 945.98 854.18 942.07C859.92 937.85 869.88 929.88 887.21 914.91L924.92 925.84C927.32 926.53 928.84 928.87 928.51 931.34Z" fill="#000000" fill-rule="nonzero" opacity="1" stroke="#000000" stroke-linecap="butt" stroke-linejoin="miter" stroke-width="1"></path><path d="M887.21 914.91C869.88 929.88 859.92 937.85 854.18 942.07C853.79 941.9 853.4 941.73 853.01 941.57L886.88 914.81L887.21 914.91Z" fill="#000000" fill-rule="nonzero" opacity="1" stroke="#000000" stroke-linecap="butt" stroke-linejoin="miter" stroke-width="1"></path><path d="M685.91 726.45L693.46 640.14" fill="none" opacity="1" stroke="#000000" stroke-linecap="butt" stroke-linejoin="miter" stroke-width="1"></path><path d="M890.78 707.99L868.45 660.87" fill="none" opacity="1" stroke="#000000" stroke-linecap="butt" stroke-linejoin="miter" stroke-width="1"></path><g opacity="1"><path d="M1009.43 845.78C983.27 866.53 984.17 865.63 977.86 868.34C975.56 869.32 943.29 878.82 903.21 890.49L903.2 890.49C878.27 897.75 850.3 905.85 824.66 913.27C778.44 926.64 739.72 937.79 739.72 937.79L718.97 900.81L784.82 869.24C784.82 869.24 789.77 866.16 798.22 861.09C841.51 835.12 976.53 756.87 1006.72 772.72C1042.8 791.66 1035.59 825.04 1009.43 845.78Z" fill="#3a84ff" fill-rule="nonzero" opacity="1" stroke="none"></path><path d="M903.2 890.12C878.27 897.38 765.36 930 739.65 937.51L718.97 900.44C720.19 900.79 789.82 818.57 903.2 890.12Z" fill="#000000" fill-rule="nonzero" opacity="0.09" stroke="none"></path></g><path d="M657.4 787.65C657.4 787.65 809.17 863.46 831.72 882.4L865.1 904.95L825.41 940.13C825.41 940.13 698.22 905.85 672.96 901.34C647.7 896.83 525.02 843.61 564.71 784.98C564.72 784.98 593.13 747.92 657.4 787.65Z" fill="#3a84ff" fill-rule="nonzero" opacity="1" stroke="none"></path><path d="M798.22 851.31L798.22 825.81L789.82 818.57" fill="none" opacity="0.58" stroke="#070707" stroke-linecap="butt" stroke-linejoin="miter" stroke-width="1"></path><path d="M822.67 931.97L856.45 904.95" fill="none" opacity="1" stroke="#0a0a0a" stroke-linecap="butt" stroke-linejoin="miter" stroke-width="1"></path></g></g><g opacity="1"><path d="M876.92 303.18C876.92 303.18 867.4 323.77 877 331.29L906.54 306.87L876.92 303.18Z" fill="#83b5fe" fill-rule="nonzero" opacity="1" stroke="none"></path><path d="M876.4 303.79L947.82 235.81C947.82 235.81 965.24 244.2 984.4 230.77L947.82 309.66C947.82 309.66 888.59 318.06 876.4 303.79Z" fill="#c6e4ff" fill-rule="nonzero" opacity="1" stroke="none"></path></g><g opacity="1"><path d="M637.56 461.05L630.89 466.96L579.27 512.69L550.17 486.23L538.69 475.8L598.46 420.47L637.56 461.05Z" fill="#ffffff" fill-rule="nonzero" opacity="1" stroke="#000000" stroke-linecap="butt" stroke-linejoin="miter" stroke-width="1"></path><path d="M538.7 475.8L589.6 466.21L598.46 420.47" fill="none" opacity="1" stroke="#000000" stroke-linecap="butt" stroke-linejoin="miter" stroke-width="1"></path><path d="M630.89 466.96L579.27 512.69L550.17 486.23C561.56 489.07 571.76 489.19 584.41 482.27C596.37 475.74 606.94 464.39 620.57 464.6C624.18 464.66 627.62 465.54 630.89 466.96Z" fill="#2e353d" fill-rule="nonzero" opacity="0.09" stroke="none"></path></g><g opacity="1"><path d="M1056.49 828.38L1258.2 828.38L1258.2 828.38L1258.2 842.94L1258.2 842.94L1056.49 842.94L1056.49 842.94L1056.49 828.38L1056.49 828.38Z" fill="#ffffff" fill-rule="nonzero" opacity="1" stroke="#000000" stroke-linecap="butt" stroke-linejoin="miter" stroke-width="1"></path><path d="M1292.17 730.64L1258.2 829.07L1123.03 827.68L1124.88 823.06L1161.85 730.64L1292.17 730.64Z" fill="#ffffff" fill-rule="nonzero" opacity="1" stroke="#000000" stroke-linecap="butt" stroke-linejoin="miter" stroke-width="1"></path><path d="M1214.42 730.64C1211.85 732.43 1209.42 734.43 1207.15 736.69C1198.23 745.55 1192.92 757.28 1186.82 768.27C1176.54 786.79 1159.8 816.76 1137.68 822.55C1133.14 823.74 1128.84 823.84 1124.88 823.06L1161.85 730.64C1161.85 730.64 1214.42 730.64 1214.42 730.64Z" fill="#2e353d" fill-rule="nonzero" opacity="0.09" stroke="none"></path></g><g opacity="1"><path d="M1354.19 816.68C1356.04 814.07 1358.26 811.12 1361.35 809.93C1364.31 808.79 1367.36 809.92 1369.1 812.52C1370.83 815.12 1371 818.35 1369.6 821.13C1368.14 824.05 1365.38 826.22 1362.4 827.44C1358.18 829.17 1353.52 829.26 1349.03 829.32C1348.39 829.33 1348.39 830.33 1349.03 830.32C1353.49 830.25 1358.1 830.15 1362.33 828.53C1365.59 827.29 1368.62 825.05 1370.31 821.94C1371.92 818.98 1371.99 815.51 1370.32 812.56C1368.7 809.7 1365.66 807.96 1362.36 808.59C1358.36 809.36 1355.55 813.04 1353.34 816.16C1352.95 816.7 1353.82 817.2 1354.19 816.68L1354.19 816.68Z" fill="#000000" fill-rule="nonzero" opacity="1" stroke="none"></path><path d="M1321.47 794.89C1325.26 794.04 1328.55 791.32 1330.1 787.76C1331.72 784.04 1331.29 779.55 1329.07 776.16C1326.79 772.68 1322.92 770.96 1319.42 769C1317.63 768 1315.9 766.9 1314.47 765.42C1313.12 764.03 1312.05 762.37 1311.29 760.59C1309.57 756.56 1309.44 751.9 1311.13 747.84C1311.38 747.25 1310.41 746.99 1310.17 747.57C1307.29 754.48 1309.56 763.08 1315.48 767.65C1318.67 770.11 1322.6 771.41 1325.72 773.96C1328.97 776.63 1330.68 780.84 1329.89 785.02C1329.07 789.4 1325.52 792.93 1321.2 793.91C1320.58 794.06 1320.84 795.03 1321.47 794.89L1321.47 794.89Z" fill="#000000" fill-rule="nonzero" opacity="1" stroke="none"></path><path d="M1334.38 724.97C1330.41 729.94 1328.99 736.66 1330.4 742.84C1331.74 748.75 1335.79 753.12 1340.32 756.89C1344.6 760.45 1349.48 763.65 1352.71 768.28C1354.37 770.65 1355.51 773.38 1355.73 776.29C1355.97 779.5 1355.2 782.77 1353.55 785.54C1350.18 791.21 1343.19 793.92 1336.83 792.37C1336.02 792.17 1335.23 791.91 1334.47 791.58C1333.89 791.33 1333.38 792.19 1333.97 792.44C1339.9 795.02 1347.24 793.82 1351.89 789.27C1356.45 784.82 1358.02 777.66 1355.7 771.72C1353.63 766.42 1349.15 762.69 1344.83 759.24C1340.32 755.64 1335.38 751.99 1332.79 746.68C1329.91 740.76 1330.3 733.36 1333.67 727.73C1334.1 727.02 1334.57 726.33 1335.09 725.69C1335.48 725.18 1334.78 724.46 1334.38 724.97L1334.38 724.97Z" fill="#000000" fill-rule="nonzero" opacity="1" stroke="none"></path><path d="M1299.1 838.77C1299.1 836.473 1313.22 834.61 1330.64 834.61C1348.06 834.61 1362.18 836.473 1362.18 838.77C1362.18 841.068 1348.06 842.93 1330.64 842.93C1313.22 842.93 1299.1 841.068 1299.1 838.77Z" fill="#ffffff" fill-rule="nonzero" opacity="1" stroke="#000000" stroke-linecap="butt" stroke-linejoin="miter" stroke-width="1"></path><path d="M1353.17 812.95C1353.17 819.99 1350.62 826.39 1346.48 831.09C1342.14 836.04 1336.02 839.12 1329.25 839.12C1316.04 839.12 1305.34 827.4 1305.34 812.95C1305.34 810.69 1305.6 808.5 1306.1 806.41C1306.37 805.27 1306.71 804.15 1307.11 803.07L1351.4 803.07C1352.54 806.12 1353.17 809.45 1353.17 812.95Z" fill="#ffffff" fill-rule="nonzero" opacity="1" stroke="#000000" stroke-linecap="butt" stroke-linejoin="miter" stroke-width="1"></path><path d="M1346.48 831.09C1342.14 836.04 1336.02 839.12 1329.25 839.12C1316.04 839.12 1305.34 827.4 1305.34 812.95C1305.34 810.69 1305.6 808.5 1306.1 806.41C1308.36 810.07 1310.48 814.72 1312.79 815.88C1316.88 817.92 1321.58 818.25 1326.13 818.63C1330.69 819.01 1335.41 819.54 1339.31 821.92C1342.34 823.77 1344.68 826.68 1346.08 829.95C1346.24 830.32 1346.38 830.7 1346.48 831.09Z" fill="#f7931e" fill-rule="nonzero" opacity="0.5" stroke="none"></path></g><g opacity="1"><path d="M1231.1 351.88L1217.3 364.92C1217.21 365.01 1217.16 365.12 1217.16 365.25L1217.44 373.79C1217.45 374.1 1217.14 374.32 1216.81 374.24L1208.17 372.13C1207.84 372.05 1207.52 372.28 1207.54 372.58L1208.06 383.06C1208.07 383.25 1207.96 383.42 1207.77 383.49L1192.28 389.83" fill="none" opacity="1" stroke="#000000" stroke-linecap="round" stroke-linejoin="miter" stroke-width="1"></path><path d="M1222.59 351.16L1232.09 350.89L1232.09 359.73" fill="none" opacity="1" stroke="#000000" stroke-linecap="round" stroke-linejoin="miter" stroke-width="1"></path><g opacity="1"><path d="M1252.11 279.16L1234.97 264.67L1248.91 248.29L1266.04 262.77L1252.11 279.16Z" fill="#fe6666" fill-rule="nonzero" opacity="1" stroke="none"></path><g opacity="1"><path d="M675.73 237.45L700.87 215.22L737.57 240.01" fill="none" opacity="1" stroke="#050505" stroke-linecap="butt" stroke-linejoin="miter" stroke-width="0.75"></path><path d="M673.47 237.45C673.47 236.058 674.482 234.93 675.73 234.93C676.978 234.93 677.99 236.058 677.99 237.45C677.99 238.842 676.978 239.97 675.73 239.97C674.482 239.97 673.47 238.842 673.47 237.45Z" fill="#ffffff" fill-rule="nonzero" opacity="1" stroke="#050505" stroke-linecap="butt" stroke-linejoin="miter" stroke-width="0.75"></path><path d="M697.39 215.22C697.39 213.143 698.948 211.46 700.87 211.46C702.792 211.46 704.35 213.143 704.35 215.22C704.35 217.297 702.792 218.98 700.87 218.98C698.948 218.98 697.39 217.297 697.39 215.22Z" fill="#ffffff" fill-rule="nonzero" opacity="1" stroke="#050505" stroke-linecap="butt" stroke-linejoin="miter" stroke-width="0.75"></path><path d="M734.35 240.01C734.35 238.193 735.792 236.72 737.57 236.72C739.348 236.72 740.79 238.193 740.79 240.01C740.79 241.827 739.348 243.3 737.57 243.3C735.792 243.3 734.35 241.827 734.35 240.01Z" fill="#ffffff" fill-rule="nonzero" opacity="1" stroke="#050505" stroke-linecap="butt" stroke-linejoin="miter" stroke-width="0.75"></path></g><path d="M1247.27 280.37L1230.14 265.88L1244.07 249.5L1261.2 263.98L1247.27 280.37Z" fill="none" opacity="1" stroke="#020202" stroke-linecap="butt" stroke-linejoin="miter" stroke-width="1"></path><path d="M1259.32 496.37L1260.08 506.24L1260.84 516.12L1251.81 511.72L1242.77 507.32L1251.05 501.85L1259.32 496.37Z" fill="#ffffff" fill-rule="nonzero" opacity="1" stroke="#020202" stroke-linecap="butt" stroke-linejoin="miter" stroke-width="1"></path><path d="M511.52 242.83C511.52 239.207 514.412 236.27 517.98 236.27C521.548 236.27 524.44 239.207 524.44 242.83C524.44 246.453 521.548 249.39 517.98 249.39C514.412 249.39 511.52 246.453 511.52 242.83Z" fill="#000033" fill-rule="nonzero" opacity="1" stroke="none"></path><path d="M837.65 220.33C837.65 218.038 839.512 216.18 841.81 216.18C844.108 216.18 845.97 218.038 845.97 220.33C845.97 222.622 844.108 224.48 841.81 224.48C839.512 224.48 837.65 222.622 837.65 220.33Z" fill="#ffffff" fill-rule="nonzero" opacity="1" stroke="#020202" stroke-linecap="butt" stroke-linejoin="miter" stroke-width="1"></path><path d="M306.7 479.79C306.7 473.549 311.889 468.49 318.29 468.49C324.691 468.49 329.88 473.549 329.88 479.79C329.88 486.031 324.691 491.09 318.29 491.09C311.889 491.09 306.7 486.031 306.7 479.79Z" fill="#ff6666" fill-rule="nonzero" opacity="1" stroke="none"></path><path d="M304.97 476.09C304.97 469.849 310.159 464.79 316.56 464.79C322.961 464.79 328.15 469.849 328.15 476.09C328.15 482.331 322.961 487.39 316.56 487.39C310.159 487.39 304.97 482.331 304.97 476.09Z" fill="none" opacity="1" stroke="#020202" stroke-linecap="butt" stroke-linejoin="miter" stroke-width="1"></path></g></g></g></g></svg>