<?xml version="1.0" encoding="UTF-8" standalone="no"?>
<!DOCTYPE svg PUBLIC "-//W3C//DTD SVG 1.1//EN" "http://www.w3.org/Graphics/SVG/1.1/DTD/svg11.dtd">
<!-- Created with Vectornator (http://vectornator.io/) -->
<svg height="100%" stroke-miterlimit="10" style="fill-rule:nonzero;clip-rule:evenodd;stroke-linecap:round;stroke-linejoin:round;" version="1.1" viewBox="0 0 1600 1200" width="100%" xml:space="preserve" xmlns="http://www.w3.org/2000/svg" xmlns:vectornator="http://vectornator.io" xmlns:xlink="http://www.w3.org/1999/xlink">
<defs/>
<g id="Untitled" vectornator:layerName="Untitled">
<g opacity="1">
<path d="M319.81 977.87C319.81 977.87 267.66 748.62 370.33 623.25C498.44 466.83 636.9 508.36 759.73 341.97C882.56 175.58 1120.38 204.63 1223.61 385.55C1326.84 566.47 1260.2 978.49 1260.2 978.49L319.81 977.87Z" fill="#eaf2ff" fill-rule="nonzero" opacity="1" stroke="none"/>
<path d="M138.66 976.56C152.38 976.56 1442.13 978.48 1442.13 978.48" fill="none" opacity="1" stroke="#000000" stroke-linecap="butt" stroke-linejoin="miter" stroke-width="1"/>
<g opacity="1">
<path d="M1128.75 891.57C1128.75 891.57 1151.42 909.15 1155.77 931.01C1160.13 952.87 1198.05 963.8 1198.05 963.8L1201.97 965.7L1198.48 948.12C1198.49 948.11 1187.29 879.89 1128.75 891.57Z" fill="#61b566" fill-rule="nonzero" opacity="1" stroke="none"/>
<path d="M1207.89 946.97C1208.1 949.36 1209.35 951.53 1211.33 952.58C1213.2 953.57 1215.43 953.75 1216.76 950.37C1219.38 943.72 1223.3 900.95 1231.58 875.77C1237.79 856.89 1251.94 813.1 1233.36 797.64C1210.76 778.83 1186.88 815.83 1187.95 837.91C1189.02 860.05 1194.27 882.53 1199.76 903.81C1203.25 917.34 1207.09 937.64 1207.89 946.97Z" fill="#6cd376" fill-rule="nonzero" opacity="1" stroke="none"/>
<path d="M1222.46 952.12C1222.41 953.63 1222.83 955.13 1223.73 956.28C1225.02 957.94 1227.19 959.71 1229.83 957.98C1245.22 947.91 1249.89 926.38 1265.53 915.74C1277.97 907.27 1295.36 899.33 1304.37 886.23C1310.91 876.73 1322.24 833.01 1289.11 839.66C1256.61 846.19 1223.68 915.41 1222.46 952.12Z" fill="#6cd376" fill-rule="nonzero" opacity="1" stroke="none"/>
<path d="M1217.2 813.49C1206.76 845.2 1212.72 950.09 1212.72 950.09" fill="#61b566" fill-rule="nonzero" opacity="1" stroke="none"/>
<path d="M1226.15 954.97C1226.15 954.97 1261.95 888.3 1291.78 863.9" fill="#61b566" fill-rule="nonzero" opacity="1" stroke="none"/>
<path d="M1134.76 890.3C1134.76 890.3 1167.3 907.19 1173.96 927.47C1180.58 947.62 1201.5 964.95 1201.5 964.95C1201.5 964.95 1204.49 971.06 1205.61 977.08" fill="none" opacity="1" stroke="#45a047" stroke-linecap="butt" stroke-linejoin="miter" stroke-width="1"/>
<path d="M1197.75 944.95C1195.87 937.08 1176.33 859.35 1124.8 846.32C1122 845.61 1082.79 835.75 1068.64 857.37C1064.25 864.08 1062.95 870.28 1063.81 875.72C1066.2 890.99 1091.66 895.41 1100.83 897.16C1134.67 903.63 1146.49 889.28 1165.23 897.25C1175.01 901.41 1188.22 912.33 1197.75 944.95Z" fill="#6cd376" fill-rule="nonzero" opacity="1" stroke="none"/>
<path d="M1212.78 951.99L1212.93 977" fill="none" opacity="1" stroke="#45a047" stroke-linecap="butt" stroke-linejoin="miter" stroke-width="1"/>
<path d="M1225.4 956.32C1225.4 956.32 1217.26 969.59 1214.79 976.84" fill="none" opacity="1" stroke="#45a047" stroke-linecap="butt" stroke-linejoin="miter" stroke-width="1"/>
</g>
<g opacity="1">
<path d="M1145.67 433.34L1064.95 433.34C1063.78 433.34 1062.83 432.39 1062.83 431.22L1062.83 354.04C1062.83 352.87 1063.78 351.92 1064.95 351.92L1145.67 351.92C1146.84 351.92 1147.79 352.87 1147.79 354.04L1147.79 431.22C1147.78 432.39 1146.84 433.34 1145.67 433.34Z" fill="#001149" fill-rule="nonzero" opacity="1" stroke="none"/>
<path d="M1072.74 395.11L1084.78 395.11L1084.78 395.11L1084.78 433.34L1084.78 433.34L1072.74 433.34L1072.74 433.34L1072.74 395.11L1072.74 395.11Z" fill="#05cdcd" fill-rule="nonzero" opacity="1" stroke="none"/>
<path d="M1097.81 389.45L1109.85 389.45L1109.85 389.45L1109.85 433.34L1109.85 433.34L1097.81 433.34L1097.81 433.34L1097.81 389.45L1097.81 389.45Z" fill="#ffffff" fill-rule="nonzero" opacity="1" stroke="none"/>
<path d="M1123 378.83L1134.33 378.83L1134.33 378.83L1134.33 433.34L1134.33 433.34L1123 433.34L1123 433.34L1123 378.83L1123 378.83Z" fill="#ff6666" fill-rule="nonzero" opacity="1" stroke="none"/>
<path d="M1196.28 373.16L1136.81 373.16C1129.19 373.16 1123 366.98 1123 359.35L1123 359.35C1123 351.73 1129.18 345.54 1136.81 345.54L1196.28 345.54C1203.9 345.54 1210.09 351.72 1210.09 359.35L1210.09 359.35C1210.08 366.98 1203.9 373.16 1196.28 373.16Z" fill="#ffffff" fill-rule="nonzero" opacity="1" stroke="#000000" stroke-linecap="butt" stroke-linejoin="miter" stroke-width="1"/>
<path d="M1149.74 360.35C1149.74 358.345 1151.26 356.72 1153.14 356.72C1155.02 356.72 1156.54 358.345 1156.54 360.35C1156.54 362.355 1155.02 363.98 1153.14 363.98C1151.26 363.98 1149.74 362.355 1149.74 360.35Z" fill="#3b3ba3" fill-rule="nonzero" opacity="1" stroke="none"/>
<path d="M1180.68 360.35C1180.68 358.605 1182.15 357.19 1183.96 357.19C1185.77 357.19 1187.24 358.605 1187.24 360.35C1187.24 362.095 1185.77 363.51 1183.96 363.51C1182.15 363.51 1180.68 362.095 1180.68 360.35Z" fill="#3b3ba3" fill-rule="nonzero" opacity="1" stroke="none"/>
<path d="M1165.85 360.35C1165.85 358.539 1167.32 357.07 1169.13 357.07C1170.94 357.07 1172.41 358.539 1172.41 360.35C1172.41 362.162 1170.94 363.63 1169.13 363.63C1167.32 363.63 1165.85 362.162 1165.85 360.35Z" fill="#3b3ba3" fill-rule="nonzero" opacity="1" stroke="none"/>
</g>
<g opacity="1">
<path d="M978.46 429.24C977.63 457.05 954.99 479.32 927.18 479.32C899.38 479.32 876.74 457.05 875.91 429.24C876.73 401.44 899.38 379.15 927.18 379.15C954.99 379.15 977.64 401.44 978.46 429.24Z" fill="#ffffff" fill-rule="nonzero" opacity="1" stroke="#000000" stroke-linecap="butt" stroke-linejoin="miter" stroke-width="1"/>
<path d="M978.49 430.82C978.49 459.36 955.52 482.5 927.18 482.5C898.85 482.5 875.88 459.36 875.88 430.82C875.88 430.29 875.89 429.76 875.91 429.24C876.74 457.05 899.38 479.32 927.18 479.32C954.99 479.32 977.63 457.05 978.46 429.24C978.48 429.76 978.49 430.29 978.49 430.82Z" fill="#00a99d" fill-rule="nonzero" opacity="0.75" stroke="none"/>
<path d="M922.05 406.03L924.98 436.81L944.77 447.07" fill="none" opacity="1" stroke="#000000" stroke-linecap="butt" stroke-linejoin="miter" stroke-width="1"/>
</g>
<g opacity="1">
<path d="M874.92 771.28L921.75 775.01C926.91 775.42 931.5 778.45 933.9 783.04L1006.43 921.53C1007.54 923.65 1010.68 923.32 1011.32 921.01L1037.48 827.19L1083.81 827.99L1085.32 976.48L966.74 977.98L867.73 771.28C867.73 771.28 874.92 771.28 874.92 771.28Z" fill="#fccb42" fill-rule="nonzero" opacity="1" stroke="none"/>
<path d="M773.08 765.68L692.4 951.76L684.01 978.4L984.76 975.57L900.09 773.75C900.09 773.76 805.03 768.11 773.08 765.68Z" fill="#ffc945" fill-rule="nonzero" opacity="1" stroke="none"/>
<path d="M798.9 767.36C798.9 767.36 748.62 765.6 741.42 769.92C734.22 774.24 616.64 929.26 606.56 955.18C601.16 969.07 602.79 978.27 605.46 983.82C607.5 988.05 611.82 990.7 616.51 990.71L788.46 991.17C789.55 991.17 790.48 990.38 790.65 989.3C791.68 982.57 795.74 959.86 804.09 956.13C804.47 955.96 804.42 955.41 804.01 955.34L711.85 938.37C709.42 937.92 708.2 935.16 709.5 933.06L814.88 768.03L798.9 767.36Z" fill="#ffc945" fill-rule="nonzero" opacity="1" stroke="none"/>
<path d="M944.4 674.88C944.4 674.88 922.16 750.03 878.27 758.45C878.27 758.45 872.26 774.68 877.67 783.7L879.12 785.77C880.67 787.99 880.03 791.07 877.69 792.45C866.27 799.2 832.8 814.34 793.56 789.01C791.09 787.41 790.15 784.25 791.38 781.57L824.28 710.2C824.51 709.71 824.17 709.15 823.63 709.13C817.9 708.91 792.85 706.52 801.92 680.89C801.92 680.89 807.33 664.66 827.77 674.28C827.77 674.28 845.81 600.33 890.3 613.56C934.78 626.78 947.41 653.23 944.4 674.88Z" fill="#ffffff" fill-rule="nonzero" opacity="1" stroke="#000000" stroke-linecap="butt" stroke-linejoin="miter" stroke-width="1"/>
<path d="M827.77 674.27L833.96 681.59C834.19 681.86 834.59 681.87 834.84 681.62L852.78 663.11C853.26 662.61 854.03 662.51 854.62 662.88C857.96 664.97 868.72 671.29 872.26 668.25C876.47 664.64 865.65 652.02 865.65 652.02C865.65 652.02 889.1 681.48 906.53 677.27C923.96 673.06 935.39 679.07 944.41 674.87C953.43 670.67 967.86 647.82 958.24 638.8C950.39 631.44 938.93 629.29 934.99 628.74C934.26 628.64 933.77 627.93 933.94 627.21C935.32 621.29 939.46 598.08 919.47 597.9C918.95 597.9 918.47 597.59 918.29 597.1C916.46 592.18 904.93 567.52 866.26 599.11L852.72 610.39C852.23 610.8 851.5 610.75 851.07 610.28C847.76 606.61 836.51 593.54 831.99 603.92C827.92 613.26 832.84 616.71 834.57 617.84C834.86 618.03 834.75 618.47 834.42 618.52C828.94 619.39 806.29 623.77 807.35 636.99C808.15 647.03 810.03 651.17 811.19 652.81C811.61 653.41 811.44 654.23 810.83 654.63C808.44 656.2 803.89 659.82 806.15 663.44C809.16 668.25 810.36 671.26 810.36 671.26C810.36 671.26 822.36 669.46 827.77 674.27Z" fill="#001145" fill-rule="nonzero" opacity="1" stroke="none"/>
<path d="M810.94 692.91L822.88 695.08C823.4 695.17 823.8 694.63 823.55 694.16L819.96 687.5" fill="none" opacity="1" stroke="#000000" stroke-linecap="butt" stroke-linejoin="miter" stroke-width="1"/>
<path d="M851.74 755.4C851.74 755.4 865.21 762.29 878.69 758.53" fill="none" opacity="1" stroke="#000000" stroke-linecap="butt" stroke-linejoin="miter" stroke-width="1"/>
<path d="M790.82 989.5C790.82 989.5 849.85 992.04 849.85 991.19C849.85 990.34 852.96 961.82 852.96 961.82L798.45 955.89C798.45 955.89 780.37 978.77 790.82 989.5Z" fill="#ffffff" fill-rule="nonzero" opacity="1" stroke="#000000" stroke-linecap="butt" stroke-linejoin="miter" stroke-width="1"/>
<path d="M1037.48 827.19C1037.48 826.31 1030.32 772.88 1020.37 760.01C1010.43 747.15 1035.87 753.29 1039.67 767.32C1043.47 781.35 1048.44 779.02 1049.32 774.04C1049.81 771.24 1049.54 768.2 1049.55 765.38C1049.56 760.65 1049.58 755.92 1049.8 751.2C1049.98 747.31 1050.23 743.37 1051.05 739.55C1051.61 736.92 1052.47 732.93 1055.92 733.56C1056.36 733.64 1056.81 733.72 1057.24 733.88C1059.61 734.75 1060.24 737.61 1060.44 739.84C1061.02 746.56 1061.02 749.78 1061.02 749.78C1061.02 749.78 1062.03 735.53 1066.23 735.69C1071.81 735.9 1072.71 743.06 1072.71 746.28C1072.71 746.28 1075.34 735.75 1079.73 738.09C1084.12 740.43 1085.58 749.2 1084.7 756.8C1083.82 764.4 1083.81 827.99 1083.81 827.99L1037.48 827.19Z" fill="#ffffff" fill-rule="nonzero" opacity="1" stroke="#000000" stroke-linecap="butt" stroke-linejoin="miter" stroke-width="1"/>
<path d="M753.65 860.61L708.21 925.24C706.44 927.75 707.77 931.26 710.76 931.96L798.45 955.88" fill="none" opacity="1" stroke="#020202" stroke-linecap="butt" stroke-linejoin="miter" stroke-width="1"/>
<path d="M788.53 955.61C788.53 955.61 773.59 970.35 781.49 985.68" fill="none" opacity="1" stroke="#020202" stroke-linecap="butt" stroke-linejoin="miter" stroke-width="1"/>
<path d="M1040.45 834.44L1078.09 834.99" fill="none" opacity="1" stroke="#020202" stroke-linecap="butt" stroke-linejoin="miter" stroke-width="1"/>
<path d="M783.8 796.76C783.8 796.76 839.39 843.66 884.56 799.37" fill="none" opacity="1" stroke="#020202" stroke-linecap="butt" stroke-linejoin="miter" stroke-width="1"/>
<path d="M905.41 852.97L969.83 975.25" fill="none" opacity="1" stroke="#020202" stroke-linecap="butt" stroke-linejoin="miter" stroke-width="1"/>
<path d="M1072.56 743.11L1072 764.14" fill="#ffffff" fill-rule="nonzero" opacity="1" stroke="#000000" stroke-linecap="butt" stroke-linejoin="miter" stroke-width="1"/>
<path d="M1061.02 749.78L1060.93 764.69" fill="#ffffff" fill-rule="nonzero" opacity="1" stroke="#000000" stroke-linecap="butt" stroke-linejoin="miter" stroke-width="1"/>
</g>
<g opacity="1">
<path d="M296.14 813.89C296.14 737.664 358.175 675.87 434.7 675.87C511.225 675.87 573.26 737.664 573.26 813.89C573.26 890.116 511.225 951.91 434.7 951.91C358.175 951.91 296.14 890.116 296.14 813.89Z" fill="#96bbff" fill-rule="nonzero" opacity="1" stroke="none"/>
<g opacity="1">
<path d="M406.01 678.92L407.44 762.16L562.9 761.8" fill="none" opacity="1" stroke="#ffffff" stroke-linecap="butt" stroke-linejoin="miter" stroke-width="1"/>
<path d="M410.43 821.62C414.92 821.62 572.06 822.91 572.06 822.91" fill="none" opacity="1" stroke="#ffffff" stroke-linecap="butt" stroke-linejoin="miter" stroke-width="1"/>
<path d="M408.93 830.32L572.31 830.91" fill="none" opacity="1" stroke="#ffffff" stroke-linecap="butt" stroke-linejoin="miter" stroke-width="1"/>
<path d="M314.6 808.56L365.51 808.56" fill="none" opacity="1" stroke="#ffffff" stroke-linecap="butt" stroke-linejoin="miter" stroke-width="1"/>
<path d="M302.62 828.87L353.53 828.87" fill="none" opacity="1" stroke="#ffffff" stroke-linecap="butt" stroke-linejoin="miter" stroke-width="1"/>
<path d="M337.06 796.96L336.55 840.02" fill="none" opacity="1" stroke="#ffffff" stroke-linecap="butt" stroke-linejoin="miter" stroke-width="1"/>
<path d="M502.9 761.38L503.46 781.56" fill="none" opacity="1" stroke="#ffffff" stroke-linecap="butt" stroke-linejoin="miter" stroke-width="1"/>
<path d="M500.82 783.95C500.82 782.15 502.203 780.69 503.91 780.69C505.617 780.69 507 782.15 507 783.95C507 785.75 505.617 787.21 503.91 787.21C502.203 787.21 500.82 785.75 500.82 783.95Z" fill="none" opacity="1" stroke="#ffffff" stroke-linecap="butt" stroke-linejoin="miter" stroke-width="1"/>
</g>
<path d="M279.11 906.5L588.37 907.9" fill="none" opacity="1" stroke="#000000" stroke-linecap="butt" stroke-linejoin="miter" stroke-width="1"/>
<g opacity="1">
<path d="M392.79 808.99L346.22 821.54C343.96 822.15 342.24 824 341.8 826.29L326.35 906.45L531.77 907.32L483.9 800.68C482.74 798.1 480.02 796.6 477.22 796.99L392.79 808.99Z" fill="#ff4c8b" fill-rule="nonzero" opacity="1" stroke="none"/>
<path d="M426.44 716.33C426.44 716.33 458.35 756.98 455.72 769.22C455.72 769.22 451.44 775.64 445.78 779.46C444.67 780.21 444.06 781.51 444.26 782.83L451.05 826.98C451.56 830.29 450.8 833.69 448.86 836.43C442.08 846.01 423.76 864.69 396.48 838.2C393.83 835.63 392.37 832.07 392.43 828.38L393.17 782.32C393.19 780.92 392.13 779.73 390.73 779.61C385.04 779.13 371.74 776.28 374.85 760.03C374.85 760.03 378.35 752.16 385.34 751.73C385.36 751.74 379.24 706.72 426.44 716.33Z" fill="#ffffff" fill-rule="nonzero" opacity="1" stroke="#000000" stroke-linecap="butt" stroke-linejoin="miter" stroke-width="1"/>
<path d="M429.5 717.65C429.5 717.65 419.45 766.6 385.36 751.74C385.36 751.74 380.12 748.68 380.12 740.38C380.12 740.38 326.8 754.8 310.63 711.97C294.46 669.14 353.03 645.54 377.94 683.12C377.94 683.12 391.05 706.72 393.67 715.46C393.66 715.46 420.76 707.16 429.5 717.65Z" fill="#0d005f" fill-rule="nonzero" opacity="1" stroke="none"/>
<path d="M391.47 772.28L396.46 771.99C397.46 771.93 397.96 770.75 397.3 769.99L390.6 762.23" fill="none" opacity="1" stroke="#000000" stroke-linecap="butt" stroke-linejoin="miter" stroke-width="1"/>
<path d="M377.81 812.43C380.89 821.22 384.01 830.07 388.75 838.08C393.49 846.09 400.03 853.31 408.43 857.33C416.43 861.16 425.9 861.85 434.37 859.2C442.84 856.55 450.24 850.61 454.64 842.91C461.94 830.13 460.66 814.29 457.9 799.84" fill="none" opacity="1" stroke="#000000" stroke-linecap="butt" stroke-linejoin="miter" stroke-width="1"/>
<path d="M443.92 780.58C443.92 780.58 437.8 783.64 433.87 784.51" fill="none" opacity="1" stroke="#000000" stroke-linecap="butt" stroke-linejoin="miter" stroke-width="1"/>
<path d="M373.33 860.62L373.71 906.34" fill="none" opacity="1" stroke="#000000" stroke-linecap="butt" stroke-linejoin="miter" stroke-width="1"/>
<path d="M478.38 906.72L474.6 864.02" fill="none" opacity="1" stroke="#000000" stroke-linecap="butt" stroke-linejoin="miter" stroke-width="1"/>
<path d="M540.15 922.61L448.94 922.61L448.94 921.92C448.94 916.07 453.69 911.32 459.54 911.32L540.15 911.32C540.15 911.32 540.15 922.61 540.15 922.61Z" fill="#ffffff" fill-rule="nonzero" opacity="1" stroke="#000000" stroke-linecap="butt" stroke-linejoin="miter" stroke-width="1"/>
<g opacity="1">
<path d="M330.12 906.49C330.52 907.7 324.23 947.25 328.33 953.64C331.93 959.23 393.48 942.5 401.93 940.17C410.21 937.88 479.43 917.81 478.76 915.8C478.1 913.78 476.05 913.31 473.53 912.76C471.01 912.2 482.9 913.83 484.74 911.38C486.42 909.14 482.56 907.42 479.32 906.58C479.11 906.52 479.11 906.23 479.32 906.17C481.01 905.75 484.53 904.72 484 903.48C483.33 901.9 470.38 892.68 457.45 892.12C456.79 892.09 456.13 892.19 455.5 892.38C447.65 894.71 392.45 911.39 372.04 917.08C371.68 917.18 371.32 916.93 371.29 916.55L370.64 906.49L332.01 906.73L330.12 906.49Z" fill="#ffffff" fill-rule="nonzero" opacity="1" stroke="#000000" stroke-linecap="butt" stroke-linejoin="miter" stroke-width="1"/>
<path d="M372.36 916.31C372.36 916.31 369.03 915.73 366.47 920.99" fill="none" opacity="1" stroke="#000000" stroke-linecap="butt" stroke-linejoin="miter" stroke-width="1"/>
<path d="M479.57 906.57C479.57 906.57 466.79 901.45 464.14 901.23" fill="#ffffff" fill-rule="nonzero" opacity="1" stroke="#000000" stroke-linecap="butt" stroke-linejoin="miter" stroke-width="1"/>
<path d="M473.54 912.74L463.25 909.41" fill="#ffffff" fill-rule="nonzero" opacity="1" stroke="#000000" stroke-linecap="butt" stroke-linejoin="miter" stroke-width="1"/>
</g>
</g>
<g opacity="1">
<path d="M515.38 835.54L489.2 923.09L608.24 924.31L635.52 837.37L515.38 835.54Z" fill="#ffffff" fill-rule="nonzero" opacity="1" stroke="#000000" stroke-linecap="butt" stroke-linejoin="miter" stroke-width="1"/>
<path d="M568.016 896.308C562.383 894.542 559.676 887.176 561.97 879.857C564.265 872.537 570.692 868.034 576.325 869.8C581.959 871.566 584.666 878.931 582.371 886.251C580.077 893.571 573.65 898.074 568.016 896.308Z" fill="#ffffff" fill-rule="nonzero" opacity="1" stroke="#000000" stroke-linecap="butt" stroke-linejoin="miter" stroke-width="0.999979"/>
<path d="M524.02 835.37L497.6 922.29" fill="#ffffff" fill-rule="nonzero" opacity="1" stroke="#000000" stroke-linecap="butt" stroke-linejoin="miter" stroke-width="1"/>
</g>
</g>
<g opacity="1">
<path d="M1027.18 582.46C1027.18 508.564 1087.99 448.66 1163.01 448.66C1238.03 448.66 1298.84 508.564 1298.84 582.46C1298.84 656.356 1238.03 716.26 1163.01 716.26C1087.99 716.26 1027.18 656.356 1027.18 582.46Z" fill="#6585ff" fill-rule="nonzero" opacity="1" stroke="none"/>
<g opacity="1">
<path d="M1067.02 531.62L1070.89 609.09L1065.47 608.7L1067.02 531.62Z" fill="#000000" fill-rule="nonzero" opacity="0.49" stroke="none"/>
<path d="M979.22 493.25L1067.17 493.25L1067.17 493.25L1067.17 608.32L1067.17 608.32L979.22 608.32L979.22 608.32L979.22 493.25L979.22 493.25Z" fill="#ffffff" fill-rule="nonzero" opacity="1" stroke="#000000" stroke-linecap="butt" stroke-linejoin="miter" stroke-width="1"/>
<path d="M992.51 517.47L1052.49 517.78" fill="none" opacity="1" stroke="#000000" stroke-linecap="butt" stroke-linejoin="miter" stroke-width="1"/>
<path d="M992.51 528.8L1052.49 529.1" fill="none" opacity="1" stroke="#000000" stroke-linecap="butt" stroke-linejoin="miter" stroke-width="1"/>
<path d="M992.51 540.73L1052.49 541.04" fill="none" opacity="1" stroke="#000000" stroke-linecap="butt" stroke-linejoin="miter" stroke-width="1"/>
<path d="M992.51 552.06L1052.49 552.36" fill="none" opacity="1" stroke="#000000" stroke-linecap="butt" stroke-linejoin="miter" stroke-width="1"/>
<path d="M992.51 561.54L1052.49 561.85" fill="none" opacity="1" stroke="#000000" stroke-linecap="butt" stroke-linejoin="miter" stroke-width="1"/>
<path d="M992.51 572.87L1052.49 573.17" fill="none" opacity="1" stroke="#000000" stroke-linecap="butt" stroke-linejoin="miter" stroke-width="1"/>
<path d="M992.51 582.68L1052.49 582.99" fill="none" opacity="1" stroke="#000000" stroke-linecap="butt" stroke-linejoin="miter" stroke-width="1"/>
<path d="M992.51 592L1052.49 592.31" fill="none" opacity="1" stroke="#000000" stroke-linecap="butt" stroke-linejoin="miter" stroke-width="1"/>
</g>
<g opacity="1">
<path d="M1135.84 542.97C1135.84 542.97 1134.8 558.57 1127.17 562.73C1119.54 566.89 1121.79 589.05 1143.98 585.93C1166.17 582.81 1214.89 593.58 1218.01 583.53C1221.13 573.48 1224.6 560.99 1206.22 548.51C1206.22 548.51 1197.21 548.51 1197.9 540.54C1198.59 532.57 1194.78 508.99 1173.63 506.22C1152.48 503.45 1141.39 507.61 1135.15 513.5C1128.9 519.39 1125.44 533.26 1135.84 542.97Z" fill="#000000" fill-rule="nonzero" opacity="1" stroke="#000000" stroke-linecap="butt" stroke-linejoin="miter" stroke-width="1"/>
<path d="M1158.72 585.26L1141.39 585.95L1083.84 672.28L1239.85 671.93C1239.85 671.93 1239.16 599.12 1228.41 590.11C1228.41 590.11 1219.05 584.91 1196.51 584.56C1173.97 584.21 1158.72 585.26 1158.72 585.26Z" fill="#ffffff" fill-rule="nonzero" opacity="1" stroke="#000000" stroke-linecap="butt" stroke-linejoin="miter" stroke-width="1"/>
<path d="M1135.84 534.99C1134.72 536.88 1140 568.97 1147.63 571.39C1155.26 573.82 1160.8 573.12 1160.8 573.12L1160.11 585.6C1160.11 585.6 1179.18 605.02 1196.51 584.56L1185.42 551.62C1185.42 551.62 1199.29 543.99 1190.97 535.67C1190.97 535.67 1187.16 530.47 1179.18 537.4C1179.17 537.42 1163.23 488.88 1135.84 534.99Z" fill="#ffffff" fill-rule="nonzero" opacity="1" stroke="#000000" stroke-linecap="butt" stroke-linejoin="miter" stroke-width="1"/>
<path d="M1160.56 520.44C1160.36 520 1159.76 519.94 1159.5 520.34C1156.43 525.1 1142.4 545.84 1134.1 541.23C1124.74 536.03 1144.5 510.03 1158.37 513.15C1172.24 516.27 1180.21 525.28 1178.83 536.03C1178.83 536.03 1170.42 542.76 1160.56 520.44Z" fill="#000000" fill-rule="nonzero" opacity="1" stroke="#000000" stroke-linecap="butt" stroke-linejoin="miter" stroke-width="1"/>
<path d="M1197.9 601.56L1192.7 672.29L1226.68 672.98C1224.95 649.29 1223.21 625.6 1221.48 601.91C1218.26 600.99 1213.74 600.09 1208.31 600.18C1204.17 600.24 1200.64 600.86 1197.9 601.56Z" fill="#ffffff" fill-rule="nonzero" opacity="1" stroke="#000000" stroke-linecap="butt" stroke-linejoin="miter" stroke-width="1"/>
<path d="M1156 592.14C1157.6 596.3 1160.94 599.75 1165.04 601.48C1167.09 602.35 1169.3 602.79 1171.51 603.1C1176.61 603.8 1181.9 603.77 1186.79 602.14C1191.68 600.52 1196.13 597.16 1198.32 592.5" fill="none" opacity="1" stroke="#000000" stroke-linecap="butt" stroke-linejoin="miter" stroke-width="1"/>
<path d="M1185.17 537.96L1184.48 542.93C1184.38 543.63 1184.98 544.23 1185.68 544.14L1187.8 543.87" fill="none" opacity="1" stroke="#000000" stroke-linecap="butt" stroke-linejoin="miter" stroke-width="1"/>
<g opacity="1">
<path d="M1095.27 600.52L1097.58 589.63C1097.65 589.31 1097.48 588.99 1097.18 588.87L1089 585.4C1087.3 584.68 1086.13 583.1 1085.92 581.27L1084.17 565.51C1084.17 565.51 1068.92 552.68 1071.69 550.26C1074.46 547.84 1099.43 562.05 1099.43 562.05C1099.43 562.05 1100.82 552.34 1102.55 549.92C1103.64 548.4 1105.68 547.42 1107.05 546.9C1107.76 546.63 1108.54 547.08 1108.66 547.83C1109.58 553.59 1113.13 575.52 1114.33 579.73C1115.72 584.58 1116.06 603.65 1116.06 603.65L1093.87 603.65L1095.27 600.52Z" fill="#ffffff" fill-rule="nonzero" opacity="1" stroke="#000000" stroke-linecap="butt" stroke-linejoin="miter" stroke-width="1"/>
<path d="M1099.43 562.04C1099.43 562.04 1096.66 572.79 1097.7 575.56C1098.74 578.33 1102.55 581.45 1102.55 581.45" fill="none" opacity="1" stroke="#000000" stroke-linecap="butt" stroke-linejoin="miter" stroke-width="1"/>
<path d="M1075.83 575.3C1075.83 575.3 1084.72 583.1 1086.53 582.01C1088.34 580.92 1088.89 578.2 1088.89 578.2C1088.89 578.2 1093.6 576.93 1093.06 574.03C1093.06 574.03 1096.87 572.58 1096.14 570.22C1096.14 570.22 1082.72 560.25 1081.63 561.15C1080.54 562.05 1080 564.23 1080.36 564.96C1080.36 564.96 1075.83 566.59 1077.28 570.22C1077.28 570.22 1072.92 572.03 1075.83 575.3Z" fill="#ffffff" fill-rule="nonzero" opacity="1" stroke="#000000" stroke-linecap="butt" stroke-linejoin="miter" stroke-width="1"/>
<path d="M1077.28 570.22L1088.88 578.2" fill="#ffffff" fill-rule="nonzero" opacity="1" stroke="#000000" stroke-linecap="butt" stroke-linejoin="miter" stroke-width="1"/>
<path d="M1080.36 564.96C1081.18 565.28 1093.05 574.03 1093.05 574.03" fill="#ffffff" fill-rule="nonzero" opacity="1" stroke="#000000" stroke-linecap="butt" stroke-linejoin="miter" stroke-width="1"/>
</g>
<path d="M1089.73 602.95L1075.52 671.94L1118.16 672.29L1121.63 605.03C1121.62 605.03 1109.83 597.75 1089.73 602.95Z" fill="#ffffff" fill-rule="nonzero" opacity="1" stroke="#000000" stroke-linecap="butt" stroke-linejoin="miter" stroke-width="1"/>
<g opacity="1">
<path d="M1201.84 600.3C1201.84 600.3 1195.85 581.82 1188.36 577.59C1187.4 577.05 1186.6 576.24 1186.26 575.19C1185.77 573.69 1185.76 571.71 1188.55 570.92C1191.31 570.14 1194.26 571.34 1195.9 573.7L1198.79 577.88C1198.79 577.88 1195.19 553.52 1203.77 553.52L1205.98 554.07C1205.98 554.07 1206.53 546.04 1210.69 547.7C1210.69 547.7 1212.35 548.25 1212.63 551.85C1212.63 551.85 1216.78 549.36 1218.72 554.34L1219 559.6C1219 559.6 1221.77 556.83 1222.32 559.6C1222.87 562.37 1223.15 589.49 1220.11 600.84L1201.84 600.3Z" fill="#ffffff" fill-rule="nonzero" opacity="1" stroke="#000000" stroke-linecap="butt" stroke-linejoin="miter" stroke-width="1"/>
<path d="M1205.99 554.08L1206.15 569.92" fill="#ffffff" fill-rule="nonzero" opacity="1" stroke="#000000" stroke-linecap="butt" stroke-linejoin="miter" stroke-width="1"/>
<path d="M1212.63 551.86L1212.57 568.72" fill="#ffffff" fill-rule="nonzero" opacity="1" stroke="#000000" stroke-linecap="butt" stroke-linejoin="miter" stroke-width="1"/>
<path d="M1219 559.61L1218.58 567.52" fill="#ffffff" fill-rule="nonzero" opacity="1" stroke="#000000" stroke-linecap="butt" stroke-linejoin="miter" stroke-width="1"/>
</g>
<path d="M1160.66 573.25C1160.66 573.25 1163.79 571.78 1165.99 569.57" fill="#000000" fill-rule="nonzero" opacity="1" stroke="#000000" stroke-linecap="butt" stroke-linejoin="miter" stroke-width="1"/>
</g>
<path d="M1050.32 672.49L1291.24 672.73" fill="none" opacity="1" stroke="#020202" stroke-linecap="butt" stroke-linejoin="miter" stroke-width="1"/>
<g opacity="1">
<path d="M1248.08 546.31C1248.08 542.345 1251.16 539.13 1254.97 539.13C1258.78 539.13 1261.86 542.345 1261.86 546.31C1261.86 550.275 1258.78 553.49 1254.97 553.49C1251.16 553.49 1248.08 550.275 1248.08 546.31Z" fill="none" opacity="1" stroke="#ffffff" stroke-linecap="butt" stroke-linejoin="miter" stroke-width="1"/>
<path d="M1227.36 557.52L1292.53 557.52L1292.53 557.52L1292.53 565.19L1292.53 565.19L1227.36 565.19L1227.36 565.19L1227.36 557.52L1227.36 557.52Z" fill="none" opacity="1" stroke="#ffffff" stroke-linecap="butt" stroke-linejoin="miter" stroke-width="1"/>
</g>
<g opacity="1">
<path d="M1099.32 465.52L1100.08 530.69L1035.68 532.22" fill="none" opacity="1" stroke="#ffffff" stroke-linecap="butt" stroke-linejoin="miter" stroke-width="1"/>
<path d="M1110.82 460.15L1110.82 540.66" fill="none" opacity="1" stroke="#ffffff" stroke-linecap="butt" stroke-linejoin="miter" stroke-width="1"/>
</g>
</g>
<g opacity="1">
<path d="M706.4 724.41L704.32 727.05C709.63 730.78 716.06 732.96 723 732.96C741.2 732.96 755.95 717.94 755.95 699.41C755.95 681.3 741.87 666.55 724.25 665.88L724.25 701.6L697.68 701.6L724.05 702L706.4 724.41Z" fill="#ffffff" fill-rule="nonzero" opacity="1" stroke="#020202" stroke-linecap="butt" stroke-linejoin="miter" stroke-width="1"/>
<path d="M690.13 701.61C690.8 712.17 696.26 721.4 704.32 727.05L706.4 724.41L724.05 702.01L697.68 701.61C697.68 701.61 690.13 701.61 690.13 701.61Z" fill="#afc9f9" fill-rule="nonzero" opacity="1" stroke="#020202" stroke-linecap="butt" stroke-linejoin="miter" stroke-width="1"/>
<path d="M690.06 699.42C690.06 700.16 690.08 700.89 690.13 701.61L724.25 701.61L724.25 665.89C723.84 665.87 723.43 665.86 723.01 665.86C704.81 665.86 690.06 680.88 690.06 699.42Z" fill="#6786e3" fill-rule="nonzero" opacity="1" stroke="#050505" stroke-linecap="butt" stroke-linejoin="miter" stroke-width="1"/>
</g>
<g opacity="1">
<path d="M1230.04 750.89L1188.94 750.89C1183.45 750.89 1179 746.44 1179 740.95L1179 740.95C1179 735.46 1183.45 731.01 1188.94 731.01L1230.04 731.01C1235.53 731.01 1239.98 735.46 1239.98 740.95L1239.98 740.95C1239.99 746.43 1235.53 750.89 1230.04 750.89Z" fill="#05cdcd" fill-rule="nonzero" opacity="1" stroke="none"/>
<path d="M1193.12 741.15C1193.12 739.587 1194.49 738.32 1196.17 738.32C1197.85 738.32 1199.22 739.587 1199.22 741.15C1199.22 742.713 1197.85 743.98 1196.17 743.98C1194.49 743.98 1193.12 742.713 1193.12 741.15Z" fill="#ffffff" fill-rule="nonzero" opacity="1" stroke="none"/>
<path d="M1206.18 741.15C1206.18 739.587 1207.55 738.32 1209.23 738.32C1210.91 738.32 1212.28 739.587 1212.28 741.15C1212.28 742.713 1210.91 743.98 1209.23 743.98C1207.55 743.98 1206.18 742.713 1206.18 741.15Z" fill="#ffffff" fill-rule="nonzero" opacity="1" stroke="none"/>
<path d="M1219.69 741.15C1219.69 739.587 1221.06 738.32 1222.74 738.32C1224.42 738.32 1225.79 739.587 1225.79 741.15C1225.79 742.713 1224.42 743.98 1222.74 743.98C1221.06 743.98 1219.69 742.713 1219.69 741.15Z" fill="#ffffff" fill-rule="nonzero" opacity="1" stroke="none"/>
</g>
<g opacity="1">
<path d="M488.11 471.44C488.11 392.585 551.26 328.66 629.16 328.66C707.06 328.66 770.21 392.585 770.21 471.44C770.21 550.295 707.06 614.22 629.16 614.22C551.26 614.22 488.11 550.295 488.11 471.44Z" fill="#5dd7e4" fill-rule="nonzero" opacity="1" stroke="none"/>
<g opacity="1">
<path d="M505.26 572.64L571.73 572.64L571.73 572.64L571.73 651.15L571.73 651.15L505.26 651.15L505.26 651.15L505.26 572.64L505.26 572.64Z" fill="#ffffff" fill-rule="nonzero" opacity="1" stroke="#000000" stroke-linecap="butt" stroke-linejoin="miter" stroke-width="1"/>
<path d="M505.51 571.66L571.28 571.66L571.28 571.66L571.28 590.85L571.28 590.85L505.51 590.85L505.51 590.85L505.51 571.66L505.51 571.66Z" fill="#96bbff" fill-rule="nonzero" opacity="1" stroke="none"/>
<path d="M512.472 615.062C512.134 613.036 513.441 611.129 515.391 610.804C517.342 610.479 519.197 611.859 519.534 613.885C519.872 615.912 518.565 617.818 516.615 618.143C514.664 618.468 512.81 617.089 512.472 615.062Z" fill="#ffc945" fill-rule="nonzero" opacity="1" stroke="none"/>
<path d="M512.472 634.832C512.134 632.806 513.441 630.899 515.391 630.574C517.342 630.249 519.197 631.629 519.534 633.655C519.872 635.682 518.565 637.588 516.615 637.913C514.664 638.238 512.81 636.859 512.472 634.832Z" fill="#ffc945" fill-rule="nonzero" opacity="1" stroke="none"/>
<path d="M513.57 598.72L562.28 598.72" fill="none" opacity="1" stroke="#000000" stroke-linecap="butt" stroke-linejoin="miter" stroke-width="1"/>
<path d="M526.17 613.04L557.41 613.33" fill="none" opacity="1" stroke="#000000" stroke-linecap="butt" stroke-linejoin="miter" stroke-width="1"/>
<path d="M529.04 618.49L544.23 618.49" fill="none" opacity="1" stroke="#000000" stroke-linecap="butt" stroke-linejoin="miter" stroke-width="1"/>
<path d="M526.17 632.67L557.41 632.95" fill="none" opacity="1" stroke="#000000" stroke-linecap="butt" stroke-linejoin="miter" stroke-width="1"/>
<path d="M529.04 638.11L544.23 638.11" fill="none" opacity="1" stroke="#000000" stroke-linecap="butt" stroke-linejoin="miter" stroke-width="1"/>
</g>
<g opacity="1">
<path d="M783.73 646.38L760.22 646.38C757.37 646.38 755.06 644.07 755.06 641.22L755.06 621.04C755.06 618.19 757.37 615.88 760.22 615.88L783.73 615.88C786.58 615.88 788.89 618.19 788.89 621.04L788.89 641.22C788.89 644.07 786.58 646.38 783.73 646.38Z" fill="#ffc945" fill-rule="nonzero" opacity="1" stroke="none"/>
<path d="M757.12 628.2C758.9 629.96 760.52 631.83 762.08 633.74C762.87 634.68 763.6 635.67 764.37 636.64C765.12 637.61 765.83 638.62 766.56 639.6L763.97 639.33C765.46 637.74 766.98 636.18 768.53 634.65C770.09 633.14 771.66 631.62 773.3 630.18C774.1 629.44 774.93 628.73 775.77 628.03C776.59 627.32 777.44 626.62 778.3 625.94C780.01 624.57 781.76 623.25 783.63 622.04L783.77 622.18L774.54 631.43C771.47 634.52 768.39 637.6 765.28 640.64L765.13 640.79L765.02 640.62L756.97 628.31L757.12 628.2Z" fill="#000000" fill-rule="nonzero" opacity="1" stroke="none"/>
</g>
<path d="M477.8 571.59L773.68 574.98" fill="none" opacity="1" stroke="#000000" stroke-linecap="butt" stroke-linejoin="miter" stroke-width="1"/>
<g opacity="1">
<path d="M599.88 328.46L616 328.46L616 328.46L616 333.26L616 333.26L599.88 333.26L599.88 333.26L599.88 328.46L599.88 328.46Z" fill="#ffffff" fill-rule="nonzero" opacity="1" stroke="#000000" stroke-linecap="butt" stroke-linejoin="miter" stroke-width="1"/>
<path d="M616 334.01L616 337.68C616 339.45 614.57 340.89 612.8 340.89L602.83 340.89C601.2 340.89 599.88 339.57 599.88 337.94L599.88 334.01L616 334.01Z" fill="#ffffff" fill-rule="nonzero" opacity="1" stroke="#000000" stroke-linecap="butt" stroke-linejoin="miter" stroke-width="1"/>
<path d="M611.15 342.68L611.15 342.73C611.15 344.39 609.81 345.74 608.14 345.74L607.74 345.74C606.08 345.74 604.74 344.39 604.74 342.73L604.74 342.68C604.74 342.01 604.96 341.39 605.34 340.89L610.56 340.89C610.94 341.39 611.15 342.01 611.15 342.68Z" fill="#ffffff" fill-rule="nonzero" opacity="1" stroke="#000000" stroke-linecap="butt" stroke-linejoin="miter" stroke-width="1"/>
<path d="M624.28 306.02C624.75 312.08 622.14 317.56 617.84 321.03C616.47 322.14 615.66 323.8 615.66 325.57L615.66 327.71L600.4 327.71L600.4 326.36C600.4 324.86 599.61 323.45 598.3 322.72C592.94 319.73 589.31 314 589.31 307.43C589.31 297.42 597.71 289.37 607.84 289.95C616.49 290.44 623.61 297.39 624.28 306.02Z" fill="#ffb225" fill-rule="nonzero" opacity="1" stroke="#020202" stroke-linecap="butt" stroke-linejoin="miter" stroke-width="1"/>
<path d="M606.36 327.19C606.36 327.19 607.08 315.01 605.79 312.58C605.03 311.15 603.2 309.65 601.52 309.52C599.15 309.33 600.6 313.27 601.24 314.29C602.83 316.82 605.85 317.51 608.66 317.31C611.59 317.1 614 315.36 615.1 312.64C615.64 311.31 616.51 307.05 614.53 306.53C610.89 305.57 610.01 312.92 609.95 314.87C609.81 319.45 609.81 327.91 609.81 327.91" fill="none" opacity="1" stroke="#000000" stroke-linecap="butt" stroke-linejoin="miter" stroke-width="1"/>
<path d="M604.19 280.52L599.65 270.94" fill="none" opacity="1" stroke="#070707" stroke-linecap="butt" stroke-linejoin="miter" stroke-width="1"/>
<path d="M607.72 279L602.67 266.4" fill="none" opacity="1" stroke="#070707" stroke-linecap="butt" stroke-linejoin="miter" stroke-width="1"/>
<path d="M631.57 295.09L640.64 288.04" fill="none" opacity="1" stroke="#070707" stroke-linecap="butt" stroke-linejoin="miter" stroke-width="1"/>
<path d="M634.59 298.12L639.63 296.1" fill="none" opacity="1" stroke="#070707" stroke-linecap="butt" stroke-linejoin="miter" stroke-width="1"/>
<path d="M579.52 304.18L568.86 304.18" fill="none" opacity="1" stroke="#070707" stroke-linecap="butt" stroke-linejoin="miter" stroke-width="1"/>
<path d="M594.19 301.66C594.19 301.66 597.21 296.62 601.75 295.61" fill="none" opacity="1" stroke="#070707" stroke-linecap="butt" stroke-linejoin="miter" stroke-width="1"/>
</g>
<g opacity="1">
<path d="M603.02 481.63L568.15 484.01C565.93 484.16 563.95 485.48 562.95 487.47L519.98 573.41L715.35 574.72C715.35 574.72 681.29 484.67 679.51 483.81C678.27 483.21 636.68 479.88 636.68 479.88L603.02 481.63Z" fill="#471cce" fill-rule="nonzero" opacity="1" stroke="none"/>
<path d="M604.33 476.38L604.33 486.43C604.33 488.94 605.77 491.24 608.04 492.3C617.1 496.53 640.6 504.47 654.15 481.19L636.67 443.17C636.67 443.17 605.2 465.46 604.33 476.38Z" fill="#ffffff" fill-rule="nonzero" opacity="1" stroke="#000000" stroke-linecap="butt" stroke-linejoin="miter" stroke-width="1"/>
<path d="M569.36 414.32C569.36 414.32 577.66 478.13 609.13 476.38C609.13 476.38 626.61 476.38 636.67 443.16C636.67 443.16 653.28 434.86 649.78 422.62C646.28 410.38 634.05 415.63 634.05 415.63C634.05 415.63 596.02 365.37 569.36 414.32Z" fill="#ffffff" fill-rule="nonzero" opacity="1" stroke="#000000" stroke-linecap="butt" stroke-linejoin="miter" stroke-width="1"/>
<path d="M564.83 408.83C564.64 410.1 565.22 411.37 566.3 412.07C566.31 412.08 566.32 412.08 566.33 412.09C570.45 414.76 581.29 420.32 594.27 415.19C609.49 409.18 615.17 407.21 618.37 415.68C619.14 417.72 620.73 419.38 622.81 420.02C625.91 420.98 630.44 421.04 634.05 415.63C640.17 406.45 634.05 378.04 613.94 373.23C594.19 368.51 570.23 372.65 564.83 408.83Z" fill="#001145" fill-rule="nonzero" opacity="1" stroke="none"/>
<path d="M649.94 520.89C650.64 520.89 656.89 538.51 658.28 539.9L659.9 574.44" fill="none" opacity="1" stroke="#fffdfd" stroke-linecap="butt" stroke-linejoin="miter" stroke-width="1"/>
<path d="M579.64 525.46L572.84 543.6L572.46 573.45" fill="none" opacity="1" stroke="#fffdfd" stroke-linecap="butt" stroke-linejoin="miter" stroke-width="1"/>
<path d="M638.21 424.95L636.38 428.31C636.19 428.65 636.46 429.06 636.85 429.03L644.26 428.36" fill="none" opacity="1" stroke="#000000" stroke-linecap="butt" stroke-linejoin="miter" stroke-width="1"/>
<g opacity="1">
<path d="M526.21 546.55C523.6 547.11 521.7 549.36 521.62 552.03C521.3 562.71 520.78 592.13 524.77 591.56C529.64 590.86 527.55 589.47 527.55 589.47C527.55 589.47 528.48 598.28 535.43 597.58C535.43 597.58 537.43 602.39 541.44 601.01C541.74 600.91 542.06 600.77 542.38 600.59C542.38 600.59 546.55 610.33 552.35 604.3L552.13 574.07C552.12 573.22 552.79 572.52 553.64 572.48L561.45 572.15C562.49 572.11 563.31 571.27 563.34 570.23C563.51 564.87 563.03 549.48 552.34 546.81C543.11 544.51 532.21 545.26 526.21 546.55Z" fill="#ffffff" fill-rule="nonzero" opacity="1" stroke="#000000" stroke-linecap="butt" stroke-linejoin="miter" stroke-width="1"/>
<path d="M527.55 589.48L527.13 572.88" fill="#ffffff" fill-rule="nonzero" opacity="1" stroke="#000000" stroke-linecap="butt" stroke-linejoin="miter" stroke-width="1"/>
<path d="M535.43 597.59L534.94 573.19" fill="#ffffff" fill-rule="nonzero" opacity="1" stroke="#000000" stroke-linecap="butt" stroke-linejoin="miter" stroke-width="1"/>
<path d="M542.38 600.6L541.82 573.51" fill="#ffffff" fill-rule="nonzero" opacity="1" stroke="#000000" stroke-linecap="butt" stroke-linejoin="miter" stroke-width="1"/>
</g>
</g>
<g opacity="1">
<g opacity="1">
<g opacity="1">
<path d="M492.94 451.35L503.86 451.35L503.86 451.35L503.86 489.35L503.86 489.35L492.94 489.35L492.94 489.35L492.94 451.35L492.94 451.35Z" fill="none" opacity="1" stroke="#895675" stroke-linecap="butt" stroke-linejoin="miter" stroke-width="1"/>
<path d="M523.87 440.81L533.88 440.81L533.88 440.81L533.88 490.42L533.88 490.42L523.87 490.42L523.87 490.42L523.87 440.81L523.87 440.81Z" fill="#77103f" fill-rule="nonzero" opacity="1" stroke="none"/>
<path d="M509.3 449.25L519.31 449.25L519.31 449.25L519.31 490.41L519.31 490.41L509.3 490.41L509.3 490.41L509.3 449.25L509.3 449.25Z" fill="#f9ab46" fill-rule="nonzero" opacity="1" stroke="none"/>
<path d="M539.34 446.07L548.44 446.07L548.44 446.07L548.44 489.35L548.44 489.35L539.34 489.35L539.34 489.35L539.34 446.07L539.34 446.07Z" fill="none" opacity="1" stroke="#ffffff" stroke-linecap="butt" stroke-linejoin="miter" stroke-width="1"/>
<path d="M539.32 457.48L548.15 457.48" fill="none" opacity="1" stroke="#ffffff" stroke-linecap="butt" stroke-linejoin="miter" stroke-width="1"/>
<path d="M539.32 461.44L548.15 461.67" fill="none" opacity="1" stroke="#ffffff" stroke-linecap="butt" stroke-linejoin="miter" stroke-width="1"/>
</g>
<path d="M495.07 493.03C496.14 493.03 552.61 493.39 552.61 493.39" fill="none" opacity="1" stroke="#000000" stroke-linecap="butt" stroke-linejoin="miter" stroke-width="1"/>
<path d="M486.26 490.08L556.89 490.14" fill="none" opacity="1" stroke="#ffffff" stroke-linecap="butt" stroke-linejoin="miter" stroke-width="1"/>
</g>
<g opacity="1">
<g opacity="1">
<path d="M725.731 404.85L714.811 404.85L714.811 404.85L714.811 366.85L714.811 366.85L725.731 366.85L725.731 366.85L725.731 404.85L725.731 404.85Z" fill="none" opacity="1" stroke="#895675" stroke-linecap="butt" stroke-linejoin="miter" stroke-width="1"/>
<path d="M694.802 405.925L684.792 405.925L684.792 405.925L684.792 356.315L684.792 356.315L694.802 356.315L694.802 356.315L694.802 405.925L694.802 405.925Z" fill="#77103f" fill-rule="nonzero" opacity="1" stroke="none"/>
<path d="M709.376 405.929L699.366 405.929L699.366 405.929L699.366 364.769L699.366 364.769L709.376 364.769L709.376 364.769L709.376 405.929L709.376 405.929Z" fill="#f9ab46" fill-rule="nonzero" opacity="1" stroke="none"/>
<path d="M679.337 404.852L670.237 404.852L670.237 404.852L670.237 361.572L670.237 361.572L679.337 361.572L679.337 361.572L679.337 404.852L679.337 404.852Z" fill="none" opacity="1" stroke="#ffffff" stroke-linecap="butt" stroke-linejoin="miter" stroke-width="1"/>
<path d="M679.36 372.99L670.52 372.99" fill="none" opacity="1" stroke="#ffffff" stroke-linecap="butt" stroke-linejoin="miter" stroke-width="1"/>
<path d="M679.36 376.95L670.52 377.18" fill="none" opacity="1" stroke="#ffffff" stroke-linecap="butt" stroke-linejoin="miter" stroke-width="1"/>
</g>
<path d="M659.69 405.55C661.67 405.55 758.17 406.66 758.17 406.66" fill="none" opacity="1" stroke="#000000" stroke-linecap="butt" stroke-linejoin="miter" stroke-width="1"/>
</g>
<g opacity="1">
<path d="M686.11 494.76L767.77 495.33" fill="none" opacity="1" stroke="#ffffff" stroke-linecap="butt" stroke-linejoin="miter" stroke-width="1"/>
<path d="M694.1 461.64L703.81 461.64L703.81 461.64L703.81 494.76L703.81 494.76L694.1 494.76L694.1 494.76L694.1 461.64L694.1 461.64Z" fill="none" opacity="1" stroke="#ffffff" stroke-linecap="butt" stroke-linejoin="miter" stroke-width="1"/>
<path d="M711.23 451.93L719.23 451.93L719.23 451.93L719.23 494.76L719.23 494.76L711.23 494.76L711.23 494.76L711.23 451.93L711.23 451.93Z" fill="none" opacity="1" stroke="#ffffff" stroke-linecap="butt" stroke-linejoin="miter" stroke-width="1"/>
<path d="M726.08 469.06L734.65 469.06L734.65 469.06L734.65 494.76L734.65 494.76L726.08 494.76L726.08 494.76L726.08 469.06L726.08 469.06Z" fill="#f9ab46" fill-rule="nonzero" opacity="1" stroke="#ffffff" stroke-linecap="butt" stroke-linejoin="miter" stroke-width="1"/>
</g>
</g>
<path d="M740.22 541.64C740.22 535.234 745.414 530.04 751.82 530.04C758.227 530.04 763.42 535.234 763.42 541.64C763.42 548.047 758.227 553.24 751.82 553.24C745.414 553.24 740.22 548.047 740.22 541.64Z" fill="#ff6666" fill-rule="nonzero" opacity="1" stroke="none"/>
</g>
<g opacity="1">
<path d="M335.14 416.53C336.96 420.26 339.56 424.53 343.78 424.73C348.4 424.95 351.44 420.18 353.23 416.01C355.02 411.83 357.43 406.93 362.02 406.35C366.95 405.73 370.62 410.53 373.1 414.74C375.58 418.95 379.16 423.78 384.1 423.28C387.9 422.9 390.52 419.42 392.21 416.06C393.9 412.7 395.36 408.95 398.56 406.9C401.76 404.85 407.29 406.08 407.59 409.81" fill="none" opacity="1" stroke="#000000" stroke-linecap="butt" stroke-linejoin="miter" stroke-width="1"/>
<path d="M596.09 713.75L604.12 746.79L647.44 738.71L596.09 713.75Z" fill="#05cdcd" fill-rule="nonzero" opacity="1" stroke="none"/>
<path d="M591.42 715.9L599.44 748.95L642.77 740.87L591.42 715.9Z" fill="none" opacity="1" stroke="#000000" stroke-linecap="butt" stroke-linejoin="miter" stroke-width="1"/>
<path d="M1215.15 1026.79L1244.63 1022.74L1239.27 1004.78L1215.15 1026.79Z" fill="#fd4e8f" fill-rule="nonzero" opacity="1" stroke="none"/>
<path d="M1361.86 739.81C1363 743.72 1364.19 747.73 1366.43 750.88C1368.68 754.04 1372.25 756.2 1375.62 755.21C1381.13 753.6 1382.9 745.4 1386.89 740.58C1391.33 735.22 1399.22 734.63 1404.18 739.3C1406.53 741.51 1408.17 744.61 1410.37 747.03C1412.57 749.45 1415.79 751.17 1418.53 749.75C1423.27 747.3 1423.86 737.21 1429.03 737.13" fill="none" opacity="1" stroke="#000000" stroke-linecap="butt" stroke-linejoin="miter" stroke-width="1"/>
<g opacity="1">
<path d="M1379.16 247.71L1357.34 228.08L1375.08 205.86L1396.9 225.5L1379.16 247.71Z" fill="#fe6666" fill-rule="nonzero" opacity="1" stroke="none"/>
<path d="M1373 249.35L1351.18 229.72L1368.92 207.5L1390.74 227.14L1373 249.35Z" fill="none" opacity="1" stroke="#020202" stroke-linecap="butt" stroke-linejoin="miter" stroke-width="1"/>
<path d="M243.54 985.37L256.4 993.28L269.26 1001.2L255.75 1009.04L242.25 1016.89L242.9 1001.13L243.54 985.37Z" fill="#05cdcd" fill-rule="nonzero" opacity="1" stroke="none"/>
<path d="M1388.34 542.17L1389.31 555.56L1390.28 568.94L1378.78 562.98L1367.27 557.02L1377.81 549.6L1388.34 542.17Z" fill="#ffffff" fill-rule="nonzero" opacity="1" stroke="#020202" stroke-linecap="butt" stroke-linejoin="miter" stroke-width="1"/>
<path d="M436.09 198.46C436.09 193.55 439.775 189.57 444.32 189.57C448.865 189.57 452.55 193.55 452.55 198.46C452.55 203.37 448.865 207.35 444.32 207.35C439.775 207.35 436.09 203.37 436.09 198.46Z" fill="#000033" fill-rule="nonzero" opacity="1" stroke="none"/>
<path d="M175.27 519.69C175.27 511.235 181.878 504.38 190.03 504.38C198.182 504.38 204.79 511.235 204.79 519.69C204.79 528.145 198.182 535 190.03 535C181.878 535 175.27 528.145 175.27 519.69Z" fill="#ff6666" fill-rule="nonzero" opacity="1" stroke="none"/>
<path d="M173.06 514.69C173.06 506.235 179.668 499.38 187.82 499.38C195.972 499.38 202.58 506.235 202.58 514.69C202.58 523.145 195.972 530 187.82 530C179.668 530 173.06 523.145 173.06 514.69Z" fill="none" opacity="1" stroke="#020202" stroke-linecap="butt" stroke-linejoin="miter" stroke-width="1"/>
<path d="M239.59 991.08L252.45 998.99L265.3 1006.91L251.8 1014.75L238.3 1022.6L238.95 1006.84L239.59 991.08Z" fill="none" opacity="1" stroke="#020202" stroke-linecap="butt" stroke-linejoin="miter" stroke-width="1"/>
</g>
<path d="M775.29 690.3C775.29 685.368 778.921 681.37 783.4 681.37C787.879 681.37 791.51 685.368 791.51 690.3C791.51 695.232 787.879 699.23 783.4 699.23C778.921 699.23 775.29 695.232 775.29 690.3Z" fill="#ded8fa" fill-rule="nonzero" opacity="1" stroke="none"/>
<path d="M230.71 536.9C230.71 534.437 232.528 532.44 234.77 532.44C237.012 532.44 238.83 534.437 238.83 536.9C238.83 539.363 237.012 541.36 234.77 541.36C232.528 541.36 230.71 539.363 230.71 536.9Z" fill="none" opacity="1" stroke="#000000" stroke-linecap="butt" stroke-linejoin="miter" stroke-width="1"/>
<path d="M449.11 459.83C449.11 457.013 451.205 454.73 453.79 454.73C456.375 454.73 458.47 457.013 458.47 459.83C458.47 462.647 456.375 464.93 453.79 464.93C451.205 464.93 449.11 462.647 449.11 459.83Z" fill="none" opacity="1" stroke="#000000" stroke-linecap="butt" stroke-linejoin="miter" stroke-width="1"/>
<path d="M990.95 769.22C990.95 766.928 992.768 765.07 995.01 765.07C997.252 765.07 999.07 766.928 999.07 769.22C999.07 771.512 997.252 773.37 995.01 773.37C992.768 773.37 990.95 771.512 990.95 769.22Z" fill="#000000" fill-rule="nonzero" opacity="1" stroke="none"/>
<path d="M928.56 283.79C928.56 281.498 930.378 279.64 932.62 279.64C934.862 279.64 936.68 281.498 936.68 283.79C936.68 286.082 934.862 287.94 932.62 287.94C930.378 287.94 928.56 286.082 928.56 283.79Z" fill="none" opacity="1" stroke="#000000" stroke-linecap="butt" stroke-linejoin="miter" stroke-width="1"/>
<path d="M1299.1 702.35C1299.1 700.058 1300.92 698.2 1303.16 698.2C1305.4 698.2 1307.22 700.058 1307.22 702.35C1307.22 704.642 1305.4 706.5 1303.16 706.5C1300.92 706.5 1299.1 704.642 1299.1 702.35Z" fill="none" opacity="1" stroke="#000000" stroke-linecap="butt" stroke-linejoin="miter" stroke-width="1"/>
<path d="M228.28 671.31C228.28 667.499 230.913 664.41 234.16 664.41C237.407 664.41 240.04 667.499 240.04 671.31C240.04 675.121 237.407 678.21 234.16 678.21C230.913 678.21 228.28 675.121 228.28 671.31Z" fill="#05cdcd" fill-rule="nonzero" opacity="1" stroke="none"/>
<path d="M1006.54 302.7C1006.54 298.889 1009.17 295.8 1012.42 295.8C1015.67 295.8 1018.3 298.889 1018.3 302.7C1018.3 306.511 1015.67 309.6 1012.42 309.6C1009.17 309.6 1006.54 306.511 1006.54 302.7Z" fill="#05cdcd" fill-rule="nonzero" opacity="1" stroke="none"/>
<path d="M888.02 532.59C888.02 529.679 890.263 527.32 893.03 527.32C895.797 527.32 898.04 529.679 898.04 532.59C898.04 535.501 895.797 537.86 893.03 537.86C890.263 537.86 888.02 535.501 888.02 532.59Z" fill="none" opacity="1" stroke="#000000" stroke-linecap="butt" stroke-linejoin="miter" stroke-width="1"/>
<path d="M557.81 1003.89C557.81 1001.56 559.578 999.67 561.76 999.67C563.942 999.67 565.71 1001.56 565.71 1003.89C565.71 1006.22 563.942 1008.11 561.76 1008.11C559.578 1008.11 557.81 1006.22 557.81 1003.89Z" fill="none" opacity="1" stroke="#000000" stroke-linecap="butt" stroke-linejoin="miter" stroke-width="1"/>
<path d="M1316.46 960.98C1316.46 958.649 1318.23 956.76 1320.41 956.76C1322.59 956.76 1324.36 958.649 1324.36 960.98C1324.36 963.311 1322.59 965.2 1320.41 965.2C1318.23 965.2 1316.46 963.311 1316.46 960.98Z" fill="none" opacity="1" stroke="#000000" stroke-linecap="butt" stroke-linejoin="miter" stroke-width="1"/>
<path d="M260.18 876.6C260.18 873.96 262.137 871.82 264.55 871.82C266.963 871.82 268.92 873.96 268.92 876.6C268.92 879.24 266.963 881.38 264.55 881.38C262.137 881.38 260.18 879.24 260.18 876.6Z" fill="none" opacity="1" stroke="#000000" stroke-linecap="butt" stroke-linejoin="miter" stroke-width="1"/>
<path d="M544.88 321.64C544.88 317.062 548.511 313.35 552.99 313.35C557.469 313.35 561.1 317.062 561.1 321.64C561.1 326.218 557.469 329.93 552.99 329.93C548.511 329.93 544.88 326.218 544.88 321.64Z" fill="none" opacity="1" stroke="#000000" stroke-linecap="butt" stroke-linejoin="miter" stroke-width="1"/>
</g>
<g opacity="1">
<path d="M1076.08 862.63L1039.24 990.68L839.93 990.68L881.43 858.1C882.21 855.3 884.43 853.42 886.92 853.46L1072.46 856.49C1075.11 856.54 1076.95 859.65 1076.08 862.63Z" fill="#ffffff" fill-rule="nonzero" opacity="1" stroke="#000000" stroke-linecap="butt" stroke-linejoin="miter" stroke-width="1"/>
<path d="M969.777 939.714C962.716 936.176 960.527 926.251 964.888 917.546C969.249 908.84 978.509 904.65 985.57 908.188C992.631 911.725 994.82 921.65 990.459 930.356C986.098 939.061 976.838 943.251 969.777 939.714Z" fill="#ffffff" fill-rule="nonzero" opacity="1" stroke="#000000" stroke-linecap="butt" stroke-linejoin="miter" stroke-width="1.00001"/>
<path d="M900.4 853.72L858.34 990.98" fill="#ffffff" fill-rule="nonzero" opacity="1" stroke="#000000" stroke-linecap="butt" stroke-linejoin="miter" stroke-width="1"/>
<path d="M761.27 990.67L1039.08 990.67L1039.08 990.67L1039.08 1004.7L1039.08 1004.7L761.27 1004.7L761.27 1004.7L761.27 990.67L761.27 990.67Z" fill="#ffffff" fill-rule="nonzero" opacity="1" stroke="#000000" stroke-linecap="butt" stroke-linejoin="miter" stroke-width="1"/>
<path d="M1076.08 862.63C907.94 856.33 842.14 988.44 839.93 990.68L881.43 858.1C882.21 855.3 884.43 853.42 886.92 853.46L1072.46 856.49C1075.11 856.54 1076.95 859.65 1076.08 862.63Z" fill="#232323" fill-rule="nonzero" opacity="0.07" stroke="none"/>
</g>
<g opacity="1">
<path d="M311.32 786.36L244.07 786.36C239.33 786.36 235.49 782.52 235.49 777.78L235.49 765.39C235.49 760.65 239.33 756.81 244.07 756.81L311.32 756.81C316.06 756.81 319.9 760.65 319.9 765.39L319.9 777.78C319.9 782.52 316.06 786.36 311.32 786.36Z" fill="#e45684" fill-rule="nonzero" opacity="1" stroke="none"/>
<path d="M246.46 784.89C246.46 781.228 249.285 778.26 252.77 778.26C256.255 778.26 259.08 781.228 259.08 784.89C259.08 788.552 256.255 791.52 252.77 791.52C249.285 791.52 246.46 788.552 246.46 784.89Z" fill="none" opacity="1" stroke="#000000" stroke-linecap="butt" stroke-linejoin="miter" stroke-width="1"/>
</g>
</g>
</g>
</svg>
