<?xml version="1.0" standalone="no"?><!DOCTYPE svg PUBLIC "-//W3C//DTD SVG 1.1//EN" "http://www.w3.org/Graphics/SVG/1.1/DTD/svg11.dtd"><svg t="1668085393592" class="icon" viewBox="0 0 1024 1024" version="1.1" xmlns="http://www.w3.org/2000/svg" p-id="9477" xmlns:xlink="http://www.w3.org/1999/xlink" width="200" height="200"><path d="M217.634 164.24h588.73c21.4 0 38.74-17.34 38.74-38.74-0.03-21.39-17.37-38.71-38.76-38.71h-588.71c-21.4 0-38.74 17.34-38.74 38.74 0.01 21.38 17.35 38.71 38.74 38.71z" fill="#EF7E20" p-id="9478"></path><path d="M806.364 187.02h-588.73c-33.91 0-61.5-27.58-61.52-61.47 0-33.95 27.6-61.55 61.52-61.55h588.72c33.89 0 61.49 27.57 61.54 61.47-0.01 33.95-27.61 61.55-61.53 61.55z m-588.73-77.46c-8.8 0-15.96 7.16-15.96 15.97 0 8.78 7.16 15.93 15.96 15.93h588.73c8.8 0 15.97-7.16 15.97-15.96-0.01-8.78-7.18-15.94-15.98-15.94h-588.72z" fill="#363432" p-id="9479"></path><path d="M217.634 937.23h588.73c21.4 0 38.74-17.34 38.74-38.74-0.02-21.38-17.36-38.71-38.74-38.71h-588.73c-21.4 0-38.74 17.34-38.74 38.74 0.01 21.38 17.35 38.71 38.74 38.71z" fill="#EF7E20" p-id="9480"></path><path d="M217.604 960c-16.41 0-31.84-6.39-43.46-17.99-11.62-11.61-18.02-27.07-18.03-43.48 0-33.93 27.6-61.53 61.52-61.53h588.73c33.89 0 61.49 27.57 61.52 61.46 0 33.95-27.6 61.55-61.52 61.55h-588.73 0.01c-0.01-0.01-0.03-0.01-0.04-0.01z m0.03-77.44c-8.8 0-15.96 7.16-15.96 15.96 0 4.26 1.66 8.26 4.67 11.27 3.01 3 7.01 4.66 11.26 4.66h588.76c8.8 0 15.97-7.16 15.97-15.96-0.01-8.76-7.17-15.93-15.97-15.93h-588.73z" fill="#363432" p-id="9481"></path><path d="M265.194 859.78c0-192.08 110.5-347.77 246.79-347.77s246.8 155.69 246.8 347.77h-493.59z" fill="#E9E7DF" p-id="9482"></path><path d="M758.784 882.56h-493.56c-12.58 0-22.81-10.2-22.81-22.78 0-204.32 120.93-370.56 269.57-370.56s269.57 166.24 269.57 370.56c0.01 12.57-10.18 22.78-22.77 22.78zM288.524 837h446.95c-8.09-168.62-105.23-302.22-223.47-302.22S296.614 668.37 288.524 837z" fill="#363432" p-id="9483"></path><path d="M758.784 164.24c0 192.08-110.5 347.77-246.79 347.77s-246.8-155.7-246.8-347.77h493.59z" fill="#E9E7DF" p-id="9484"></path><path d="M511.994 534.78c-148.65 0-269.57-166.22-269.57-370.54 0-12.58 10.2-22.78 22.78-22.78h493.59c12.58 0 22.78 10.2 22.78 22.78-0.01 204.32-120.94 370.54-269.58 370.54z m-223.47-347.76c8.09 168.61 105.23 302.2 223.47 302.2s215.38-133.59 223.47-302.2h-446.94z" fill="#363432" p-id="9485"></path><path d="M356.074 250.48h-86.76c-12.58 0-22.78-10.2-22.78-22.78 0-12.58 10.2-22.78 22.78-22.78h86.76c12.58 0 22.78 10.2 22.78 22.78 0 12.58-10.2 22.78-22.78 22.78z" fill="#363432" p-id="9486"></path><path d="M290.604 317.98C330.874 432.91 414.794 512 511.994 512c87.28 0 163.92-63.89 207.8-160.23l-429.19-33.79z" fill="#FFFBF1" p-id="9487"></path><path d="M511.994 527.19c-101.26 0-191.59-78.23-235.72-204.17-1.7-4.85-0.83-10.22 2.3-14.3 3.14-4.06 8.01-6.27 13.23-5.87l429.18 33.78c4.94 0.39 9.37 3.16 11.89 7.43 2.52 4.27 2.8 9.49 0.74 14-48.23 105.9-131.07 169.13-221.62 169.13z m-198.61-192.18c41.88 100.4 116.49 161.8 198.61 161.8 72.72 0 140.45-48.79 184.3-131.67l-382.91-30.13z" fill="#363432" p-id="9488"></path><path d="M611.874 705.33a767.174 767.174 0 0 0-93.26-20.2c-49.86-4.77-98.8 18.5-146.7 29.33l-90.24 20.41a474.673 474.673 0 0 0-16.48 124.91h493.56c0.08-42.19-5.46-84.2-16.48-124.92l-130.4-29.53z" fill="#FFFBF1" p-id="9489"></path><path d="M758.754 874.96h-493.56c-8.37 0-15.17-6.78-15.19-15.16a489.88 489.88 0 0 1 17-128.91c1.47-5.43 5.82-9.6 11.31-10.84l90.24-20.42c13.84-3.13 27.67-7.3 42.32-11.72 35.05-10.6 71.28-21.56 109.18-17.9 32.68 4.94 64.54 11.83 95.55 20.58l130.02 29.44c5.49 1.25 9.84 5.41 11.31 10.86 11.37 42 17.08 85.38 17 128.91-0.01 8.38-6.8 15.16-15.18 15.16z m-478.15-30.37h462.75c-1.02-32.7-5.52-65.21-13.44-96.96l-121.4-27.48c-0.26-0.06-0.52-0.13-0.78-0.21a758.846 758.846 0 0 0-91.41-19.8c-31.11-3.01-62.95 6.66-96.67 16.85-14.51 4.38-29.51 8.91-44.4 12.28l-81.22 18.38a459.674 459.674 0 0 0-13.43 96.94z" fill="#363432" p-id="9490"></path><path d="M511.994 590.08m-21.78 0a21.78 21.78 0 1 0 43.56 0 21.78 21.78 0 1 0-43.56 0Z" fill="#363432" p-id="9491"></path><path d="M511.994 665.01m-21.78 0a21.78 21.78 0 1 0 43.56 0 21.78 21.78 0 1 0-43.56 0Z" fill="#363432" p-id="9492"></path></svg>