<?xml version="1.0" standalone="no"?><!DOCTYPE svg PUBLIC "-//W3C//DTD SVG 1.1//EN" "http://www.w3.org/Graphics/SVG/1.1/DTD/svg11.dtd"><svg t="1667459853061" class="icon" viewBox="0 0 1024 1024" version="1.1" xmlns="http://www.w3.org/2000/svg" p-id="1471" xmlns:xlink="http://www.w3.org/1999/xlink" width="200" height="200"><path d="M150.272 737.9456v149.1456c0 5.6832 3.84 10.6496 9.3696 12.0832 35.6864 9.216 170.496 40.6016 354.816 40.6016s317.696-32.0512 353.024-41.5232a12.4928 12.4928 0 0 0 9.2672-12.0832v-148.224c0-8.0384-7.424-13.9776-15.2576-12.1856-46.6944 10.752-193.6896 41.472-347.0336 41.472-153.4976 0-302.0288-30.7712-348.9792-41.472-7.7824-1.792-15.2064 4.1472-15.2064 12.1856z" fill="#F29727" p-id="1472"></path><path d="M956.0064 779.2128l-42.1888-53.3504c-1.792-2.2528-1.9968-5.376-0.4608-7.8336l41.5232-68.1472c3.072-5.0688-1.28-11.3664-7.0656-10.3424l-142.6944 25.856a12.032 12.032 0 0 0-9.8816 11.8784v62.1056c29.3888-5.4272 52.3776-10.4448 66.3552-13.6192 7.8336-1.792 15.2576 4.1472 15.2576 12.1856v68.9664l75.3664-16.7424c4.864-1.0752 6.9632-6.9632 3.7888-10.9568zM150.272 737.9456c0-8.0384 7.424-13.9776 15.2576-12.1856 14.6432 3.328 39.1168 8.6016 70.5536 14.336v-62.7712c0-5.8368-4.1472-10.8032-9.8816-11.8784l-142.6944-25.856c-5.8368-1.0752-10.1888 5.2736-7.0656 10.3424l41.5232 68.1472c1.4848 2.4576 1.28 5.5808-0.4608 7.8336l-42.1888 53.3504c-3.1232 3.9936-1.024 9.8816 3.8912 10.9568l71.168 15.8208v-68.096z" fill="#F29727" p-id="1473"></path><path d="M989.7984 401.7664c-0.6656-25.4976 0-78.7456-33.8432-144.9472-13.7216-28.928-17.664-44.5952-21.0944-57.856-3.4304-13.2608-24.5248-63.232-78.9504-55.8592s-42.6496 62.2592-34.816 75.4688 46.592 14.6944 54.8864 12.7488c8.3456-1.9456 13.2608 9.3184 13.7216 22.0672 0.512 12.7488-2.9184 79.4112-1.9456 88.2176 0.9728 8.8064 1.9456 17.664-11.264 10.2912-13.2096-7.3728-47.2064-28.6208-93.2864-2.4576-10.8032 7.5264-16.0256 11.776-24.832 3.2768-8.8064-8.4992-47.7184-34.6624-116.3264-10.1376-11.4176 3.9424-15.6672 6.5536-28.416 0-12.7488-6.5536-18.944-10.4448-28.416-10.4448-9.472 0-19.9168-5.888-11.1104-14.6944 8.8064-8.8064 16.0256-20.2752 18.2784-36.9152 1.6384-10.4448 4.9152-14.0288 12.0832-20.2752s32.0512-59.4944 3.584-64.7168c-3.9424-0.6656-2.304-4.9152-2.6112-16.0256s15.3088-94.3616-90.9312-99.2768l-0.0512-0.0512h-0.6144l-0.0512 0.0512c-106.24 4.9152-90.624 88.2176-90.9312 99.2768-0.3072 11.1104 1.3312 15.36-2.6112 16.0256-28.416 5.2224-3.584 58.5216 3.584 64.7168 7.168 6.1952 10.4448 9.7792 12.0832 20.2752 2.304 16.6912 9.472 28.1088 18.2784 36.9152 8.8064 8.8064-1.6384 14.6944-11.1104 14.6944s-15.6672 3.9424-28.416 10.4448-16.9984 3.9424-28.416 0c-68.608-24.5248-107.52 1.6384-116.3264 10.1376-8.8064 8.4992-14.0288 4.2496-24.832-3.2768-46.08-26.1632-80.0768-4.9152-93.2864 2.4576-13.2096 7.3728-12.2368-1.4848-11.264-10.2912s-2.4576-75.4688-1.9456-88.2176c0.512-12.7488 5.376-24.0128 13.7216-22.0672 8.3456 1.9456 47.0528 0.512 54.8864-12.7488 7.8336-13.2608 19.6096-68.1472-34.816-75.4688s-75.4688 42.6496-78.8992 55.8592c-3.4304 13.2608-7.3728 28.928-21.0944 57.856-33.8944 66.1504-33.2288 119.4496-33.8944 144.9472-0.6656 25.4976 3.2768 31.3856 11.776 35.6352 8.4992 4.2496 25.4976 9.472 43.1616 23.8592 65.9968 50.9952 143.1552 35.9424 154.9312 35.9424s15.6672 0 24.832 8.4992c30.0544 26.7776 70.6048 206.2336 70.6048 206.2336 59.8016 10.8544 130.2528 19.456 166.5024 18.688 2.6112-0.0512 5.1712-0.0512 7.7824 0 36.2496 0.768 106.752-7.8336 166.5024-18.688 0 0 40.5504-179.4048 70.6048-206.2336 9.1648-8.4992 13.056-8.4992 24.832-8.4992s88.8832 15.0528 154.9312-35.9424c17.664-14.3872 34.6624-19.6096 43.1616-23.8592 8.3968-4.2496 12.3392-10.1376 11.6736-35.6352z" fill="#4B8DFD" p-id="1474"></path><path d="M600.4736 129.5872c-8.9088-23.552-31.2832-46.848-85.9648-49.3568l-0.0512-0.0512h-0.6144l-0.0512 0.0512c-106.24 4.9152-90.624 88.2176-90.9824 99.2768-0.1536 5.376 0.1536 9.1136 0.0512 11.6224 4.3008-32.8704 30.5152-66.6624 77.1072-78.8992 46.4896-12.1856 100.3008 17.2544 100.5056 17.3568zM443.0848 332.1344c-9.472 0-15.6672 3.9424-28.416 10.4448s-16.9984 3.9424-28.416 0c-68.608-24.5248-107.52 1.6384-116.3264 10.1376-8.8064 8.4992-14.0288 4.2496-24.832-3.2768-46.08-26.1632-80.0768-4.9152-93.2864 2.4576-6.7584 3.7376-9.7792 3.2768-11.0592 0.768-3.3792 13.4656 11.7248 33.1264 28.3648 25.2928s35.2768-0.9728 48.0256 7.3728c12.7488 8.3456 70.6048 2.4576 79.9232-6.3488 9.3184-8.8064 59.3408-20.1216 86.528-11.52 27.1872 8.6016 42.6496-3.6864 64.7168-15.2064 22.0672-11.52 9.216-28.9792 9.216-28.9792 0.512 5.4784-7.2192 8.8576-14.4384 8.8576zM584.8064 332.1344c9.472 0 15.6672 3.9424 28.416 10.4448s16.9984 3.9424 28.416 0c68.608-24.5248 107.52 1.6384 116.3264 10.1376 8.8064 8.4992 14.0288 4.2496 24.832-3.2768 46.08-26.1632 80.0768-4.9152 93.2864 2.4576 6.7584 3.7376 9.7792 3.2768 11.0592 0.768 3.3792 13.4656-11.7248 33.1264-28.3648 25.2928s-35.2768-0.9728-48.0256 7.3728c-12.7488 8.3456-70.6048 2.4576-79.9232-6.3488-9.3184-8.8064-59.3408-20.1216-86.528-11.52-27.1872 8.6016-42.6496-3.6864-64.7168-15.2064-22.0672-11.52-9.216-28.9792-9.216-28.9792-0.512 5.4784 7.2192 8.8576 14.4384 8.8576zM75.9296 292.1472c15.2064-22.528 31.8464-58.3168 35.2768-76.9536s18.6368-40.192 48.5376-46.592c29.9008-6.3488 54.016 24.9856 54.016 24.9856 1.4336-20.5312-5.8368-45.7216-41.4208-50.5344-54.4256-7.3728-75.4688 42.6496-78.8992 55.8592-3.4304 13.2608-7.3728 28.928-21.0944 57.856-29.0304 56.832-32.6656 104.0896-33.536 132.4544 2.6112-34.6624 21.9136-74.5472 37.12-97.0752zM855.9616 143.104c-54.4256 7.3728-42.6496 62.2592-34.816 75.4688 1.8432 3.1232 5.4784 5.5808 9.984 7.5264-11.9296-22.9376 4.1472-47.6672 28.16-56.4736 41.1648-12.7488 75.6224 29.3376 75.6224 29.3376-3.4304-13.2096-24.5248-63.232-78.9504-55.8592z" fill="#76A4FF" p-id="1475"></path><path d="M989.7984 401.7664a161.28 161.28 0 0 1-0.1024-5.1712s-5.0688 23.552-32.2048 24.5248c-27.136 0.9728-52.1216 19.0976-64.4096 28.416-12.2368 9.3184-71.8848 25.4976-97.9456 19.6096-26.0608-5.888-44.0832 27.5456-48.5376 47.616 2.9184-4.8128 5.7856-8.6016 8.5504-11.0592 9.1648-8.4992 13.056-8.4992 24.832-8.4992s88.8832 15.0528 154.9312-35.9424c17.664-14.3872 34.6624-19.6096 43.1616-23.8592 8.448-4.2496 12.3904-10.1376 11.7248-35.6352zM207.3088 468.4288c-20.8896 0.256-54.272-11.3664-63.3856-20.48-9.1648-9.1648-37.2736-19.6096-64.0512-20.9408-26.7776-1.3312-41.0624-27.2384-41.0624-27.2384l-0.256 0.4608c0 0.4608 0 1.024-0.0512 1.4848-0.6656 25.4976 3.2768 31.3856 11.776 35.6352 8.4992 4.2496 25.4976 9.472 43.1616 23.8592 65.9968 50.9952 143.1552 35.9424 154.9312 35.9424 11.0592 0 15.2576 0.1024 23.3472 7.168-15.0016-26.88-45.568-36.096-64.4096-35.8912zM309.248 546.7648s136.6016 79.104 209.4592-16.9984c71.68 89.5488 201.3184 5.5808 201.3184 5.5808-11.776 22.528-90.624 77.4656-199.4752 50.9952-44.0832 11.7248-148.5312 35.584-211.3024-39.5776zM331.8272 624.0768s121.6 79.104 186.4704-16.9984c63.7952 89.5488 179.2 5.5808 179.2 5.5808-10.496 22.528-80.6912 77.4656-177.5616 50.9952-39.2704 11.7248-132.2496 35.584-188.1088-39.5776zM343.7568 711.8848c3.9424 0.7168 7.936 1.4336 11.9808 2.0992a262.144 262.144 0 0 1-12.9536-6.3488c0.6144 2.7136 0.9728 4.2496 0.9728 4.2496zM633.6512 720.1792c14.2336-2.0992 28.5696-4.352 42.4448-6.8096 3.84-3.0208 7.2192-5.9904 10.1376-8.8576 0.5632-2.3552 1.2288-5.2736 2.048-8.6016-11.008 6.8096-31.0784 17.7152-54.6304 24.2688zM593.0496 725.5552c-26.5216-0.8704-53.504-11.3664-74.7008-41.1648-16.7936 24.832-37.3248 37.888-58.624 43.7248 19.8656 1.8432 37.4784 2.816 50.5856 2.5088 2.6112-0.0512 5.1712-0.0512 7.7824 0 18.176 0.3584 45.1072-1.6384 74.9568-5.0688z" fill="#4479E2" p-id="1476"></path><path d="M79.104 790.2208l71.168 15.8208v-21.0944c-16.384-3.7376-45.3632-10.3936-55.7056-12.6976-5.4784-1.2288-8.3968-3.1232-9.8304-5.0176l-9.5232 12.032c-3.1744 3.9424-1.0752 9.8304 3.8912 10.9568z" fill="#F47706" p-id="1477"></path><path d="M925.4912 676.7104l-12.1344 41.3696 41.5232-68.1472c3.072-5.0688-1.28-11.3664-7.0656-10.3424l-142.6944 25.856a12.032 12.032 0 0 0-9.8816 11.8784v30.208c0-13.6192 10.7008-14.848 10.7008-14.848s93.1328-16.6912 107.4688-18.6368 12.0832 2.6624 12.0832 2.6624zM226.1504 665.4464l-142.6944-25.856c-5.8368-1.0752-10.1888 5.2736-7.0656 10.3424l41.5232 68.1472s-7.168-25.3952-12.544-37.1712c-5.376-11.776 3.9424-10.2912 3.9424-10.2912s72.0384 15.2064 98.048 20.1216c25.9584 4.9152 28.7744 23.296 28.7744 23.296v-36.7104c-0.1024-5.8368-4.2496-10.8544-9.984-11.8784z" fill="#F7AC5C" p-id="1478"></path><path d="M956.0064 779.2128l-19.9168-25.1904c12.3392 15.616 0 17.5616 0 17.5616l-59.3408 13.1584v22.2208l75.3664-16.7424c4.9664-1.1264 7.0656-7.0144 3.8912-11.008z" fill="#F47706" p-id="1479"></path><path d="M876.7488 784.0768v-46.08c0-8.0384-7.424-13.9776-15.2576-12.1856-46.6944 10.752-193.6896 41.472-347.0336 41.472-153.4976 0-302.0288-30.7712-348.9792-41.472-7.8336-1.792-15.2576 4.1472-15.2576 12.1856v47.0016c0-25.1904 21.76-21.8624 35.4816-17.7152 60.7744 18.4832 248.3712 39.7312 349.696 39.7312s283.648-36.6592 313.088-42.5472c26.7264-5.4272 28.2112 15.6672 28.2624 19.6096z" fill="#F7AC5C" p-id="1480"></path><path d="M159.6416 899.1744c35.6864 9.216 170.496 40.6016 354.816 40.6016s317.696-32.0512 353.024-41.5232a12.4928 12.4928 0 0 0 9.2672-12.0832v-44.032h-0.4096s0.9216 19.6096-27.1872 26.7776c-28.1088 7.168-184.32 35.2768-335.6672 35.2768-151.296 0-333.0048-40.4992-333.0048-40.4992s-25.856-3.2768-30.2592-27.4432v50.7904c0.0512 5.7344 3.8912 10.7008 9.4208 12.1344z" fill="#F47706" p-id="1481"></path><path d="M915.8144 724.2752a4.32128 4.32128 0 0 1-0.3072-4.9152l41.5232-68.1472c1.9456-3.2256 1.8432-7.1168-0.256-10.24-2.1504-3.072-5.7344-4.608-9.472-3.9424l-142.6944 25.856a14.60224 14.60224 0 0 0-11.9808 14.3872V737.28c-68.352 12.4928-172.1344 27.4432-278.1184 27.4432-104.2432 0-206.9504-14.4384-275.8656-26.8288v-60.5696c0-7.0656-5.0688-13.1072-11.9808-14.3872l-142.6944-25.856c-3.6864-0.6656-7.3216 0.8704-9.472 3.9424-2.1504 3.1232-2.2528 7.0144-0.256 10.24l41.5232 68.1472c0.9216 1.536 0.8192 3.5328-0.3072 4.9152l-42.1888 53.3504c-2.048 2.56-2.56 5.9392-1.4848 9.0112 1.0752 3.072 3.6352 5.3248 6.8608 6.0416l69.1712 15.36v79.0016c0 6.8608 4.6592 12.8512 11.3152 14.592 36.9152 9.5232 171.5712 40.704 355.4816 40.704 183.9104 0 317.184-31.8464 353.6896-41.6256a15.01184 15.01184 0 0 0 11.1616-14.5408v-77.2096l73.3696-16.2816c3.1744-0.7168 5.7344-2.9696 6.8608-6.0416 1.0752-3.072 0.512-6.4512-1.4848-9.0112l-42.3936-53.4016zM79.6672 787.712a4.17792 4.17792 0 0 1-3.1232-2.7648c-0.512-1.4336-0.256-2.9184 0.6656-4.096l42.1888-53.3504c2.4064-3.072 2.7136-7.424 0.6656-10.752l-41.5232-68.1472a4.17792 4.17792 0 0 1 0.1024-4.6592c0.8192-1.2288 2.0992-1.8944 3.4816-1.8944 0.256 0 0.5632 0 0.8192 0.0512l142.6944 25.856c4.5056 0.8192 7.7824 4.7616 7.7824 9.3184v59.648c-21.1968-3.84-38.912-7.4752-52.224-10.3424-0.2048-0.0512-0.4608-0.1024-0.7168-0.1536-1.3824-0.3072-2.7136-0.6144-3.9936-0.8704-1.0752-0.256-2.0992-0.4608-3.1232-0.6656-0.768-0.1536-1.536-0.3584-2.2528-0.512-1.792-0.4096-3.5328-0.768-5.0688-1.1264-4.4544-1.024-9.1136 0.0512-12.6976 2.9184-3.584 2.8672-5.6832 7.168-5.6832 11.776v64.8704l-67.9936-15.104z m794.5216 98.4576c0 4.5056-3.0208 8.448-7.3728 9.6256-36.3008 9.728-169.0624 41.4208-352.3584 41.4208-183.296 0-317.44-31.0272-354.2016-40.5504-4.4032-1.1264-7.4752-5.0688-7.4752-9.6256V737.8944c0-3.072 1.3824-5.888 3.7376-7.7824 0.768-0.6144 1.6896-1.0752 2.6112-1.4336 0.2048-0.1024 0.4608-0.1536 0.6656-0.2048 0.9216-0.3072 1.8944-0.512 2.8672-0.512 0.7168 0 1.4848 0.1024 2.2016 0.256 1.5872 0.3584 3.3792 0.768 5.2736 1.1776 0.7168 0.1536 1.4848 0.3072 2.2016 0.512 1.024 0.2048 2.048 0.4608 3.1232 0.6656 14.8992 3.2768 35.2768 7.4752 60.0576 11.9808h0.2048c69.12 12.4928 173.1072 27.2384 278.6816 27.2384 107.3664 0 212.48-15.2576 280.9856-27.8528h0.1536c23.6032-4.352 42.8544-8.3968 56.832-11.4688 0.4608-0.1024 0.8704-0.2048 1.28-0.3072 1.2288-0.256 2.4576-0.5632 3.6352-0.8192 1.6896-0.3584 3.2768-0.7168 4.7104-1.0752 2.9184-0.6656 5.9904 0 8.3968 1.8944 2.3552 1.8944 3.7376 4.7104 3.7376 7.7824V886.1696z m80.4864-101.2224c-0.512 1.4336-1.6384 2.4064-3.1232 2.7648l-72.2432 16.0768v-65.792a14.8992 14.8992 0 0 0-8.2944-13.4144c-0.256-0.1536-0.512-0.256-0.768-0.3584-0.7168-0.3072-1.4336-0.5632-2.1504-0.768-0.256-0.0512-0.512-0.1536-0.768-0.2048-0.9728-0.2048-1.9968-0.3584-2.9696-0.3584-1.1264 0-2.2528 0.1536-3.4304 0.4096-1.4848 0.3584-3.072 0.7168-4.7616 1.0752a267.12064 267.12064 0 0 1-5.0688 1.0752c-1.536 0.3584-3.072 0.6656-4.7616 1.024-0.0512 0-0.1024 0-0.1536 0.0512-12.4416 2.7136-28.928 6.0928-48.4864 9.728v-59.0336c0-4.608 3.2768-8.4992 7.7824-9.3184l142.6944-25.856c1.6896-0.3072 3.328 0.3584 4.3008 1.792 0.9728 1.4336 1.024 3.1744 0.1024 4.6592l-41.5232 68.1472c-2.048 3.3792-1.792 7.68 0.6656 10.752l42.1888 53.3504c1.024 1.28 1.28 2.7648 0.768 4.1984z" fill="#472F7E" p-id="1482"></path><path d="M992.3584 401.7152l-0.1024-4.2496c-0.6144-27.4432-1.6896-78.592-33.9456-141.6704-13.312-28.1088-17.408-43.8784-20.6848-56.5248l-0.2048-0.8704c-4.8128-18.4832-28.7232-64.9216-81.7664-57.8048-19.0464 2.56-32.1536 10.9568-38.912 24.9344-9.5232 19.712-3.2256 45.1584 2.2528 54.3744 8.7552 14.7968 48.9984 15.9744 57.7024 13.9264 1.5872-0.3584 2.9696-0.1024 4.2496 0.9216 3.5328 2.6624 5.9904 10.0352 6.3488 18.7392 0.2048 5.7856-0.3584 22.784-1.024 40.7552-0.768 21.9648-1.4848 42.7008-0.9216 47.6672 0.3584 3.4304 1.024 9.1648-0.256 10.0352-0.0512 0.0512-1.4848 0.9216-7.2192-2.2528l-1.6384-0.9216c-14.5408-8.192-48.64-27.3408-94.3616-1.3824l-1.2288 0.8704c-10.0352 7.0144-13.4144 9.3696-20.3776 2.6624-1.6384-1.5872-41.1648-38.5024-118.9376-10.7008l-3.0208 1.0752c-9.0624 3.2256-12.8512 4.5056-23.4496-0.9216l-4.4032-2.2528c-10.1376-5.2736-16.2816-8.448-25.1904-8.448-5.3248 0-10.5984-2.1504-11.6736-4.7616-0.768-1.8944 0.8704-4.096 2.3552-5.5808 10.752-10.752 16.9472-23.296 18.9952-38.3488 1.4848-9.5232 4.2496-12.6976 11.2128-18.7392 6.3488-5.4784 21.8112-37.4784 16.7936-55.9616-1.9968-7.2704-6.9632-11.8272-14.7456-13.2096-0.3584-0.5632-0.3072-3.2256-0.256-5.632 0.0512-2.1504 0.1024-4.7616 0-7.936-0.0512-0.9216 0.0512-2.4064 0.2048-4.352 0.8192-13.3632 2.816-44.6464-18.688-68.608-15.7696-17.5616-40.9088-27.2896-74.8544-28.8256-0.256-0.0512-0.5632-0.0512-0.768-0.0512-0.1536 0-0.3072 0-0.4608 0.0512-33.8432 1.5872-58.9824 11.3152-74.7008 28.8256-21.4528 23.9104-19.5072 55.2448-18.688 68.608 0.1024 1.9456 0.2048 3.4304 0.2048 4.352-0.1024 3.1744-0.0512 5.7856 0 7.936 0.0512 2.3552 0.1024 5.0688-0.5632 5.632-7.4752 1.3824-12.4416 5.9392-14.4384 13.2096-5.0176 18.432 10.4448 50.4832 16.7936 55.9616 6.9632 6.0416 9.728 9.216 11.2128 18.688 2.048 15.104 8.2944 27.648 19.0464 38.4 1.4848 1.4848 3.1744 3.6864 2.3552 5.5808-1.0752 2.6112-6.2976 4.7616-11.6736 4.7616-8.96 0-15.0528 3.1744-25.1904 8.448l-4.4032 2.2528c-10.5984 5.4272-14.336 4.096-23.4496 0.9216l-2.9696-1.024c-77.7728-27.7504-117.3504 9.1136-118.9888 10.7008-6.9632 6.7072-10.3424 4.352-20.3264-2.6624l-1.4336-0.9728c-45.5168-25.856-79.616-6.656-94.1568 1.4848l-1.6384 0.9216c-5.7344 3.1744-7.168 2.304-7.2192 2.2528-1.28-0.8704-0.6656-6.6048-0.256-10.0352 0.5632-4.9664-0.1536-25.7024-0.9216-47.6672-0.6144-18.0224-1.2288-34.9696-1.024-40.7552 0.3584-8.704 2.816-16.0768 6.3488-18.7392 1.3312-1.024 2.6624-1.28 4.2496-0.9216 8.704 2.048 48.9472 0.8704 57.7024-13.9264 5.4784-9.2672 11.776-34.7136 2.2528-54.4256-6.7584-13.9776-19.8656-22.3744-38.912-24.9344-52.8896-7.168-76.9536 39.2704-81.7664 57.8048l-0.2048 0.8704c-3.2768 12.6976-7.3728 28.4672-20.6848 56.4736-32.2048 63.0784-33.28 114.2272-33.8944 141.6704l-0.1024 4.2496c-0.6656 26.368 3.6864 33.2288 13.1584 37.9904 1.9968 1.024 4.4544 2.048 7.2704 3.2768 9.3184 3.9936 22.1184 9.472 35.4304 20.3264 58.7776 45.4144 127.1808 39.0656 149.6576 36.9664 3.1232-0.3072 5.4272-0.512 6.8096-0.512 11.5712 0 14.6944 0 23.1424 7.8336 29.1328 25.9584 69.376 203.1104 69.7856 204.8512 0.2048 1.024 1.024 1.792 2.048 1.9456 64.768 11.776 133.5808 19.456 167.0656 18.7392 2.56-0.0512 5.12-0.0512 7.68 0 1.4336 0.0512 2.9696 0.0512 4.5056 0.0512 34.9696 0 100.5056-7.5264 162.5088-18.7904 1.024-0.2048 1.792-0.9728 2.048-1.9456 0.4096-1.792 40.704-178.8928 69.8368-204.9024 8.3968-7.8336 11.52-7.8336 23.0912-7.8336 1.3824 0 3.6864 0.2048 6.8096 0.512 22.4768 2.0992 90.88 8.3968 149.7088-37.0176 13.312-10.8544 26.0608-16.2816 35.3792-20.2752 2.816-1.2288 5.2736-2.2528 7.2704-3.2768 9.5232-4.6592 13.8752-11.5712 13.2096-37.888z m-15.4624 33.3824c-1.9456 0.9728-4.3008 1.9456-7.0144 3.1232-9.0624 3.8912-22.7328 9.728-36.5568 20.992-57.1904 44.1856-124.1088 37.9904-146.0736 35.9424-3.328-0.3072-5.7856-0.512-7.2704-0.512-11.8272 0-16.6912 0-26.5216 9.1648-29.1328 25.9584-66.6112 186.624-71.0144 205.9264-64 11.52-131.3792 19.0976-164.352 18.3808-1.3312-0.0512-2.6112-0.0512-3.9424-0.0512s-2.6112 0-3.9424 0.0512c-32.9216 0.6656-100.352-6.8096-164.352-18.3808-4.4032-19.3024-41.8816-179.968-70.9632-205.8752-9.8816-9.1648-14.7456-9.1648-26.5728-9.1648-1.4848 0-3.9424 0.2048-7.2704 0.512-21.9648 2.048-88.832 8.2432-146.0224-35.8912-13.8752-11.3152-27.5456-17.152-36.608-21.0432-2.7136-1.1776-5.0688-2.1504-7.0144-3.1232-6.8608-3.4304-11.008-7.3728-10.3424-33.28l0.1024-4.3008c0.5632-27.0336 1.6896-77.4144 33.4848-139.6224 13.5168-28.5184 17.664-44.544 21.0432-57.4464l0.2048-0.8704c0.1536-0.6144 16.8448-62.0032 76.0832-53.9648 17.2544 2.3552 29.0304 9.7792 34.9696 22.1184 8.6016 17.7152 2.816 41.3696-2.048 49.5616-6.9632 11.776-44.0832 13.4656-52.1216 11.5712-3.0208-0.7168-5.9904-0.1024-8.5504 1.8432-4.8128 3.6864-7.936 12.1344-8.3456 22.6304-0.2048 5.9392 0.3584 23.04 1.024 41.1648 0.7168 19.8656 1.4848 42.3424 0.9728 46.8992-0.7168 6.2976-1.3824 12.288 2.56 14.8992 3.584 2.4064 8.8576 0 12.544-2.048l1.6896-0.9216c13.824-7.7824 46.1312-25.9072 88.9344-1.6384l1.2288 0.8704c10.1376 7.0656 16.8448 11.776 26.8288 2.1504 1.536-1.4848 38.8608-36.3008 113.7152-9.5744l2.9696 1.024c9.6256 3.3792 14.8992 5.2736 27.4944-1.1776l4.4032-2.304c9.7792-5.0688 15.1552-7.8848 22.8352-7.8848 6.3488 0 14.1312-2.4576 16.384-7.8848 1.024-2.4576 1.28-6.4512-3.4816-11.1616-10.0352-10.0352-15.616-21.2992-17.5616-35.5328-1.7408-11.1104-5.2736-15.2064-12.9536-21.8112-4.4544-3.84-19.6608-34.3552-15.2064-50.7392 1.4848-5.376 4.864-8.4992 10.3936-9.5232 5.0176-0.8192 4.9152-5.2224 4.7616-10.8032-0.0512-2.048-0.1024-4.608 0-7.68 0.0512-1.024-0.0512-2.6624-0.2048-4.8128-0.8192-12.7488-2.6624-42.496 17.3568-64.8704 14.7968-16.4864 38.8096-25.6512 71.3216-27.136h0.512c32.512 1.4848 56.5248 10.6496 71.3216 27.136 20.0192 22.3232 18.176 52.1216 17.3568 64.8704-0.1536 2.1504-0.2048 3.7888-0.2048 4.8128 0.1024 3.072 0.0512 5.5808 0 7.68-0.1536 5.5808-0.256 9.984 4.7104 10.8032 5.5296 1.024 8.96 4.1472 10.3936 9.5232 4.4544 16.384-10.752 46.8992-15.2064 50.7392-7.68 6.6048-11.2128 10.7008-12.9536 21.8624-1.9456 14.1312-7.5264 25.3952-17.5616 35.4816-4.7616 4.7104-4.5056 8.704-3.4816 11.1616 2.2528 5.4272 10.0864 7.8848 16.384 7.8848 7.68 0 13.056 2.816 22.8352 7.8848l4.4032 2.304c12.544 6.4512 17.8688 4.5568 27.4944 1.1776l2.9696-1.024c74.8544-26.7264 112.1792 8.0896 113.7152 9.5744 9.984 9.6256 16.6912 4.9152 26.8288-2.1504l1.024-0.7168c43.008-24.4224 75.3152-6.2464 89.1392 1.536l1.6896 0.9216c3.6352 2.048 8.96 4.4544 12.544 2.048 3.8912-2.6112 3.2256-8.5504 2.56-14.8992-0.512-4.5568 0.256-27.0848 0.9728-46.8992 0.6144-18.0736 1.2288-35.1744 1.024-41.1648-0.4096-10.496-3.5328-18.944-8.3456-22.6304-2.5088-1.8944-5.4784-2.56-8.5504-1.8432-8.0384 1.8944-45.1584 0.2048-52.1216-11.5712-4.8128-8.1408-10.5984-31.8464-2.048-49.5616 5.9904-12.3392 17.7152-19.7632 34.9696-22.1184C915.5072 137.728 932.1984 199.0656 932.352 199.68l0.2048 0.8704c3.328 12.9024 7.4752 28.928 21.0432 57.4976 31.744 62.1568 32.8704 112.4864 33.4336 139.52l0.1024 4.3008c0.768 25.8048-3.3792 29.7984-10.24 33.2288z" fill="#472F7E" p-id="1483"></path></svg>