<?xml version="1.0" encoding="UTF-8"?>
<svg width="262px" height="173px" viewBox="0 0 262 173" version="1.1" xmlns="http://www.w3.org/2000/svg" xmlns:xlink="http://www.w3.org/1999/xlink">
    <title>编组 8</title>
    <g id="页面-1" stroke="none" stroke-width="1" fill="none" fill-rule="evenodd">
        <g id="编组-8" transform="translate(0.166385, 0.122918)">
            <path d="M209.434528,5.8941388 L206.529697,2.3304881 C194.358991,7.43925811 188.062235,14.0274548 187.639429,22.0950782 C187.490786,24.9313521 187.621497,27.6605434 187.864167,30.2426336 L187.96681,31.2675295 C187.98478,31.4370062 188.003148,31.6058055 188.021865,31.7739155 L188.137957,32.7742079 L188.137957,32.7742079 L188.322584,34.2423807 L188.322584,34.2423807 L188.81971,37.9546493 L188.81971,37.9546493 L188.932185,38.8335293 L188.932185,38.8335293 L189.035175,39.6915961 L189.035175,39.6915961 L189.126301,40.5282806 L189.126301,40.5282806 L189.203181,41.3430136 C189.490528,44.6912118 189.344896,47.4529353 187.991308,49.4429126 C187.849872,49.6508449 187.699648,49.8667692 187.541294,50.0899222 L187.0425,50.7803046 C186.955521,50.8987284 186.866675,51.0187685 186.776043,51.1403297 L186.211481,51.8871858 L186.211481,51.8871858 L185.608007,52.6659675 L185.608007,52.6659675 L184.96957,53.4720958 L184.96957,53.4720958 L184.300118,54.300992 L184.300118,54.300992 L183.603597,55.1480771 C183.485474,55.2905194 183.366388,55.4335287 183.24642,55.5770097 L182.5167,56.4427928 C182.393537,56.587779 182.269658,56.7330461 182.145144,56.8784987 L181.391106,57.7526774 L181.391106,57.7526774 L180.625791,58.6267296 L180.625791,58.6267296 L179.853146,59.4960763 L179.853146,59.4960763 L179.07712,60.3561388 L179.07712,60.3561388 L178.301659,61.202338 L178.301659,61.202338 L177.530712,62.0300953 L177.530712,62.0300953 L176.768227,62.8348316 C176.64207,62.9667815 176.516431,63.0975815 176.39139,63.227136 L175.648998,63.9887556 C175.526684,64.112947 175.405134,64.2357023 175.28443,64.356926 L174.571014,65.0651264 C174.454022,65.1798422 174.338042,65.2928358 174.223153,65.4040116 L173.547596,66.0484902 L173.547596,66.0484902 L172.902212,66.6447642 C172.37806,67.1203019 171.889452,67.5408568 171.446667,67.8945046 L171.17032,68.1085556 L171.17032,68.1085556 L170.878741,68.3223747 L170.878741,68.3223747 L170.414909,68.6440423 L170.414909,68.6440423 L170.089445,68.860029 L170.089445,68.860029 L169.403855,69.2985278 L169.403855,69.2985278 L167.727386,70.3399193 L167.727386,70.3399193 L166.940456,70.8386658 L166.940456,70.8386658 L166.540936,71.0986797 L166.540936,71.0986797 L165.936787,71.5037673 L165.936787,71.5037673 L165.532175,71.7847858 C165.464683,71.8323965 165.397176,71.8804031 165.329675,71.9288186 L164.924886,72.2243237 C164.857485,72.2744273 164.790128,72.324966 164.722837,72.3759529 L164.320031,72.6873573 C164.18613,72.7930213 164.052648,72.9005827 163.919747,73.0101461 L163.522944,73.3449473 L163.522944,73.3449473 L163.130582,73.6923886 C162.74076,74.0463594 162.35904,74.4202325 161.989739,74.8168332 L161.624738,75.2211146 C158.980771,78.2429364 157.082129,82.537659 157.631988,89.2196052 L157.668953,89.6541828 L157.668953,89.6541828 L157.746389,90.4798214 C157.759675,90.6126522 157.773147,90.743115 157.786801,90.8712397 L157.870859,91.6121675 L157.870859,91.6121675 L157.959033,92.2984077 C157.974058,92.4083032 157.989245,92.5159796 158.004588,92.6214666 L158.098484,93.228355 C158.16228,93.6157501 158.22842,93.9690686 158.296583,94.2902159 L158.400305,94.7480465 L158.400305,94.7480465 L158.506824,95.1590494 L158.506824,95.1590494 L158.615898,95.5246535 C159.185636,97.2987889 159.848104,97.3123036 160.454413,96.4521293 L160.571022,96.2749723 L160.571022,96.2749723 L160.685988,96.077425 L160.685988,96.077425 L160.799073,95.8609162 L160.799073,95.8609162 L160.910035,95.626875 L160.910035,95.626875 L161.018634,95.3767306 L161.018634,95.3767306 L161.124632,95.1119118 L161.124632,95.1119118 L161.278226,94.6902955 L161.278226,94.6902955 L161.376669,94.3950432 L161.376669,94.3950432 L161.471671,94.0901183 L161.471671,94.0901183 L161.607196,93.6177209 L161.607196,93.6177209 L161.733628,93.1315984 L161.733628,93.1315984 L161.850157,92.636574 L161.850157,92.636574 L161.955973,92.1374708 L161.955973,92.1374708 L162.020167,91.8048509 L162.020167,91.8048509 L162.106331,91.3096673 L162.106331,91.3096673 L162.179623,90.8232662 L162.179623,90.8232662 L162.239234,90.3504706 L162.239234,90.3504706 L162.284355,89.8961036 L162.284355,89.8961036 L162.314175,89.4649882 C162.378859,88.2307378 163.017333,86.5649689 164.135984,84.640687 L164.468584,84.0840072 C164.641336,83.8022996 164.823706,83.5156525 165.01542,83.2245702 L165.411228,82.6366416 C165.751315,82.1420223 166.116855,81.6360172 166.506584,81.1209615 L166.985787,80.4986998 C167.149338,80.2899308 167.316678,80.0798631 167.487727,79.8686463 L168.011917,79.2316975 L168.011917,79.2316975 L168.557873,78.5887502 C169.114549,77.9431025 169.703146,77.2898021 170.32148,76.6328841 L170.949646,75.9749096 L170.949646,75.9749096 L171.597151,75.3154201 L171.597151,75.3154201 L172.26351,74.6553122 C172.376114,74.5452925 172.489483,74.4352844 172.603608,74.3253066 L173.297339,73.6659525 C173.414445,73.5561705 173.532285,73.4464561 173.65085,73.3368281 L174.370861,72.6802453 L174.370861,72.6802453 L175.107786,72.0266308 L175.107786,72.0266308 L175.861139,71.3768815 C176.368743,70.9452029 176.886975,70.5166988 177.415189,70.0925648 L178.214916,69.4597909 L178.214916,69.4597909 L179.029131,68.8344688 C179.98731,68.109622 180.974077,67.4018201 181.985966,66.7174709 L182.421161,66.4256328 C189.426964,61.7675589 192.636129,55.4305032 193.787024,49.7514895 L193.908615,49.111519 L193.908615,49.111519 L194.01318,48.4779243 C194.07734,48.0578205 194.130523,47.6424696 194.173477,47.2328762 L194.230329,46.6229297 C194.312607,45.6139678 194.333288,44.6441297 194.304048,43.7291133 L194.280607,43.1868075 C194.275733,43.0975616 194.270383,43.0088952 194.264569,42.9208241 L194.224207,42.3996669 C194.216582,42.3140399 194.208517,42.2290395 194.200023,42.1446816 L194.144002,41.6463683 L194.144002,41.6463683 L194.078241,41.1642262 L194.078241,41.1642262 L194.003302,40.6990087 C193.990078,40.6229247 193.976495,40.5475773 193.962565,40.4729822 L193.919744,40.2514693 C192.648388,33.8939563 193.012694,24.8253701 196.512297,20.195157 L196.867816,19.7314346 L196.867816,19.7314346 L197.251523,19.2437237 C197.317823,19.1604395 197.385298,19.0761558 197.453947,18.9908725 L197.879936,18.4671788 L197.879936,18.4671788 L198.571772,17.6366597 L198.571772,17.6366597 L199.068231,17.0529946 L199.068231,17.0529946 L199.865773,16.1325185 L199.865773,16.1325185 L200.432702,15.488882 L200.432702,15.488882 L201.335949,14.4784489 L201.335949,14.4784489 L202.638937,13.0472448 L202.638937,13.0472448 L203.690171,11.9108718 L203.690171,11.9108718 L204.804829,10.7205246 L204.804829,10.7205246 L205.98291,9.47620318 L205.98291,9.47620318 L207.224414,8.17790755 L207.224414,8.17790755 L208.978411,6.36288682 C209.129276,6.207637 209.281315,6.05138766 209.434528,5.8941388 Z" id="路径-16" fill="#58E8D8"></path>
            <path d="M37.9917304,8.25887856 L40.9742623,5.09798606 C52.4573247,10.4225847 58.1988559,16.8327323 58.1988559,24.3284286 C58.1988559,27.048641 57.9174583,29.6486757 57.5345157,32.0966885 L57.3763492,33.0677102 C57.3492276,33.2281707 57.3217613,33.3879367 57.2940035,33.5469987 L57.1243859,34.4928477 L57.1243859,34.4928477 L56.9503316,35.4213489 L56.9503316,35.4213489 L56.2609056,38.9528162 L56.2609056,38.9528162 L56.0280334,40.1977722 L56.0280334,40.1977722 L55.8874894,41.0024724 C55.2863054,44.5772879 55.1330791,47.5219845 56.4767114,49.6508464 C56.804943,50.1708994 57.1880225,50.7441553 57.6153945,51.3575289 L58.1488257,52.1119961 C58.2410491,52.2406709 58.3348753,52.370741 58.4302199,52.5021018 L59.0198324,53.3049168 L59.0198324,53.3049168 L59.6418326,54.1336825 C59.747973,54.2736936 59.8552941,54.4145765 59.9637114,54.5562267 L60.6266932,55.4144971 L60.6266932,55.4144971 L61.3119295,56.2861563 L61.3119295,56.2861563 L62.0153671,57.1661794 L62.0153671,57.1661794 L62.7329528,58.0495416 L62.7329528,58.0495416 L63.4606332,58.931218 L63.4606332,58.931218 L64.1943552,59.8061838 L64.1943552,59.8061838 L64.9300655,60.6694143 C65.0526243,60.812029 65.1750972,60.9539453 65.2973996,61.0950585 L66.0284924,61.9312644 L66.0284924,61.9312644 L66.7514405,62.7431728 C66.8710279,62.8761869 66.9901071,63.0079793 67.1085936,63.1384452 L67.8117245,63.9044859 L67.8117245,63.9044859 L68.4965776,64.633667 C68.6089714,64.7518464 68.7204348,64.8682807 68.8308832,64.982865 L69.4807195,65.6473354 C70.2230768,66.3946986 70.9074282,67.0411594 71.5048099,67.5508113 L71.7719232,67.7716778 L71.7719232,67.7716778 L72.0549916,67.9931403 L72.0549916,67.9931403 L72.3529285,68.2158062 L72.3529285,68.2158062 L72.6646473,68.4402827 L72.6646473,68.4402827 L73.3250845,68.8970965 L73.3250845,68.8970965 L75.3321633,70.2428644 L75.3321633,70.2428644 L75.9110219,70.6422459 L75.9110219,70.6422459 L76.4964422,71.0593645 L76.4964422,71.0593645 L76.888557,71.3483097 L76.888557,71.3483097 L77.2808717,71.6466563 L77.2808717,71.6466563 L77.6722998,71.9550115 L77.6722998,71.9550115 L78.0617548,72.2739826 C78.1264392,72.3280628 78.1909961,72.3826107 78.2554028,72.4376388 L78.6398608,72.7736723 L78.6398608,72.7736723 L79.0196292,73.1218399 C79.2081599,73.2990584 79.3945246,73.4810548 79.5781121,73.6681709 L79.9414029,74.0493303 L79.9414029,74.0493303 L80.2962013,74.4447491 C80.3545663,74.5118743 80.4125321,74.5796189 80.4700762,74.6479956 L80.8100985,75.0659422 C83.0965247,77.975126 84.5978613,81.989399 83.7539695,87.9806997 C83.7156856,88.2525001 83.6771214,88.5151542 83.6383032,88.7688844 L83.5211136,89.5035263 L83.5211136,89.5035263 L83.4025598,90.1859612 L83.4025598,90.1859612 L83.2828012,90.8175247 C83.2627498,90.9186202 83.2426549,91.0176518 83.2225197,91.1146471 L83.1012521,91.6724082 L83.1012521,91.6724082 L82.9791775,92.1826373 L82.9791775,92.1826373 L82.8564552,92.6466703 L82.8564552,92.6466703 L82.7332441,93.0658428 C82.671543,93.2644365 82.6097183,93.4467085 82.5478597,93.6134101 L82.4241235,93.9262754 C81.8054813,95.3890255 81.1894082,95.3448263 80.6654431,94.5450379 L80.5619047,94.3752283 L80.5619047,94.3752283 L80.4609817,94.1866054 L80.4609817,94.1866054 L80.3628332,93.980505 L80.3628332,93.980505 L80.2676186,93.7582628 L80.2676186,93.7582628 L80.1754968,93.5212146 L80.1754968,93.5212146 L80.0866272,93.2706961 L80.0866272,93.2706961 L79.9597687,92.8725835 L79.9597687,92.8725835 L79.8797258,92.5942331 L79.8797258,92.5942331 L79.7668534,92.1606341 L79.7668534,92.1606341 L79.6966321,91.8628004 L79.6966321,91.8628004 L79.6306179,91.5595109 L79.6306179,91.5595109 L79.5689702,91.2521014 L79.5689702,91.2521014 L79.5118479,90.9419076 L79.5118479,90.9419076 L79.4349982,90.4743184 L79.4349982,90.4743184 L79.3898863,90.1630078 L79.3898863,90.1630078 L79.3317982,89.7000047 L79.3317982,89.7000047 L79.2856834,89.2457642 L79.2856834,89.2457642 L79.2618573,88.9500315 L79.2618573,88.9500315 L79.2368918,88.5204134 L79.2368918,88.5204134 L79.2276627,88.2452699 L79.2276627,88.2452699 L79.224551,87.9806997 C79.224551,86.3913411 78.2031511,83.9804296 76.377493,81.1868348 L75.9740496,80.5825099 C75.8355179,80.3792224 75.6929619,80.1741424 75.5464609,79.9674298 L75.0952016,79.3425542 L75.0952016,79.3425542 L74.6207466,78.7088427 C74.2158344,78.1773346 73.7872545,77.6376222 73.3362435,77.0922042 L72.7843424,76.4351241 C72.5030875,76.1053746 72.2139354,75.7739311 71.9171532,75.4413332 L71.3134944,74.7747584 C71.2112155,74.6634594 71.1081085,74.5520721 71.0041834,74.4406165 L70.3708945,73.7712238 C68.9778404,72.3197906 67.4498684,70.8635756 65.8087104,69.4465016 L65.0432951,68.7954067 L65.0432951,68.7954067 L64.2622809,68.1508299 C63.3421829,67.402999 62.3912064,66.6704352 61.4127442,65.9599959 L60.9917304,65.6568964 C55.1397861,61.4798035 52.3038865,56.199077 51.1879224,51.317159 L51.0547023,50.6962176 C50.9513051,50.1807648 50.8667488,49.670549 50.7994729,49.1673792 L50.7269366,48.5670731 C50.6624952,47.9703807 50.6220387,47.3848762 50.6028707,46.8136856 L50.590699,46.2473821 C50.5898197,46.1538319 50.5895069,46.0607084 50.589748,45.9680258 L50.5977411,45.4173384 C50.6049612,45.1447566 50.6169417,44.8764045 50.6333454,44.6126728 L50.6719506,44.0914855 L50.6719506,44.0914855 L50.7217521,43.5833139 C50.730952,43.4997419 50.7405935,43.4167411 50.7506641,43.334326 L50.8161363,42.8469803 C50.8278731,42.766966 50.8400141,42.6875665 50.8525466,42.608796 L50.9323413,42.143839 L50.9323413,42.143839 L51.0209352,41.6946761 L51.0209352,41.6946761 L51.1177293,41.2620019 L51.1177293,41.2620019 L51.2221241,40.846511 C52.7700603,35.0176075 52.877104,26.5972963 49.735056,22.1371722 L49.3984377,21.6666846 L49.3984377,21.6666846 L49.0331056,21.1701193 L49.0331056,21.1701193 L48.6390595,20.6474761 L48.6390595,20.6474761 L48.2162995,20.0987551 L48.2162995,20.0987551 L47.528321,19.2267777 L47.528321,19.2267777 L47.0337763,18.6128622 L47.0337763,18.6128622 L46.5105177,17.9728688 L46.5105177,17.9728688 L45.6717912,16.9639828 L45.6717912,16.9639828 L44.7684585,15.8964218 L44.7684585,15.8964218 L43.8005195,14.7701856 L43.8005195,14.7701856 L43.1193344,13.9867643 L43.1193344,13.9867643 L42.0437183,12.7627363 L42.0437183,12.7627363 L40.5090648,11.0394267 L40.5090648,11.0394267 L38.8595558,9.21180575 L38.8595558,9.21180575 L37.9917304,8.25887856 L37.9917304,8.25887856 Z" id="路径-16备份-2" fill="#ED5F46"></path>
            <path d="M260.167384,51.8237877 L259.408939,49.6215794 C259.252204,49.1665553 258.793594,48.8876971 258.317486,48.9579414 C252.912359,49.7554077 249.353325,51.7649271 247.640384,54.9864996 C246.712977,56.7306993 246.053131,58.1891298 245.477459,59.6119039 L245.170702,60.3859297 L245.170702,60.3859297 L244.874027,61.1619029 L244.874027,61.1619029 L244.580821,61.9488435 L244.580821,61.9488435 L243.81958,64.0233698 L243.81958,64.0233698 L243.486434,64.9197273 L243.486434,64.9197273 L243.126995,65.8676414 C243.06453,66.0304246 243.000694,66.1957317 242.935349,66.3637509 L242.524072,67.4059121 C242.308278,67.9447677 242.076425,68.511413 241.824791,69.1109219 C239.847042,73.8228512 237.088126,75.0915588 234.436006,75.4181845 L234.057955,75.4587067 L234.057955,75.4587067 L233.681931,75.4880318 C233.619461,75.4920763 233.5571,75.4957218 233.49486,75.4990019 L233.122957,75.5145699 L233.122957,75.5145699 L232.571783,75.5250296 L232.571783,75.5250296 L231.675765,75.5215869 C231.530458,75.5199779 231.381246,75.5203118 231.228749,75.5224947 L230.76203,75.5344967 C230.682809,75.5373903 230.602922,75.5407228 230.522447,75.5444824 L230.033163,75.5720715 C229.950647,75.5774927 229.867698,75.5833176 229.784395,75.5895344 L229.280934,75.6314454 L229.280934,75.6314454 L228.772681,75.6822014 C228.68778,75.6913666 228.602835,75.7008769 228.517923,75.7107206 L228.009472,75.7736899 C227.925004,75.7848203 227.840725,75.7962607 227.756712,75.8079994 L227.256451,75.8819167 L227.256451,75.8819167 L226.76631,75.9624298 L226.76631,75.9624298 L226.290017,76.0489764 L226.290017,76.0489764 L225.831298,76.1409943 L225.831298,76.1409943 L225.393883,76.237921 L225.393883,76.237921 L224.981499,76.3391943 C224.848624,76.373614 224.720542,76.4086644 224.597874,76.4442518 L224.246735,76.5525314 C223.468212,76.8085053 222.985441,77.0861997 223.011529,77.3534696 C223.027294,77.480863 223.094293,77.6790351 223.192749,77.9141394 L223.324731,78.2118258 L223.324731,78.2118258 L223.479317,78.5319699 L223.479317,78.5319699 L223.648914,78.8615747 L223.648914,78.8615747 L223.825927,79.1876431 L223.825927,79.1876431 L224.002761,79.4971779 L224.002761,79.4971779 L224.171822,79.7771821 L224.171822,79.7771821 L224.325516,80.0146585 C224.468996,80.2265387 224.578032,80.3551316 224.618452,80.3419502 C226.318126,79.9628312 227.515125,79.9040703 228.595533,79.9578673 L229.052552,79.9872086 C229.127907,79.9930454 229.202949,79.999305 229.277818,80.0059118 L229.950775,80.072699 L229.950775,80.072699 L230.872936,80.1696998 L230.872936,80.1696998 L231.359877,80.2134292 L231.359877,80.2134292 L231.873063,80.2491311 L231.873063,80.2491311 L232.419249,80.2731708 C233.549122,80.3071644 234.917511,80.2493738 236.767548,79.9689395 C241.084301,79.3145928 243.926109,75.4388731 245.556632,72.0426595 L245.804055,71.5109396 C245.8832,71.3353876 245.959028,71.1617035 246.031577,70.9904267 L246.239428,70.4843583 C246.272444,70.4013971 246.304649,70.3191727 246.336049,70.2377524 L246.514826,69.7594207 C246.543025,69.681487 246.570428,69.6044924 246.59704,69.5285042 L246.747262,69.0851934 L246.747262,69.0851934 L246.878736,68.6692766 L246.878736,68.6692766 L246.991692,68.2839911 L246.991692,68.2839911 L247.086361,67.9325744 L247.086361,67.9325744 L247.238708,67.3280055 L247.238708,67.3280055 L247.37041,66.837934 L247.37041,66.837934 L247.521108,66.3063662 L247.521108,66.3063662 L247.689895,65.7393044 L247.689895,65.7393044 L247.875866,65.142751 L247.875866,65.142751 L248.078113,64.5227081 L248.078113,64.5227081 L248.295728,63.8851781 L248.295728,63.8851781 L248.527806,63.2361633 C248.607475,63.0185778 248.689403,62.8000785 248.773439,62.5816659 L249.031721,61.9276881 C250.044884,59.4294392 251.316847,57.0749456 252.617731,56.3856598 L253.067441,56.1509343 L253.067441,56.1509343 L253.563081,55.8989877 L253.563081,55.8989877 L254.392662,55.4887782 L254.392662,55.4887782 L255.325586,55.0398213 L255.325586,55.0398213 L256.004948,54.7189903 L256.004948,54.7189903 L257.501465,54.025665 L257.501465,54.025665 L259.181703,53.2634553 C259.329377,53.1970677 259.478966,53.1299625 259.630469,53.0621397 C260.10304,52.8505995 260.335982,52.3133255 260.167384,51.8237877 Z" id="路径-16备份" fill="#E86958"></path>
            <path d="M13.8336146,16.8770818 L13.8336146,22.490055 C15.7430142,23.4547923 17.1351719,24.6829815 18.0100876,26.1746226 C19.3224611,28.4120842 19.4380266,34.4102175 23.1564183,36.43346 C25.6353461,37.7822884 29.849824,38.1859222 35.799852,37.6443614 L37.0558521,32.0645189 C32.308238,32.2997841 28.4378651,31.1619803 25.4447334,28.6511075 C20.9550357,24.8847984 23.5628708,22.6156381 20.7864792,19.74636 C18.9355514,17.8335078 16.6179299,16.8770818 13.8336146,16.8770818 Z" id="路径-17" fill="#58E894"></path>
            <path d="M15.3395969,53.0894671 L8.66051444,50.5213482 C4.91889591,58.1012193 4.28501045,63.7328289 6.75885804,67.4161769 C8.2431666,69.6261857 11.4434898,71.185461 14.8963342,72.5511925 L15.7639592,72.8888578 L15.7639592,72.8888578 L16.6370244,73.2200462 L16.6370244,73.2200462 L19.238045,74.190625 L19.238045,74.190625 L20.082055,74.5117807 L20.082055,74.5117807 L20.9060972,74.8343968 C23.8847672,76.0219403 26.3582761,77.2709504 27.1993614,78.9335797 C28.4737331,81.4527151 28.1467278,85.5672779 26.2183456,91.2772682 L25.9170779,92.1457325 C25.7082259,92.7326858 25.4833602,93.3355933 25.2424806,93.9544552 L24.869151,94.8947137 L24.869151,94.8947137 L30.2957764,96.4942216 L30.757372,95.5808003 L30.757372,95.5808003 L31.1963016,94.6923667 L31.1963016,94.6923667 L31.6125653,93.8289211 C31.7475422,93.5452705 31.8787414,93.2657845 32.0061629,92.9904632 L32.3770946,92.1769932 C32.4969608,91.9100011 32.6130494,91.6471737 32.7253603,91.3885109 L33.05096,90.6250165 C33.1033378,90.4998498 33.1547711,90.3757242 33.2052601,90.2526398 L33.4968608,89.5266271 C33.543572,89.4077073 33.5893389,89.2898287 33.6341614,89.1729912 L33.8917631,88.4844603 C33.9328078,88.3717875 33.9729082,88.2601558 34.0120642,88.1495653 L34.2356669,87.4985161 C35.0847458,84.944295 35.3898408,82.9897817 35.150952,81.6349761 C34.827074,79.7981724 32.4943482,77.8795923 29.3563607,76.0953218 L28.7183831,75.7403225 C28.5023826,75.622629 28.2831599,75.5055965 28.0610714,75.3892889 L27.3865656,75.0426053 L27.3865656,75.0426053 L26.6970052,74.7006557 L26.6970052,74.7006557 L25.9945301,74.3638243 L25.9945301,74.3638243 L25.2812798,74.0324952 L25.2812798,74.0324952 L24.5593941,73.7070526 L24.5593941,73.7070526 L23.8310128,73.3878807 L23.8310128,73.3878807 L23.0982755,73.0753636 L23.0982755,73.0753636 L22.3633219,72.7698855 L22.3633219,72.7698855 L21.6282918,72.4718305 L21.6282918,72.4718305 L20.8953248,72.1815827 L20.8953248,72.1815827 L19.8044233,71.7616901 L19.8044233,71.7616901 L18.7301999,71.3615246 L18.7301999,71.3615246 L17.336327,70.8608983 C17.2224168,70.8208221 17.1091274,70.7811673 16.9965035,70.7419418 C12.8234348,69.2885141 11.8148271,64.7756765 13.9706803,57.2034289 L14.2008284,56.4228232 L14.2008284,56.4228232 L14.4527942,55.6211242 C14.7156687,54.8088784 15.0112696,53.9649928 15.3395969,53.0894671 Z" id="路径-18" fill="#FFCE5C"></path>
            <path d="M91.9055955,87.0112796 C91.005268,88.0897184 91.005268,89.7071126 91.9055955,91.863462 C92.8059231,94.0198114 93.5676108,95.6237146 94.1906587,96.6751718 L99.4150851,96.6751718 C98.1736438,95.0165329 97.5529232,93.4126296 97.5529232,91.863462 C97.5529232,90.3142943 97.5529232,88.6969002 97.5529232,87.0112796 L91.9055955,87.0112796 Z" id="路径-19" fill="#58E8D8"></path>
            <path d="M238.739839,117.01128 C239.640167,118.089718 239.640167,119.707113 238.739839,121.863462 L238.408715,122.646197 C238.354611,122.772337 238.301049,122.896319 238.248027,123.018143 L237.9364,123.72319 L237.9364,123.72319 L237.637769,124.376446 C237.589081,124.481006 237.540934,124.583408 237.493328,124.683651 L237.214194,125.259219 L237.214194,125.259219 L236.948057,125.782995 C236.904784,125.865975 236.862053,125.946797 236.819863,126.025461 L236.573222,126.47155 C236.533199,126.541582 236.493717,126.609456 236.454776,126.675172 L231.23035,126.675172 C232.471791,125.016533 233.092512,123.41263 233.092512,121.863462 L233.092512,117.01128 L233.092512,117.01128 L238.739839,117.01128 Z" id="路径-19备份-5" fill="#58E8D8"></path>
            <path d="M0.96353737,110.481795 C1.80801142,113.286986 4.02557385,115.559558 7.61622463,117.299511 C11.2068754,119.039464 13.6022807,119.358148 14.8024404,118.255562 L18.1598244,112.27098 C18.4300166,111.789315 18.2586076,111.179807 17.7769528,110.909596 C17.6018072,110.811339 17.4011345,110.768093 17.2010648,110.78549 C14.6654838,111.005976 12.6095634,110.454899 11.0333035,109.13226 C9.06849474,107.483589 7.92946844,105.290646 7.61622463,102.553431 L0.96353737,110.481795 Z" id="路径-19备份" fill="#58E894"></path>
            <path d="M202.75993,100.746844 C204.143708,102.982666 206.594174,104.437756 210.111328,105.112116 C213.628481,105.786475 215.779238,105.506305 216.563598,104.271605 L218.036694,98.4893275 C218.173008,97.9541456 217.84969,97.4097741 217.314515,97.2734326 C217.124882,97.2251215 216.925241,97.2335132 216.740331,97.2975677 C214.6613,98.0177622 212.806702,97.9977805 211.176539,97.2376226 C209.090134,96.2647163 207.593217,94.6281153 206.685786,92.3278198 L202.75993,100.746844 Z" id="路径-19备份-3" fill="#58E894"></path>
            <path d="M166.676583,152.561708 C163.437352,153.263142 160.230276,155.409464 157.055355,159.000674 L156.557446,159.572995 C156.316962,159.854137 156.089186,160.127751 155.874116,160.393836 L155.46092,160.915969 L155.46092,160.915969 L155.081609,161.418028 C153.390558,163.714125 152.806425,165.354438 153.329211,166.338966 L158.477032,170.304413 C158.914558,170.641435 159.542455,170.55997 159.879484,170.122449 C159.964559,170.012007 160.025602,169.884997 160.058694,169.749571 C160.756829,166.89249 162.154886,164.644388 164.252867,163.005266 C166.714824,161.081774 169.429097,160.040628 172.395688,159.881828 L166.676583,152.561708 Z" id="路径-19备份-4" fill="#58E8D8"></path>
            <path d="M43.2303399,125.40049 C42.6348048,123.42223 41.0709481,121.81958 38.5387699,120.59254 C36.0065917,119.3655 34.3173177,119.140759 33.4709479,119.918319 L31.3672089,123.668261 C31.0970162,124.149927 31.2684253,124.759435 31.7500803,125.029646 C31.9087829,125.118679 32.0887719,125.162719 32.2706536,125.157021 C33.8349051,125.108015 35.1210196,125.506408 36.128997,126.352202 C37.0465472,127.122118 37.7087311,128.060346 38.1155486,129.166885 C38.3061405,129.685228 38.880835,129.950946 39.3991858,129.760376 C39.5629046,129.700185 39.7080308,129.598215 39.820154,129.464592 L43.2303399,125.40049 Z" id="路径-19备份-2" fill="#ED5F46"></path>
            <path d="M18.0121207,150.084747 C27.2506589,153.49045 32.2661249,156.36055 33.0585186,158.695046 C33.1790805,158.905519 34.8063658,157.566396 35.7558357,158.695046 C36.3888156,159.44748 36.7053055,157.286674 36.7053055,152.21263 C30.6191133,147.707566 25.9962248,145.455033 22.8366402,145.455033 C19.6770556,145.455033 18.0688824,145.455033 18.0121207,145.455033 L18.0121207,150.084747 Z" id="路径-20" fill="#58E8D8"></path>
            <path d="M70.9960981,146.673673 L73.7613594,146.770238 L74.0700393,147.566253 C74.1211112,147.695499 74.1719958,147.823033 74.2226929,147.948856 L74.5246274,148.683253 C74.5745751,148.802229 74.6243353,148.919494 74.6739083,149.035047 L74.9690973,149.707825 L74.9690973,149.707825 L75.2597894,150.339525 L75.2597894,150.339525 L75.5459845,150.930146 C76.6817712,153.210472 77.709631,154.504907 78.629564,154.813452 C78.6490659,154.824094 78.6448076,154.853562 78.6263914,154.897691 L78.5735274,155.004265 L78.5735274,155.004265 L78.4999804,155.142533 C78.3566172,155.420554 78.1950442,155.821041 78.4886279,156.138708 L78.5803367,156.223137 C78.7498331,156.357268 78.6594611,156.457509 78.309221,156.52386 L78.1124452,156.554211 C78.07604,156.558799 78.0378301,156.563152 77.9978156,156.567269 L77.7360727,156.589148 L77.7360727,156.589148 L77.4310185,156.605378 L77.4310185,156.605378 L76.8922284,156.619133 L76.8922284,156.619133 L76.2559877,156.620179 L76.2559877,156.620179 L75.5222963,156.608517 L75.5222963,156.608517 L74.6911544,156.584146 L74.6911544,156.584146 C72.1114198,153.309385 70.8503845,150.846365 70.9080484,149.195087 L70.9960981,146.673673 L70.9960981,146.673673 Z" id="路径-20备份-4" fill="#A246ED"></path>
            <path d="M205.717157,145.948978 L202.322019,146.608926 L202.17058,147.520678 C202.145149,147.669757 202.119623,147.817395 202.094002,147.963594 L201.939129,148.823504 L201.939129,148.823504 L201.781967,149.648854 L201.781967,149.648854 L201.622515,150.439642 L201.622515,150.439642 L201.460774,151.19587 C201.433626,151.319028 201.406383,151.440746 201.379045,151.561024 L201.21387,152.26541 C201.15843,152.494445 201.102609,152.71772 201.046406,152.935235 L200.876652,153.570499 L200.876652,153.570499 L200.704609,154.171203 L200.704609,154.171203 L200.530276,154.737345 C200.50103,154.828822 200.471689,154.918859 200.442252,155.007456 L200.264485,155.521756 L200.264485,155.521756 L200.08443,156.001496 C199.480428,157.543028 198.838271,158.508543 198.157958,158.898042 C198.134111,158.918674 198.151148,158.966129 198.191928,159.034971 L198.268764,159.153594 L198.268764,159.153594 L198.42268,159.382762 L198.42268,159.382762 L198.532319,159.56375 C198.728659,159.913135 198.877742,160.352322 198.623131,160.768266 L198.543415,160.881044 C198.338378,161.135537 198.54641,161.26204 199.16751,161.260566 L199.419785,161.253996 C199.465058,161.251904 199.511944,161.249311 199.560444,161.246218 L199.870807,161.221663 L199.870807,161.221663 L200.219895,161.185108 L200.219895,161.185108 L200.607707,161.136555 L200.607707,161.136555 L201.034245,161.076002 L201.034245,161.076002 L201.499509,161.003451 L201.499509,161.003451 L202.270013,160.872125 L202.270013,160.872125 L203.43289,160.655028 L203.43289,160.655028 C205.866879,155.538426 206.858115,151.8187 206.406598,149.495849 L205.717157,145.948978 L205.717157,145.948978 Z" id="路径-20备份-3" fill="#ED5F46"></path>
            <path d="M100.501371,113.318587 L104.951737,114.594709 L105.032144,115.630688 L105.032144,115.630688 L105.11752,116.63447 L105.11752,116.63447 L105.207864,117.606054 L105.207864,117.606054 L105.303176,118.545442 C105.319476,118.699323 105.335982,118.851863 105.352696,119.003061 L105.45546,119.894153 C105.473002,120.039985 105.49075,120.184475 105.508706,120.327624 L105.618923,121.17042 C105.637706,121.308203 105.656697,121.444644 105.675894,121.579744 L105.793563,122.374243 L105.793563,122.374243 L105.916201,123.136545 L105.916201,123.136545 L106.043807,123.86665 L106.043807,123.86665 L106.176381,124.564558 L106.176381,124.564558 L106.313923,125.230269 C106.337261,125.338537 106.360805,125.445464 106.384557,125.55105 L106.529552,126.168464 C106.554131,126.268684 106.578918,126.367562 106.603912,126.465098 L106.756359,127.034216 C107.401904,129.338467 108.176831,130.804246 109.081138,131.431555 C109.113655,131.464998 109.075726,131.536209 108.999096,131.638128 L108.684857,132.02895 C108.318012,132.497778 107.888595,133.179448 108.253773,133.88336 L108.337657,134.024383 C108.544986,134.332596 108.365106,134.48279 107.798015,134.474965 L107.581788,134.465641 C107.54307,134.462994 107.503013,134.4598 107.461615,134.456059 L107.197154,134.427052 L107.197154,134.427052 L106.900537,134.384922 L106.900537,134.384922 L106.571764,134.329669 L106.571764,134.329669 L106.210835,134.261294 L106.210835,134.261294 L105.60915,134.134126 L105.60915,134.134126 L104.935114,133.977432 L104.935114,133.977432 L104.188728,133.791212 L104.188728,133.791212 L103.369991,133.575466 L103.369991,133.575466 L102.478903,133.330194 L102.478903,133.330194 L101.84465,133.150276 L101.84465,133.150276 L101.485903,132.173827 L101.485903,132.173827 L101.150027,131.223694 C101.095954,131.067532 101.042833,130.912466 100.990665,130.758497 L100.689094,129.84784 C100.640738,129.698257 100.593335,129.549771 100.546884,129.402381 L100.279618,128.531199 C98.872543,123.812073 98.503188,120.287078 99.1715528,117.956213 L100.501371,113.318587 L100.501371,113.318587 Z" id="路径-20备份" fill="#ED5F46"></path>
            <path d="M191.215666,116.819352 L191.538618,121.437787 L190.592617,121.867671 L190.592617,121.867671 L189.678571,122.291212 L189.678571,122.291212 L188.79648,122.708409 L188.79648,122.708409 L187.946343,123.119263 L187.946343,123.119263 L187.128162,123.523773 L187.128162,123.523773 L186.341935,123.921939 L186.341935,123.921939 L185.587662,124.313763 L185.587662,124.313763 L184.865345,124.699242 L184.865345,124.699242 L184.174982,125.078378 C184.062585,125.141039 183.951518,125.203435 183.841784,125.265567 L183.199353,125.635188 L183.199353,125.635188 L182.588877,125.998465 C182.489794,126.058483 182.392043,126.118236 182.295623,126.177725 L181.733079,126.531487 C181.55089,126.648351 181.374027,126.764157 181.20249,126.878906 L180.703856,127.219981 L180.703856,127.219981 L180.237177,127.554712 C180.16206,127.609972 180.088274,127.664968 180.01582,127.719699 L179.597073,128.044915 C178.187379,129.172071 177.364853,130.182665 177.129497,131.076696 C177.114413,131.107892 177.066449,131.109685 176.992774,131.093316 L176.863876,131.056544 L176.863876,131.056544 L176.4082,130.900743 L176.4082,130.900743 L176.186674,130.835002 C175.65093,130.690798 174.997871,130.633893 174.53493,131.146186 L174.43875,131.264851 C174.220035,131.565092 174.017376,131.447429 173.830773,130.911862 L173.76558,130.705486 L173.76558,130.705486 L173.70172,130.464405 L173.70172,130.464405 L173.639194,130.188619 L173.639194,130.188619 L173.578,129.878129 C173.567913,129.823488 173.55788,129.767402 173.547904,129.709869 L173.488711,129.347321 L173.488711,129.347321 L173.430851,128.950069 L173.430851,128.950069 L173.346561,128.289118 L173.346561,128.289118 L173.265271,127.550082 L173.265271,127.550082 L173.186982,126.73296 L173.186982,126.73296 L173.111692,125.837752 L173.111692,125.837752 L173.039403,124.864458 L173.039403,124.864458 C178.796512,119.945816 183.251011,117.376295 186.402899,117.155893 L191.215666,116.819352 L191.215666,116.819352 Z" id="路径-20备份-2" fill="#ED5F46"></path>
        </g>
    </g>
</svg>