<?xml version="1.0" standalone="no"?><!DOCTYPE svg PUBLIC "-//W3C//DTD SVG 1.1//EN" "http://www.w3.org/Graphics/SVG/1.1/DTD/svg11.dtd"><svg t="1667458574239" class="icon" viewBox="0 0 1024 1024" version="1.1" xmlns="http://www.w3.org/2000/svg" p-id="7455" xmlns:xlink="http://www.w3.org/1999/xlink" width="200" height="200"><path d="M556.8 742.2H341.9c-52.6 0-95.2-42.6-95.2-95.2V417.4H652V647c0 52.6-42.6 95.2-95.2 95.2z" fill="#F9C933" p-id="7456"></path><path d="M556.5 751.8H342.2c-58 0-105.1-47.2-105.1-105.1v-239h424.6v239c-0.1 58-47.2 105.1-105.2 105.1zM256.4 427.1v219.6c0 47.3 38.5 85.8 85.8 85.8h214.3c47.3 0 85.8-38.5 85.8-85.8V427.1H256.4z" fill="#603813" p-id="7457"></path><path d="M725 681.3c-3.1 0-6.1-1.5-8-4.2-3-4.4-1.9-10.4 2.6-13.4 30.1-20.4 48.1-54.3 48.1-90.6 0-60.4-49.1-109.5-109.5-109.5-5.3 0-9.7-4.3-9.7-9.7s4.3-9.7 9.7-9.7c71 0 128.8 57.8 128.8 128.8 0 42.7-21.1 82.6-56.5 106.6-1.8 1.2-3.7 1.7-5.5 1.7zM314.2 361.4c-5.3 0-9.7-4.3-9.7-9.7V251.4c0-5.3 4.3-9.7 9.7-9.7 5.3 0 9.7 4.3 9.7 9.7v100.4c0 5.3-4.3 9.6-9.7 9.6zM432.9 387.7c-5.3 0-9.7-4.3-9.7-9.7V205.5c0-5.3 4.3-9.7 9.7-9.7 5.3 0 9.7 4.3 9.7 9.7V378c0 5.4-4.3 9.7-9.7 9.7zM557.3 346.5c-5.3 0-9.7-4.3-9.7-9.7v-70.6c0-5.3 4.3-9.7 9.7-9.7 5.3 0 9.7 4.3 9.7 9.7v70.6c0 5.4-4.4 9.7-9.7 9.7z" fill="#603813" p-id="7458"></path><path d="M609.1 828.2H289.7c-5.3 0-9.7-4.3-9.7-9.7s4.3-9.7 9.7-9.7h319.4c5.3 0 9.7 4.3 9.7 9.7s-4.4 9.7-9.7 9.7z" fill="#603813" p-id="7459"></path></svg>