<?xml version="1.0" standalone="no"?><!DOCTYPE svg PUBLIC "-//W3C//DTD SVG 1.1//EN" "http://www.w3.org/Graphics/SVG/1.1/DTD/svg11.dtd"><svg t="1667459799476" class="icon" viewBox="0 0 1024 1024" version="1.1" xmlns="http://www.w3.org/2000/svg" p-id="1951" xmlns:xlink="http://www.w3.org/1999/xlink" width="200" height="200"><path d="M475.4432 919.2704V332.4672l77.952-161.28 113.2288 157.0816v170.368h-45.4144s-12.544 17.9456-6.6304 60.7744 27.5456 359.808 27.5456 359.808h-166.6816z" fill="#938FC1" p-id="1952"></path><path d="M226.0992 96.6912v66.56l-116.352 181.8112v572.5952l355.584 1.6128 10.9312-545.792v-32.512l75.9808-165.1968V99.1232z" fill="#A8A7D3" p-id="1953"></path><path d="M585.5744 955.8016H138.9056c-32.384 0-58.7264-26.3424-58.7264-58.7264V333.184c0-4.5568 1.3568-8.9856 3.8656-12.7744l111.1552-166.7584V89.0624a23.04 23.04 0 0 1 23.04-23.04h339.8912a23.04 23.04 0 0 1 23.04 23.04V154.368l110.5408 150.0416a23.05792 23.05792 0 0 1 4.48 13.6704v126.2336a23.04 23.04 0 0 1-46.08 0V325.632l-110.5408-150.0416a23.05792 23.05792 0 0 1-4.48-13.6704V112.1024H241.3056v48.5376c0 4.5568-1.3568 8.9856-3.8656 12.7744l-111.1552 166.7584v556.928c0 6.9632 5.6576 12.6464 12.6464 12.6464h446.6944c12.7232 0 23.04 10.3168 23.04 23.04s-10.3424 23.0144-23.0912 23.0144z" fill="#474E54" p-id="1954"></path><path d="M872.9344 955.8016h-203.4176c-25.3184 0-46.6432-19.7632-48.5632-45.0048l-29.2608-383.5392a42.752 42.752 0 0 1 11.2384-32.2048c8.0384-8.6784 19.4304-13.6448 31.2576-13.6448h274.0736c11.8272 0 23.2192 4.9664 31.2576 13.6448s12.1344 20.4288 11.2384 32.2048l-29.2608 383.5392c-1.92 25.2416-23.2704 45.0048-48.5632 45.0048z m-235.0336-428.3392l28.9792 379.8272c0.1024 1.3568 1.2544 2.432 2.6368 2.432h203.4176c1.3568 0 2.5088-1.0752 2.6112-2.432l28.9792-379.8272H637.9008z m270.3616 0z" fill="#474E54" p-id="1955"></path><path d="M621.2096 611.6096l22.6816 297.4208c1.024 13.3888 12.1856 23.7056 25.6 23.7056h203.4176c13.4144 0 24.576-10.3424 25.6-23.7056l22.6816-297.4208H621.2096z" fill="#DADAF7" p-id="1956"></path><path d="M872.9344 955.8016h-203.4176c-25.3184 0-46.6432-19.7632-48.5632-45.0048L598.272 613.376a23.01696 23.01696 0 0 1 22.9632-24.7808h300.0064c6.4256 0 12.544 2.6624 16.896 7.3728s6.5536 11.008 6.0672 17.408l-22.7072 297.4208c-1.92 25.2416-23.2704 45.0048-48.5632 45.0048z m-226.8416-321.1264l20.8128 272.64c0.1024 1.3568 1.2544 2.432 2.6368 2.432H872.96c1.3568 0 2.5088-1.0752 2.6112-2.432l20.8128-272.64h-250.2912zM558.1312 186.2912H274.4576a23.04 23.04 0 0 1 0-46.08h283.6736a23.04 23.04 0 0 1 0 46.08zM613.0432 358.1952H109.7472a23.04 23.04 0 0 1 0-46.08h503.296a23.04 23.04 0 0 1 0 46.08z" fill="#474E54" p-id="1957"></path><path d="M475.4432 351.3344c-3.4304 0-6.9376-0.768-10.2144-2.4064-11.392-5.6576-16.0768-19.4816-10.4192-30.8736l53.9136-108.8256a23.06304 23.06304 0 0 1 30.8736-10.4192c11.392 5.6576 16.0768 19.4816 10.4192 30.8736l-53.9136 108.8256a23.05024 23.05024 0 0 1-20.6592 12.8256zM475.4432 951.3472a23.04 23.04 0 0 1-23.04-23.04V392.0128a23.04 23.04 0 0 1 46.08 0v536.2944a23.04 23.04 0 0 1-23.04 23.04z" fill="#474E54" p-id="1958"></path><path d="M103.2192 431.232s105.8816-31.3856 129.408 23.5264 16.9984 78.4384 53.6064 98.048 70.5792 101.9648 20.9152 138.5728c-49.664 36.608-100.6592 6.528-126.7968-14.3872s-66.6624 1.7152-77.1328 31.5648V431.232z" fill="#DADAF7" p-id="1959"></path><path d="M103.2192 731.5968c-1.28 0-2.5856-0.1024-3.8656-0.3328a23.0272 23.0272 0 0 1-19.1744-22.7072V431.232c0-10.2144 6.7072-19.2 16.4864-22.0928 12.8512-3.8144 126.4128-35.1232 157.1328 36.5312 7.8336 18.2784 12.544 33.3312 16.3328 45.4144 7.7824 24.8832 10.1376 32.384 26.9824 41.3952 30.0032 16.0768 54.8096 58.5216 57.7024 98.7392 2.3552 32.8448-9.7024 60.8-33.9968 78.6688-45.056 33.2032-101.504 27.7504-154.8544-14.9248-4.0192-3.2256-9.2928-3.9168-15.6928-2.0992-11.0336 3.1744-21.6832 12.9536-25.2928 23.296a23.0912 23.0912 0 0 1-21.76 15.4368z m53.7344-85.8112c13.8752 0 26.8544 4.48 37.7856 13.2096 37.376 29.9008 70.6048 34.56 98.7392 13.824 11.4176-8.4224 16.5888-21.2992 15.36-38.2976-1.92-26.6496-19.1744-53.76-33.4848-61.4144-33.4336-17.92-40.7296-41.2416-49.1776-68.2496-3.6608-11.6736-7.7824-24.8832-14.6944-41.0368-10.24-23.9104-57.3696-19.7888-85.1968-14.3872V652.8c3.6608-1.6896 7.424-3.0976 11.2896-4.1984 6.528-1.8944 13.056-2.816 19.3792-2.816z" fill="#474E54" p-id="1960"></path><path d="M475.4432 712.6016s-74.5216-37.248-100.992 20.5824c-26.4704 57.856-59.8016 87.2704-84.3264 89.216s-28.4416 64.7168 50.9696 56.8576c79.4112-7.8336 113.7408-26.4704 134.3232 7.8336 0.0256-56.832 0.0256-174.4896 0.0256-174.4896z" fill="#DADAF7" p-id="1961"></path><path d="M475.4432 910.1568c-7.936 0-15.5136-4.1216-19.7632-11.1872-6.0416-10.0864-11.264-11.4176-57.5488-4.1472-15.6672 2.4576-33.408 5.248-54.7328 7.3728-50.7136 5.0176-73.0624-15.1808-81.8944-27.648-11.008-15.5648-13.1072-35.4304-5.4528-51.8144 6.2976-13.4656 18.3552-22.1952 32.256-23.296 12.7232-1.024 40.6016-22.0416 65.2032-75.8272 9.1648-20.0448 24.2688-34.2784 43.648-41.088 39.68-14.0032 83.712 7.04 88.576 9.4976a23.03232 23.03232 0 0 1 12.7488 20.608v174.5152c0 10.3424-6.912 19.4304-16.896 22.1952-2.0224 0.5632-4.096 0.8192-6.144 0.8192z m-177.7408-65.5104c0.1536 0.9728 0.5888 2.1248 1.4848 3.3792 3.9936 5.5296 16.512 10.624 39.7056 8.3456 20.0192-1.9712 37.0688-4.6592 52.096-7.04 23.0912-3.6352 43.6992-6.8864 61.44-4.0448v-116.992c-11.6992-3.6864-27.7248-6.656-40.0128-2.2784-7.5776 2.7136-12.9536 8.0384-16.9728 16.7936-26.624 58.112-62.7712 95.616-97.7408 101.8368z" fill="#474E54" p-id="1962"></path><path d="M287.9232 335.1296s-15.6928 65.3568 11.1104 75.1616 57.9584 29.4144 58.0608 57.5232c0.1024 28.1088 32.7936 24.192 45.8752-3.9168 13.0816-28.1088 15.6928-52.9408 5.2224-66.6624-10.4704-13.7216-3.2768-57.5232 12.416-62.1056h-132.6848z" fill="#DADAF7" p-id="1963"></path><path d="M373.1968 510.1056c-2.944 0-5.8624-0.3072-8.7552-0.9472-18.3808-4.0192-30.3104-20.224-30.3872-41.2416-0.0512-14.0032-21.6064-28.16-42.9312-35.968-42.752-15.6416-30.4128-82.176-25.6-102.1696 2.4832-10.368 11.7504-17.664 22.4-17.664h132.6848c11.4688 0 21.1968 8.4224 22.8096 19.7888 1.4336 10.0096-3.84 19.6096-12.6464 23.936-3.584 5.9648-5.8112 22.2976-3.6864 28.1856 15.1808 20.7104 14.0544 52.48-3.2256 89.6-10.368 22.2464-30.6944 36.48-50.6624 36.48z m7.04-41.0112z m-71.7056-79.8464c41.1648 15.4624 66.4576 40.3712 70.912 69.4016 0.9216-1.2288 1.8176-2.7136 2.6368-4.48 11.1872-24.064 10.7264-39.1424 7.7824-42.9824-10.1888-13.3632-11.264-34.816-7.8336-53.0176h-74.7008c-1.5104 13.6192-1.1776 26.3424 1.2032 31.0784z m118.6816-4.864z m-0.1536-27.136z" fill="#474E54" p-id="1964"></path></svg>