<?xml version="1.0" standalone="no"?><!DOCTYPE svg PUBLIC "-//W3C//DTD SVG 1.1//EN" "http://www.w3.org/Graphics/SVG/1.1/DTD/svg11.dtd"><svg t="1666492365602" class="icon" viewBox="0 0 1024 1024" version="1.1" xmlns="http://www.w3.org/2000/svg" p-id="1495" xmlns:xlink="http://www.w3.org/1999/xlink" width="200" height="200"><path d="M182.3744 938.8032a29.40928 29.40928 0 0 1-18.8928-37.0688l22.9376-70.656 55.9616 18.1248-22.9376 70.656a29.44 29.44 0 0 1-37.0688 18.944zM834.7648 938.8032a29.40928 29.40928 0 0 0 18.8928-37.0688l-22.9376-70.656-55.9616 18.1248 22.9376 70.656a29.44 29.44 0 0 0 37.0688 18.944z" fill="#FC9642" p-id="1496"></path><path d="M853.6576 901.7344l-18.6368-57.5488c-2.304-0.6144-3.7888-1.024-3.7888-1.024l-46.1824 37.5296s22.3232 1.9968 48.4864-7.4752c6.1952 18.6368 12.0832 37.5808 12.0832 37.5808s7.5264 24.4736-20.224 29.3888a28.672 28.672 0 0 0 9.4208-1.4336c15.4112-4.9664 23.8592-21.5552 18.8416-37.0176zM223.1808 842.9568l-29.952-9.728-10.7008 9.8816s9.8304 29.7472 34.9696 39.2704c-4.5568 15.0528-12.7488 43.4688-12.7488 43.4688s-6.8608 17.9712-30.208 9.0112a29.40928 29.40928 0 0 0 44.9536-14.9504l21.5552-66.4576-17.8688-10.496z" fill="#ED8537" p-id="1497"></path><path d="M457.8816 184.4224a28.0832 28.0832 0 0 0-34.0992-20.5312l-36.4544 9.0624c-8.7552-24.9344-26.1632-57.5488-55.6544-78.4896-25.7536-18.2784-56.9344-24.9344-90.2144-19.2-86.1696 14.7968-106.8032 77.7216-105.728 109.568V506.88c0 15.5648 12.5952 28.16 28.16 28.16s28.16-12.5952 28.16-28.16V183.0912c-0.1024-1.6896-1.1776-41.984 58.9824-52.3776 18.688-3.2256 34.4064-0.1024 48.0256 9.6256 16.7936 11.9296 27.3408 31.3344 33.2288 46.2336l-34.9696 8.6528a28.0832 28.0832 0 0 0-20.5312 34.0992 28.2112 28.2112 0 0 0 34.0992 20.5824l126.464-31.3856a28.19072 28.19072 0 0 0 20.5312-34.0992z" fill="#FCAA72" p-id="1498"></path><path d="M457.8816 184.4224a28.0832 28.0832 0 0 0-34.0992-20.5312l-36.4544 9.0624c-8.7552-24.9344-26.1632-57.5488-55.6544-78.4896-25.7536-18.2784-56.9344-24.9344-90.2144-19.2-86.1696 14.7968-106.8032 77.7216-105.728 109.568V506.88c0 15.5648 12.5952 28.16 28.16 28.16s28.16-12.5952 28.16-28.16V183.0912c-0.1024-1.6896-1.1776-41.984 58.9824-52.3776 18.688-3.2256 34.4064-0.1024 48.0256 9.6256 16.7936 11.9296 27.3408 31.3344 33.2288 46.2336l-34.9696 8.6528a28.0832 28.0832 0 0 0-20.5312 34.0992 28.2112 28.2112 0 0 0 34.0992 20.5824l126.464-31.3856a28.19072 28.19072 0 0 0 20.5312-34.0992z" fill="#FCAA72" p-id="1499"></path><path d="M887.8592 610.6112H137.9328c-28.6208 0-51.8656-23.1936-51.8656-51.8656 0-28.6208 23.1936-51.8656 51.8656-51.8656h749.9264c28.6208 0 51.8656 23.1936 51.8656 51.8656 0 28.6208-23.2448 51.8656-51.8656 51.8656z" fill="#FFDB43" p-id="1500"></path><path d="M565.248 585.6256H161.8432c-18.0224 0-32.6144-14.592-32.6144-32.6144s14.592-32.6144 32.6144-32.6144h403.4048c0.3072 0 0.6144 0.256 0.6144 0.6144v64.0512c0 0.3072-0.256 0.5632-0.6144 0.5632z" fill="#FCE481" p-id="1501"></path><path d="M751.0016 884.6848H284.8256c-81.152 0-146.8928-65.792-146.8928-146.8928v-127.1808h759.9616v127.1808c0 81.1008-65.792 146.8928-146.8928 146.8928z" fill="#F4B425" p-id="1502"></path><path d="M751.0016 830.4128H284.8256c-81.152 0-146.8928-65.792-146.8928-146.8928v-72.9088h759.9616v72.9088c0 81.152-65.792 146.8928-146.8928 146.8928z" fill="#FDC42D" p-id="1503"></path><path d="M799.8464 738.6112h-154.9312a25.4976 25.4976 0 0 1-25.4976-25.4976v-101.9904a25.4976 25.4976 0 0 1 25.4976-25.4976h154.9312a25.4976 25.4976 0 0 1 25.4976 25.4976v101.9904a25.4976 25.4976 0 0 1-25.4976 25.4976z" fill="#F2B01C" p-id="1504"></path><path d="M765.184 506.88h60.1088v103.68h-60.1088z" fill="#FDC42D" p-id="1505"></path><path d="M783.5136 719.0016h-138.5472a25.4976 25.4976 0 0 1-25.4976-25.4976V500.0192a25.4976 25.4976 0 0 1 25.4976-25.4976h138.5472a25.4976 25.4976 0 0 1 25.4976 25.4976v193.4848a25.4976 25.4976 0 0 1-25.4976 25.4976z" fill="#66D0FF" p-id="1506"></path><path d="M783.5136 574.0544h-138.5472a25.4976 25.4976 0 0 1-25.4976-25.4976v-48.5376a25.4976 25.4976 0 0 1 25.4976-25.4976h138.5472a25.4976 25.4976 0 0 1 25.4976 25.4976v48.5376a25.4976 25.4976 0 0 1-25.4976 25.4976z" fill="#70D7FC" p-id="1507"></path><path d="M496.7424 304.0768m-38.7072 0a38.7072 38.7072 0 1 0 77.4144 0 38.7072 38.7072 0 1 0-77.4144 0Z" fill="#7A7AFC" p-id="1508"></path><path d="M496.7424 265.3696a38.7072 38.7072 0 0 0-38.7072 38.7072c0 8.2944 2.6112 15.9232 7.0656 22.2208a38.6048 38.6048 0 0 0 25.1392 9.3184 38.7072 38.7072 0 0 0 38.7072-38.7072c0-8.2944-2.6112-15.9232-7.0656-22.2208a38.6048 38.6048 0 0 0-25.1392-9.3184z" fill="#8D8DFC" p-id="1509"></path><path d="M639.0784 177.7664m-55.8592 0a55.8592 55.8592 0 1 0 111.7184 0 55.8592 55.8592 0 1 0-111.7184 0Z" fill="#7A7AFC" p-id="1510"></path><path d="M639.0784 121.9072c-30.8736 0-55.9104 25.0368-55.9104 55.8592 0 12.8 4.352 24.5248 11.5712 33.9456 9.7792 8.448 22.528 13.6192 36.5056 13.6192 30.8736 0 55.8592-25.0368 55.8592-55.8592 0-12.8-4.352-24.5248-11.5712-33.9456-9.7792-8.4992-22.528-13.6192-36.4544-13.6192z" fill="#8D8DFC" p-id="1511"></path><path d="M874.3424 320.256m-61.2352 0a61.2352 61.2352 0 1 0 122.4704 0 61.2352 61.2352 0 1 0-122.4704 0Z" fill="#7A7AFC" p-id="1512"></path><path d="M874.3424 259.0208c-33.8432 0-61.2352 27.4432-61.2352 61.2352 0 13.312 4.3008 25.6 11.4688 35.6352 10.8032 9.5232 24.9344 15.36 40.448 15.36 33.8432 0 61.2352-27.4432 61.2352-61.2352 0-13.312-4.3008-25.6-11.4688-35.6352-10.752-9.5232-24.8832-15.36-40.448-15.36z" fill="#8D8DFC" p-id="1513"></path><path d="M232.96 135.2704c-24.5248 1.3824-55.3472 10.0864-55.3472 45.1584v326.5024h14.4384V183.0912c-0.1024-1.536-0.9216-33.4336 40.9088-47.8208zM457.8816 184.4224c-0.0512-0.2048-0.1024-0.3584-0.1536-0.512-1.8944 8.7552-7.2704 21.4016-22.784 25.4464-24.5248 6.3488-126.0032 31.3856-126.0032 31.3856s-18.3808 3.7376-32.2048-11.3664a28.2112 28.2112 0 0 0 34.0992 20.5824l126.464-31.3856c15.104-3.7888 24.32-19.0976 20.5824-34.1504z" fill="#F29B5F" p-id="1514"></path><path d="M161.4336 129.8944c43.8784-57.088 136.2944-50.2272 143.2064-49.6128-19.456-7.1168-40.8064-8.96-63.1808-5.12-86.1696 14.8992-106.8032 77.824-105.728 109.6704v56.9856c2.5088-84.9408 20.992-104.192 25.7024-111.9232zM434.176 186.7776l-136.3968 34.5088a6.8608 6.8608 0 0 1-8.3456-4.9664c-0.9216-3.6864 1.28-7.424 4.9664-8.3456l136.3968-34.5088c3.6864-0.9216 7.424 1.28 8.3456 4.9664 0.9216 3.6864-1.28 7.424-4.9664 8.3456z" fill="#FCC29A" p-id="1515"></path><path d="M767.7952 719.0016h15.6672a25.4976 25.4976 0 0 0 25.4976-25.4976V500.0192a25.4976 25.4976 0 0 0-25.4976-25.4976H778.24s13.056 3.9424 13.056 32.3584v191.8464s0.0512 20.2752-23.5008 20.2752z" fill="#52C7EF" p-id="1516"></path><path d="M583.168 177.7664c0 8.2432 1.8432 16.0256 5.0176 23.04-0.8192-86.1184 79.0528-70.2976 81.3056-69.8368a55.35232 55.35232 0 0 0-30.4128-9.1136c-30.8736 0.0512-55.9104 25.088-55.9104 55.9104zM515.4304 270.2336c-5.5296-3.072-11.9296-4.864-18.688-4.864a38.7072 38.7072 0 0 0-38.7072 38.7072c0 4.7616 0.9216 9.216 2.5088 13.4144 0.1024-51.6096 47.7696-48.0768 54.8864-47.2576zM813.1072 320.256c0 10.0864 2.4576 19.5584 6.7584 27.904-4.8128-96.9216 90.624-77.312 90.624-77.312a60.90752 60.90752 0 0 0-36.1472-11.8784c-33.792 0.0512-61.2352 27.4944-61.2352 61.2864z" fill="#A0A0F9" p-id="1517"></path></svg>