<?xml version="1.0" standalone="no"?><!DOCTYPE svg PUBLIC "-//W3C//DTD SVG 1.1//EN" "http://www.w3.org/Graphics/SVG/1.1/DTD/svg11.dtd"><svg t="1667459688860" class="icon" viewBox="0 0 1024 1024" version="1.1" xmlns="http://www.w3.org/2000/svg" p-id="12585" xmlns:xlink="http://www.w3.org/1999/xlink" width="200" height="200"><path d="M20.48 507.2896V655.36c4.3008 68.608 206.6432 103.8336 355.9424 130.4576C562.176 819.2 634.88 924.672 838.0416 898.4576 962.56 882.2784 1003.52 813.8752 1003.52 749.1584V595.968s-34.2016 129.6384-235.52 111.0016c-185.9584-17.408-267.8784-98.9184-382.3616-114.2784S20.48 507.2896 20.48 507.2896z" fill="#F4D240" p-id="12586"></path><path d="M20.48 423.7312v147.6608c4.3008 68.608 206.6432 103.8336 355.9424 130.4576 185.7536 33.1776 258.048 139.264 461.6192 113.0496C962.56 798.72 1003.52 730.112 1003.52 665.6V512s-34.2016 129.6384-235.52 111.0016c-185.9584-17.408-267.8784-98.9184-382.3616-114.2784S20.48 423.7312 20.48 423.7312z" fill="#FF457A" p-id="12587"></path><path d="M56.32 414.1056c104.6528-84.7872 390.5536-17.2032 551.936-36.0448 197.2224-23.1424 299.008 20.48 354.304 74.9568s90.3168 233.2672-124.3136 260.9152C634.88 740.352 562.176 634.88 376.4224 601.088s-453.2224-79.2576-320.1024-186.9824z" fill="#37348F" p-id="12588"></path><path d="M76.1856 452.608c101.1712-81.92 377.2416-16.5888 532.48-34.816 190.464-22.3232 288.768 20.48 342.016 72.4992s87.2448 204.8-120.0128 231.6288c-196.4032 25.3952-266.24-77.2096-445.6448-109.1584S-52.224 556.6464 76.1856 452.608z" fill="#5CBDFF" p-id="12589"></path><path d="M77.6192 471.04c101.1712-81.92 377.2416-16.5888 532.48-34.816 190.464-22.3232 288.768 20.48 342.016 72.4992a145.408 145.408 0 0 1 38.2976 80.2816 146.2272 146.2272 0 0 0-39.7312-99.5328c-53.4528-52.4288-151.552-94.6176-342.016-72.4992-155.648 18.2272-431.9232-47.104-532.48 34.816-30.5152 24.7808-38.912 44.8512-32.1536 61.44A89.088 89.088 0 0 1 77.6192 471.04z" fill="#FFFFFF" p-id="12590"></path><path d="M1024 565.6576a183.0912 183.0912 0 0 0-47.104-127.1808 269.7216 269.7216 0 0 0-90.3168-57.5488V203.3664a40.96 40.96 0 0 1 40.96-40.96 20.48 20.48 0 0 0 0-40.96 81.92 81.92 0 0 0-81.92 80.0768h-143.36v-18.6368a40.96 40.96 0 0 1 40.96-40.96 20.48 20.48 0 0 0 0-40.96 81.92 81.92 0 0 0-81.92 81.92v170.1888c-17.8176 1.024-36.2496 2.6624-55.296 4.9152a1268.1216 1268.1216 0 0 1-203.776-2.048C261.7344 348.16 116.736 338.944 43.4176 398.336a104.6528 104.6528 0 0 0-42.5984 61.44H0v196.8128c4.9152 77.6192 161.792 111.616 366.1824 148.0704l6.5536 1.2288a744.0384 744.0384 0 0 1 176.3328 58.9824c68.4032 29.9008 133.9392 58.5728 226.7136 58.5728a505.2416 505.2416 0 0 0 63.8976-4.7104c163.84-20.48 182.8864-125.5424 184.32-169.5744v-184.32z m-178.5856-198.2464a541.9008 541.9008 0 0 0-143.36-15.9744v-27.2384h143.36z m0-125.1328v40.96h-143.36v-40.96zM69.2224 430.08c61.44-49.3568 204.8-40.96 330.5472-33.5872a1304.7808 1304.7808 0 0 0 210.944 1.8432c17.408-2.048 34.2016-3.2768 50.5856-4.3008v54.8864a20.48 20.48 0 0 0 40.96 0v-56.1152a484.352 484.352 0 0 1 143.36 17.408v59.1872a20.48 20.48 0 0 0 40.96 0v-43.6224a222.8224 222.8224 0 0 1 61.44 41.984 145.408 145.408 0 0 1 28.672 135.7824c-16.5888 49.3568-65.3312 80.4864-141.312 90.3168-118.1696 15.36-188.416-15.5648-269.7216-51.2a778.24 778.24 0 0 0-185.5488-61.44l-6.3488-1.2288C262.144 559.9232 54.4768 523.0592 40.96 472.2688c-3.2768-14.1312 16.1792-32.5632 28.2624-42.1888z m766.1568 448.1024c-118.1696 15.36-188.416-15.5648-269.7216-51.2a778.24 778.24 0 0 0-185.5488-61.44l-6.5536-1.2288C258.4576 743.6288 44.2368 705.536 40.96 655.36v-125.1328c60.0064 39.7312 180.4288 64.1024 325.4272 89.9072l6.3488 1.2288a744.0384 744.0384 0 0 1 176.3328 58.9824c68.4032 29.9008 133.9392 58.5728 226.7136 58.5728a505.2416 505.2416 0 0 0 63.8976-4.5056c71.8848-9.216 115.712-34.6112 143.36-63.2832v77.824c0 70.2464-53.0432 116.9408-147.6608 129.2288z" fill="#37348F" p-id="12591"></path><path d="M737.28 628.5312c-48.9472 0-84.3776-21.504-84.3776-51.2s35.4304-51.2 84.3776-51.2 84.5824 21.504 84.5824 51.2-34.816 51.2-84.5824 51.2z m-40.96-51.2a74.5472 74.5472 0 0 0 40.96 10.24 74.5472 74.5472 0 0 0 40.96-10.24 74.3424 74.3424 0 0 0-40.96-10.24 74.3424 74.3424 0 0 0-40.96 10.24z" fill="#47E289" p-id="12592"></path><path d="M696.32 577.3312a50.3808 50.3808 0 0 1 16.5888-6.9632 63.8976 63.8976 0 0 0-23.9616-19.456 76.3904 76.3904 0 0 0-18.0224-5.3248 40.96 40.96 0 0 0-17.2032 31.744 41.984 41.984 0 0 0 20.48 34.2016 51.6096 51.6096 0 0 1 14.7456-18.432 60.0064 60.0064 0 0 1 20.48-9.8304 45.8752 45.8752 0 0 1-13.1072-5.9392zM806.0928 545.9968a70.656 70.656 0 0 0-11.8784 3.8912 65.3312 65.3312 0 0 0-25.8048 21.9136 44.8512 44.8512 0 0 1 11.6736 5.5296 40.96 40.96 0 0 1-8.192 4.3008 59.8016 59.8016 0 0 1 22.3232 10.6496 49.7664 49.7664 0 0 1 13.312 15.5648 40.96 40.96 0 0 0 15.1552-30.3104 40.96 40.96 0 0 0-16.5888-31.5392z" fill="#EBEBFF" p-id="12593"></path></svg>