<?xml version="1.0" standalone="no"?><!DOCTYPE svg PUBLIC "-//W3C//DTD SVG 1.1//EN" "http://www.w3.org/Graphics/SVG/1.1/DTD/svg11.dtd"><svg t="1667459869379" class="icon" viewBox="0 0 1024 1024" version="1.1" xmlns="http://www.w3.org/2000/svg" p-id="1988" xmlns:xlink="http://www.w3.org/1999/xlink" width="200" height="200"><path d="M781.056 284.672s-126.208 182.1696-182.8352 347.4432c-3.9424 11.4688-19.5584 12.8-25.4976 2.2528-11.264-20.0192-21.5552-38.6048-21.5552-38.6048s-11.4176 114.0224 21.1456 261.9392c4.096 25.8048 13.9264 38.656 40.704 37.3248 26.8288-1.3824 28.16-1.3824 28.16-1.3824s21.4016-1.3824 26.4704-27.8016c5.0688-26.4704 17.9712-234.1376 195.1232-419.3792 40.704-36.6592 84.8384-126.208-36.6592-151.3472-14.2336-2.7136-27.7504-0.5632-45.056-10.4448z" fill="#F79F00" p-id="1989"></path><path d="M551.8848 596.992c2.4064 4.352 11.264 20.3264 20.8896 37.4272 5.9392 10.5472 21.5552 9.1648 25.4976-2.2528 56.576-165.2224 182.8352-347.4432 182.8352-347.4432h0.0512c-18.7392-30.5152-15.9744-58.0608-15.9744-58.0608V119.808c0-11.4688-9.3184-20.7872-20.7872-20.7872h-161.536c-11.52 0-20.8384 9.3184-20.7872 20.8384 0.3584 78.4384 1.28 353.6384-4.5568 393.1136-3.328 22.0672-4.9152 55.296-5.632 84.0192z" fill="#FEF2E9" p-id="1990"></path><path d="M572.7744 634.368c5.9392 10.5472 21.5552 9.1648 25.4976-2.2528 56.576-165.2224 182.8352-347.4432 182.8352-347.4432h0.0512c-18.7392-30.5152-16.0256-58.0608-16.0256-58.0608V119.808c0-10.9568-8.4992-19.8144-19.2512-20.6336-0.7168 29.952-1.024 84.0192 1.536 180.2752-5.888 11.1104-127.7952 228.7616-157.184 310.4768-6.0928 15.9232-17.1008 39.9872-32.7168 17.1008 3.9424 7.168 9.4208 17.0496 15.2576 27.3408z" fill="#F6D1B8" p-id="1991"></path><path d="M582.7584 99.0208c-11.52 0-20.8384 9.3184-20.7872 20.8384 0.3584 78.4384 1.28 353.6384-4.5568 393.1136-3.2256 22.0672-4.8128 55.296-5.5296 83.968 0.9728 1.7408 2.9696 5.3248 5.5808 10.0352 26.624 30.0032 24.832-95.0272 24.832-95.0272l6.656-412.9792h-6.1952z" fill="#FFFFFF" p-id="1992"></path><path d="M562.2272 281.5488l202.8544-130.9696v44.8l-203.0592 138.0864zM561.5104 393.5232s35.0208 60.16 140.3392 18.5344c-22.1184 39.7824-30.6176 55.6544-30.6176 55.6544s-41.472 18.4832-110.7456-16.1792c0-36.096 1.024-58.0096 1.024-58.0096zM854.6304 173.4656v-28.8256c0-9.8304-13.824-22.7328-41.9328-19.3536-38.2464 6.8096-47.2064 54.6304-47.2064 54.6304v21.7088s25.6512-3.072 53.7088-4.7616c36.2496-1.6896 35.4304-23.3984 35.4304-23.3984z m-30.9248-13.056c-19.2 9.984-36.352 16.5376-36.352 16.5376s20.8384-46.1312 43.264-32.3072c4.8128 3.7888 7.7312 8.1408-6.912 15.7696z" fill="#4B8DFD" p-id="1993"></path><path d="M561.5104 393.5232s-0.3072 6.6048-0.5632 18.432l0.3072 0.3072s37.7344 48.5376 129.8944 17.152c0.5632-0.3072 1.024-0.6144 1.5872-0.9216 2.7648-4.9664 5.7344-10.3936 9.1136-16.4352-105.3696 41.6256-140.3392-18.5344-140.3392-18.5344z" fill="#76A4FF" p-id="1994"></path><path d="M671.232 467.7632s2.2528-4.1984 7.424-13.6192c-57.344 22.528-117.9136-16.8448-117.9136-16.8448l-0.1536 0.0512c-0.0512 4.4544-0.0512 9.216-0.0512 14.2336 69.2224 34.6112 110.6944 16.1792 110.6944 16.1792z" fill="#4479E2" p-id="1995"></path><path d="M562.176 295.0656l0.1024 0.0512 202.8032-131.6864v-12.8512l-202.8544 130.9696z" fill="#76A4FF" p-id="1996"></path><path d="M765.0816 182.272l-202.8032 136.704-0.2048 0.1024-0.0512 14.3872 203.0592-138.0864z" fill="#4479E2" p-id="1997"></path><path d="M764.928 231.3216l-202.8032-69.4272c0.0512 13.6192 0.1024 28.8768 0.1024 45.2096v0.1024l215.808 72.192c-11.3152-20.8384-13.0048-39.6288-13.1072-48.0768z" fill="#4B8DFD" p-id="1998"></path><path d="M764.928 231.3216l-202.8032-69.4272c0 3.6352 0 7.424 0.0512 11.264l204.0832 72.0896c-0.9728-5.8368-1.28-10.6496-1.3312-13.9264z" fill="#76A4FF" p-id="1999"></path><path d="M562.2272 207.1552v0.1024l215.808 72.192c-3.072-5.6832-5.4272-11.2128-7.2192-16.4352L562.176 195.3792c0.0512 3.84 0.0512 7.7824 0.0512 11.776z" fill="#4479E2" p-id="2000"></path><path d="M810.0864 134.5536c38.2976-10.0352 44.5952 16.0256 44.5952 16.0256v-5.9904c0-9.8304-13.824-22.7328-41.9328-19.3536-38.2464 6.8096-47.2064 54.6304-47.2064 54.6304v21.7088c7.3728-38.1952 28.2624-62.1056 44.544-67.0208z" fill="#76A4FF" p-id="2001"></path><path d="M814.1824 137.9328c-24.6272 10.4448-26.7776 39.0144-26.7776 39.0144s20.8384-46.1312 43.264-32.3072c1.9968 1.5872 3.6352 3.2768 3.84 5.2736 0 0 0.0512 0 0.0512-0.0512 2.2016-15.2064-15.8208-13.7216-20.3776-11.9296zM854.6304 173.4656v-10.2912c0 0.2048-1.2288 19.712-31.8464 25.3952-22.528 2.4576-47.3088 0.1024-57.344 13.056 0 0 25.6512-3.072 53.7088-4.7616 36.3008-1.6896 35.4816-23.3984 35.4816-23.3984z" fill="#4479E2" p-id="2002"></path><path d="M974.7968 209.1008c-25.0368 16.9472-85.5552 46.0288-152.5248-13.2096-16.7936-14.848-40.192-15.1552-57.1904-16.1792v37.0688c25.3952-2.048 38.7584-1.536 53.4528 18.4832 52.224 71.2704 174.592 33.0752 174.592 33.0752l-18.3296-59.2384z" fill="#4B8DFD" p-id="2003"></path><path d="M244.8384 284.672s126.208 182.1696 182.8352 347.4432c3.9424 11.4688 19.5584 12.8 25.4976 2.2528 11.264-20.0192 21.5552-38.6048 21.5552-38.6048s11.4176 114.0224-21.1456 261.9392c-4.096 25.8048-13.9264 38.656-40.704 37.3248-26.8288-1.3824-28.16-1.3824-28.16-1.3824s-21.4016-1.3824-26.4704-27.8016c-5.0688-26.4704-17.9712-234.1376-195.1232-419.3792-40.704-36.6592-84.8384-126.208 36.6592-151.3472 14.1824-2.7136 27.6992-0.5632 45.056-10.4448z" fill="#F79F00" p-id="2004"></path><path d="M146.7904 393.5232c-23.2448-66.2528 46.2848-76.8512 72.2432-82.7392 25.9584-5.888 25.8048-26.112 25.8048-26.112-17.3056 9.8816-30.8736 7.7312-45.1072 10.4448-121.4464 25.088-77.3632 114.688-36.6592 151.3472 177.1008 185.2416 190.0032 392.9088 195.1232 419.3792-1.536-224.7168-149.9136-395.7248-169.0624-414.6688-19.0976-18.8928-34.304-36.9664-42.3424-57.6512zM427.6736 632.1152c-0.4608-1.3312-0.9728-2.7136-1.4336-4.0448l-0.1536 1.0752c5.2224 33.9968 22.8864 32.3584 28.416 24.832 13.056-24.5248 20.1728-58.1632 20.1728-58.1632s-10.2912 18.5856-21.5552 38.6048c-5.9392 10.496-21.5552 9.1136-25.4464-2.304z" fill="#F7AC5C" p-id="2005"></path><path d="M474.6752 595.7632c0 0.1024-7.1168 165.0688-37.9904 261.632-5.376 15.2064-8.6528 20.4288-22.7328 20.4288s-53.7088 2.304-56.2176-15.0528c-0.0512 0-0.0512 0.0512-0.1024 0.0512 0.2048 1.1776 0.3584 2.2016 0.512 3.0208 5.0688 26.4704 26.4704 27.8016 26.4704 27.8016s1.3824 0 28.16 1.3824 36.6592-11.52 40.704-37.3248c32.6144-147.8656 21.1968-261.8368 21.1968-261.9392z" fill="#F47706" p-id="2006"></path><path d="M649.9328 563.7632c52.6336-126.8736 122.4192-232.96 149.5552-272.0768a61.8496 61.8496 0 0 1-18.432-7.0144s-126.208 182.1696-182.8352 347.4432c-3.9424 11.4688-19.5584 12.8-25.4976 2.2528 39.0144 76.4928 56.6272-22.5792 77.2096-70.6048z" fill="#F7AC5C" p-id="2007"></path><path d="M861.3376 306.0736c3.584 2.816 57.4464 46.4896 6.912 102.0928-52.2752 57.4976-164.4032 179.0976-216.3712 400.1792-4.9152 24.9856-1.4848 65.2288-29.3888 65.2288-27.9552 0-43.52 5.8368-60.2624-68.608 2.7648 16.9984 6.0928 34.6112 10.0864 52.736 4.096 25.8048 13.9264 38.656 40.704 37.3248 26.8288-1.3824 28.16-1.3824 28.16-1.3824s21.3504-1.3824 26.4704-27.8016c5.0688-26.4704 17.9712-234.1376 195.1232-419.3792 36.096-32.4608 74.752-106.4448-1.4336-140.3904z" fill="#F47706" p-id="2008"></path><path d="M474.0096 596.992c-2.4064 4.352-11.264 20.3264-20.8896 37.4272-5.9392 10.5472-21.5552 9.1648-25.4976-2.2528-56.576-165.3248-182.784-347.4944-182.784-347.4944h-0.0512c18.7392-30.5152 15.9744-58.0608 15.9744-58.0608V119.808c0-11.4688 9.3184-20.7872 20.7872-20.7872h161.536c11.52 0 20.8384 9.3184 20.7872 20.8384-0.3584 78.4384-1.28 353.6384 4.5568 393.1136 3.2768 22.0672 4.8128 55.296 5.5808 84.0192z" fill="#FEF2E9" p-id="2009"></path><path d="M453.12 634.368c9.6256-17.0496 18.4832-33.024 20.8896-37.376-0.768-28.672-2.304-61.9008-5.5296-83.968-5.7856-39.4752-4.9152-314.6752-4.5568-393.1136 0.0512-10.752-8.0896-19.5072-18.5344-20.6336v463.2064s-1.9456 84.4288-21.0944 60.0064v0.0512c1.1264 3.1744 2.304 6.4 3.3792 9.5744 3.8912 11.4176 19.5072 12.8 25.4464 2.2528z" fill="#F6D1B8" p-id="2010"></path><path d="M281.6 99.0208c-11.4688 0-20.7872 9.3184-20.7872 20.7872v106.8032s2.7136 27.5456-15.9744 58.0608c0 0 4.8128 6.9632 12.9536 19.3536C281.6 290.7648 283.2896 246.784 283.2896 246.784V99.0208H281.6z" fill="#FFFFFF" p-id="2011"></path><path d="M463.6672 281.5488L260.8128 150.5792v44.8L463.872 333.4656z" fill="#4B8DFD" p-id="2012"></path><path d="M463.6672 281.5488L260.8128 150.5792v12.5952l202.8544 131.9424 0.0512-0.1024z" fill="#76A4FF" p-id="2013"></path><path d="M463.8208 318.208L260.8128 179.712v15.6672L463.872 333.4656z" fill="#4479E2" p-id="2014"></path><path d="M260.9664 231.3216l202.8032-69.4272c-0.0512 13.6192-0.1024 28.8768-0.1024 45.2096v0.1024L247.808 279.4496c11.3664-20.8896 13.056-39.68 13.1584-48.128zM464.384 393.5232s-35.0208 60.16-140.3392 18.5344c22.1184 39.7824 30.6176 55.6544 30.6176 55.6544s41.472 18.4832 110.7456-16.1792c-0.0512-36.096-1.024-58.0096-1.024-58.0096zM213.1456 125.2864c-28.1088-3.3792-41.9328 9.5232-41.9328 19.3536v28.8256s-0.8192 21.7088 35.4304 23.3984c28.1088 1.6896 53.7088 4.7616 53.7088 4.7616v-21.7088s-8.9088-47.872-47.2064-54.6304z m-10.9568 35.1232c-14.6432-7.6288-11.7248-11.9808-6.912-15.7696 22.3744-13.824 43.264 32.3072 43.264 32.3072s-17.2032-6.5536-36.352-16.5376z" fill="#4B8DFD" p-id="2015"></path><path d="M180.0704 150.3232c0.8704-6.0416 3.8912-11.7248 8.96-15.1552 18.432-12.5952 47.5648 2.4576 50.0224 3.7888-6.6048-6.5024-15.0016-11.776-25.856-13.6704-28.1088-3.3792-41.9328 9.5232-41.9328 19.3536v28.8256s-0.3584 11.6736 13.7216 18.5856c-8.0896-5.0176-6.7584-29.0304-4.9152-41.728z" fill="#76A4FF" p-id="2016"></path><path d="M217.3952 140.1856c-6.7072-3.9424-15.2064-3.9936-20.5824-1.7408-5.376 2.304-10.2912 10.6496-3.7888 15.5648-3.4816-3.9936-1.0752-6.8608 2.2016-9.472 22.3744-13.824 43.264 32.3072 43.264 32.3072s-1.9968-21.4528-21.0944-36.6592zM224.1024 186.1632c-24.6272 12.5952-39.1168 5.888-39.1168 5.888 5.12 2.5088 12.0832 4.4032 21.7088 4.8128 2.7648 0.1536 5.4784 0.3584 8.1408 0.512 3.5328-2.8672 6.8096-6.5024 9.2672-11.2128z" fill="#4479E2" p-id="2017"></path><path d="M51.0976 209.1008c25.0368 16.9472 85.5552 46.0288 152.5248-13.2096 16.7936-14.848 40.192-15.1552 57.1904-16.1792v37.0688c-25.344-2.048-38.7584-1.536-53.4528 18.4832-52.224 71.2704-174.592 33.0752-174.592 33.0752l18.3296-59.2384z" fill="#4B8DFD" p-id="2018"></path><path d="M203.6224 195.8912c-66.9696 59.1872-127.488 30.1568-152.5248 13.2096L32.8192 268.3392s2.56 0.768 6.9632 1.8944l11.3664-33.7408s1.9456-9.7792 22.0672-1.2288c16.4352 6.144 91.7504 15.9744 133.888-33.6896 3.2768-3.8912 26.9824-22.3744 53.7088-14.1824v-7.68c-16.9984 1.024-40.448 1.3824-57.1904 16.1792z" fill="#76A4FF" p-id="2019"></path><path d="M260.8128 209.152l-0.4096-0.1024s-37.888-7.3216-57.7536 21.0944c-7.5776 8.8064-46.5408 63.9488-162.8672 40.0896 26.5728 6.7584 122.8288 26.112 167.5776-35.0208 14.6944-20.0192 28.0576-20.5824 53.4528-18.4832v-7.5776z" fill="#4479E2" p-id="2020"></path><path d="M463.7184 172.9536c0-3.7888 0-7.4752 0.0512-11.008L260.9664 231.3216c-0.0512 2.7648-0.256 6.656-0.9216 11.3152l203.6736-69.6832z" fill="#76A4FF" p-id="2021"></path><path d="M463.6672 207.1552v-13.312L255.0784 262.912a112.64 112.64 0 0 1-7.2704 16.5376l215.808-72.192v-0.1024z" fill="#4479E2" p-id="2022"></path><path d="M464.384 393.5232s-35.0208 60.16-140.3392 18.5344c3.8912 6.9632 7.3216 13.1584 10.3936 18.7392 98.2528 26.88 130.2016-18.5344 130.2016-18.5344l0.3072-0.256c-0.256-11.8784-0.5632-18.4832-0.5632-18.4832z" fill="#76A4FF" p-id="2023"></path><path d="M354.6624 467.7632s41.472 18.4832 110.7456-16.1792c0-4.3008 0-8.3968-0.0512-12.288-0.8704 0.4608-67.328 35.2256-117.504 15.8208l6.8096 12.6464z" fill="#4479E2" p-id="2024"></path><path d="M769.9456 635.6992c-5.0688 12.4416 2.5088 26.368 15.616 28.928 104.8576 20.5824 137.8816 41.6768 137.8816 57.6512 0 11.7248-17.7152 32.1024-106.752 53.5552-79.2576 19.0976-184.9856 29.5936-297.728 29.5936-112.6912 0-218.4192-10.496-297.728-29.5936-89.0368-21.4528-103.9872-41.8816-103.8336-51.712 0.256-13.7216 27.648-37.12 124.7744-57.4464 12.544-2.6112 19.968-15.6672 15.7696-27.7504a21.248 21.248 0 0 0-24.4736-13.8752c-83.3536 17.408-163.8912 47.4624-163.8912 98.56 0 85.4528 232.9088 124.3648 449.3312 124.3648s449.3312-38.912 449.3312-124.3648c0-53.1968-86.8864-83.6096-174.5408-100.7616-9.9328-1.9456-19.9168 3.4304-23.7568 12.8512z" fill="#4B8DFD" p-id="2025"></path><path d="M765.0816 185.7536c10.3424-0.8192 31.5392 0.2048 52.7872 17.8176 26.7264 22.3744 65.9968 58.4704 162.5088 23.5008l-5.5808-18.0224c-25.0368 16.9472-85.5552 46.0288-152.5248-13.2096-16.7936-14.848-40.192-15.1552-57.1904-16.1792v6.0928z" fill="#76A4FF" p-id="2026"></path><path d="M818.5344 235.264c52.224 71.2704 174.592 33.0752 174.592 33.0752l-4.096-13.312c-94.8224 29.0304-146.5344-5.9904-163.5328-25.856-20.7872-25.4976-49.8688-23.9616-60.3648-22.3744v9.984c25.2928-2.0992 38.7072-1.5872 53.4016 18.4832zM117.4528 724.1216c0.256-13.7216 27.648-37.12 124.7744-57.4464 12.544-2.6112 19.968-15.6672 15.7696-27.7504-0.1536-0.512-0.4608-0.9728-0.6656-1.4336 0.2048 1.9968 0 15.4624-36.8128 22.9888-39.8336 8.192-114.6368 30.8224-102.9632 65.3824-0.0512-0.6144-0.1024-1.1776-0.1024-1.7408zM518.9632 847.9744c216.4224 0 449.3312-38.912 449.3312-124.3648 0-13.1584-5.3248-24.9344-14.6944-35.4816 0.1536 0.4096 21.9648 48.896-20.0192 75.264-26.7776 16.0256-151.1424 67.9936-434.6368 67.9936-62.7712 0.9728-394.752-10.9056-428.2368-98.0992 16.9472 78.6944 240.2304 114.688 448.256 114.688z" fill="#4479E2" p-id="2027"></path><path d="M256.0512 634.8288a21.248 21.248 0 0 0-22.528-9.7792c-83.3536 17.408-163.8912 47.4624-163.8912 98.56 0 3.2768 0.4096 6.5024 1.0752 9.6768-2.7648-48.128 94.4128-80.5888 139.776-93.0816 32.4608-9.6768 42.496-7.7824 45.568-5.376z" fill="#76A4FF" p-id="2028"></path><path d="M769.9456 635.6992c-5.0688 12.3904 2.5088 26.3168 15.6672 28.8768 94.0032 18.432 130.2528 37.3248 136.7552 52.5312-9.472-29.7984-70.5024-46.5408-100.8128-52.736-56.576-9.472-51.6096-28.672-51.6096-28.672z" fill="#4479E2" p-id="2029"></path><path d="M995.5328 267.5712l-18.2784-59.2384a2.52928 2.52928 0 0 0-1.5872-1.6384 2.62144 2.62144 0 0 0-2.304 0.3072c-27.6992 18.7904-82.688 41.984-144.2816-8.6528 28.416-5.0176 28.1088-24.7296 28.1088-24.832v-28.8256c0-4.6592-2.5088-9.5232-6.8608-13.3632-4.864-4.3008-16.2304-11.1104-38.0416-8.448-25.6512 4.5568-38.6048 26.4192-44.6464 41.6256V119.808c0-12.8512-10.4448-23.3472-23.3472-23.3472h-161.536c-6.2464 0-12.1344 2.4576-16.5376 6.8608-4.4032 4.4032-6.8096 10.2912-6.7584 16.5376 0.0512 11.1104 0.1024 25.7024 0.1536 42.6496 0.0512 13.312 0.0512 28.16 0.1024 44.1856 0.0512 23.3472 0.0512 48.7936-0.0512 74.8032l-0.2048 51.9168v0.0512c-0.1024 20.5824-0.256 40.8064-0.512 59.904 0 0.2048-0.9728 22.3744-0.9728 58.1632-0.7168 29.5936-1.6896 51.7632-3.072 61.0304-2.6624 18.0224-4.5056 45.4656-5.4784 81.408a2.4064 2.4064 0 0 0-0.7168 1.536c-0.1024 0.8704-8.448 88.064 10.5984 206.8992-13.312 0.3072-26.7264 0.4608-40.2944 0.4608-17.6128 0-35.072-0.3072-52.2752-0.8192 18.9952-118.6816 10.6496-205.6704 10.5472-206.5408a2.69312 2.69312 0 0 0-0.7168-1.536c-0.9728-35.8912-2.816-63.3344-5.4784-81.408-1.3824-9.216-2.3552-31.4368-3.072-60.9792v-0.0512c0-35.7888-0.9728-57.9072-0.9728-58.1632-0.2048-19.0976-0.4096-39.3216-0.512-59.904v-0.0512l-0.2048-51.9168c-0.0512-25.856-0.0512-51.1488-0.0512-74.3424 0-16.3328 0.0512-31.5904 0.1024-45.2096 0.0512-16.6912 0.1024-31.0784 0.1536-42.0352 0.0512-6.2464-2.3552-12.1344-6.7584-16.5376a23.07072 23.07072 0 0 0-16.5376-6.8608H281.6c-12.8512 0-23.3472 10.4448-23.3472 23.3472V164.5056c-6.0416-15.2064-19.0464-37.1712-44.8-41.728-21.6576-2.6112-33.0752 4.1984-37.9392 8.4992-4.352 3.8912-6.8608 8.7552-6.8608 13.3632v28.7744c0 0.2048-0.3072 19.9168 28.1088 24.9344-61.5936 50.6368-116.5824 27.4432-144.2816 8.6528a2.62144 2.62144 0 0 0-2.304-0.3072c-0.768 0.256-1.3312 0.8704-1.5872 1.6384L30.3616 267.5712c-0.4096 1.3312 0.3584 2.7648 1.6896 3.2256 0.6656 0.2048 33.28 10.1376 72.0896 10.1376 37.0176 0 79.616-9.0112 105.3184-44.1344 13.1584-17.9712 24.7296-19.456 48.8448-17.6128v7.7312c0 0.0512 0.2048 2.3552 0.0512 6.144 0 0.4096 0 0.8192-0.0512 1.2288l-0.1536 2.3552c0 0.3584-0.0512 0.7168-0.1024 1.0752-0.256 2.816-0.6656 6.0928-1.3824 9.728-0.1024 0.4608-0.1536 0.9216-0.256 1.3824-0.2048 1.0752-0.4608 2.2016-0.768 3.328l-0.6144 2.304c-0.3584 1.28-0.7168 2.56-1.1264 3.8912-0.4608 1.4848-0.9728 3.0208-1.4848 4.5568-0.256 0.7168-0.512 1.4336-0.8192 2.0992-0.6144 1.5872-1.2288 3.1744-1.9456 4.7616-0.256 0.5632-0.4608 1.0752-0.7168 1.6384a107.9808 107.9808 0 0 1-6.0416 11.4688c-11.5712 6.4512-21.504 7.3728-31.1296 8.2944-4.096 0.3584-8.3456 0.768-12.6464 1.5872C154.112 302.08 127.488 320.8192 119.9616 348.4672c-9.3696 34.7136 14.7456 76.1344 41.216 99.9936 115.5072 120.832 162.9184 253.9008 182.3232 345.3952-44.8-4.9152-86.016-11.776-121.7536-20.3776-94.9248-22.8352-101.9392-43.4176-101.8368-49.152 0.2048-13.568 32.512-36.096 122.7264-54.9888 6.7072-1.3824 12.4928-5.632 15.9232-11.6224 3.3792-5.9392 4.0448-13.056 1.792-19.5072a23.8848 23.8848 0 0 0-27.4432-15.5648c-110.08 22.9888-165.888 56.9856-165.888 101.0688 0 64.8192 129.3824 103.3728 285.184 118.8864 0.6656 4.608 1.2288 8.7552 1.6896 12.2368 0.7168 5.2224 1.2288 9.1648 1.6896 11.5712 5.4272 28.1088 28.5696 29.9008 28.9792 29.9008 0.1024 0 2.304 0.0512 28.0576 1.3312 1.3312 0.0512 2.6624 0.1024 3.9424 0.1024 23.5008 0 35.0208-11.7248 39.424-39.424 0.6656-2.9696 1.28-5.888 1.8432-8.8064 20.3776 0.7168 40.8064 1.024 61.0816 1.024 16.2816 0 32.7168-0.2048 49.1008-0.6656 0.5632 2.7648 1.1776 5.5808 1.7408 8.2944 4.4032 27.8528 15.9232 39.5776 39.424 39.5776 1.28 0 2.6112-0.0512 3.9424-0.1024 25.7536-1.28 28.0064-1.3312 28.2112-1.3312 0.2048 0 23.3984-1.792 28.8256-29.9008 0.4608-2.4576 1.024-6.4 1.7408-11.6736 0.4096-3.1744 0.9216-6.8608 1.536-10.9568 161.1776-14.6944 297.4208-53.6064 297.4208-120.064 0-45.568-59.392-80.3328-176.5888-103.2704-11.1616-2.2016-22.4256 3.84-26.7264 14.336l2.3552 0.9728-2.4064-0.9216a23.79776 23.79776 0 0 0 17.5104 32.3584c122.5728 24.064 135.8336 46.592 135.8336 55.1424 0 7.7824-10.24 28.3136-104.8064 51.0976-39.0144 9.4208-84.5312 16.6912-134.0928 21.7088 19.3024-91.904 66.6624-225.4848 182.528-346.6752 26.4704-23.8592 50.688-65.28 41.3184-100.0448-7.4752-27.648-34.0992-46.3872-79.1552-55.7056-4.2496-0.8192-8.4992-1.2288-12.5952-1.5872-9.6256-0.8704-19.5584-1.8432-31.1296-8.2944-0.9216-1.536-1.792-3.0208-2.6112-4.5568-1.2288-2.304-2.3552-4.5568-3.3792-6.7584-0.3072-0.6656-0.5632-1.3312-0.8704-1.9968-0.6144-1.3824-1.1776-2.7648-1.6896-4.1472-0.3584-0.9216-0.7168-1.8432-1.024-2.7648l-0.768-2.304c-6.1952-18.9952-4.9664-33.2288-4.9664-33.5872V219.136c24.064-1.8432 35.6352-0.3584 48.8448 17.6128 25.7024 35.1232 68.3008 44.1344 105.3184 44.1344 38.8096 0 71.424-9.9328 72.0896-10.1376 1.3824-0.4096 2.0992-1.792 1.6896-3.1744zM471.4496 596.3264l-1.536 2.7136c-3.6864 6.7072-11.1104 19.968-18.9952 34.048-1.1264 1.9968-2.7648 3.5328-4.7104 4.5568-1.8944 0.9728-4.0448 1.4336-6.2976 1.28h-0.1024c-0.4608-0.0512-0.9216-0.2048-1.3824-0.3072-0.6144-0.1536-1.28-0.2048-1.8944-0.4608-0.0512 0-0.1024-0.0512-0.1024-0.0512a12.4416 12.4416 0 0 1-2.6624-1.536c-1.6896-1.3312-2.9696-3.1232-3.7376-5.2736-1.6896-5.0176-3.4816-10.0352-5.3248-15.0528l-1.8432-4.9152c-1.28-3.3792-2.5088-6.8096-3.84-10.1888-0.768-1.9968-1.5872-3.9936-2.3552-5.9904-1.2288-3.072-2.4064-6.0928-3.6352-9.1648-0.8704-2.1504-1.792-4.352-2.6624-6.5024-1.1776-2.9184-2.4064-5.7856-3.6352-8.704-0.9728-2.2528-1.9456-4.4544-2.8672-6.7072l-3.6864-8.448c-1.024-2.2528-2.048-4.5568-3.072-6.8096-1.2288-2.7648-2.4576-5.5296-3.7376-8.2944-1.024-2.304-2.0992-4.5568-3.1744-6.8608-1.28-2.7136-2.5088-5.4272-3.7888-8.1408-1.0752-2.304-2.2016-4.5568-3.2768-6.8608l-3.84-7.9872c-1.1264-2.304-2.2528-4.5568-3.3792-6.8608-1.28-2.6112-2.56-5.2224-3.8912-7.8336-1.1264-2.304-2.304-4.5568-3.4304-6.8096-1.28-2.56-2.6112-5.12-3.8912-7.6288-1.1776-2.2528-2.3552-4.5056-3.4816-6.7584-0.4608-0.8704-0.9216-1.792-1.3824-2.6624 5.376 1.4848 14.1824 3.1744 26.1632 3.1744 18.5856 0 44.6976-4.1472 77.0048-19.712 0.7168 27.904 1.6896 48.7936 3.0208 57.7536 2.6112 18.2784 4.4544 46.1824 5.4272 82.9952zM320.6144 401.1008c-1.1776-2.048-2.4064-4.1472-3.584-6.144-1.1264-1.9456-2.2528-3.8912-3.4304-5.7856-1.1776-2.048-2.4064-4.096-3.584-6.0928-1.0752-1.792-2.0992-3.5328-3.1744-5.3248-1.2288-2.048-2.4064-4.096-3.6352-6.0416-0.9728-1.6384-1.9456-3.1744-2.8672-4.7616-1.2288-2.048-2.4576-4.096-3.6864-6.0928-0.7168-1.2288-1.4336-2.3552-2.1504-3.5328-7.4752-12.1856-14.3872-23.2448-20.48-32.8192-0.1024-0.1536-0.2048-0.3584-0.3584-0.512-1.4848-2.304-2.8672-4.5056-4.2496-6.656-0.2048-0.3072-0.4096-0.6656-0.6144-0.9728l-3.7888-5.8368c-0.256-0.3584-0.512-0.768-0.7168-1.1264-1.2288-1.8432-2.3552-3.584-3.4304-5.2224l-0.6144-0.9216c-1.1264-1.7408-2.2016-3.328-3.1744-4.8128-0.1024-0.1536-0.2048-0.3584-0.3584-0.512-1.024-1.5872-1.9968-3.0208-2.8672-4.352-0.0512-0.0512-0.1024-0.1536-0.1536-0.2048-2.816-4.2496-4.8128-7.168-5.888-8.704 0.6144-1.024 1.1264-1.9968 1.6896-3.0208l89.4464-29.9008L461.312 334.848c0.1024 19.9168 0.256 39.4752 0.512 57.9584-3.7376 5.6832-39.7824 54.8864-136.1408 17.152a668.4416 668.4416 0 0 1-5.0688-8.8576zM315.392 209.9712l-18.9952 6.5024-33.024-22.4768V155.2384l73.3696 47.36-21.3504 7.3728z m-52.0192 16.64v-26.368l26.9824 18.3296-26.88 9.216c-0.0512-0.6656-0.1024-1.0752-0.1024-1.1776z m0.1024 6.5536l59.0336-20.224 20.8896-7.168 117.76-40.2944c-0.0512 12.2368-0.0512 25.6512-0.1024 39.936L252.928 275.0464a1.536 1.536 0 0 1 0.2048-0.4096c8.2944-17.7152 10.0864-33.1264 10.3424-41.472z m88.576 224.3584c-0.768-1.3824-1.4848-2.7648-2.2528-4.1472-1.1776-2.2016-2.3552-4.4032-3.584-6.6048l-3.84-7.0656-3.5328-6.4512c-1.28-2.304-2.56-4.5568-3.7888-6.8608-1.1776-2.1504-2.3552-4.2496-3.584-6.3488-0.4096-0.7168-0.8192-1.4848-1.2288-2.2016a5.8368 5.8368 0 0 1-0.512-0.9728c80.896 29.5424 119.7056-1.9456 132.1984-16.0256 0.2048 17.7152 0.512 34.2528 0.8704 49.1008-61.2864 30.1568-100.4032 17.8688-106.2912 15.7184-0.7168-1.2288-2.1504-3.8912-4.4544-8.1408z m35.4304-222.1056l73.6256 47.5136 0.1536 45.6704L345.088 249.6l42.3936-14.1824z m73.6256 41.4208l-67.3792-43.52 67.3792-22.528c-0.0512 20.8384-0.0512 43.2128 0 66.048zM281.6 101.5808h161.536c4.9152 0 9.472 1.8944 12.9536 5.376 3.4304 3.4304 5.3248 8.0384 5.2736 12.9024-0.0512 10.5984-0.1024 24.32-0.1536 40.2432l-118.272 40.4992-79.5648-51.4048V119.808c0-10.0352 8.1408-18.2272 18.2272-18.2272zM173.7728 173.4656v-28.8256c0-3.1744 1.8944-6.656 5.1712-9.5744 5.7344-5.0688 14.7456-7.7824 25.4464-7.7824 2.6624 0 5.4784 0.1536 8.2944 0.512 30.8224 5.4784 41.8304 39.3216 44.4416 49.5616h-0.1536c-2.4064 0.1536-4.9152 0.256-7.5264 0.4608-0.2048 0-0.4096 0.0512-0.6144 0.0512-2.7648 0.2048-5.5808 0.4608-8.4992 0.8192 0.7168-0.768 0.8704-1.8432 0.4608-2.816-0.5632-1.2288-13.824-30.208-31.3344-35.5328-5.4272-1.6384-10.6496-0.9216-15.5648 2.0992-0.1024 0.0512-0.1536 0.1024-0.256 0.1536-2.56 2.048-5.1712 4.6592-4.8128 8.2944 0.4096 3.9424 4.1472 7.5776 12.1856 11.7248 17.408 9.0624 33.3312 15.4112 36.1472 16.4864-10.5472 1.5872-21.5552 4.7616-31.0272 11.52-0.0512 0-0.0512 0.0512-0.1024 0.0512-1.1776 0.8192-2.304 1.7408-3.4304 2.7136-0.1536 0.1536-0.3584 0.256-0.512 0.4096-28.2624-2.9696-28.3136-19.5584-28.3136-20.3264z m59.3408-1.4848c-6.656-2.7648-17.8688-7.68-29.7472-13.8752-8.2432-4.3008-9.3696-6.8096-9.4208-7.68-0.1024-0.9216 0.8192-2.0992 2.816-3.6864 3.6352-2.2016 7.3216-2.7136 11.264-1.4848 10.8032 3.2768 20.3776 18.2272 25.088 26.7264z m25.1392 41.984c-23.296-1.792-37.6832-1.0752-52.9408 19.7632C158.8224 297.1648 53.4528 271.36 35.9936 266.5984l16.4864-53.504c25.8048 16.5376 86.6816 43.1616 152.7808-15.3088 15.0528-13.312 35.6864-14.4384 52.2752-15.36h0.6656v31.5392zM164.8128 444.5696c-25.344-22.8352-48.64-62.2592-39.7824-94.8736 6.9632-25.6512 32.256-43.1616 75.2128-52.0192 4.0448-0.768 7.936-1.1264 12.0832-1.536 9.7792-0.9216 19.8656-1.8432 31.744-8.0896 0.0512 0.1024 0.1536 0.2048 0.2048 0.256 0.3584 0.512 0.768 1.1264 1.28 1.8432 0.1536 0.256 0.3584 0.5632 0.5632 0.8192 0.4608 0.7168 0.9728 1.4336 1.536 2.2528 0.3072 0.4608 0.6656 1.024 1.024 1.536 0.512 0.768 1.024 1.536 1.5872 2.4064 0.4608 0.6656 0.9216 1.4336 1.4336 2.1504 0.5632 0.8704 1.1776 1.7408 1.792 2.7136 0.512 0.8192 1.1264 1.6896 1.6896 2.56 0.6656 0.9728 1.28 1.9456 1.9968 3.0208 0.768 1.1776 1.5872 2.4576 2.4064 3.7376 0.5632 0.8704 1.1264 1.6896 1.6896 2.6112 1.4336 2.2528 2.9696 4.608 4.5568 7.0656l1.1264 1.7408c1.28 1.9456 2.5088 3.9424 3.84 6.0416 0.6656 1.024 1.3824 2.1504 2.048 3.2256 1.0752 1.7408 2.1504 3.4304 3.328 5.2224 0.8192 1.28 1.6384 2.6112 2.4576 3.9424 1.0752 1.6896 2.0992 3.3792 3.2256 5.1712 0.8704 1.3824 1.7408 2.8672 2.6624 4.3008 1.1264 1.792 2.2528 3.584 3.3792 5.4784 0.9216 1.4848 1.8944 3.072 2.816 4.608 1.1264 1.8432 2.2528 3.7376 3.4304 5.632 0.9728 1.6384 1.9968 3.328 3.0208 5.0176 1.1776 1.9456 2.304 3.84 3.4816 5.8368 1.024 1.6896 2.048 3.4816 3.072 5.2224 1.2288 2.048 2.4064 4.0448 3.6352 6.144 1.0752 1.792 2.0992 3.584 3.1744 5.4272 1.2288 2.0992 2.4576 4.1984 3.7376 6.3488 1.0752 1.8944 2.2016 3.7888 3.2768 5.6832 1.2288 2.1504 2.4576 4.3008 3.7376 6.5024 1.1264 1.9456 2.2528 3.9424 3.3792 5.9392 0.5632 0.9728 1.1264 1.9968 1.6896 2.9696 9.8304 17.7152 16.5376 30.0032 20.6848 37.5808 1.0752 1.9968 2.1504 3.9936 3.2256 6.0416 1.1776 2.2016 2.3552 4.4032 3.5328 6.656 1.28 2.4064 2.56 4.864 3.7888 7.3216 1.1776 2.2016 2.304 4.4544 3.4816 6.7072 1.28 2.4576 2.56 4.9664 3.7888 7.4752 1.1264 2.2528 2.304 4.5056 3.4304 6.8096 1.2288 2.5088 2.5088 5.0176 3.7376 7.5776 1.1264 2.304 2.2528 4.5568 3.3792 6.8608 1.28 2.56 2.5088 5.1712 3.7376 7.7824 1.0752 2.2528 2.2016 4.5568 3.2768 6.8096 1.2288 2.6112 2.4576 5.2736 3.6864 7.8848 1.0752 2.304 2.1504 4.5568 3.1744 6.8608 1.2288 2.6624 2.4064 5.3248 3.584 7.9872 1.024 2.2528 2.048 4.5568 3.072 6.8096l3.5328 8.1408 2.9184 6.7584c1.1776 2.816 2.3552 5.5808 3.4816 8.3968 0.9216 2.1504 1.792 4.352 2.7136 6.5024 1.1776 2.9184 2.3552 5.888 3.4816 8.8064 0.8192 2.048 1.6384 4.0448 2.4064 6.0928 1.28 3.2768 2.4576 6.5536 3.6864 9.8304 0.6144 1.6896 1.28 3.3792 1.8944 5.0688 1.792 4.9664 3.5328 9.8816 5.2224 14.7968a16.34816 16.34816 0 0 0 15.7184 11.1616c0.1536 0 0.256 0 0.4096-0.0512 0.4096 0 0.8192-0.0512 1.2288-0.1024 0.3584-0.0512 0.6656-0.0512 1.024-0.1024 0.4608-0.0512 0.8704-0.1536 1.3312-0.256 0.256-0.0512 0.5632-0.1536 0.8192-0.2048 0.4608-0.1536 0.8704-0.3072 1.3312-0.4608 0.256-0.1024 0.512-0.2048 0.7168-0.3072 0.4096-0.2048 0.8704-0.4096 1.28-0.6144 0.256-0.1536 0.4608-0.3072 0.7168-0.4608 0.3584-0.256 0.768-0.4608 1.1264-0.768l0.768-0.6144c0.3072-0.256 0.6144-0.512 0.9216-0.8192s0.5632-0.6144 0.8704-0.9728c0.2048-0.256 0.4608-0.4608 0.6656-0.768 0.4608-0.6144 0.9216-1.28 1.28-1.9456 1.024-1.8432 2.048-3.6352 3.072-5.4784 0.3584-0.6656 0.768-1.3312 1.1264-1.9968 0.768-1.3824 1.536-2.7136 2.2528-4.0448l0.768-1.3824c0.9216-1.6384 1.792-3.2256 2.6624-4.7616 0.3584-0.6656 0.7168-1.3312 1.1264-1.9968 0.4608-0.8704 0.9728-1.6896 1.4336-2.56 1.8944-3.4304 3.584-6.4 4.9664-8.9088 1.536 24.576 4.352 100.352-11.2128 197.4272-38.9632-1.28-76.8512-3.84-112.5376-7.6288-19.3536-92.2624-66.9696-227.1744-184.064-349.5936l-0.256-0.256zM813.056 127.7952c14.4384-1.7408 26.7776 0.9216 33.9456 7.2192 3.2768 2.9184 5.12 6.4 5.12 9.5744v28.928c0 0.7168 0 17.3056-28.2112 20.3776-0.1536-0.1024-0.3072-0.256-0.4608-0.3584-1.024-0.8704-2.048-1.6896-3.1232-2.5088-0.4096-0.3072-0.8704-0.6144-1.28-0.8704-0.8704-0.5632-1.6896-1.1264-2.56-1.6896-0.4608-0.256-0.9216-0.5632-1.3824-0.8192-0.9216-0.512-1.8432-1.024-2.7648-1.4848-0.4096-0.2048-0.8192-0.4096-1.1776-0.6144-1.3312-0.6144-2.6624-1.1776-3.9936-1.7408-0.256-0.1024-0.512-0.1536-0.768-0.256-1.1264-0.4096-2.2528-0.8192-3.3792-1.1776-0.4608-0.1536-0.9728-0.3072-1.4336-0.4608-0.9216-0.256-1.8432-0.5632-2.816-0.768-0.512-0.1536-1.024-0.256-1.4848-0.3584-0.9728-0.256-1.9968-0.4608-2.9696-0.6656-0.4096-0.1024-0.8192-0.2048-1.2288-0.256-1.3824-0.256-2.7648-0.512-4.096-0.7168h-0.1536c2.8672-1.1264 18.7904-7.424 36.1472-16.4864 8.0384-4.1984 11.776-7.8336 12.1856-11.7248 0.3584-3.6352-2.2528-6.2464-4.864-8.2944-0.1024-0.0512-0.1536-0.1024-0.256-0.1536-4.9152-3.072-10.1888-3.7376-15.5648-2.0992-17.5104 5.376-30.7712 34.304-31.3344 35.5328-0.4096 0.9216-0.256 2.048 0.4608 2.816h-0.1024c-2.8672-0.3584-5.632-0.6144-8.3456-0.8192-0.256 0-0.512-0.0512-0.8192-0.0512-2.56-0.2048-5.0688-0.3072-7.424-0.4608h-0.1536c2.56-10.2912 13.4144-44.1344 44.288-49.6128z m-20.2752 44.1856c4.7104-8.4992 14.2336-23.4496 25.088-26.7776 1.3824-0.4096 2.7648-0.6656 4.096-0.6656 2.4576 0 4.8128 0.7168 7.168 2.1504 1.9968 1.6384 2.9184 2.816 2.816 3.6864-0.1024 0.8704-1.1776 3.3792-9.4208 7.68-11.8784 6.2464-23.04 11.1616-29.7472 13.9264z m-14.7456 112.5888c-0.1024 0.1536-0.3072 0.4608-0.4608 0.6656-0.1536 0.256-0.3072 0.4608-0.512 0.768-0.3072 0.4608-0.6656 0.9728-1.0752 1.5872-0.3072 0.4096-0.5632 0.8192-0.8704 1.3312-0.4096 0.5632-0.8192 1.1776-1.2288 1.8432-0.4096 0.6144-0.8704 1.28-1.3312 1.9968-0.4608 0.6656-0.9216 1.3824-1.3824 2.0992-0.5632 0.8192-1.0752 1.6384-1.6896 2.5088-0.512 0.8192-1.1264 1.6896-1.6896 2.56-0.6144 0.9216-1.2288 1.8432-1.8944 2.8672-0.6144 0.9216-1.2288 1.8944-1.8944 2.8672-0.7168 1.1264-1.4336 2.2016-2.2528 3.4304-0.6144 0.9728-1.3312 1.9968-1.9456 3.0208-0.8192 1.28-1.6384 2.56-2.5088 3.8912-0.768 1.1776-1.5872 2.4576-2.3552 3.6864-0.8704 1.3312-1.6896 2.6112-2.56 4.0448-0.8192 1.28-1.6896 2.7136-2.56 4.0448-0.9216 1.4336-1.8432 2.8672-2.7648 4.4032-1.0752 1.6384-2.1504 3.4304-3.2256 5.1712-1.3824 2.2528-2.816 4.5056-4.3008 6.8608-1.3312 2.1504-2.6624 4.3008-4.0448 6.5536-0.8704 1.3824-1.7408 2.8672-2.6112 4.2496-1.2288 1.9968-2.4576 3.9936-3.7376 6.0928-0.8704 1.4336-1.792 2.9184-2.6624 4.4032-1.28 2.1504-2.6112 4.3008-3.9424 6.5024-0.9216 1.536-1.8432 3.1232-2.7648 4.6592-1.3312 2.2528-2.6624 4.4544-4.0448 6.7584-0.9728 1.6384-1.9456 3.2768-2.9184 4.9664-1.3312 2.304-2.7136 4.608-4.0448 6.912-1.024 1.7408-2.048 3.4816-3.072 5.2736-1.3824 2.3552-2.7136 4.7104-4.096 7.0656-0.4608 0.8192-0.9216 1.5872-1.3824 2.4064-97.1264 38.0416-132.1984-10.9568-136.1408-17.152 0.2048-18.4832 0.3584-38.0928 0.512-57.9584l122.3168-83.2 89.4464 29.9008c0.5632 0.9216 1.0752 1.8944 1.6896 2.9184z m-213.248-73.728l67.3792 22.528-67.3792 43.52c0.0512-22.8864 0.0512-45.2608 0-66.048z m-0.0512 72.4992v-0.4096l73.6256-47.5136 42.3936 14.1824-116.1728 79.0016c0.1024-15.0016 0.1536-30.208 0.1536-45.2608z m-0.768 117.5552c12.4928 14.08 51.3536 45.568 132.2496 16.0256-0.1536 0.3072-0.3072 0.5632-0.4608 0.8704-0.4608 0.8192-0.9728 1.6896-1.4336 2.5088-1.0752 1.8432-2.0992 3.7376-3.1744 5.632-1.3824 2.5088-2.816 5.0176-4.1984 7.5776-1.024 1.8944-2.0992 3.7888-3.1232 5.7344l-4.3008 7.8336c-1.0752 1.9456-2.0992 3.8912-3.1744 5.8368-0.8192 1.536-1.6896 3.1232-2.5088 4.6592-2.2528 4.1472-3.6864 6.8096-4.352 8.0384-5.888 2.1504-45.056 14.4384-106.3424-15.7184 0.3072-14.6944 0.5632-31.2832 0.8192-48.9984z m208.9984-125.8496l-208.1792-69.632c0-14.2336-0.0512-27.648-0.1024-39.936l117.76 40.2944 46.592 15.9232 33.3824 11.4176c0.256 8.448 2.0992 23.9104 10.3936 41.5744 0.0512 0.1536 0.1024 0.256 0.1536 0.3584z m-10.4448-95.3344v14.336l-33.024 22.4768-18.9952-6.5024-21.3504-7.3216 73.3696-47.36v24.3712z m-26.9824 38.8608l26.9824-18.3296V226.4064c0 0.1536-0.0512 0.6144-0.1024 1.4336l-26.88-9.2672z m-165.7344-111.616c3.4304-3.4816 8.0384-5.376 12.9536-5.376h161.536c10.0352 0 18.2272 8.192 18.2272 18.2272v29.3888l-79.5648 51.3536-118.272-40.4992c-0.0512-15.9232-0.1024-29.6448-0.1536-40.2432 0-4.8128 1.8432-9.4208 5.2736-12.8512z m-9.8304 406.3744c1.3312-8.96 2.304-29.8496 3.0208-57.7536 32.3584 15.5648 58.4192 19.712 77.0048 19.712 11.9808 0 20.7872-1.7408 26.1632-3.1744-0.512 1.024-1.0752 2.048-1.5872 3.072-1.024 1.9968-2.0992 3.9936-3.1232 6.0416-1.4336 2.816-2.8672 5.5808-4.3008 8.3968-1.024 1.9968-2.048 4.0448-3.072 6.0416-1.4336 2.8672-2.8672 5.7856-4.3008 8.6528-0.9728 1.9968-1.9968 3.9936-2.9696 6.0416-1.4336 2.9184-2.8672 5.888-4.2496 8.8064-0.9728 1.9968-1.9456 4.0448-2.9184 6.0416-1.4336 3.0208-2.816 6.0416-4.2496 9.0624-0.9216 1.9456-1.8432 3.9424-2.7136 5.888-1.4336 3.1232-2.816 6.2464-4.2496 9.3696-0.8704 1.8944-1.6896 3.7888-2.56 5.7344-1.4336 3.2256-2.816 6.5024-4.2496 9.728-0.768 1.792-1.5872 3.584-2.3552 5.376-1.4336 3.4304-2.8672 6.8096-4.2496 10.24-0.6656 1.6384-1.3824 3.328-2.048 4.9664-1.536 3.7376-2.9696 7.424-4.4544 11.1616-0.512 1.3312-1.0752 2.6624-1.5872 3.9936-1.7408 4.5056-3.4304 9.0112-5.12 13.5168-0.2048 0.512-0.4096 1.0752-0.6144 1.5872-1.8432 5.12-3.6864 10.1888-5.4272 15.3088a11.3152 11.3152 0 0 1-9.728 7.68 11.4688 11.4688 0 0 1-11.0592-5.8368c-1.024-1.8432-2.048-3.6864-3.072-5.4784-0.2048-0.3584-0.4096-0.7168-0.5632-1.024-0.9216-1.6384-1.8432-3.2768-2.7648-4.864-0.3584-0.6656-0.7168-1.3312-1.0752-1.9456-0.3584-0.6144-0.7168-1.2288-1.024-1.8432a2185.6768 2185.6768 0 0 1-11.9808-21.5552c0.9216-36.8128 2.7648-64.7168 5.4784-82.944z m-107.264 335.9744c-0.5632 2.6112-1.1264 5.2736-1.6896 8.0384-4.2496 26.8288-14.6432 36.3008-38.0416 35.1744-25.088-1.28-27.9552-1.3312-28.1088-1.3312-0.2048 0-19.456-1.536-24.1152-25.7536-0.4608-2.3552-0.9728-6.1952-1.6384-11.264-0.4096-3.1744-0.9216-6.8608-1.536-10.9568 11.9808 1.1264 24.2176 2.0992 36.608 2.9696 0.9728 0.0512 1.9968 0.1536 2.9696 0.2048 4.5056 0.3072 8.96 0.6144 13.5168 0.8704 4.608 0.3072 9.2672 0.5632 13.9264 0.8192 2.4576 0.1536 4.9664 0.256 7.4752 0.3584 6.2464 0.3072 12.4928 0.5632 18.7392 0.8192 0.5632 0 1.2288 0 1.8944 0.0512z m215.5008-5.0688c-0.512 3.6352-0.9728 6.8608-1.3312 9.728-0.7168 5.1712-1.2288 9.0112-1.6896 11.4176-4.608 24.1152-23.3472 25.7024-23.9616 25.7536-0.1536 0-2.1504 0.0512-28.3136 1.3824-23.4496 1.1776-33.8432-8.3456-38.0928-35.328-0.5632-2.5088-1.0752-4.9664-1.5872-7.4752 0.8192 0 1.5872-0.0512 2.4064-0.1024 6.0928-0.2048 12.1856-0.4096 18.2272-0.6656l6.5536-0.3072c4.864-0.2048 9.7792-0.4608 14.6432-0.7168 4.9152-0.256 9.7792-0.5632 14.6944-0.8704 1.2288-0.1024 2.4576-0.1536 3.7376-0.256 11.7248-0.7168 23.296-1.5872 34.7136-2.56z m149.0944-65.8944c89.856-21.6576 108.7488-42.4448 108.7488-56.064 0-21.4016-48.384-42.1888-139.9808-60.16-5.5296-1.0752-10.24-4.5568-12.9024-9.5232-2.6624-4.9152-2.9696-10.752-0.9216-15.7184v-0.0512c0.0512-0.0512 0.0512-0.1024 0.1024-0.1536a18.78016 18.78016 0 0 1 20.992-11.264c78.6944 15.4112 172.4416 44.9536 172.4416 98.2528 0 63.8464-134.912 101.1712-294.5024 115.2512-0.1024 0-0.2048-0.0512-0.3072-0.0512-32.4608 2.8672-66.4064 4.864-100.9152 5.8368h-0.0512c-17.0496 0.4608-34.0992 0.7168-51.0464 0.7168-20.8896 0-41.984-0.3584-62.976-1.0752h-0.0512c-34.7136-1.2288-68.7616-3.4304-101.1712-6.6048-0.1024 0-0.2048 0.0512-0.3584 0.0512-154.1632-14.8992-282.2144-51.9168-282.2144-114.1248 0-51.456 88.0128-80.64 161.8432-96.0512 1.28-0.256 2.56-0.4096 3.84-0.4096 7.8336 0 15.0528 4.9664 17.7152 12.5952 1.7408 5.0688 1.2288 10.6496-1.3824 15.3088-2.6624 4.7104-7.2192 8.0384-12.4928 9.1136-79.0528 16.5376-126.464 38.9632-126.8224 59.904-0.2048 10.7008 13.312 31.9488 105.7792 54.2208 36.9152 8.9088 79.5648 15.872 125.9008 20.8896h0.2048c18.432 1.9968 37.4272 3.6352 56.8832 4.9664h0.256c19.3536 1.3312 39.168 2.304 59.3408 2.9184h0.4096c18.176 0.5632 36.608 0.8704 55.2448 0.8704 14.5408 0 28.9792-0.2048 43.264-0.512h0.0512c0.4608 0 0.8704-0.0512 1.3312-0.0512 8.6528-0.2048 17.2544-0.512 25.7536-0.8704 1.8944-0.0512 3.7376-0.1536 5.5808-0.256 18.1248-0.768 35.8912-1.8432 53.2992-3.1744 1.792-0.1536 3.5328-0.256 5.2736-0.4096 8.192-0.6656 16.2816-1.3824 24.2688-2.1504 0.3584-0.0512 0.768-0.0512 1.1264-0.1024 51.3536-5.0176 98.2528-12.4928 138.4448-22.1184z m8.3456-480.7168c42.9568 8.8576 68.3008 26.368 75.2128 52.0192 8.8576 32.6656-14.4384 72.0896-39.936 95.0272-117.4528 122.88-165.0688 258.2528-184.32 350.8736l-1.9456 0.1536c-7.424 0.7168-14.9504 1.3824-22.528 1.9456-1.6384 0.1536-3.2256 0.256-4.864 0.4096-16.896 1.28-34.1504 2.304-51.712 3.072-1.792 0.1024-3.6352 0.1536-5.4784 0.2048-7.5264 0.3072-15.104 0.5632-22.7328 0.768-1.024 0.0512-1.9968 0.0512-3.0208 0.1024-15.6672-97.2288-12.8512-173.1584-11.264-197.7856 2.9696 5.3248 7.2704 13.1072 12.1344 21.7088 0.1536 0.256 0.3072 0.512 0.4096 0.768 0.6144 1.1264 1.2288 2.2016 1.8944 3.3792 0.9728 1.7408 1.9456 3.4816 2.9696 5.2736 0.4096 0.7168 0.8192 1.3824 1.3312 1.9968 0.1024 0.1536 0.256 0.3072 0.4096 0.4608 0.3584 0.4608 0.7168 0.8704 1.1264 1.28 0.1536 0.1536 0.3584 0.3072 0.512 0.4608 0.4096 0.3584 0.768 0.7168 1.2288 1.024 0.2048 0.1536 0.4096 0.256 0.6144 0.4096 0.4096 0.3072 0.8704 0.5632 1.28 0.8192 0.2048 0.1024 0.4608 0.256 0.6656 0.3584l1.3824 0.6144c0.256 0.1024 0.512 0.2048 0.768 0.256 0.4608 0.1536 0.9216 0.256 1.3824 0.3584l0.8704 0.1536c0.4608 0.1024 0.9216 0.1536 1.3824 0.1536 0.3072 0.0512 0.6144 0.0512 0.9216 0.0512 0.1536 0 0.3072 0.0512 0.512 0.0512 0.512 0 1.0752 0 1.5872-0.0512 6.5536-0.6144 11.9808-4.864 14.1312-11.1104 1.28-3.6864 2.6112-7.3728 3.9424-11.0592 0.4096-1.1776 0.8192-2.304 1.2288-3.4816 1.0752-2.9184 2.2016-5.8368 3.2768-8.8064 0.768-1.9968 1.4848-4.0448 2.2528-6.0416 1.0752-2.7648 2.1504-5.4784 3.2768-8.2432 0.8704-2.2016 1.7408-4.4032 2.6112-6.656 1.0752-2.6624 2.2016-5.376 3.328-8.0384 0.9216-2.2528 1.8944-4.5568 2.816-6.8096 1.1264-2.6112 2.2528-5.2736 3.3792-7.8848 1.024-2.304 1.9968-4.6592 3.0208-6.9632 1.1264-2.6112 2.304-5.1712 3.4816-7.7824 1.0752-2.3552 2.0992-4.7104 3.1744-7.0144 1.1776-2.56 2.3552-5.12 3.5328-7.6288 1.0752-2.3552 2.2016-4.7104 3.2768-7.0656 1.1776-2.5088 2.4064-5.0688 3.6352-7.5776 1.1264-2.3552 2.2528-4.6592 3.3792-7.0144 1.2288-2.5088 2.4576-4.9664 3.6864-7.4752 1.1264-2.304 2.304-4.6592 3.4304-6.9632 1.2288-2.4576 2.4576-4.864 3.6864-7.3216l3.5328-6.912c1.2288-2.4064 2.4576-4.8128 3.7376-7.2192 1.1776-2.2528 2.3552-4.5568 3.5328-6.7584 1.2288-2.3552 2.5088-4.7104 3.7376-7.0656 1.024-1.9456 2.0992-3.8912 3.1232-5.8368 4.1472-7.6288 10.9056-19.968 20.8896-37.888 0.4608-0.768 0.8704-1.536 1.3312-2.304 1.2288-2.1504 2.4576-4.3008 3.6352-6.4 1.1264-1.9968 2.304-3.9936 3.4304-5.9904 1.1776-2.0992 2.4064-4.1472 3.584-6.1952 1.1264-1.9456 2.2528-3.84 3.3792-5.7856a631.7312 631.7312 0 0 1 6.7584-11.4176c1.1776-1.9968 2.3552-3.9936 3.5328-5.9392 1.024-1.6896 1.9968-3.328 2.9696-4.9664 1.1776-1.9456 2.3552-3.9424 3.5328-5.8368 0.9728-1.5872 1.8944-3.1232 2.8672-4.6592 1.1264-1.8432 2.2528-3.7376 3.3792-5.5296 0.9216-1.4848 1.792-2.9184 2.7136-4.352 1.1264-1.792 2.2528-3.6352 3.328-5.376 0.8192-1.28 1.5872-2.5088 2.3552-3.7888 1.1264-1.792 2.2528-3.584 3.328-5.2736 0.7168-1.1264 1.3824-2.2016 2.0992-3.328 1.1264-1.7408 2.2528-3.5328 3.2768-5.2224 0.512-0.8192 0.9728-1.536 1.4848-2.304 1.1776-1.8432 2.3552-3.7376 3.4816-5.4784 0.3072-0.4608 0.5632-0.9216 0.8704-1.3824 10.496-16.3328 18.0224-27.4432 20.8896-31.6928 11.8784 6.2464 21.9648 7.2192 31.744 8.0896 4.1984 0.3584 8.1408 0.7168 12.1344 1.4336z m-5.0688-63.8976c-12.1344-16.5376-23.6544-20.3776-39.5264-20.3776-4.1472 0-8.6016 0.256-13.4144 0.6144v-31.5392l0.6656 0.0512c9.984 0.5632 21.4016 1.2288 32.1536 4.5568 7.168 2.2016 14.1312 5.5296 20.1216 10.8544l0.768 0.6144c65.8432 57.5488 126.3104 31.1296 152.0128 14.6432l16.4864 53.504c-17.408 4.7616-122.7264 30.5664-169.2672-32.9216z" fill="#472F7E" p-id="2030"></path></svg>