<?xml version="1.0" standalone="no"?><!DOCTYPE svg PUBLIC "-//W3C//DTD SVG 1.1//EN" "http://www.w3.org/Graphics/SVG/1.1/DTD/svg11.dtd"><svg t="1667459861581" class="icon" viewBox="0 0 1024 1024" version="1.1" xmlns="http://www.w3.org/2000/svg" p-id="1808" xmlns:xlink="http://www.w3.org/1999/xlink" width="200" height="200"><path d="M510.976 529.92m-389.5808 0a389.5808 389.5808 0 1 0 779.1616 0 389.5808 389.5808 0 1 0-779.1616 0Z" fill="#4B8DFD" p-id="1809"></path><path d="M275.4048 840.1408c-9.4208-7.168-18.5344-14.6944-27.2384-22.6816l-48.7936 48.7936c-6.8096-3.1232-14.336-4.9152-22.3232-4.9152-29.5936 0-53.6064 24.0128-53.6064 53.6064s24.0128 53.6064 53.6064 53.6064 53.6064-24.0128 53.6064-53.6064c0-8.7552-2.1504-16.9472-5.8368-24.2176l50.5856-50.5856zM747.0592 840.1408c9.4208-7.168 18.5344-14.6944 27.2384-22.6816l48.7936 48.7936c6.8096-3.1232 14.336-4.9152 22.3232-4.9152 29.5936 0 53.6064 24.0128 53.6064 53.6064s-24.0128 53.6064-53.6064 53.6064-53.6064-24.0128-53.6064-53.6064c0-8.7552 2.1504-16.9472 5.8368-24.2176l-50.5856-50.5856z" fill="#4B8DFD" p-id="1810"></path><path d="M510.976 529.92m-256.2048 0a256.2048 256.2048 0 1 0 512.4096 0 256.2048 256.2048 0 1 0-512.4096 0Z" fill="#FEF2E9" p-id="1811"></path><path d="M334.2848 124.4672S171.8784 198.3488 107.1616 349.2864C28.7232 270.8992 39.168 170.24 95.3856 112.6912s145.7664-98.048 238.8992 11.776zM694.528 124.4672s162.4064 73.8816 227.1232 224.8192c78.4384-78.4384 67.9936-179.0976 11.776-236.5952-56.2176-57.4976-145.7664-98.048-238.8992 11.776z" fill="#F29727" p-id="1812"></path><path d="M510.976 529.92m-36.4032 0a36.4032 36.4032 0 1 0 72.8064 0 36.4032 36.4032 0 1 0-72.8064 0Z" fill="#4B8DFD" p-id="1813"></path><path d="M633.9584 514.2528h-90.1632c2.2528 4.7616 3.584 10.0864 3.584 15.6672s-1.3312 10.9056-3.584 15.6672h90.1632a15.6672 15.6672 0 1 0 0-31.3344z" fill="#F29727" p-id="1814"></path><path d="M510.976 493.5168c5.6832 0 11.008 1.3312 15.7696 3.6352V371.7632a15.6672 15.6672 0 1 0-31.3344 0v125.2864c4.7104-2.2528 9.984-3.5328 15.5648-3.5328z" fill="#FD6758" p-id="1815"></path><path d="M842.9568 326.0928c-68.5568-111.4112-191.5904-185.7024-331.9808-185.7024-215.1424 0-389.5808 174.3872-389.5808 389.5808 0 87.7568 29.0304 168.7552 78.0288 233.8816-97.6384-305.7664 36.864-447.1296 89.8048-490.0864 270.592-196.3008 550.6048 49.4592 553.728 52.3264z" fill="#76A4FF" p-id="1816"></path><path d="M863.9488 365.1072c1.0752 7.8336 53.4528 393.6768-259.0208 500.48-48.9984 9.8816-224.7168 55.0912-405.504-101.8368 71.0656 94.5152 184.1664 155.6992 311.552 155.6992 215.1424 0 389.5296-174.3872 389.5296-389.5808 0-58.88-13.1584-114.688-36.5568-164.7616z" fill="#4479E2" p-id="1817"></path><path d="M510.976 273.7152c-141.5168 0-256.2048 114.688-256.2048 256.2048 0 35.7888 7.3728 69.888 20.6336 100.8128-31.4368-132.9152 48.4864-261.7856 138.7008-306.2272 131.9424-70.5536 297.4208 46.1312 297.6768 46.336-47.0016-59.136-119.4496-97.1264-200.8064-97.1264z" fill="#FFFFFF" p-id="1818"></path><path d="M585.3184 732.3648c-53.0432 20.0192-214.528 42.7008-288.8704-62.4128 45.7728 69.9392 124.7232 116.1728 214.528 116.1728 141.5168 0 256.2048-114.688 256.2048-256.2048 0-45.312-11.776-87.808-32.4096-124.7232 0.7168 4.1984 43.7248 257.1776-149.4528 327.168zM275.3536 630.7328s0 0.0512 0.0512 0.0512l-0.0512-0.0512z" fill="#F6D1B8" p-id="1819"></path><path d="M546.8672 523.9808a36.352 36.352 0 0 0-35.8912-30.464c-20.1216 0-36.4032 16.2816-36.4032 36.4032 0 8.3968 2.8672 16.0768 7.6288 22.2208-2.6624-6.9632-6.1952-32.0512 18.3296-42.5472 24.4224-10.496 46.08 14.1312 46.336 14.3872z" fill="#76A4FF" p-id="1820"></path><path d="M519.6288 554.2912c-12.0832 4.2496-27.5456 4.2496-37.4784-2.0992a36.33664 36.33664 0 0 0 28.8256 14.1824c20.1216 0 36.4032-16.2816 36.4032-36.4032 0-2.048-0.2048-3.9936-0.512-5.9392 0 0-8.96 24.3712-27.2384 30.2592z" fill="#4479E2" p-id="1821"></path><path d="M511.0784 356.096a15.6672 15.6672 0 0 0-15.6672 15.6672v125.2864c2.1504-1.024 4.4544-1.8432 6.8096-2.4064v-122.88c0-3.9936 3.9424-7.7824 8.8576-7.7824 12.1856 0 15.6672 7.7824 15.6672 7.7824a15.6672 15.6672 0 0 0-15.6672-15.6672z" fill="#FF7E78" p-id="1822"></path><path d="M633.9584 514.2528h-90.1632c0.9728 1.9968 1.6896 4.1472 2.304 6.3488h87.2448c12.9024 0 15.7184 6.144 16.2304 9.8304 0-0.1536 0.0512-0.3072 0.0512-0.4608 0-8.704-7.0144-15.7184-15.6672-15.7184z" fill="#F47706" p-id="1823"></path><path d="M95.3856 112.6912c-42.9056 43.8784-59.0848 112.896-29.5424 177.9712-20.0192-115.3536 65.536-180.8896 121.088-205.056 55.552-24.1664 147.3536 38.8608 147.3536 38.8608-93.1328-109.824-182.6816-69.2736-238.8992-11.776z" fill="#F7AC5C" p-id="1824"></path><path d="M253.0816 821.76c-1.6384-1.4336-3.328-2.816-4.9152-4.3008l-48.7936 48.7936c-6.8096-3.1232-14.336-4.9152-22.3232-4.9152-29.5936 0-53.6064 24.0128-53.6064 53.6064 0 15.2576 6.4 28.9792 16.5888 38.7072-23.552-43.9808-0.2048-65.3824 4.0448-69.3248 22.8864-19.6096 55.296-6.8608 55.296-6.8608l53.7088-55.7056z" fill="#76A4FF" p-id="1825"></path><path d="M269.1584 835.1744l-57.1392 55.808s16.1792 30.1568-4.4032 54.8864c-7.5776 7.8336-37.888 27.392-67.5328 7.7824 9.6256 9.216 22.6304 14.848 36.9664 14.848 29.5936 0 53.6064-24.0128 53.6064-53.6064 0-8.7552-2.1504-16.9472-5.8368-24.2176l50.5344-50.5344c-2.0992-1.6384-4.096-3.328-6.1952-4.9664z" fill="#4479E2" p-id="1826"></path><path d="M816.4864 960.0512c-33.2288-24.832-6.656-70.0416-6.656-70.0416l-56.32-54.9888c-2.1504 1.6896-4.2496 3.4816-6.4512 5.12l50.5344 50.5344c-3.6864 7.2704-5.8368 15.5136-5.8368 24.2176 0 18.9952 9.8816 35.584 24.7296 45.1584z" fill="#76A4FF" p-id="1827"></path><path d="M898.9696 914.8928c0-14.8992-6.0928-28.3648-15.9232-38.0928 0.0512 0.1536 14.6432 44.5952-6.912 65.28-21.5552 20.6848-51.2512 26.112-71.8848 7.2192v0.0512c9.8304 11.7248 24.576 19.1488 41.0624 19.1488 29.6448 0 53.6576-23.9616 53.6576-53.6064z" fill="#4479E2" p-id="1828"></path><path d="M334.2848 124.4672s-160.0512 3.1744-249.088 199.168a223.5392 223.5392 0 0 0 21.9648 25.7024c64.6656-150.9888 227.1232-224.8704 227.1232-224.8704z" fill="#F47706" p-id="1829"></path><path d="M933.4272 112.6912c-56.2176-57.4976-145.7664-98.048-238.8992 11.776 0 0 10.3936 4.7616 26.9824 14.2336 12.3392-20.6336 60.8256-54.4768 95.0272-56.7808 72.3456-2.4064 149.1968 79.5648 149.1968 79.5648-7.68-18.176-18.6368-34.7648-32.3072-48.7936z" fill="#F7AC5C" p-id="1830"></path><path d="M921.6512 349.3376c59.3408-59.3408 67.7888-131.3792 44.032-187.8528 0 0.0512 9.1648 72.192-37.888 144.7424-20.2752-33.9968-77.3632-138.2912-206.336-167.5264 48.9472 28.0576 151.8592 97.792 200.192 210.6368z" fill="#F47706" p-id="1831"></path><path d="M903.0656 529.92c0-216.2176-175.9232-392.0896-392.1408-392.0896S118.8352 313.7024 118.8352 529.92c0 113.4592 48.4864 215.7568 125.7472 287.4368l-45.824 45.824c-6.9632-2.9184-14.2336-4.4032-21.76-4.4032-30.976 0-56.1664 25.1904-56.1664 56.1664s25.1904 56.1664 56.1664 56.1664 56.1664-25.1904 56.1664-56.1664c0-8.2432-1.792-16.2304-5.2736-23.7056l47.7696-47.7696c65.5872 49.3568 147.0464 78.6432 235.264 78.6432 88.32 0 169.9328-29.3888 235.52-78.848l48.0256 48.0256c-3.5328 7.4752-5.2736 15.4624-5.2736 23.7056 0 30.976 25.1904 56.1664 56.1664 56.1664s56.1664-25.1904 56.1664-56.1664-25.1904-56.1664-56.1664-56.1664c-7.4752 0-14.7968 1.4848-21.76 4.4032l-46.08-46.08c77.1584-71.68 125.5424-173.8752 125.5424-287.232zM223.0272 888.8832c-0.768 0.768-0.9728 1.9968-0.4608 2.9696a50.4832 50.4832 0 0 1 5.5296 23.0912c0 28.16-22.8864 51.0464-51.0464 51.0464-28.16 0-51.0464-22.8864-51.0464-51.0464s22.8864-51.0464 51.0464-51.0464c7.3216 0 14.4896 1.5872 21.248 4.6592 0.9728 0.4608 2.1504 0.256 2.8672-0.512l47.0528-47.0528c7.3728 6.656 15.1552 13.1584 23.296 19.4048l-48.4864 48.4864z m601.088-20.3264c6.7584-3.1232 13.8752-4.6592 21.248-4.6592 28.16 0 51.0464 22.8864 51.0464 51.0464s-22.8864 51.0464-51.0464 51.0464-51.0464-22.8864-51.0464-51.0464c0-8.0896 1.8944-15.8208 5.5296-23.0912 0.512-0.9728 0.3072-2.2016-0.4608-2.9696l-48.4864-48.4864c8.0896-6.2464 15.9232-12.7488 23.2448-19.4048l47.0528 47.0528c0.8192 0.768 1.9456 0.9728 2.9184 0.512z m-313.1392 48.384c-213.4016 0-386.9696-173.6192-386.9696-386.9696s173.568-387.0208 386.9696-387.0208 387.0208 173.6192 387.0208 386.9696-173.6192 387.0208-387.0208 387.0208z" fill="#472F7E" p-id="1832"></path><path d="M510.976 271.1552c-142.6944 0-258.7648 116.0704-258.7648 258.7648s116.0704 258.7648 258.7648 258.7648 258.7648-116.0704 258.7648-258.7648-116.0704-258.7648-258.7648-258.7648z m0 512.4608c-139.8784 0-253.6448-113.7664-253.6448-253.6448S371.0976 276.3264 510.976 276.3264s253.6448 113.7664 253.6448 253.6448c0 139.8272-113.7664 253.6448-253.6448 253.6448zM335.3088 126.8224a2.4576 2.4576 0 0 0 1.4336-1.792 2.64704 2.64704 0 0 0-0.5632-2.2016C298.1376 77.9264 257.536 54.3744 215.552 52.8896c-1.4336-0.0512-2.816-0.0512-4.2496-0.0512-50.2272 0-91.5968 31.3856-117.76 58.112C38.8096 166.912 24.32 270.1312 105.3184 351.1296c0.4608 0.4608 1.1264 0.768 1.792 0.768 0.1536 0 0.3072 0 0.4608-0.0512 0.8192-0.1536 1.536-0.7168 1.8944-1.4848 63.5904-148.3264 224.256-222.8224 225.8432-223.5392zM106.2912 344.832C30.6176 266.5984 44.8 168.1408 97.1776 114.4832c25.4464-26.0096 65.5872-56.5248 114.0736-56.5248 1.3312 0 2.7136 0 4.0448 0.0512 39.68 1.3824 78.336 23.4496 114.7904 65.5872-22.4768 11.1104-163.4304 84.736-223.7952 221.2352zM931.328 110.8992c-26.8288-27.4944-69.9392-59.8016-122.0096-58.0096-41.984 1.4848-82.5856 24.9856-120.6784 69.9392-0.512 0.6144-0.7168 1.4336-0.5632 2.2016 0.1536 0.768 0.7168 1.4336 1.4336 1.792 1.6384 0.7168 162.2528 75.2128 225.8432 223.5392 0.3584 0.768 1.024 1.3312 1.8944 1.4848 0.1536 0.0512 0.3072 0.0512 0.4608 0.0512 0.6656 0 1.3312-0.256 1.792-0.768 81.0496-80.9984 66.56-184.2176 11.8272-240.2304z m-12.7488 233.9328c-60.3648-136.4992-201.3184-210.1248-223.8464-221.2352 36.5056-42.1376 75.1104-64.2048 114.7904-65.5872 50.176-1.7408 92.0064 29.7472 118.1696 56.4736 52.3776 53.6576 66.56 152.1152-9.1136 230.3488z" fill="#472F7E" p-id="1833"></path><path d="M633.9584 511.6928h-88.576a39.3472 39.3472 0 0 0-16.0768-16.128V371.7632c0-10.0864-8.192-18.2272-18.2272-18.2272s-18.2272 8.192-18.2272 18.2272v123.6992c-12.3904 6.5536-20.8384 19.5072-20.8384 34.4576 0 21.504 17.4592 38.9632 38.9632 38.9632 14.8992 0 27.8528-8.3968 34.4064-20.736h88.576c10.0352 0 18.2272-8.192 18.2272-18.2272s-8.192-18.2272-18.2272-18.2272z m-135.9872-18.4832V371.7632c0-7.2192 5.888-13.1072 13.1072-13.1072s13.1072 5.888 13.1072 13.1072v121.5488c-0.1536-0.0512-0.256-0.1024-0.4096-0.1536-0.768-0.256-1.4848-0.512-2.2528-0.7168-0.4608-0.1536-0.9728-0.256-1.4848-0.3584-0.6144-0.1536-1.2288-0.3072-1.8432-0.4096-0.7168-0.1536-1.4336-0.256-2.1504-0.3072-0.4608-0.0512-0.9216-0.1536-1.3824-0.2048-1.2288-0.1024-2.4576-0.2048-3.6864-0.2048-2.048 0-4.096 0.2048-6.0928 0.512l-0.8704 0.1536c-2.048 0.3584-3.9936 0.8704-5.888 1.536-0.0512 0.0512-0.1024 0.0512-0.1536 0.0512z m13.0048 70.5536c-18.688 0-33.8432-15.2064-33.8432-33.8432 0-13.5168 7.9872-25.1904 19.456-30.6176 6.912-3.2768 14.6432-4.0448 21.9136-2.3552h0.0512c1.1776 0.256 2.3552 0.6144 3.5328 1.024 0.0512 0 0.1024 0.0512 0.1536 0.0512a33.93536 33.93536 0 0 1 19.3024 17.408c0.512 1.0752 0.9216 2.1504 1.3312 3.2256 0.0512 0.1024 0.0512 0.2048 0.1024 0.3072 0.3584 1.024 0.6656 2.048 0.9216 3.1232l0.1536 0.5632c0.2048 0.9728 0.3584 1.9456 0.512 2.9696 0.0512 0.256 0.1024 0.4608 0.1024 0.7168 0.1536 1.2288 0.2048 2.4064 0.2048 3.6352s-0.0512 2.4576-0.2048 3.6352c0 0.256-0.1024 0.4608-0.1024 0.7168-0.1536 0.9728-0.3072 1.9456-0.512 2.9184l-0.1536 0.5632c-0.256 1.024-0.5632 2.0992-0.9216 3.1232-0.0512 0.1024-0.0512 0.2048-0.1024 0.3072-0.4096 1.0752-0.8192 2.1504-1.3312 3.2256-5.4784 11.3664-17.1008 19.3024-30.5664 19.3024z m122.9824-20.6848h-86.3232c0-0.0512 0.0512-0.1024 0.0512-0.2048 0.6656-1.9456 1.2288-3.9424 1.5872-5.9904 0.0512-0.256 0.1024-0.5632 0.1024-0.8192 0.3072-1.9968 0.512-4.0448 0.512-6.144s-0.2048-4.1472-0.512-6.144c-0.0512-0.256-0.0512-0.5632-0.1024-0.8192-0.3584-2.048-0.9216-4.0448-1.5872-5.9904 0-0.0512-0.0512-0.1536-0.0512-0.2048h86.3232c7.2192 0 13.1072 5.888 13.1072 13.1072a13.1584 13.1584 0 0 1-13.1072 13.2096z" fill="#472F7E" p-id="1834"></path></svg>