<?xml version="1.0" standalone="no"?><!DOCTYPE svg PUBLIC "-//W3C//DTD SVG 1.1//EN" "http://www.w3.org/Graphics/SVG/1.1/DTD/svg11.dtd"><svg t="1667459765244" class="icon" viewBox="0 0 1024 1024" version="1.1" xmlns="http://www.w3.org/2000/svg" p-id="1341" xmlns:xlink="http://www.w3.org/1999/xlink" width="200" height="200"><path d="M332.9536 344.5504m-210.6112 0a210.6112 210.6112 0 1 0 421.2224 0 210.6112 210.6112 0 1 0-421.2224 0Z" fill="#FFE08A" p-id="1342"></path><path d="M736.7936 924.16H388.4032c-56.32 0-101.9648-45.6448-101.9648-101.9648V337.9712h552.2944v484.224c0.0256 56.32-45.6192 101.9648-101.9392 101.9648z" fill="#77C5E8" p-id="1343"></path><path d="M736.7936 947.2H388.4032c-68.9152 0-125.0048-56.0896-125.0048-125.0048V337.9712a23.04 23.04 0 0 1 23.04-23.04h552.32a23.04 23.04 0 0 1 23.04 23.04v484.224c0 68.9152-56.0896 125.0048-125.0048 125.0048zM309.4784 361.0112v461.184c0 43.52 35.4048 78.9248 78.9248 78.9248H736.768c43.52 0 78.9248-35.4048 78.9248-78.9248V361.0112H309.4784z" fill="#474E54" p-id="1344"></path><path d="M706.4576 836.0448H418.7392c-24.2688 0-43.9296-19.6608-43.9296-43.9296V512h375.5776v280.1152c0 24.2432-19.6608 43.9296-43.9296 43.9296z" fill="#FFA869" p-id="1345"></path><path d="M673.8176 520.8832v249.0368s2.6112 58.1632-43.136 58.1632h111.7696V525.4656l-68.6336-4.5824z" fill="#F79857" p-id="1346"></path><path d="M706.4576 859.0848H418.7392c-36.9152 0-66.9696-30.0544-66.9696-66.9696V512a23.04 23.04 0 0 1 23.04-23.04h375.5776a23.04 23.04 0 0 1 23.04 23.04v280.1152c0 36.9152-30.0544 66.9696-66.9696 66.9696zM397.8496 535.04v257.0752c0 11.52 9.3696 20.8896 20.8896 20.8896h287.6928c11.52 0 20.8896-9.3696 20.8896-20.8896V535.04h-329.472z" fill="#474E54" p-id="1347"></path><path d="M459.392 770.56c-9.9072 0-17.92-8.0128-17.92-17.92v-158.2848c0-9.9072 8.0128-17.92 17.92-17.92s17.92 8.0128 17.92 17.92V752.64c0 9.9072-8.0384 17.92-17.92 17.92z" fill="#F7F8F8" p-id="1348"></path><path d="M225.9968 361.0624H119.1168c-8.4736 0-15.36-6.8864-15.36-15.36s6.8864-15.36 15.36-15.36h106.8544c8.4736 0 15.36 6.8864 15.36 15.36s-6.8608 15.36-15.3344 15.36zM270.1056 305.1776c-3.7376 0-7.4752-1.3568-10.4448-4.096l-93.1328-86.272a15.34464 15.34464 0 0 1-0.8192-21.7088 15.34464 15.34464 0 0 1 21.7088-0.8192l93.1328 86.272a15.34464 15.34464 0 0 1 0.8192 21.7088 15.26016 15.26016 0 0 1-11.264 4.9152zM322.2784 295.3728c-8.4736 0-15.36-6.8864-15.36-15.36V138.8288c0-8.4736 6.8864-15.36 15.36-15.36s15.36 6.8864 15.36 15.36v141.184c0 8.4992-6.8608 15.36-15.36 15.36zM383.8464 311.0656c-3.8144 0-7.6544-1.408-10.624-4.2752a15.36 15.36 0 0 1-0.4608-21.7088l92.16-96.0768a15.36 15.36 0 0 1 21.7088-0.4608 15.36 15.36 0 0 1 0.4608 21.7088l-92.16 96.0768a15.34208 15.34208 0 0 1-11.0848 4.736zM176.9728 501.2736a15.3856 15.3856 0 0 1-11.648-5.3248 15.36 15.36 0 0 1 1.6128-21.6576l63.7184-54.912a15.36 15.36 0 0 1 21.6576 1.6128 15.36 15.36 0 0 1-1.6128 21.6576l-63.7184 54.912a15.31904 15.31904 0 0 1-10.0096 3.712z" fill="#EAA242" p-id="1349"></path><path d="M710.9888 333.6448h-89.6V233.4464c0-76.8768 62.5408-139.4176 139.4176-139.4176h151.4752v89.6h-151.4752c-27.4688 0-49.8176 22.3488-49.8176 49.8176v100.1984z" fill="#FEDD77" p-id="1350"></path><path d="M710.9888 356.6848h-89.6a23.04 23.04 0 0 1-23.04-23.04V233.4464c0-89.5744 72.8832-162.4576 162.4576-162.4576h151.4752a23.04 23.04 0 0 1 23.04 23.04v89.6a23.04 23.04 0 0 1-23.04 23.04h-151.4752c-14.7712 0-26.7776 12.0064-26.7776 26.7776v100.1984a23.04 23.04 0 0 1-23.04 23.04z m-66.56-46.08h43.52V233.4464c0-40.1664 32.6912-72.8576 72.8576-72.8576h128.4352v-43.52h-128.4352c-64.1792 0-116.3776 52.1984-116.3776 116.3776v77.1584zM227.5072 564.5568c-3.584 0-7.2192-0.8448-10.624-2.6112-80.8448-42.112-131.0464-124.8256-131.0464-215.9104 0-134.1696 109.1328-243.3024 243.3024-243.3024 101.2224 0 192.896 63.7184 228.1472 158.5664 4.4288 11.9296-1.6384 25.1904-13.568 29.6192-11.9296 4.4288-25.1904-1.6384-29.6192-13.568-28.5696-76.8768-102.8864-128.5376-184.9344-128.5376-108.7488 0-197.2224 88.4736-197.2224 197.2224 0 73.8304 40.704 140.9024 106.24 175.0528a23.05792 23.05792 0 0 1 9.8048 31.0784 23.1296 23.1296 0 0 1-20.48 12.3904zM405.4016 947.2H119.1168a23.04 23.04 0 0 1 0-46.08h286.2848a23.04 23.04 0 0 1 0 46.08z" fill="#474E54" p-id="1351"></path></svg>